<?xml version="1.0" encoding="UTF-8" standalone="no"?>
<svg
   xmlns:dc="http://purl.org/dc/elements/1.1/"
   xmlns:cc="http://creativecommons.org/ns#"
   xmlns:rdf="http://www.w3.org/1999/02/22-rdf-syntax-ns#"
   xmlns:svg="http://www.w3.org/2000/svg"
   xmlns="http://www.w3.org/2000/svg"
   xmlns:sodipodi="http://sodipodi.sourceforge.net/DTD/sodipodi-0.dtd"
   xmlns:inkscape="http://www.inkscape.org/namespaces/inkscape"
   width="11in"
   height="8.5in"
   viewBox="0 0 279.4 215.9"
   version="1.1"
   id="svg1491"
   inkscape:version="1.0.1 (3bc2e813f5, 2020-09-07)"
   sodipodi:docname="Dialogs.svg">
  <defs
     id="defs1485">
    <clipPath
       clipPathUnits="userSpaceOnUse"
       id="clipPath5527">
      <path
         d="M 0,0 H 1024 V 768 H 0 Z"
         id="path5529"
         inkscape:connector-curvature="0" />
    </clipPath>
  </defs>
  <sodipodi:namedview
     id="base"
     pagecolor="#ffffff"
     bordercolor="#666666"
     borderopacity="1.0"
     inkscape:pageopacity="0.0"
     inkscape:pageshadow="2"
     inkscape:zoom="0.60171569"
     inkscape:cx="528"
     inkscape:cy="408"
     inkscape:document-units="mm"
     inkscape:current-layer="layer1"
     inkscape:document-rotation="0"
     showgrid="false"
     units="in"
     inkscape:window-width="1264"
     inkscape:window-height="681"
     inkscape:window-x="0"
     inkscape:window-y="8"
     inkscape:window-maximized="0" />
  <metadata
     id="metadata1488">
    <rdf:RDF>
      <cc:Work
         rdf:about="">
        <dc:format>image/svg+xml</dc:format>
        <dc:type
           rdf:resource="http://purl.org/dc/dcmitype/StillImage" />
        <dc:title></dc:title>
      </cc:Work>
    </rdf:RDF>
  </metadata>
  <g
     inkscape:label="Layer 1"
     inkscape:groupmode="layer"
     id="layer1">
    <path
       style="display:inline;opacity:1;fill:#3cff2d;fill-opacity:1;fill-rule:evenodd;stroke:none;stroke-width:0.282223px;stroke-linecap:butt;stroke-linejoin:miter;stroke-opacity:1"
       d="m 34.310309,136.6221 c 6.471392,-7.76567 16.561359,-11.11385 27.577271,-10.13984 8.605734,0.76091 20.418967,6.78709 36.276473,20.70846 9.534727,8.37059 27.616577,17.37086 43.476127,17.14855 -17.15647,15.63986 -60.544916,30.27263 -92.715636,22.91721 -23.05496,-5.27122 -24.612497,-27.62221 -22.023938,-36.25074 11.00798,11.81921 33.129866,31.45079 69.22012,23.73673 C 54.809663,180.31261 34.310309,136.6221 34.310309,136.6221 Z"
       id="path3400"
       inkscape:connector-curvature="0"
       sodipodi:nodetypes="csscsccc" />
    <path
       style="display:inline;opacity:1;fill:#ffd52d;fill-opacity:1;fill-rule:evenodd;stroke:none;stroke-width:0.282223"
       d="M 71.76919,13.034411 31.446332,43.659593 H 41.714629 V 89.060037 H 57.535912 V 59.881811 H 86.003189 V 89.060037 H 101.82447 V 43.659593 h 10.26758 z"
       id="path298"
       inkscape:connector-curvature="0" />
    <path
       inkscape:connector-curvature="0"
       id="path266"
       style="display:inline;opacity:1;fill:#3fe8ed;fill-opacity:1;fill-rule:evenodd;stroke:none;stroke-width:0.282223"
       d="m 209.93633,44.995197 c 18.25262,-4.835861 27.42248,8.930364 28.28803,19.045425 6.94612,-0.0088 12.35812,4.316669 12.62909,11.607641 0,6.434762 -5.21508,11.648205 -11.65004,11.648205 H 157.0361 c -10.79843,0 -18.63386,-7.118678 -18.8887,-18.889501 -0.25483,-11.770823 14.44914,-22.606191 26.64238,-17.227876 5.96326,-26.278471 36.26438,-25.808125 45.14655,-6.183894 z"
       sodipodi:nodetypes="cccsszcc" />
    <g
       style="display:inline;opacity:1"
       transform="matrix(0.45821428,0,0,-0.45821428,142.77257,367.96898)"
       id="g5523">
      <g
         id="g5525"
         clip-path="url(#clipPath5527)">
        <g
           id="g5531"
           transform="translate(182.2778,458.9955)">
          <path
             style="fill:#000000;fill-opacity:1;fill-rule:nonzero;stroke:none"
             d="m 0,0 c 0.42801249,20.269214 -11.032959,38.263127 -24.216484,52.705654 -10.134082,12.898835 -26.004755,30.308922 -28.48437,47.175444 -0.890044,6.054142 -1.709638,10.178202 -4.613508,10.186002 -3.487721,0.009 -2.554617,-7.3682 -2.524638,-11.112299 V -60.289 c -15.941171,10.697799 -37.994231,3.882694 -50.472,-9.109957 -8.80899,-8.54184 -13.96557,-24.482363 -4.85775,-34.570823 10.84333,-10.22613 28.024207,-7.02272 40.038374,-0.79516 12.57018,6.279176 22.080073,19.615598 20.690376,34.045899 V 50.616 c 19.636914,-0.483412 34.081214,-16.99474 42.756789,-33.059318 9.4309904,-19.433252 2.9534266,-41.822357 -5.450863,-60.36242 -1.765859,-4.104792 -2.390099,-13.917216 -0.565163,-10.431232 C -9.185865,-36.604112 -0.09577085,-19.2248 0,0 Z"
             id="path5533"
             inkscape:connector-curvature="0"
             sodipodi:nodetypes="ccssccccccccccc" />
        </g>
      </g>
    </g>
  </g>
</svg>
