<?xml version="1.0" encoding="UTF-8" standalone="no"?>
<svg
   xmlns:dc="http://purl.org/dc/elements/1.1/"
   xmlns:cc="http://creativecommons.org/ns#"
   xmlns:rdf="http://www.w3.org/1999/02/22-rdf-syntax-ns#"
   xmlns:svg="http://www.w3.org/2000/svg"
   xmlns="http://www.w3.org/2000/svg"
   xmlns:sodipodi="http://sodipodi.sourceforge.net/DTD/sodipodi-0.dtd"
   xmlns:inkscape="http://www.inkscape.org/namespaces/inkscape"
   width="11in"
   height="8.5in"
   viewBox="0 0 990 764.99999"
   id="svg2"
   version="1.1"
   inkscape:version="1.0.1 (3bc2e813f5, 2020-09-07)"
   sodipodi:docname="PanZoom.svg">
  <defs
     id="defs4">
    <clipPath
       clipPathUnits="userSpaceOnUse"
       id="clipPath5527">
      <path
         d="m 0,0 1024,0 0,768 L 0,768 0,0 Z"
         id="path5529"
         inkscape:connector-curvature="0" />
    </clipPath>
  </defs>
  <sodipodi:namedview
     id="base"
     pagecolor="#ffffff"
     bordercolor="#666666"
     borderopacity="1.0"
     inkscape:pageopacity="0.0"
     inkscape:pageshadow="2"
     inkscape:zoom="0.57230392"
     inkscape:cx="528"
     inkscape:cy="408"
     inkscape:document-units="px"
     inkscape:current-layer="layer1"
     showgrid="false"
     inkscape:window-width="1231"
     inkscape:window-height="657"
     inkscape:window-x="0"
     inkscape:window-y="0"
     inkscape:window-maximized="0"
     units="in"
     inkscape:snap-nodes="false"
     inkscape:document-rotation="0" />
  <metadata
     id="metadata7">
    <rdf:RDF>
      <cc:Work
         rdf:about="">
        <dc:format>image/svg+xml</dc:format>
        <dc:type
           rdf:resource="http://purl.org/dc/dcmitype/StillImage" />
        <dc:title />
      </cc:Work>
    </rdf:RDF>
  </metadata>
  <g
     inkscape:label="Source"
     inkscape:groupmode="layer"
     id="layer1"
     transform="translate(0,-287.36221)"
     style="display:inline;opacity:1">
    <path
       style="display:inline;opacity:1;fill:#3cff2d;fill-opacity:1;fill-rule:evenodd;stroke:none;stroke-width:1px;stroke-linecap:butt;stroke-linejoin:miter;stroke-opacity:1"
       d="m 121.57196,484.09399 c 22.93013,-27.51617 58.68198,-39.37981 97.71474,-35.92857 30.49275,2.69614 72.35067,24.04874 128.53868,73.37644 33.78448,29.65956 97.85399,61.55029 154.04924,60.76255 -60.79064,55.41684 -214.5292,107.26522 -328.51994,81.20271 C 91.663879,644.82957 86.145049,565.63316 95.317108,535.05963 134.32176,576.93874 212.70639,646.49943 340.58524,619.16616 194.20747,638.90288 121.57196,484.09399 121.57196,484.09399 Z"
       id="path3400"
       inkscape:connector-curvature="0"
       sodipodi:nodetypes="csscsccc"
       transform="translate(0,287.36221)" />
    <path
       style="display:inline;fill:#ffd52d;fill-opacity:1;fill-rule:evenodd;stroke:none"
       d="M 254.30028,333.54706 111.42401,442.06148 h 36.38373 V 602.92919 H 203.8674 V 499.54178 h 100.8683 v 103.38741 h 56.05964 V 442.06148 h 36.3812 z"
       id="path298"
       inkscape:connector-curvature="0" />
    <path
       inkscape:connector-curvature="0"
       id="path266"
       style="display:inline;fill:#3fe8ed;fill-opacity:1;fill-rule:evenodd;stroke:none"
       d="m 743.86885,446.79393 c 64.67465,-17.13494 97.16626,31.64303 100.2332,67.48379 24.61223,-0.0312 43.78859,15.29529 44.74871,41.12944 0,22.80034 -18.47863,41.27316 -41.27965,41.27316 l -291.14399,0 c -38.26218,0 -66.02551,-25.22366 -66.92846,-66.9313 -0.90295,-41.70764 51.1977,-80.10067 94.4021,-61.04365 21.12967,-93.11269 128.49585,-91.44611 159.96809,-21.91144 z"
       sodipodi:nodetypes="cccsszcc" />
    <g
       style="display:inline"
       transform="matrix(1.6235939,0,0,-1.6235939,505.88704,1591.1893)"
       id="g5523">
      <g
         id="g5525"
         clip-path="url(#clipPath5527)"
         style="">
        <g
           id="g5531"
           transform="translate(182.2778,458.9955)"
           style="">
          <path
             style="fill:#000000;fill-opacity:1;fill-rule:nonzero;stroke:none"
             d="m 0,0 c 0.42801249,20.269214 -11.032959,38.263127 -24.216484,52.705654 -10.134082,12.898835 -26.004755,30.308922 -28.48437,47.175444 -0.890044,6.054142 -1.709638,10.178202 -4.613508,10.186002 -3.487721,0.009 -2.554617,-7.3682 -2.524638,-11.112299 l 0,-159.243801 c -15.941171,10.697799 -37.994231,3.882694 -50.472,-9.109957 -8.80899,-8.54184 -13.96557,-24.482363 -4.85775,-34.570823 10.84333,-10.22613 28.024207,-7.02272 40.038374,-0.79516 12.57018,6.279176 22.080073,19.615598 20.690376,34.045899 l 0,121.335041 c 19.636914,-0.483412 34.081214,-16.99474 42.756789,-33.059318 9.4309904,-19.433252 2.9534266,-41.822357 -5.450863,-60.36242 -1.765859,-4.104792 -2.390099,-13.917216 -0.565163,-10.431232 C -9.185865,-36.604112 -0.09577085,-19.2248 0,0 Z"
             id="path5533"
             inkscape:connector-curvature="0"
             sodipodi:nodetypes="ccssccccccccccc" />
        </g>
      </g>
    </g>
  </g>
</svg>
