<?xml version="1.0" encoding="UTF-8" standalone="no"?>
<svg
   xmlns:dc="http://purl.org/dc/elements/1.1/"
   xmlns:cc="http://creativecommons.org/ns#"
   xmlns:rdf="http://www.w3.org/1999/02/22-rdf-syntax-ns#"
   xmlns:svg="http://www.w3.org/2000/svg"
   xmlns="http://www.w3.org/2000/svg"
   xmlns:sodipodi="http://sodipodi.sourceforge.net/DTD/sodipodi-0.dtd"
   xmlns:inkscape="http://www.inkscape.org/namespaces/inkscape"
   id="svg2"
   version="1.1"
   inkscape:version="1.0.1 (3bc2e813f5, 2020-09-07)"
   xml:space="preserve"
   width="1570.625"
   height="1273.2"
   viewBox="0 0 1570.625 1273.2"
   sodipodi:docname="Clones.svg"><metadata
     id="metadata8"><rdf:RDF><cc:Work
         rdf:about=""><dc:format>image/svg+xml</dc:format><dc:type
           rdf:resource="http://purl.org/dc/dcmitype/StillImage" /><dc:title /></cc:Work></rdf:RDF></metadata><defs
     id="defs6" /><sodipodi:namedview
     pagecolor="#ffffff"
     bordercolor="#666666"
     borderopacity="1"
     objecttolerance="10"
     gridtolerance="10"
     guidetolerance="10"
     inkscape:pageopacity="0"
     inkscape:pageshadow="2"
     inkscape:window-width="1280"
     inkscape:window-height="697"
     id="namedview4"
     showgrid="false"
     inkscape:zoom="0.39820925"
     inkscape:cx="785.3125"
     inkscape:cy="636.59998"
     inkscape:window-x="-8"
     inkscape:window-y="-8"
     inkscape:window-maximized="1"
     inkscape:current-layer="g10"
     showguides="true"
     inkscape:guide-bbox="true"
     inkscape:snap-object-midpoints="true"
     inkscape:document-rotation="0"
     inkscape:snap-global="true"><sodipodi:guide
       position="785.83953,762.52088"
       orientation="0,1"
       id="guide7102" /><sodipodi:guide
       position="862.79118,510.67912"
       orientation="0,1"
       id="guide7104" /></sodipodi:namedview><g
     id="g10"
     inkscape:groupmode="layer"
     inkscape:label="Layer 1"
     transform="matrix(1.25,0,0,-1.25,0,1273.2)"><path
       inkscape:connector-curvature="0"
       id="path5312"
       style="fill:#ffffff;fill-opacity:1;fill-rule:nonzero;stroke:none"
       d="m 439.59669,312.20691 c 0,-13.95377 -11.31098,-25.26624 -25.26476,-25.26624 l -267.81918,0 c -13.95318,0 -25.26595,11.31247 -25.26595,25.26624 l 0,394.14623 c 0,13.95378 11.31277,25.26625 25.26595,25.26625 l 267.81918,0 c 13.95378,0 25.26476,-11.31247 25.26476,-25.26625 l 0,-394.14623" /><path
       inkscape:connector-curvature="0"
       id="path5314"
       style="fill:none;stroke:#211c1d;stroke-width:1.93121552;stroke-linecap:butt;stroke-linejoin:miter;stroke-miterlimit:4;stroke-dasharray:none;stroke-opacity:1"
       d="m 439.59669,312.20691 c 0,-13.95377 -11.31098,-25.26624 -25.26476,-25.26624 l -267.81918,0 c -13.95318,0 -25.26595,11.31247 -25.26595,25.26624 l 0,394.14623 c 0,13.95378 11.31277,25.26625 25.26595,25.26625 l 267.81918,0 c 13.95378,0 25.26476,-11.31247 25.26476,-25.26625 l 0,-394.14623 z" /><path
       inkscape:connector-curvature="0"
       id="path5316"
       style="fill:#e62c3f;fill-opacity:1;fill-rule:nonzero;stroke:none"
       d="m 151.07086,655.64388 c -2.22357,0.68781 -5.67926,-0.5244 -6.95074,-5.56784 -0.10562,-0.27483 -0.21763,-0.26591 -0.31627,0.0119 -1.83302,5.10733 -4.85241,6.22446 -6.9763,5.55596 -3.14402,-1.01463 -5.69263,-4.76416 -5.45939,-9.54763 0.0627,-8.35028 7.53575,-12.55736 12.57964,-20.54516 5.04567,7.9878 12.60281,12.18003 12.62539,20.56744 0.43705,4.83398 -2.27007,8.53003 -5.50233,9.52535" /><path
       inkscape:connector-curvature="0"
       id="path5318"
       style="fill:#e62c3f;fill-opacity:1;fill-rule:nonzero;stroke:none"
       d="m 143.98256,625.50058 c -0.01,0.0178 -0.0214,0.0327 -0.0348,0.0505 -0.01,-0.0178 -0.0204,-0.0327 -0.0319,-0.0505 l 0.0667,0" /><path
       inkscape:connector-curvature="0"
       id="path5320"
       style="fill:#e62c3f;fill-opacity:1;fill-rule:nonzero;stroke:none"
       d="m 416.89451,393.00897 c -5.04345,-7.9878 -12.60193,-12.18003 -12.62421,-20.56745 -0.43675,-4.83398 2.27141,-8.53003 5.50248,-9.52534 2.2209,-0.69079 5.67926,0.52439 6.9494,5.56487 0.10845,0.2778 0.21987,0.26888 0.31791,-0.009 1.83466,-5.11029 4.85181,-6.22445 6.97317,-5.55595 3.14789,1.01166 5.69561,4.76416 5.46386,9.54763 -0.0639,8.35028 -7.53768,12.55736 -12.58261,20.54516" /><path
       inkscape:connector-curvature="0"
       id="path5322"
       style="fill:#e62c3f;fill-opacity:1;fill-rule:nonzero;stroke:none"
       d="m 416.86034,393.05948 c 0.0119,-0.0178 0.0238,-0.0357 0.0342,-0.0505 0.0104,0.0149 0.0238,0.0327 0.0327,0.0505 l -0.0668,0" /><path
       inkscape:connector-curvature="0"
       id="path5324"
       style="fill:#e62c3f;fill-opacity:1;fill-rule:nonzero;stroke:none"
       d="m 280.40214,471.38067 c -0.0267,0.0446 -0.0579,0.0876 -0.0862,0.13073 -0.0267,-0.0431 -0.0579,-0.0862 -0.0847,-0.13073 l 0.17084,0" /><path
       inkscape:connector-curvature="0"
       id="path5326"
       style="fill:#e62c3f;fill-opacity:1;fill-rule:nonzero;stroke:none;stroke-opacity:1"
       d="m 298.13796,546.66848 c -5.55596,1.72621 -14.21672,-1.31174 -17.38986,-13.90921 -0.26442,-0.68781 -0.54371,-0.67592 -0.79328,0.0253 -4.58144,12.76384 -12.12655,15.55222 -17.4359,13.88395 -7.85708,-2.53286 -14.22564,-11.90817 -13.6433,-23.86685 0.15747,-20.88238 18.83084,-31.39414 31.44167,-51.35399 12.63313,19.95688 31.51893,30.44189 31.57092,51.41638 1.09485,12.08495 -5.67183,21.31468 -13.75025,23.80446" /><path
       inkscape:connector-curvature="0"
       id="path5328"
       style="fill:#e62c3f;fill-opacity:1;fill-rule:nonzero;stroke:none"
       d="m 153.74604,667.506 -7.25067,38.80406 -3.90076,0.0431 0.004,-0.0253 -0.97021,0.007 -7.23226,-38.82932 -3.0378,0 -0.006,-4.10606 9.71416,0 0.006,4.10606 -2.80293,0 1.11416,5.9422 9.37754,0.0149 1.11312,-5.95706 -2.9711,0.003 -0.008,-4.10309 9.7152,-0.006 0.008,4.10606 -2.87246,0 z m -13.52668,10.40183 3.86199,20.60607 3.84906,-20.59716 -7.71105,-0.009" /><path
       inkscape:connector-curvature="0"
       id="path5330"
       style="fill:#e62c3f;fill-opacity:1;fill-rule:nonzero;stroke:none"
       d="m 407.09582,351.05406 7.24948,-38.80407 3.90254,-0.0431 -0.006,0.0253 0.97304,-0.004 7.23017,38.82635 3.03647,0 0.009,4.10606 -9.7155,0 -0.006,-4.10606 2.80175,0 -1.11417,-5.94221 -9.37679,-0.0149 -1.11268,5.95706 2.97259,-0.003 0.004,4.10607 -9.71401,0.003 -0.007,-4.10606 2.87306,0 z m 13.52593,-10.39886 -3.86094,-20.60904 -3.84906,20.59716 7.71,0.0119" /><path
       inkscape:connector-curvature="0"
       id="path5332"
       style="fill:#ffffff;fill-opacity:1;fill-rule:nonzero;stroke:none"
       d="m 787.42494,312.20691 c 0,-13.95377 -11.31098,-25.26624 -25.26772,-25.26624 l -267.81651,0 c -13.95378,0 -25.26624,11.31247 -25.26624,25.26624 l 0,394.14623 c 0,13.95378 11.31246,25.26625 25.26624,25.26625 l 267.81651,0 c 13.95674,0 25.26772,-11.31247 25.26772,-25.26625 l 0,-394.14623" /><path
       inkscape:connector-curvature="0"
       id="path5334"
       style="fill:none;stroke:#211c1d;stroke-width:1.93121552;stroke-linecap:butt;stroke-linejoin:miter;stroke-miterlimit:4;stroke-dasharray:none;stroke-opacity:1"
       d="m 787.42494,312.20691 c 0,-13.95377 -11.31098,-25.26624 -25.26772,-25.26624 l -267.81651,0 c -13.95378,0 -25.26624,11.31247 -25.26624,25.26624 l 0,394.14623 c 0,13.95378 11.31246,25.26625 25.26624,25.26625 l 267.81651,0 c 13.95674,0 25.26772,-11.31247 25.26772,-25.26625 l 0,-394.14623 z" /><path
       inkscape:connector-curvature="0"
       id="path5336"
       style="fill:#e62c3f;fill-opacity:1;fill-rule:nonzero;stroke:none"
       d="m 498.89689,655.64388 c -2.2209,0.69078 -5.67777,-0.5244 -6.94941,-5.56487 -0.10398,-0.27483 -0.2154,-0.26888 -0.31493,0.009 -1.83317,5.1103 -4.85181,6.22446 -6.97615,5.55596 -3.14639,-1.01166 -5.69411,-4.76416 -5.46237,-9.54763 0.0639,-8.35028 7.53917,-12.55736 12.58262,-20.54219 5.04641,7.98483 12.60043,12.18003 12.62569,20.56447 0.43527,4.83398 -2.27289,8.53003 -5.50545,9.52535" /><path
       inkscape:connector-curvature="0"
       id="path5338"
       style="fill:#e62c3f;fill-opacity:1;fill-rule:nonzero;stroke:none"
       d="m 491.81081,625.50058 c -0.0104,0.0178 -0.0223,0.0357 -0.0342,0.0535 -0.0104,-0.0178 -0.0208,-0.0357 -0.0342,-0.0535 l 0.0683,0" /><path
       inkscape:connector-curvature="0"
       id="path5340"
       style="fill:#e62c3f;fill-opacity:1;fill-rule:nonzero;stroke:none"
       d="m 764.72425,393.00897 c -5.04493,-7.98483 -12.6049,-12.18003 -12.62569,-20.56745 -0.43824,-4.83398 2.2714,-8.53003 5.50248,-9.52534 2.22089,-0.68781 5.67777,0.52439 6.9494,5.56784 0.10844,0.27483 0.21838,0.26591 0.31642,-0.0119 1.83466,-5.10435 4.8533,-6.22148 6.97466,-5.55595 3.1464,1.01463 5.6956,4.76713 5.46088,9.5506 -0.0609,8.34731 -7.53471,12.55736 -12.57815,20.54219" /><path
       inkscape:connector-curvature="0"
       id="path5342"
       style="fill:#e62c3f;fill-opacity:1;fill-rule:nonzero;stroke:none"
       d="m 764.6886,393.05948 c 0.0104,-0.0178 0.0253,-0.0327 0.0357,-0.0505 0.009,0.0178 0.0208,0.0327 0.0312,0.0505 l -0.0669,0" /><path
       inkscape:connector-curvature="0"
       id="path5344"
       style="fill:#e62c3f;fill-opacity:1;fill-rule:nonzero;stroke:none"
       d="m 628.25119,408.21952 c 0.0282,-0.0446 0.0579,-0.0876 0.0877,-0.13073 0.0267,0.0431 0.055,0.0862 0.0817,0.13073 l -0.16935,0" /><path
       inkscape:connector-curvature="0"
       id="path5348"
       style="fill:#e62c3f;fill-opacity:1;fill-rule:nonzero;stroke:none"
       d="m 628.23485,610.34351 c -0.0297,0.0446 -0.0565,0.0876 -0.0847,0.13073 -0.0267,-0.0431 -0.0594,-0.0862 -0.0876,-0.13073 l 0.17232,0" /><path
       inkscape:connector-curvature="0"
       id="path5352"
       style="fill:#e62c3f;fill-opacity:1;fill-rule:nonzero;stroke:none"
       d="m 504.40977,670.12503 -4.05704,0.0178 -0.0163,-2.58188 -17.04224,0 c 0.0891,0.59125 0.34614,1.34591 0.823,2.20753 0.8735,1.58805 2.40956,3.45241 4.25461,5.29895 1.84952,1.851 3.99614,3.70497 6.09076,5.39107 l 0.0104,0.001 0.0149,0.0149 c 2.52989,2.10948 4.69285,3.66485 6.4458,5.52476 0.87499,0.92847 1.64153,1.94904 2.21495,3.13302 0.57788,1.18399 0.94779,2.51653 1.08297,3.98722 0.0297,0.30751 0.0446,0.63879 0.0446,0.99829 -0.001,1.00126 -0.11736,2.2105 -0.45161,3.5163 -0.50063,1.94756 -1.5108,4.14023 -3.43905,5.86644 -1.92379,1.73215 -4.72553,2.86414 -8.33394,2.85225 -2.89831,0.006 -5.27667,-0.74871 -7.09201,-1.97281 -1.36077,-0.91361 -2.39471,-2.07234 -3.15383,-3.26078 -1.13793,-1.79603 -1.69501,-3.66188 -1.98915,-5.16229 -0.28968,-1.5004 -0.31197,-2.64279 -0.31345,-3.02012 0,-0.0669 0.001,-0.10993 0.001,-0.12776 l 3.51779,0.0921 0.54222,0.006 c 0,0.006 0,0.0149 0,0.0297 -0.0104,0.31642 0.0728,2.88939 1.18399,5.09544 0.55262,1.10822 1.32214,2.11691 2.4363,2.86859 1.12159,0.74872 2.62497,1.28501 4.86666,1.29392 1.88368,-0.003 3.26376,-0.37139 4.31107,-0.90173 1.55686,-0.80368 2.46899,-1.99658 3.06915,-3.35437 0.59125,-1.33997 0.78882,-2.82849 0.78585,-3.82084 0,-0.23472 -0.0104,-0.43824 -0.0267,-0.60016 -0.098,-1.028 -0.3283,-1.81089 -0.67741,-2.53138 -0.51697,-1.07257 -1.36522,-2.05897 -2.64576,-3.21176 -1.27312,-1.14536 -2.95179,-2.42293 -4.92163,-4.05852 -2.89088,-2.32786 -5.91992,-4.97957 -8.32205,-7.71298 -1.20181,-1.36819 -2.25061,-2.75867 -3.04093,-4.18925 -0.73683,-1.35185 -1.25826,-2.7557 -1.36225,-4.25313 l -0.0163,0 -0.0134,-0.25552 c 0,-0.003 0,-0.003 0,-0.003 l 0,-0.0148 -0.0104,-3.88769 25.23505,0 0,1.78415 -0.006,4.94094" /><path
       inkscape:connector-curvature="0"
       id="path5354"
       style="fill:#e62c3f;fill-opacity:1;fill-rule:nonzero;stroke:none"
       d="m 752.08964,348.43949 4.05556,-0.0163 0.0178,2.57891 17.04372,0 c -0.0921,-0.59422 -0.3491,-1.34888 -0.82596,-2.20753 -0.87054,-1.58805 -2.40957,-3.45242 -4.25462,-5.29895 -1.84654,-1.85397 -3.99762,-3.70497 -6.09076,-5.39107 l -0.0104,-0.003 -0.0134,-0.0134 c -2.53137,-2.10948 -4.69434,-3.66782 -6.44728,-5.52476 -0.87499,-0.93144 -1.64154,-1.95053 -2.21645,-3.13303 -0.57639,-1.18398 -0.94481,-2.51652 -1.08148,-3.98721 -0.0282,-0.30751 -0.0446,-0.64176 -0.0446,-1.00126 0.003,-0.99829 0.11736,-2.20753 0.4516,-3.51333 0.50063,-1.94459 1.51081,-4.14023 3.44054,-5.86644 1.92082,-1.73512 4.72851,-2.86711 8.33542,-2.85523 2.89534,-0.003 5.27519,0.74872 7.08905,1.97578 1.36373,0.91362 2.39471,2.06789 3.15382,3.26079 1.13793,1.79306 1.69502,3.66188 1.98915,5.16229 0.29117,1.5004 0.31643,2.64279 0.31643,3.02012 0,0.0668 -0.003,0.1129 -0.003,0.12776 l -3.51779,-0.0936 -0.54371,-0.007 c 0,-0.006 0.004,-0.0149 0.004,-0.0267 0.0104,-0.31939 -0.0773,-2.8894 -1.18844,-5.09841 -0.55263,-1.10822 -1.32363,-2.11691 -2.43779,-2.86563 -1.11862,-0.74871 -2.62348,-1.28797 -4.86221,-1.29391 -1.88665,0 -3.26672,0.37139 -4.31404,0.90173 -1.55685,0.80071 -2.46898,1.99658 -3.06766,3.3514 -0.59125,1.34294 -0.79031,2.83146 -0.78734,3.82084 0,0.23471 0.0149,0.4412 0.0282,0.60313 0.098,1.02503 0.32682,1.81089 0.67592,2.53138 0.51846,1.07256 1.36522,2.056 2.64577,3.21176 1.27311,1.14239 2.95179,2.42293 4.92311,4.05555 2.89088,2.32786 5.91992,4.98254 8.32205,7.71298 1.20033,1.36819 2.24913,2.76164 3.03944,4.19222 0.74129,1.35185 1.25975,2.7557 1.36522,4.25313 l 0.0134,0 0.0134,0.25552 c 0,0.003 0,0.003 0,0.003 l 0,0.0119 0.0104,3.88769 -25.23504,0 0,-1.78415 0.007,-4.93648" /><path
       inkscape:connector-curvature="0"
       id="path5356"
       style="fill:#ffffff;fill-opacity:1;fill-rule:nonzero;stroke:none"
       d="m 1135.2532,312.20691 c 0,-13.95377 -11.314,-25.26624 -25.2677,-25.26624 l -267.81802,0 c -13.95378,0 -25.26476,11.31247 -25.26476,25.26624 l 0,394.14623 c 0,13.95378 11.31098,25.26625 25.26476,25.26625 l 267.81802,0 c 13.9537,0 25.2677,-11.31247 25.2677,-25.26625 l 0,-394.14623" /><path
       inkscape:connector-curvature="0"
       id="path5358"
       style="fill:none;stroke:#211c1d;stroke-width:1.93121552;stroke-linecap:butt;stroke-linejoin:miter;stroke-miterlimit:4;stroke-dasharray:none;stroke-opacity:1"
       d="m 1135.2532,312.20691 c 0,-13.95377 -11.314,-25.26624 -25.2677,-25.26624 l -267.81802,0 c -13.95378,0 -25.26476,11.31247 -25.26476,25.26624 l 0,394.14623 c 0,13.95378 11.31098,25.26625 25.26476,25.26625 l 267.81802,0 c 13.9537,0 25.2677,-11.31247 25.2677,-25.26625 l 0,-394.14623 z" /><path
       inkscape:connector-curvature="0"
       id="path5360"
       style="fill:#e62c3f;fill-opacity:1;fill-rule:nonzero;stroke:none"
       d="m 846.72366,655.64388 c -2.22238,0.68781 -5.67926,-0.5244 -6.95089,-5.56487 -0.10399,-0.2778 -0.2154,-0.26888 -0.31494,0.009 -1.83317,5.10733 -4.85032,6.22446 -6.97466,5.55596 -3.14491,-1.01463 -5.69263,-4.76416 -5.46088,-9.54763 0.0609,-8.35028 7.53768,-12.55736 12.58113,-20.54516 5.04493,7.9878 12.60341,12.18003 12.6242,20.56744 0.43676,4.83398 -2.26992,8.53003 -5.50396,9.52535" /><path
       inkscape:connector-curvature="0"
       id="path5362"
       style="fill:#e62c3f;fill-opacity:1;fill-rule:nonzero;stroke:none"
       d="m 839.63758,625.50058 c -0.0119,0.0178 -0.0238,0.0357 -0.0342,0.0505 -0.0119,-0.0149 -0.0223,-0.0327 -0.0327,-0.0505 l 0.0668,0" /><path
       inkscape:connector-curvature="0"
       id="path5364"
       style="fill:#e62c3f;fill-opacity:1;fill-rule:nonzero;stroke:none"
       d="m 1112.5169,393.05948 c 0.01,-0.0178 0.021,-0.0357 0.033,-0.0505 0.01,0.0149 0.022,0.0327 0.033,0.0505 l -0.065,0" /><path
       inkscape:connector-curvature="0"
       id="path5366"
       style="fill:#e62c3f;fill-opacity:1;fill-rule:nonzero;stroke:none"
       d="m 1112.5495,393.00897 c -5.0449,-7.9878 -12.6019,-12.183 -12.6257,-20.56745 -0.4367,-4.83398 2.2729,-8.53003 5.5025,-9.52534 2.2224,-0.69079 5.6808,0.52439 6.9509,5.56487 0.1055,0.27482 0.2184,0.26888 0.3164,-0.009 1.8332,-5.11029 4.8533,-6.22445 6.9732,-5.55595 3.1479,1.01166 5.6956,4.76416 5.4624,9.54763 -0.061,8.35028 -7.5362,12.55736 -12.5797,20.54516" /><path
       inkscape:connector-curvature="0"
       id="path5370"
       style="fill:#e62c3f;fill-opacity:1;fill-rule:nonzero;stroke:none"
       d="m 976.07945,408.21655 c 0.0282,-0.0446 0.055,-0.0876 0.0847,-0.13073 0.0267,0.0431 0.0579,0.0862 0.0862,0.13073 l -0.17084,0" /><path
       inkscape:connector-curvature="0"
       id="path5372"
       style="fill:#e62c3f;fill-opacity:1;fill-rule:nonzero;stroke:none"
       d="m 976.06459,610.34351 c -0.0267,0.0446 -0.0579,0.0876 -0.0862,0.13073 -0.0282,-0.0431 -0.055,-0.0862 -0.0832,-0.13073 l 0.16935,0" /><path
       inkscape:connector-curvature="0"
       id="path5376"
       style="fill:#e62c3f;fill-opacity:1;fill-rule:nonzero;stroke:none"
       d="m 976.06459,471.38067 c -0.0267,0.0475 -0.0579,0.0876 -0.0862,0.1337 -0.0282,-0.0461 -0.055,-0.0862 -0.0832,-0.1337 l 0.16935,0" /><path
       inkscape:connector-curvature="0"
       id="path5380"
       style="fill:#e62c3f;fill-opacity:1;fill-rule:nonzero;stroke:none"
       d="m 841.52423,692.46919 10.47759,9.35451 0.0342,0 0,0.0327 0.0104,0.009 -0.0104,0.0134 0,4.47447 -24.1194,0 0.0104,-3.23255 0,-4.02436 3.70793,0 0,2.75124 14.10679,-0.0178 -13.8483,-12.82475 1.99509,-2.95625 c 1.51081,1.39048 3.40489,2.21644 5.48911,2.21644 2.43928,0 4.88895,-1.13941 6.49334,-2.99041 1.59697,-1.85694 2.58041,-4.39871 2.58189,-7.22869 -0.001,-2.82849 -0.98492,-5.36729 -2.58189,-7.22423 -1.60439,-1.85397 -4.05406,-2.99041 -6.49334,-2.99338 -2.44373,0.003 -4.63491,1.13941 -6.23931,2.99338 -1.15724,1.34294 -1.99212,3.04389 -2.36499,4.95283 l -3.7629,-0.77398 c 1.20923,-6.62704 6.28685,-11.59769 12.3672,-11.60066 6.98358,0.003 12.89458,6.55722 12.89458,14.64604 0,7.24503 -4.74336,13.24368 -10.74796,14.42321" /><path
       inkscape:connector-curvature="0"
       id="path5382"
       style="fill:#e62c3f;fill-opacity:1;fill-rule:nonzero;stroke:none"
       d="m 833.8885,686.04864 -0.001,0 0.001,0" /><path
       inkscape:connector-curvature="0"
       id="path5384"
       style="fill:#e62c3f;fill-opacity:1;fill-rule:nonzero;stroke:none"
       d="m 1110.6272,326.09087 -10.4761,-9.35451 -0.036,0 0,-0.0327 -0.01,-0.009 0.01,-0.0134 -0,-4.47448 24.1209,0.003 -0.012,3.23256 0,4.02139 -3.705,0 0,-2.75124 -14.1082,0.0178 13.8497,12.82476 -1.9951,2.95625 c -1.5108,-1.39048 -3.4063,-2.21645 -5.4876,-2.21645 -2.4437,0 -4.8904,1.13942 -6.4918,2.99042 -1.6015,1.85694 -2.5849,4.39871 -2.5849,7.22869 0,2.82848 0.9834,5.36729 2.5849,7.22423 1.6014,1.85396 4.0481,2.99338 6.4918,2.99338 2.4408,0 4.6349,-1.13942 6.2364,-2.99338 1.1572,-1.34145 1.9921,-3.0439 2.3664,-4.95283 l 3.7659,0.77695 c -1.2137,6.62704 -6.2883,11.59472 -12.3687,11.59769 -6.985,-0.003 -12.899,-6.55722 -12.899,-14.64604 0,-7.24206 4.7448,-13.24369 10.7494,-14.42321" /><path
       inkscape:connector-curvature="0"
       id="path5386"
       style="fill:#e62c3f;fill-opacity:1;fill-rule:nonzero;stroke:none"
       d="m 1118.2644,332.51142 0,0 0,0 0,0 z" /><path
       style="fill:#000000;fill-opacity:1;fill-rule:nonzero;stroke:none"
       d="m 282.18335,219.70496 c -12.61084,-16.2567 -31.28472,-24.81846 -31.44219,-41.82654 -0.58234,-9.74 5.78667,-17.37616 13.64375,-19.43912 4.16747,-1.06648 9.70611,0.12472 14.11406,5.70472 -3.75046,-11.5972 -1.91372,-17.02816 -14.95781,-21.89376 l 37.4125,-0.0496 c -13.49434,5.06464 -11.14577,10.82176 -15.075,21.2828 4.03514,-4.96792 9.95494,-6.09896 14.125,-5.04376 8.07842,2.02784 14.84484,9.54632 13.75,19.38912 -0.052,17.08312 -18.93719,25.62224 -31.57031,41.87654 z"
       id="path5326-0"
       inkscape:connector-curvature="0"
       sodipodi:nodetypes="ccccccccccc" /></g></svg>
