<?xml version="1.0" encoding="UTF-8" standalone="no"?>
<svg
   xmlns:dc="http://purl.org/dc/elements/1.1/"
   xmlns:cc="http://creativecommons.org/ns#"
   xmlns:rdf="http://www.w3.org/1999/02/22-rdf-syntax-ns#"
   xmlns:svg="http://www.w3.org/2000/svg"
   xmlns="http://www.w3.org/2000/svg"
   xmlns:sodipodi="http://sodipodi.sourceforge.net/DTD/sodipodi-0.dtd"
   xmlns:inkscape="http://www.inkscape.org/namespaces/inkscape"
   width="11in"
   height="8.5in"
   viewBox="0 0 990 764.99999"
   id="svg2"
   version="1.1"
   inkscape:version="1.0.1 (3bc2e813f5, 2020-09-07)"
   sodipodi:docname="NodeTypes.svg">
  <defs
     id="defs4">
    <clipPath
       clipPathUnits="userSpaceOnUse"
       id="clipPath5527">
      <path
         d="m 0,0 1024,0 0,768 L 0,768 0,0 Z"
         id="path5529"
         inkscape:connector-curvature="0" />
    </clipPath>
  </defs>
  <sodipodi:namedview
     id="base"
     pagecolor="#ffffff"
     bordercolor="#666666"
     borderopacity="1.0"
     inkscape:pageopacity="0.0"
     inkscape:pageshadow="2"
     inkscape:zoom="0.60171569"
     inkscape:cx="528"
     inkscape:cy="408"
     inkscape:document-units="px"
     inkscape:current-layer="layer1"
     showgrid="true"
     inkscape:window-width="1251"
     inkscape:window-height="681"
     inkscape:window-x="0"
     inkscape:window-y="0"
     inkscape:window-maximized="0"
     units="in"
     inkscape:snap-nodes="false"
     inkscape:document-rotation="0"
     showborder="true"
     inkscape:snap-global="false" />
  <metadata
     id="metadata7">
    <rdf:RDF>
      <cc:Work
         rdf:about="">
        <dc:format>image/svg+xml</dc:format>
        <dc:type
           rdf:resource="http://purl.org/dc/dcmitype/StillImage" />
        <dc:title />
      </cc:Work>
    </rdf:RDF>
  </metadata>
  <g
     inkscape:label="Source"
     inkscape:groupmode="layer"
     id="layer1"
     transform="translate(0,-287.36221)"
     style="display:inline;opacity:1">
    <path
       inkscape:connector-curvature="0"
       id="path266"
       style="display:inline;opacity:0.3;fill:#3fe8ed;fill-opacity:1;fill-rule:evenodd;stroke:none;stroke-width:1.53612"
       d="m 408.16412,409.71685 c 99.34779,-26.32126 149.25869,48.60738 153.96986,103.66296 37.80725,-0.0479 68.00168,25.81907 68.73923,63.17961 0.73755,37.36054 -28.38533,63.40039 -63.41033,63.40039 H 120.2318 C 61.456618,639.95981 18.808918,601.21332 17.421878,537.14553 16.034848,473.07774 96.067518,414.10157 162.4345,443.37537 194.89214,300.34344 359.81909,302.9035 408.16412,409.71685 Z"
       sodipodi:nodetypes="cczssscc" />
    <path
       inkscape:connector-curvature="0"
       id="path292-8-5-7"
       d="M 947.73719,822.48744 C 871.31311,819.34303 823.79072,788.57763 783.78042,753.80484 724.64696,702.41218 642.50947,653.44926 564.84094,723.72111 c 15.31739,28.52735 92.7653,158.82798 221.03563,134.93953 -139.16726,33.62887 -226.6126,-60.0488 -246.7745,-84.84961 -11.3231,59.39481 45.67611,115.80497 97.91651,134.04305 101.40833,35.40349 284.10181,-55.16101 310.71861,-85.36664 z"
       style="display:inline;opacity:0.3;fill:#00ff00;stroke-width:1"
       sodipodi:nodetypes="cscccac" />
  </g>
  <inkscape:templateinfo>
    <inkscape:name>new default</inkscape:name>
    <inkscape:date>2020-11-16</inkscape:date>
  </inkscape:templateinfo>
</svg>
