<?xml version="1.0" encoding="UTF-8" standalone="no"?>
<!-- Created with Inkscape (http://www.inkscape.org/) -->

<svg
   xmlns:osb="http://www.openswatchbook.org/uri/2009/osb"
   xmlns:dc="http://purl.org/dc/elements/1.1/"
   xmlns:cc="http://creativecommons.org/ns#"
   xmlns:rdf="http://www.w3.org/1999/02/22-rdf-syntax-ns#"
   xmlns:svg="http://www.w3.org/2000/svg"
   xmlns="http://www.w3.org/2000/svg"
   xmlns:sodipodi="http://sodipodi.sourceforge.net/DTD/sodipodi-0.dtd"
   xmlns:inkscape="http://www.inkscape.org/namespaces/inkscape"
   width="11in"
   height="8.5in"
   viewBox="0 0 990 764.99999"
   id="svg6466"
   version="1.1"
   inkscape:version="0.91 r13725"
   sodipodi:docname="05_02_FillRules.svg">
  <defs
     id="defs6468">
    <linearGradient
       id="brown"
       osb:paint="solid">
      <stop
         style="stop-color:#560000;stop-opacity:1;"
         offset="0"
         id="stop7018" />
    </linearGradient>
  </defs>
  <sodipodi:namedview
     id="base"
     pagecolor="#ffffff"
     bordercolor="#666666"
     borderopacity="1.0"
     inkscape:pageopacity="0.0"
     inkscape:pageshadow="2"
     inkscape:zoom="0.71372549"
     inkscape:cx="495"
     inkscape:cy="382.5"
     inkscape:document-units="px"
     inkscape:current-layer="layer1"
     showgrid="false"
     inkscape:window-width="1360"
     inkscape:window-height="745"
     inkscape:window-x="-8"
     inkscape:window-y="-8"
     inkscape:window-maximized="1"
     units="in" />
  <metadata
     id="metadata6471">
    <rdf:RDF>
      <cc:Work
         rdf:about="">
        <dc:format>image/svg+xml</dc:format>
        <dc:type
           rdf:resource="http://purl.org/dc/dcmitype/StillImage" />
        <dc:title />
      </cc:Work>
    </rdf:RDF>
  </metadata>
  <g
     inkscape:label="Layer 1"
     inkscape:groupmode="layer"
     id="layer1"
     transform="translate(0,-287.36221)">
    <g
       style="font-style:normal;font-weight:normal;font-size:40px;line-height:125%;font-family:sans-serif;letter-spacing:0px;word-spacing:0px;fill:#000000;fill-opacity:1;stroke:none;stroke-width:1px;stroke-linecap:butt;stroke-linejoin:miter;stroke-opacity:1"
       id="text7034" />
    <path
       style="fill:none;fill-opacity:1;fill-rule:evenodd;stroke:#000000;stroke-width:1px;stroke-linecap:butt;stroke-linejoin:miter;stroke-opacity:1"
       d="m 262.19139,633.66218 c 14.22111,0 28.44223,0 42.66334,0 3.16024,0 6.40142,0.71061 9.48074,0 7.70647,-1.77842 17.47933,-8.03126 22.12173,-14.22112 3.53326,-4.71101 5.26707,-10.53415 7.90061,-15.80123 5.99534,-11.99068 7.8722,-13.18949 9.48074,-26.8621 0.49233,-4.1848 0,-8.42732 0,-12.64099 0,-2.11203 0.82637,-16.93186 -1.58012,-20.5416 -1.87077,-2.80615 -5.09447,-4.44973 -7.90062,-6.32049 -7.11119,-4.7408 -16.7849,-9.75363 -25.28197,-11.06087 -8.86521,-1.36388 -17.89874,-1.24814 -26.8621,-1.58012 -9.33666,-0.3458 -32.16781,0.16949 -39.50309,1.58012 -12.03938,2.31527 -23.21649,8.43632 -31.60247,17.38136 -7.26907,7.75368 -10.92254,17.71455 -15.80123,26.8621 -1.99833,3.74687 -4.70366,7.13426 -6.32049,11.06086 -2.71841,6.60186 -7.14461,24.42041 -7.90062,31.60247 -0.49625,4.71433 0,9.48074 0,14.22111 0,6.3205 0,12.64099 0,18.96148 0,4.74037 -0.97657,9.58243 0,14.22111 1.16866,5.55114 3.56553,10.8423 6.32049,15.80124 7.11086,12.79954 12.13357,14.70429 23.70185,23.70185 12.61174,9.80913 13.66055,12.45413 28.44223,17.38136 17.29611,5.76537 21.24388,4.91594 39.50308,6.32049 17.96416,1.38186 23.05095,2.30142 41.08321,1.58012 6.33734,-0.25349 12.7768,-0.17451 18.96148,-1.58012 5.53175,-1.25721 10.55571,-4.16057 15.80124,-6.32049 3.70915,-1.5273 7.62121,-2.67658 11.06086,-4.74037 4.51648,-2.70989 8.64192,-6.05297 12.64099,-9.48074 10.42994,-8.93996 16.54809,-17.92661 18.96148,-31.60247 0.52694,-2.98598 2.75225,-24.04676 1.58012,-28.44222 -1.09415,-4.10308 -3.80929,-7.63651 -6.32049,-11.06087 -3.31103,-4.51504 -6.58168,-9.2816 -11.06086,-12.64099 -4.14998,-3.11248 -9.35349,-4.52715 -14.22112,-6.32049 -14.00511,-5.15978 -18.1203,-5.56738 -33.18259,-6.32049 -4.73445,-0.23673 -9.48074,0 -14.22111,0 -5.26708,0 -10.6143,-0.91534 -15.80123,0 -4.369,0.771 -14.9061,6.64197 -18.96148,9.48074 -2.76293,1.93404 -5.23847,4.24993 -7.90062,6.32049 -2.07879,1.61684 -4.60661,2.74084 -6.3205,4.74037 -1.53294,1.78844 -1.99158,4.27534 -3.16024,6.3205 -0.94221,1.64885 -2.10683,3.16024 -3.16025,4.74037 -2.10683,3.16024 -4.36636,6.22386 -6.32049,9.48074 -1.2119,2.01983 -1.85365,4.36059 -3.16025,6.32049 -1.87077,2.80615 -4.58532,5.00866 -6.32049,7.90062 -1.45932,2.4322 -2.10683,5.26708 -3.16025,7.90061 -1.05342,2.63354 -2.47232,5.1489 -3.16025,7.90062 -2.17602,8.7041 -1.58012,14.72215 -1.58012,23.70185 0,4.74037 -0.55387,9.51321 0,14.22111 1.17059,9.95002 4.61524,16.63221 9.48074,25.28198 2.43608,4.33082 4.51021,9.00841 7.90062,12.64099 4.09759,4.39027 9.48074,7.37391 14.22111,11.06086 8.23017,6.40125 22.20443,17.98659 31.60247,22.12173 7.01953,3.08859 14.76872,4.14182 22.12173,6.32049 6.86883,2.03521 13.5065,4.96759 20.5416,6.3205 10.94745,2.10528 30.04699,1.58012 41.08321,1.58012 5.79378,0 11.58757,0 17.38136,0 4.74037,0 9.57279,0.92966 14.22111,0 7.11115,-1.42223 16.02413,-9.98598 20.5416,-14.22111 8.0672,-7.563 16.6491,-15.43125 22.12173,-25.28198 5.27181,-9.48925 13.83751,-31.59187 15.80123,-41.08321 1.49781,-7.23937 1.36279,-14.73222 1.58013,-22.12172 0.78979,-26.85292 2.48011,-32.92892 -7.90062,-56.88445 -9.70623,-22.39898 -16.98955,-27.91411 -36.34284,-44.24345 -8.61512,-7.26901 -16.99634,-15.08948 -26.8621,-20.54161 -10.35961,-5.72504 -21.90349,-9.05218 -33.18259,-12.64099 -11.93035,-3.79601 -24.04135,-7.15343 -36.34284,-9.48074 -13.50928,-2.5558 -55.9863,-1.58012 -63.20493,-1.58012 -19.5954,0 -32.92522,-1.11061 -52.14408,3.16025 -14.86316,3.30292 -24.15106,9.81765 -36.34284,18.96148 -4.47918,3.35939 -8.38992,7.41709 -12.64098,11.06086 -3.12337,2.67718 -6.84721,4.74037 -9.48074,7.90062 -2.71852,3.26222 -4.09494,7.44434 -6.3205,11.06086 -13.33559,21.67034 -0.58741,-2.38251 -9.48074,18.96149 -1.35895,3.26147 -3.76971,6.08342 -4.74037,9.48074 -2.10276,7.35967 -1.58012,17.7839 -1.58012,25.28197 0,11.29353 -0.94221,22.24272 3.16024,33.18259 3.87927,10.3447 16.23139,29.45644 23.70186,37.92297 3.21283,3.64121 7.39123,6.30039 11.06086,9.48074 11.51158,9.9767 15.64176,14.93143 30.02234,22.12172 5.51411,2.75706 11.53277,4.37097 17.38136,6.3205 10.96561,3.6552 29.54227,9.35109 41.08321,11.06086 7.31288,1.08339 14.75081,1.01313 22.12173,1.58012 6.32372,0.48644 12.64765,0.97881 18.96148,1.58013 4.74806,0.45219 9.4598,1.30004 14.22111,1.58012 4.20639,0.24744 8.42733,0 12.64099,0 3.68695,0 7.45575,0.77253 11.06086,0 3.92225,-0.84048 7.41878,-3.05941 11.06087,-4.74037 3.20806,-1.48064 6.57572,-2.7292 9.48074,-4.74037 3.99257,-2.76409 7.49265,-6.18701 11.06086,-9.48074 7.87704,-7.27111 13.50662,-13.84528 20.54161,-22.12173 5.32848,-6.26881 11.17486,-12.15799 15.80123,-18.96148 4.37294,-6.4308 7.68719,-13.53474 11.06086,-20.5416 10.85141,-22.53754 10.67972,-26.54589 18.96149,-52.14408 2.56352,-7.92361 5.88078,-15.62252 7.90061,-23.70185 3.9331,-15.73237 5.55416,-31.31072 6.3205,-47.4037 0.20042,-4.20889 0.52264,-8.45986 0,-12.64099 -0.53873,-4.3098 -0.95809,-8.89731 -3.16025,-12.64099 -5.85802,-9.95863 -16.10599,-17.22468 -25.28198,-23.70185 -11.3249,-7.99405 -19.29015,-13.64108 -33.18259,-17.38135 -15.88809,-4.27757 -29.58037,-3.16025 -45.82358,-3.16025 -7.37391,0 -14.74782,0 -22.12172,0 -8.95404,0 -17.93584,-0.70471 -26.8621,0 -11.13851,0.87935 -22.15351,2.95187 -33.1826,4.74037 -30.06279,4.87505 -59.60343,12.4939 -88.48691,22.12173 -5.84859,1.94953 -11.58757,4.21366 -17.38135,6.32049 -8.24874,2.99954 -23.53452,8.10277 -31.60247,12.64099 -7.27326,4.09121 -17.0985,12.56828 -22.12173,18.96148 -2.62355,3.33906 -4.32216,7.31399 -6.3205,11.06086 -2.21694,4.15678 -4.83073,8.17173 -6.32049,12.64099 -1.69858,5.09575 -2.32251,10.49558 -3.16025,15.80123 -2.21994,14.05962 -1.58012,16.64268 -1.58012,31.60247 0,4.74037 0,9.48074 0,14.22111 0,4.74037 -0.8736,9.56194 0,14.22112 0.73923,3.94258 3.33191,7.30497 4.74037,11.06086 1.75449,4.67864 2.88461,9.58171 4.74037,14.22111 1.31222,3.28055 3.25973,6.27268 4.74037,9.48074 1.68096,3.64209 2.94647,7.47306 4.74037,11.06086 0.42273,0.84546 9.50325,16.73632 11.06087,18.96149 1.93404,2.76292 4.24993,5.23846 6.32049,7.90061 2.44862,3.14823 8.62148,11.78173 11.06086,14.22111 2.38477,2.38477 5.51585,3.93573 7.90062,6.3205 16.70374,16.70373 -8.63427,-4.59226 11.06086,12.64098 1.98194,1.7342 4.24171,3.12354 6.3205,4.74038 2.66215,2.07056 5.23847,4.24993 7.90062,6.32049 2.07879,1.61684 3.96498,3.56261 6.32049,4.74037 2.97951,1.48975 6.38781,1.92307 9.48074,3.16025 10.53416,4.21366 2.15977,2.1972 11.06086,4.74037 18.11003,5.17429 -5.3058,-1.41101 12.64099,1.58012 1.16173,0.19362 2.01766,1.29448 3.16025,1.58012 1.02196,0.25549 2.12729,-0.20659 3.16025,0 1.63325,0.32665 3.1245,1.17616 4.74037,1.58013 1.42827,0.35706 7.62364,0 9.48074,0 2.63354,0 5.31822,0.51648 7.90061,0 1.15489,-0.23098 2.04293,-1.20769 3.16025,-1.58013 2.06023,-0.68674 4.32441,-0.72466 6.32049,-1.58012 1.74553,-0.74808 3.09152,-2.21804 4.74037,-3.16025 5.67715,-3.24408 6.24872,-2.47077 11.06087,-6.32049 1.1633,-0.93064 1.99694,-2.22961 3.16024,-3.16025 3.88719,-3.10975 5.0392,-2.50527 7.90062,-6.32049 0.70665,-0.9422 0.87347,-2.21804 1.58013,-3.16025 3.08678,-4.11571 3.21047,-1.73079 4.74037,-6.32049 1.2701,-3.81033 2.82682,-12.46705 3.16024,-15.80124 0.20964,-2.09637 0,-4.21366 0,-6.32049 0,-3.68695 0,-7.37391 0,-11.06086 0,-6.84721 0,-13.69441 0,-20.54161 0,-1.58012 0,-3.16025 0,-4.74037 0,-1.05341 0.17318,-2.12116 0,-3.16025 -0.98794,-5.92766 -1.65739,-5.80086 -3.16024,-11.06086 -0.59661,-2.08811 -1.10903,-4.20054 -1.58013,-6.32049 -0.58261,-2.62174 -0.6623,-5.37662 -1.58012,-7.90062 -1.20747,-3.32054 -3.30538,-6.252 -4.74037,-9.48074 -0.67646,-1.52204 -0.83525,-3.25062 -1.58012,-4.74037 -1.80301,-3.60602 -3.55784,-4.35303 -4.74038,-7.90062 -0.71795,-2.15385 1.84094,-2.45966 -1.58012,-4.74037 -0.87649,-0.58433 -2.21804,0.4711 -3.16025,0 -0.4711,-0.23555 0.23556,-1.10902 0,-1.58012 -0.33311,-0.66624 -1.247,-0.91389 -1.58012,-1.58013 -0.23555,-0.4711 0.23555,-1.10902 0,-1.58012 -0.33312,-0.66624 -1.247,-0.91388 -1.58012,-1.58012 -0.23555,-0.4711 0.23555,-1.10902 0,-1.58013 -3.28805,-6.57609 0.10908,1.68921 -3.16025,-1.58012 -0.37244,-0.37244 0.37244,-1.20768 0,-1.58012 -0.37244,-0.37244 -1.20768,0.37244 -1.58012,0 -0.37244,-0.37244 0.23555,-1.10902 0,-1.58013 -0.33312,-0.66623 -1.05342,-1.05341 -1.58013,-1.58012 -0.5267,-0.52671 -0.91388,-1.247 -1.58012,-1.58012 -0.4711,-0.23555 -1.34457,0.4711 -1.58012,0 -0.4711,-0.94221 0.33312,-2.16089 0,-3.16025 -0.23555,-0.70665 -1.24701,-0.91389 -1.58013,-1.58012 -0.23555,-0.47111 0,-1.05342 0,-1.58013 0,-0.5267 0,-1.05341 0,-1.58012 0,-2.10683 -2.10683,-6.32049 0,-6.32049 2.10684,0 0,4.21366 0,0 z"
       id="path7044"
       inkscape:connector-curvature="0" />
    <g
       style="font-style:normal;font-weight:normal;font-size:434.84927368px;line-height:125%;font-family:sans-serif;letter-spacing:0px;word-spacing:0px;fill:#000000;fill-opacity:1;stroke:none;stroke-width:1px;stroke-linecap:butt;stroke-linejoin:miter;stroke-opacity:1"
       id="text4139"
       transform="translate(390.27943,414.36286)">
      <path
         d="m 332.64444,257.8601 q -30.57534,0 -48.19862,16.34932 -17.41096,16.34931 -17.41096,45.01369 0,28.66438 17.41096,45.01369 17.62328,16.34932 48.19862,16.34932 30.57534,0 48.19863,-16.34932 17.62328,-16.56164 17.62328,-45.01369 0,-28.66438 -17.62328,-45.01369 -17.41096,-16.34932 -48.19863,-16.34932 z m -42.89041,-18.26027 q -27.60273,-6.79452 -43.10273,-25.69178 -15.28767,-18.89726 -15.28767,-46.07534 0,-38.00684 26.96575,-60.08903 27.17808,-22.082191 74.31506,-22.082191 47.34931,0 74.31506,22.082191 26.96575,22.08219 26.96575,60.08903 0,27.17808 -15.5,46.07534 -15.28767,18.89726 -42.67807,25.69178 30.99999,7.21918 48.19862,28.23972 17.41096,21.02055 17.41096,51.38356 0,46.07534 -28.23972,70.70547 -28.0274,24.63014 -80.4726,24.63014 -52.4452,0 -80.68492,-24.63014 -28.0274,-24.63013 -28.0274,-70.70547 0,-30.36301 17.41096,-51.38356 17.41096,-21.02054 48.41095,-28.23972 z m -15.71232,-67.73287 q 0,24.63013 15.28767,38.4315 15.49999,13.80137 43.31506,13.80137 27.60274,0 43.10274,-13.80137 15.71232,-13.80137 15.71232,-38.4315 0,-24.63013 -15.71232,-38.4315 -15.5,-13.80137 -43.10274,-13.80137 -27.81507,0 -43.31506,13.80137 -15.28767,13.80137 -15.28767,38.4315 z"
         id="path4144"
         inkscape:connector-curvature="0" />
    </g>
  </g>
</svg>
