<?xml version="1.0" encoding="UTF-8" standalone="no"?>
<!-- Created with Inkscape (http://www.inkscape.org/) -->

<svg
   xmlns:dc="http://purl.org/dc/elements/1.1/"
   xmlns:cc="http://creativecommons.org/ns#"
   xmlns:rdf="http://www.w3.org/1999/02/22-rdf-syntax-ns#"
   xmlns:svg="http://www.w3.org/2000/svg"
   xmlns="http://www.w3.org/2000/svg"
   xmlns:sodipodi="http://sodipodi.sourceforge.net/DTD/sodipodi-0.dtd"
   xmlns:inkscape="http://www.inkscape.org/namespaces/inkscape"
   width="14in"
   height="8.5in"
   viewBox="0 0 1260 765"
   id="svg2"
   version="1.1"
   inkscape:version="0.91 r13725"
   sodipodi:docname="09_01_AddingText.svg">
  <defs
     id="defs4" />
  <sodipodi:namedview
     id="base"
     pagecolor="#ffffff"
     bordercolor="#666666"
     borderopacity="1.0"
     inkscape:pageopacity="0.0"
     inkscape:pageshadow="2"
     inkscape:zoom="0.74379085"
     inkscape:cx="630"
     inkscape:cy="382.5"
     inkscape:document-units="px"
     inkscape:current-layer="layer1"
     showgrid="false"
     units="in"
     inkscape:window-width="1360"
     inkscape:window-height="745"
     inkscape:window-x="-8"
     inkscape:window-y="-8"
     inkscape:window-maximized="1" />
  <metadata
     id="metadata7">
    <rdf:RDF>
      <cc:Work
         rdf:about="">
        <dc:format>image/svg+xml</dc:format>
        <dc:type
           rdf:resource="http://purl.org/dc/dcmitype/StillImage" />
        <dc:title />
      </cc:Work>
    </rdf:RDF>
  </metadata>
  <g
     inkscape:label="Layer 1"
     inkscape:groupmode="layer"
     id="layer1"
     transform="translate(0,-287.3622)">
    <path
       d="m 1032.6036,778.46321 c -0.6448,-0.51626 -4.4867,0.13062 -4.8702,0.13062 0,0 -0.096,-0.0829 -0.2634,-0.22807 -0.226,-0.40636 -0.3814,-1.27924 -0.3814,-1.56744 0,-0.38149 3.4562,-5.88618 3.4562,-5.88618 l 2.8259,7.29812 c 0,0 -0.1326,0.76714 -0.7671,0.25295 z m -30.8947,250.24029 c -0.9558,0.8978 -0.5017,1.0761 -0.8003,1.3395 -0.5639,0.5265 -0.7671,0.6468 -1.01798,0.9931 -0.70494,0.9703 -0.57432,1.9634 -0.28613,2.7056 0.58471,1.5074 6.97471,0.5267 18.23491,0.5267 11.2706,0 12.2638,-0.3608 12.2638,-0.3608 0.4664,0 0.4789,-0.9205 0.933,-0.9081 0.3835,0 0.025,0.7298 0.4436,0.8251 1.2565,0.2986 3.4936,-0.035 4.5219,-0.035 0.5993,-0.2155 0.5993,-0.6095 0.6345,-1.6628 -0.1782,-0.9102 0.1555,-3.3276 -0.2757,-5.4445 0,0 4.5239,-5.9836 6.5807,-8.5442 2.0464,-2.5606 -2.3076,-8.1959 -1.2792,-12.0357 1.0159,-3.8294 11.5215,-46.09005 11.5215,-46.09005 0,0 0,-11.26024 2.2972,-15.87962 2.3097,-4.60486 4.1051,-13.05367 5.1211,-25.34229 1.0305,-12.28861 7.6817,-39.18591 9.9914,-44.80876 2.3097,-5.63532 4.1051,-11.78688 4.1051,-11.78688 0,0 2.5482,6.15156 2.0465,10.75643 -0.5163,4.60693 -4.3561,32.27136 -1.7956,38.67172 2.5606,6.38999 3.8419,21.75336 3.5765,31.74472 -0.2508,9.99138 2.0589,18.43811 1.5447,22.54331 -0.5143,4.09067 1.0159,20.22116 -1.7955,28.16616 -2.8114,7.93256 -6.6512,17.66066 -1.7934,28.16616 0,0 -0.6697,11.5214 0.2633,12.0253 1.7229,0 7.4184,-0.025 7.4184,-0.025 0,0 -0.707,-1.2689 0.5742,-1.016 0.4893,0.226 -0.8977,1.0036 4.4867,1.0036 l 24.5171,0 c 0,0 4.607,0.037 4.1031,-2.7866 -0.5141,-2.8114 -1.6276,-2.2972 -1.6276,-2.2972 0,0 -3.8771,-1.0657 -9.9312,-2.8488 -7.3935,-2.8467 -3.4209,-6.3651 -3.4209,-6.3651 0,0 2.2972,-0.2509 2.2972,-5.1211 0,-4.8703 -2.5606,-5.1211 0.5141,-23.29593 3.0748,-18.18724 -2.3097,-27.91529 -0.2508,-44.05616 2.0464,-16.13049 9.979,-62.47145 11.2582,-71.94656 1.2813,-9.47718 4.6069,-35.59905 1.0304,-49.93197 0,0 -3.8419,-6.40243 -4.3561,-8.19586 -0.5141,-1.7955 -1.7954,-6.91662 -1.7954,-6.91662 l 0.2757,-1.0885 0.8977,0.20318 c 0,0 0.9683,1.33937 2.3097,0.76506 1.3394,-0.57431 2.884,-4.03262 2.884,-4.03262 0,0 6.1371,2.884 10.1822,-4.79768 4.0201,-7.69412 5.1791,-10.75643 5.1791,-11.91749 0,-1.14862 0,-4.03263 -0.3815,-5.75557 -0.2405,-1.03872 -0.6821,-2.36773 -0.9931,-3.25304 2.5482,-0.66968 4.8578,-1.26888 5.8986,-1.48451 2.9441,-0.6448 3.4584,-2.82387 3.4584,-2.82387 0,0 4.2233,-45.44528 4.2233,-46.09008 0,-0.64688 -1.0283,-0.89776 -1.0283,-0.89776 0,0 -12.0025,2.46519 -25.2241,5.20405 -0.013,-0.20318 -0.013,-0.34624 0.025,-0.39393 0.7651,-1.14862 -1.9136,-14.02192 -7.6816,-16.32124 -5.7556,-2.30761 -23.8101,-8.45918 -26.8869,-9.22424 -3.0748,-0.76505 -5.9464,-3.64906 -5.9464,-3.64906 l -3.2655,-6.71343 -1.0055,0.0953 c 0.5742,-1.31656 1.3767,-3.3961 1.8307,-4.62974 4.8366,-13.18318 3.8223,-12.94145 3.4474,-18.25482 -0.4159,-2.08352 -0.337,-5.13647 -0.5879,-6.03422 -0.2509,-0.89774 -0.5141,-1.018 -0.765,-6.53306 -0.2634,-5.50468 -6.2698,-10.6258 -7.6817,-11.77442 -1.4119,-1.14863 -2.6933,-0.76506 -4.2234,-1.14863 -1.5446,-0.38357 -4.6193,-2.4403 -6.4024,-2.05674 -1.7935,0.39393 -2.177,1.92613 -2.9566,1.54256 -0.765,-0.38357 -4.8578,-0.89776 -7.2857,0.25087 -2.4402,1.16106 -7.5614,7.30018 -8.8427,10.88912 -1.2792,3.57649 0.2633,13.56786 0.2633,13.56786 0,0 -0.6449,-0.38149 -1.1611,1.92612 -0.5141,2.29725 2.0588,9.09361 3.3381,10.62581 1.2813,1.53218 3.1949,1.41194 3.1949,1.41194 0,0 0.1328,3.20743 1.2814,8.32648 0.5494,2.4175 0.5018,4.16532 0.311,5.34919 -0.85,1.018 -1.783,2.90888 -1.5675,6.23449 0,0 -0.3835,0.88532 -1.0408,1.73539 -0.035,-0.1327 -0.073,-0.25295 -0.1077,-0.39602 0,0 -1.6753,1.41194 -3.8772,3.05195 -3.5889,1.93855 -8.6022,4.43899 -8.6022,4.43899 0,0 -12.8754,7.68168 -14.9819,10.18212 -2.1169,2.50043 -4.2234,4.79767 -4.9884,8.44673 -0.7775,3.65114 -3.4583,14.024 -3.8523,18.24944 -0.3835,4.22337 -1.7229,17.27705 -4.4161,21.89434 -2.6809,4.60695 -4.2234,9.02313 -4.607,11.33282 -0.38148,2.29724 -0.38148,13.62799 8.4488,17.85135 5.7659,0.76506 14.7891,-2.1065 16.1284,-2.29724 1.3519,-0.19282 10.5657,-2.39262 12.3011,-2.50043 1.0885,-0.0726 1.723,-0.19075 1.723,-0.19075 0,0 -1.7832,3.45624 -2.7534,4.41411 -0.9579,0.95788 -2.0464,2.884 -0.8978,3.64906 0.8749,0.57431 3.3754,1.92612 4.5593,2.54812 -0.096,1.12582 -0.4666,2.74095 -1.6379,4.6795 -2.2994,3.8398 -6.1516,7.68169 -6.6534,9.72806 -0.5142,2.05674 -2.8239,23.55923 -3.0748,32.01841 -0.2632,8.44674 -3.0747,26.62361 -4.1051,45.82677 -1.0159,19.20525 1.0304,21.51286 0.5162,23.82254 -0.5162,2.29726 -3.3277,8.963 -4.0927,16.39381 -0.7671,7.41629 -7.1675,48.13647 -7.945,61.70435 0,0 -0.5038,5.6353 -1.5322,8.9609 -1.0284,3.3277 1.2212,7.8974 1.2212,7.8974 0,0 -0.4313,1.4243 -1.9863,3.0519 -1.246,1.2916 -7.6339,2.9793 -8.7121,4.2233"
       style="fill:#3b3838;fill-opacity:1;fill-rule:nonzero;stroke:none"
       id="path386"
       inkscape:connector-curvature="0"
       sodipodi:nodetypes="cccscccccccsccccccccccccccccccccccscccccscccccccccccsccccsccccccccccscsccccccccccccccccccccccccccccccccccccccc" />
    <path
       d="m 878.56276,402.64276 299.77834,0 c 13.6881,0 24.7783,11.0923 24.7783,24.77835 l 0,159.76166 c 0,13.69433 -11.0902,24.78871 -24.7783,24.78871 l -19.5868,0 -49.7412,42.77484 9.8359,-42.77484 -240.28624,0 c -13.70056,0 -24.78043,-11.09438 -24.78043,-24.78871 l 0,-159.76166 c 0,-13.68605 11.07987,-24.77835 24.78043,-24.77835"
       style="fill:#94c1ea;fill-opacity:1;fill-rule:nonzero;stroke:#000000;stroke-width:3;stroke-miterlimit:4;stroke-dasharray:none;stroke-opacity:1"
       id="path410"
       inkscape:connector-curvature="0"
       sodipodi:nodetypes="csssscccsssc" />
  </g>
</svg>
