<?xml version="1.0" encoding="UTF-8" standalone="no"?>
<!-- Created with Inkscape (http://www.inkscape.org/) -->

<svg
   xmlns:dc="http://purl.org/dc/elements/1.1/"
   xmlns:cc="http://creativecommons.org/ns#"
   xmlns:rdf="http://www.w3.org/1999/02/22-rdf-syntax-ns#"
   xmlns:svg="http://www.w3.org/2000/svg"
   xmlns="http://www.w3.org/2000/svg"
   xmlns:sodipodi="http://sodipodi.sourceforge.net/DTD/sodipodi-0.dtd"
   xmlns:inkscape="http://www.inkscape.org/namespaces/inkscape"
   width="9.0879831in"
   height="9.6127863in"
   viewBox="0 0 817.91848 865.15077"
   id="svg4322"
   version="1.1"
   inkscape:version="0.91 r13725"
   sodipodi:docname="06_01_FilterEditor.svg">
  <defs
     id="defs4324" />
  <sodipodi:namedview
     id="base"
     pagecolor="#ffffff"
     bordercolor="#666666"
     borderopacity="1.0"
     inkscape:pageopacity="0.0"
     inkscape:pageshadow="2"
     inkscape:zoom="0.61765806"
     inkscape:cx="347.57908"
     inkscape:cy="385.54723"
     inkscape:document-units="px"
     inkscape:current-layer="layer1"
     showgrid="false"
     inkscape:window-width="1360"
     inkscape:window-height="745"
     inkscape:window-x="-8"
     inkscape:window-y="-8"
     inkscape:window-maximized="1"
     units="in"
     fit-margin-top="0"
     fit-margin-left="0"
     fit-margin-right="0"
     fit-margin-bottom="0"
     inkscape:snap-page="true"
     inkscape:object-nodes="true" />
  <metadata
     id="metadata4327">
    <rdf:RDF>
      <cc:Work
         rdf:about="">
        <dc:format>image/svg+xml</dc:format>
        <dc:type
           rdf:resource="http://purl.org/dc/dcmitype/StillImage" />
        <dc:title />
      </cc:Work>
    </rdf:RDF>
  </metadata>
  <g
     inkscape:label="Layer 1"
     inkscape:groupmode="layer"
     id="layer1"
     transform="translate(41.102096,-46.577581)">
    <rect
       style="opacity:1;fill:#aaccff;fill-opacity:1;stroke:#000000;stroke-width:0.95957422;stroke-miterlimit:4;stroke-dasharray:none;stroke-opacity:1"
       id="rect3340"
       width="817.96375"
       height="865.19598"
       x="-41.147343"
       y="46.532326" />
    <path
       id="path144"
       style="fill:#2ca05a;fill-opacity:1;fill-rule:nonzero;stroke:none"
       d="m 469.59131,320.75929 c -0.57762,-0.90277 -1.76724,-3.45686 -2.0089,-5.06398 -0.24165,-1.60809 -0.1611,-2.97551 0.32123,-4.2614 0.48233,-1.28588 1.68865,-4.09931 2.17098,-4.8233 0.48135,-0.723 1.04423,-2.81343 1.04423,-2.81343 0,0 0.48135,-0.32122 1.36644,-0.64343 0.8841,-0.32123 1.20533,-2.65233 1.20533,-2.89398 0,-0.24068 0.24264,-3.29576 -0.16012,-4.90386 -0.40178,-1.60711 -3.21619,-5.46575 -3.93919,-6.43041 -0.72399,-0.96466 -2.08945,-1.20534 -3.05509,-1.28589 -0.96466,-0.0806 -0.88411,-0.16012 -1.68865,-1.12576 -0.80355,-0.96466 -1.12478,-2.89398 -2.81343,-3.37631 -1.68864,-0.48233 -2.25152,-0.16013 -2.57275,-1.20534 -0.32123,-1.04521 -1.0462,-3.29576 -0.80356,-4.34097 0.24166,-1.04521 2.16902,-2.97453 2.41165,-3.21619 0.24166,-0.24067 -0.0796,0.56288 0.24166,-0.24067 0.32123,-0.80454 0.48135,-4.01975 0.24067,-5.86852 -0.24067,-1.84876 -1.36643,-4.10029 0.0806,-5.78796 1.44699,-1.68766 2.41361,-2.97355 3.94017,-2.97355 1.52754,0 3.53643,0.24166 4.58263,-0.723 1.04521,-0.96565 2.81441,-1.52755 3.45686,-2.25153 0.64344,-0.72301 1.36644,-3.13466 2.08945,-3.37631 0.72398,-0.24068 0.72398,-0.24068 0.72398,-0.24068 0,0 1.04521,0.80356 1.36644,1.52755 0.32123,0.723 1.52853,1.52656 2.09042,0.80355 0.5619,-0.72398 0.4008,-1.20631 0.96368,-2.3311 0.56289,-1.12576 1.6081,-2.33011 2.49319,-3.37533 0.88411,-1.04521 1.84877,-2.33208 2.89398,-2.89496 1.04423,-0.5619 3.45784,-1.44699 3.61698,-2.33012 0.16111,-0.8841 0.16111,-0.8841 0.16111,-0.8841 0,0 0,-0.80454 -0.64344,-1.6081 -0.64343,-0.80355 -1.68864,-2.25054 -1.76821,-2.73386 -0.0806,-0.48233 -0.40276,-1.36644 -1.44699,-1.76821 -1.04522,-0.40178 -4.1003,-2.89398 -4.1003,-3.9392 0,-1.04423 -0.32123,-2.08944 0.0806,-2.81343 0.40178,-0.723 0.0806,-1.76821 0.80454,-2.25447 0.72202,-0.48135 2.25055,-0.71711 2.89398,-0.71711 0.64245,0 1.04423,-0.48135 1.36546,-1.28687 0.32221,-0.80552 1.36742,-0.9627 2.17097,-0.167 0.80454,0.80552 3.21521,2.89791 3.69754,2.97846 0.48233,0.0806 1.44699,0.32221 1.68865,1.04522 0.24165,0.72398 0.80454,1.44699 1.84975,1.44699 1.04423,0 2.16999,0.48233 2.65232,0.80355 0.48233,0.32221 0.64344,1.44699 1.28589,1.68865 0.64343,0.24067 1.61006,0.40178 2.01184,0.24067 0.40178,-0.16012 0.88411,-0.56288 1.12576,-0.56288 0.24068,0 2.08944,0.32221 2.3311,-0.24067 0.24166,-0.56289 0.24166,-0.56289 0.24166,-0.56289 0,0 0.88312,-0.32122 1.44699,-0.32122 0.56288,0 0.56288,0 0.56288,0 0,0 0.64147,-0.56288 1.2849,-0.40178 0.64442,0.16012 0.64442,0.16012 0.64442,0.16012 0,0 0.24166,0.80454 0.0805,1.28687 -0.1611,0.48233 -0.1611,0.48233 -0.1611,0.48233 0,0 0.48135,0.96368 1.04423,0.96368 0.56288,0 1.04521,0 1.04521,0 0,0 1.04521,0.40276 1.76822,0.64343 0.72398,0.24166 2.08944,1.12577 2.73287,0.80356 0.64442,-0.32123 5.06496,-3.21422 6.35085,-4.25944 1.28687,-1.04521 3.61895,-3.37631 3.85962,-3.93526 0.24068,-0.56976 0.72301,-4.8233 0.24068,-5.55024 -0.48234,-0.72693 -2.40969,-3.6936 -2.40969,-4.66612 0,-0.9627 0.48233,-2.48533 0.64245,-3.05509 0.16111,-0.55993 -7.8e-4,-1.28687 -0.56288,-2.40674 -0.5619,-1.12969 -1.36546,-3.53643 -1.36546,-4.34195 0,-0.80552 0.72399,-2.65233 1.28589,-3.29085 0.5619,-0.64834 2.49024,-2.33797 3.61698,-2.49515 1.12577,-0.167 2.73288,-1.28687 4.09932,-1.53245 1.36742,-0.23576 1.68963,-1.28687 2.17196,-2.24957 0.48135,-0.96269 1.60711,-3.05508 1.84778,-3.93919 0.24166,-0.88411 0.64344,-9.32243 0.32221,-11.24782 -0.32221,-1.93522 -0.96466,-3.05509 0.0805,-4.74472 1.04424,-1.68962 1.52558,-3.37925 2.49123,-4.74471 0.96466,-1.36546 1.28588,-1.92539 1.36643,-2.8095 0.0806,-0.88411 -0.1611,-3.70343 0.56289,-4.66612 0.72496,-0.9627 1.04619,-1.68963 1.04619,-3.13368 0,-1.44404 -0.64442,-6.74869 -1.28687,-9.40101 -0.64245,-2.66215 -2.4922,-8.68391 -3.61698,-10.53072 -1.12577,-1.85662 -4.34294,-7.64262 -4.34294,-8.8509 0,-1.19846 1.04521,-3.45785 1.7692,-4.57772 0.723,-1.12969 0.80356,-1.44404 0.80356,-1.44404 0,0 0.8841,-1.20828 0.8841,-1.45387 0,-0.23576 0,-0.23576 0,-0.23576 0,0 -0.16012,-1.45387 -0.40177,-1.76822 -0.24166,-0.32417 -0.24166,-0.64834 -0.24166,-0.64834 0,0 -0.4008,-1.44405 0.1611,-1.84681 0.5619,-0.40276 1.12577,-0.32417 1.52755,0.72694 0.40177,1.04128 1.20435,2.32815 2.16999,1.60121 0.96466,-0.71711 1.60908,-0.15717 2.33208,-0.23576 0.72301,-0.0786 2.41067,-1.0511 2.893,-1.68963 0.48233,-0.64834 0.48233,-0.64834 0.48233,-0.64834 0,0 0.16111,-1.52263 0.56387,-2.40674 0.40177,-0.88411 0.40177,-0.88411 0.40177,-0.88411 0,0 1.04423,-0.80552 1.76822,-0.48135 0.723,0.32418 0.723,0.32418 0.723,0.32418 0,0 0.24166,0.55993 0.96466,1.52263 0.72399,0.96269 1.92933,1.36545 2.00988,2.0138 0.0806,0.63852 1.04521,2.08256 2.00987,2.48532 0.96564,0.40276 3.45686,2.33798 4.34097,3.22209 0.88411,0.88411 4.1003,4.49913 4.98441,5.619 0.88509,1.12969 5.86851,6.35575 6.91372,6.99428 1.0462,0.64834 1.6081,1.0511 2.00988,1.68963 0.40276,0.64834 0.0815,1.44404 0.72496,1.93521 0.64246,0.48135 1.84779,0.9627 2.08847,2.56391 0.24165,1.61105 0.32319,1.45387 1.04619,2.01381 0.723,0.55993 4.1003,4.98047 5.06398,6.18875 0.96466,1.20829 6.83219,6.67011 8.11906,7.63281 1.28588,0.97251 3.37729,4.18477 4.58262,4.74471 1.20632,0.56976 1.37135,1.0511 2.41657,1.76821 1.04423,0.72694 5.14452,2.09239 5.54728,3.22209 0.4008,1.11987 0.23871,0.55993 2.08846,1.6798 1.84976,1.1297 2.57178,1.37528 3.61797,2.65233 1.04521,1.28687 2.65233,2.66215 4.26042,3.37926 1.6081,0.72693 19.53781,6.99427 21.06437,7.07286 1.52754,0.0884 5.78894,1.20828 6.83317,1.28687 1.04522,0.0786 2.97552,0.167 3.53742,0 0.5619,-0.15718 0.5619,-0.15718 0.5619,-0.15718 0,0 0.88411,0.40277 0.80454,1.28687 -0.0805,0.88411 0.56288,3.37926 1.28588,4.17496 0.72301,0.80552 2.08945,2.17098 3.45589,2.49515 1.36742,0.32417 7.72219,1.28687 9.25071,1.53245 1.52755,0.23577 4.82429,0.39294 6.99428,-0.40276 2.17,-0.80552 4.98343,-2.24956 5.78698,-3.53643 0.80356,-1.28687 2.8154,-3.30067 3.3773,-3.62484 0.5619,-0.31435 4.34097,-4.09637 5.46575,-4.25355 1.12576,-0.16699 2.89496,-1.76821 3.21619,-2.33797 0.32123,-0.55994 3.13465,-4.34196 3.77809,-4.8233 0.64245,-0.48135 1.68864,-2.48533 2.16999,-1.44405 0.48233,1.04129 0.72399,2.57374 0.80454,3.29085 0.0796,0.72693 -0.24067,1.85663 -0.80454,2.81932 -0.56288,0.9627 -2.81343,2.49515 -3.29576,4.01778 -0.48331,1.53246 -0.723,3.45785 -1.20533,3.9392 -0.48331,0.48135 -3.94018,4.18478 -4.50306,5.55023 -0.5619,1.36546 -0.88312,0.88411 -1.04423,2.00398 -0.1611,1.12969 0.0796,2.57374 -0.48233,3.30067 -0.56288,0.71711 -1.36742,1.11987 -0.88509,2.73091 0.48233,1.61105 1.36742,3.70344 2.09043,4.58754 0.72398,0.88411 1.84975,2.24957 2.73484,2.40674 0.88411,0.15718 5.94808,1.36546 6.34986,2.24957 0.40178,0.8841 -0.16111,2.17097 -0.88411,2.09239 -0.723,-0.0786 0.0815,-1.1297 -0.64245,-1.68963 -0.72497,-0.55994 -2.73386,-1.76822 -3.21619,-1.1297 -0.48233,0.64835 0.64147,1.93522 0.88411,3.1435 0.24165,1.19846 1.20533,6.26734 2.09042,7.55421 0.88411,1.28687 2.7319,3.05509 3.05411,3.61502 0.3222,0.56387 0.0796,1.20632 -0.80454,0.56387 -0.88313,-0.64245 -0.96466,-1.04521 -2.33012,-1.52656 -1.36644,-0.48135 -2.3311,-0.72694 -2.16999,-0.0786 0.16012,0.63852 1.20631,0.48135 1.68766,1.44404 0.48233,0.96466 0.88509,1.52656 2.00987,1.84877 1.12577,0.32123 3.61699,1.28589 4.90287,1.04521 1.28687,-0.24165 1.68963,0.0796 2.17098,0.72301 0.48135,0.64343 1.52853,-0.48233 1.20632,-1.52754 -0.32319,-1.04522 -0.32319,-1.04522 -0.32319,-1.04522 0,0 0.88607,-1.60416 1.44797,-2.00692 0.56288,-0.40276 2.41165,-2.0138 3.21619,-2.49515 0.80356,-0.48135 1.20533,-0.48135 1.20533,-0.48135 0,0 1.44699,-0.32417 3.45687,0 2.00987,0.32417 3.2152,0.15717 2.3311,1.12969 -0.8851,0.9627 -0.80258,1.67981 -3.37632,2.16116 -2.57275,0.49117 -2.57373,-0.63853 -4.2614,0.96957 -1.68668,1.60809 -2.00889,1.84877 -2.33011,3.21521 -0.32221,1.36742 -0.96466,2.41165 -1.44699,3.53741 -0.48233,1.12478 -2.00889,-0.0806 -2.65233,-0.56288 -0.64442,-0.48233 -1.2073,0.1611 -3.13662,0.1611 -1.92932,0 -3.45784,-0.24165 -4.50306,0.40178 -1.04423,0.64245 -3.69655,1.60711 -4.50109,1.36644 -0.80356,-0.24166 -0.56288,-0.40178 -1.36644,0.64245 -0.80454,1.04521 -0.80454,1.04521 -0.80454,1.04521 0,0 -0.48233,-0.24067 -0.40177,1.04522 0.0806,1.28588 -0.0806,1.7692 -1.20632,2.25054 -1.12478,0.48233 -2.09043,-0.24165 -2.41165,0.0806 -0.32123,0.3222 -0.5619,0.48233 -0.24068,1.28686 0.32123,0.80356 0.64344,0.96466 -1.20533,1.20534 -1.84877,0.24067 -2.97453,0.48233 -3.85864,0.0806 -0.88411,-0.40178 -0.64344,0 -0.88411,-0.40178 -0.24067,-0.40276 -1.76822,-1.04521 -0.40178,-1.04521 1.36546,0 3.37631,0.0796 3.21521,-0.56386 -0.16111,-0.64246 -0.64245,-2.17 -2.00987,-1.92834 -1.36644,0.24067 -0.48135,0.723 -1.52755,0.80355 -1.04521,0.0806 -1.76919,-0.24165 -2.6533,0.16111 -0.88313,0.40178 -2.41165,1.76723 -2.3311,2.3311 0.0806,0.56288 1.60908,1.7692 1.7692,2.4922 0.16012,0.723 -0.64246,1.04521 -1.92932,0.96466 -1.28687,-0.0806 -3.05411,-0.40178 -4.74275,-0.64343 -1.68865,-0.24068 -3.37631,-0.16111 -4.98539,0.0805 -1.60711,0.24165 -2.73091,0.24067 -3.69656,-0.48233 -0.96564,-0.72301 -1.44797,-1.92834 -2.97453,-2.25055 -1.52754,-0.32221 -2.08944,-0.32221 -3.29576,-0.0815 -1.20533,0.24165 -8.03851,2.57275 -10.29004,4.18085 -2.24956,1.60711 -11.49537,9.1623 -12.46101,9.88629 -0.96466,0.723 -7.71826,7.23397 -8.68293,8.84206 -0.96367,1.6081 -4.90385,7.79784 -5.5463,9.08471 -0.64344,1.28588 -1.20533,1.92932 -1.36644,3.45588 -0.1611,1.52754 0.0796,2.81441 0.24067,3.85864 0.16111,1.04521 -0.0825,3.21521 -0.32319,4.33999 -0.24067,1.12576 0.0806,2.33208 -0.32122,2.89496 -0.40178,0.5619 -2.25055,2.17098 -2.41165,3.21521 -0.16111,1.04521 -0.40178,2.09042 -0.40178,2.73386 0,0.64245 -0.56288,0.88411 -1.04521,0.24067 -0.48233,-0.64343 -2.49221,-1.92932 -3.21521,-3.29674 -0.723,-1.36644 -1.68865,-1.76822 -2.81441,-2.41165 -1.12478,-0.64245 -3.85766,-2.08944 -4.17987,-2.65232 -0.32319,-0.56289 -0.96564,-0.64344 -2.17196,-0.72399 -1.20533,-0.0796 -1.60809,-0.40178 -3.29576,-0.723 -1.68766,-0.32123 -2.3311,-1.12479 -3.7771,-1.76822 -1.44699,-0.64344 -2.73485,-0.48233 -3.69852,-1.28589 -0.96368,-0.80454 -6.67306,-2.97453 -7.87839,-3.93919 -1.20632,-0.96466 -2.73386,-1.6081 -3.94018,-2.00987 -1.20533,-0.40178 -5.14551,-3.37631 -6.02863,-4.58165 -0.88313,-1.20632 -2.17,-2.41165 -3.69754,-2.57275 -1.52754,-0.16111 -5.54827,-1.68767 -6.59446,-2.57178 -1.04522,-0.88509 -2.73386,-2.89496 -3.85864,-3.45686 -1.12577,-0.56288 -7.39704,-2.57275 -9.08471,-2.41165 -1.68864,0.16012 -5.46673,0.723 -7.55716,1.44699 -2.09042,0.723 -6.43139,3.53643 -7.47661,4.50109 -1.04619,0.96466 -2.41165,1.6081 -4.01974,2.49221 -1.6081,0.8841 -2.25055,0.96466 -3.05411,1.84876 -0.80453,0.88411 -2.73287,2.89399 -3.61796,4.01975 -0.88509,1.12478 -1.93031,1.92834 -2.49221,1.84877 -0.56288,-0.0796 -1.12576,0.40276 -2.00987,-0.64344 -0.88411,-1.04521 -0.40079,-1.04521 0.56288,-0.723 0.96466,0.32221 1.44798,-1.12576 0.40178,-1.28589 -1.04521,-0.1611 -1.28588,0.24068 -2.16999,-0.96466 -0.88509,-1.20631 -0.64245,-1.68864 -0.96466,-2.57275 -0.32221,-0.88411 -3.29773,-2.33012 -3.94116,-3.53643 -0.64245,-1.20632 -0.64245,-2.00988 -1.84779,-2.57276 -1.20631,-0.5619 -0.64343,-1.44699 -3.05508,-1.28589 -2.41165,0.16111 -2.57276,1.36644 -3.77907,0.72399 -1.20534,-0.64343 -1.28589,-1.04619 -3.05411,-0.96564 -1.76821,0.0806 -4.01876,1.44699 -4.58164,2.4922 -0.56288,1.04521 -3.45785,5.14453 -3.77809,6.4314 -0.32221,1.28588 -0.96564,3.69753 -0.72399,5.38618 0.24166,1.68767 -7.8e-4,1.68767 1.12478,2.49122 1.12675,0.80454 2.25252,0.40276 2.97552,1.28687 0.723,0.88411 3.616,2.57177 4.17987,3.37533 0.56288,0.80454 1.44601,1.84975 2.81343,1.7692 1.36742,-0.0806 2.57275,-0.24166 4.10029,-0.56288 1.52755,-0.32123 1.44699,-0.88411 2.49221,-0.24068 1.04423,0.64245 2.81146,1.92834 3.05312,2.89398 0.24165,0.96466 0.48331,1.68767 1.28687,2.00889 0.80355,0.32221 2.89496,1.84975 4.10029,3.21619 1.20436,1.36644 1.76724,2.49122 2.893,2.89398 1.12577,0.40178 2.33208,0.64246 3.3773,0.96368 1.04423,0.32221 2.08846,0.64344 2.49122,1.28687 0.40177,0.64343 0.48233,1.04423 1.28588,1.68766 0.80454,0.64344 1.12675,1.52853 0.56288,1.93031 -0.56288,0.40178 -2.25152,0.0796 -2.89398,0.723 -0.64245,0.64344 -1.28687,2.09043 -2.49318,2.65331 -1.20534,0.56288 -2.17098,1.52754 -3.37631,0.88411 -1.20632,-0.64344 -2.3311,-2.25055 -3.53742,-2.49221 -1.20631,-0.24165 -2.97453,-1.20533 -4.26042,-0.723 -1.28588,0.48135 -1.28588,0.48135 -1.28588,0.48135 0,0 0,-0.0806 -0.32221,0.64343 -0.32123,0.72399 -2.57079,0.32123 -1.76822,-0.56288 0.80356,-0.88313 1.60711,-1.04423 1.36644,-1.52656 -0.24067,-0.48233 -0.96368,-1.28687 -1.76822,-1.28687 -0.80355,0 -1.68766,-0.24067 -2.08944,0.48331 -0.40276,0.72301 -0.32417,2.16902 -1.52951,3.13368 -1.20631,0.96466 -2.17097,1.60809 -3.61796,2.09042 -1.44601,0.48233 -2.81441,0.64343 -2.89398,2.00987 -0.0796,1.36644 0.56288,5.3852 -0.16013,6.2703 -0.72398,0.8841 -1.60711,0.8841 -3.05508,1.36643 -1.44699,0.48233 -2.81343,0.64246 -3.69754,1.20534 -0.88411,0.56288 -1.44797,1.84877 -1.68865,2.81343 -0.24067,0.96466 -1.28686,1.9303 -1.92932,1.28687 -0.64245,-0.64344 -0.80355,-1.04522 -1.92932,-1.04522 -1.12478,0 -2.3311,0.48233 -2.81343,0.0806 -0.48233,-0.40178 -0.88803,-0.64246 -1.61005,-1.76822 m -329.88828,400.7416 c 1.446,-1.58943 2.37334,-1.71713 4.17495,-2.61794 1.80064,-0.90081 1.7191,-0.65719 3.76532,-1.55701 2.04622,-0.89885 3.51973,-1.79966 4.83018,-2.782 1.30946,-0.98234 2.21027,-1.7191 2.86451,-2.70144 0.65522,-0.98234 2.12874,-2.12972 3.84783,-3.11206 1.7191,-0.98234 3.43722,-1.71714 4.09343,-2.37334 0.65424,-0.65424 1.71909,-1.96469 2.12775,-3.52072 0.40964,-1.55406 0,-2.04523 0.40964,-3.02758 0.40964,-0.98234 0.65522,-2.3753 0,-2.3753 -0.65523,0 -1.80064,-0.81731 -0.49117,-1.79965 1.30946,-0.98234 0.98234,0.16307 1.96468,-0.41062 0.98234,-0.57172 1.22891,-0.40865 1.55505,-1.96468 0.3281,-1.55407 -0.16307,-2.61893 1.14639,-3.4382 1.30947,-0.81731 2.8655,-1.47155 3.84784,-2.12776 0.98234,-0.65424 1.22793,-0.24558 1.06388,-1.39099 -0.16405,-1.14738 -7.9e-4,-2.04721 0.9008,-1.88414 0.89983,0.16504 2.21028,0.57369 3.1101,2.45586 0.90081,1.88413 1.55603,3.8498 2.45586,5.23981 0.90081,1.391 2.86549,3.35765 4.09342,2.45586 1.22793,-0.89983 3.02856,-1.391 3.60225,-1.88217 0.5727,-0.49117 3.35568,-1.39296 5.32036,-1.22793 1.96469,0.16307 1.39297,0.57173 3.68379,0.73676 2.29279,0.16307 2.53837,7.9e-4 3.92937,-1.63658 1.39198,-1.63855 2.0472,-1.47352 2.61991,-3.11206 0.5727,-1.63659 0.98332,-4.99423 0.32712,-6.05713 -0.65424,-1.06486 -1.63659,-1.47351 -2.70145,-2.29278 -1.06387,-0.81731 -2.5364,-2.12776 -0.24558,-1.47352 2.29279,0.65621 1.31044,-0.16208 2.53837,-0.32614 1.22793,-0.16503 0.24559,1.39198 0.81829,1.7191 0.57271,0.32614 1.22793,0.89983 2.21027,0.0806 0.98235,-0.81731 1.39198,-1.96469 2.78298,-2.86451 1.39198,-0.89983 1.47351,-1.30848 2.78396,-1.63659 1.30946,-0.3281 1.7191,-0.89982 2.37334,-1.96468 0.65522,-1.06486 0.57369,-1.88414 1.96468,-0.90179 1.39198,0.98234 2.70144,1.55701 3.60225,1.63854 0.90081,0.0806 1.96469,1.14542 1.96469,0.0806 0,-1.0629 0.0815,-1.55407 0.49117,-2.04524 0.40964,-0.49117 -0.0815,-1.14738 0.98234,-0.81927 1.06388,0.3281 2.21027,0.3281 1.96469,1.55603 -0.24559,1.22792 0.0815,2.69947 0.5727,2.12775 0.49117,-0.57369 1.14541,-1.31044 1.55603,-1.06486 0.40866,0.24559 1.47352,-0.3281 1.7191,0.57369 0.24559,0.89982 -0.57369,2.70144 0.81829,2.94703 1.39198,0.24558 0.81829,0.89982 2.29181,1.22792 1.47351,0.32614 1.96468,-0.41061 2.70144,0.65424 0.73676,1.06486 1.14738,2.29279 2.70144,1.88217 1.55603,-0.40865 2.53838,-1.22793 3.68379,-0.98234 1.14639,0.24559 2.0472,-0.57172 2.6199,-0.0806 0.57271,0.49117 0.90081,2.21027 0.57271,3.19261 -0.32712,0.98234 -0.0806,1.0629 -0.73676,2.53641 -0.65424,1.47351 -1.30946,1.80162 -1.06387,2.53837 0.24558,0.73676 -0.90081,0.98235 0.0815,1.7191 0.98234,0.73676 0.40865,0.98234 1.80162,1.391 1.39099,0.41062 1.47351,1.14737 2.04622,1.88413 0.5727,0.73676 2.04621,2.12776 1.39197,2.61893 -0.65522,0.49117 -2.6199,1.14541 -2.6199,1.88217 0,0.73675 1.06387,1.06485 1.96468,1.31044 0.90081,0.24559 2.21126,0.32614 1.06388,1.22793 -1.14541,0.89982 -3.1101,1.80161 -4.50208,2.53837 -1.39198,0.73676 -1.55504,0.57172 -2.04622,1.391 -0.49117,0.81927 -1.96468,1.88413 -2.45585,2.29279 -0.49117,0.40865 -1.80162,1.47154 -2.78396,1.79965 -0.98234,0.32908 -2.78298,0.32908 -2.53739,1.39296 0.24558,1.06289 -0.90081,2.94801 -1.47351,3.11108 -0.57271,0.16208 -0.90081,0.40767 -1.22793,0.65325 -0.32712,0.24559 -1.96469,-0.89884 -1.96469,-0.0806 0,0.81731 0.49019,0.49216 0.65522,1.63757 0.16307,1.14443 -1.88413,5.0738 -2.45585,6.30172 -0.57369,1.22793 -0.73676,4.33999 -0.90081,5.56792 -0.16405,1.22793 -0.81829,2.37432 -1.7191,0.98234 -0.90081,-1.39296 -1.71812,-1.55504 -2.12874,-2.21027 -0.40865,-0.6562 -1.88216,-1.71811 -2.37333,-2.78297 -0.49118,-1.06584 -0.24559,-1.55702 -1.80162,-2.53936 -1.55505,-0.98234 -2.21027,-1.30848 -2.53739,-2.29082 -0.32712,-0.98234 -1.4745,-1.71812 -3.27415,-1.80063 -1.80161,-0.0835 -3.68378,-0.57271 -3.92937,-0.73676 -0.24558,-0.16405 -2.12873,-0.49117 -3.35666,-0.49117 -1.22793,0 -2.53739,-0.49117 -3.4382,0.0815 -0.90081,0.57173 -1.88315,1.55603 -2.37432,2.12874 -0.49117,0.5727 -3.27415,0.73675 -3.27415,1.22793 0,0.49117 -0.24657,0.65325 -0.65522,1.39001 -0.40866,0.73676 -2.04622,1.39296 -3.35569,1.63855 -1.31044,0.24558 -0.57368,0.16405 -1.39197,0.90081 -0.8183,0.73675 -1.30947,-0.49216 -1.96469,-0.0835 -0.65522,0.41062 -1.80063,2.21223 -1.80063,3.03052 0,0.81829 1.14541,2.12678 0.89982,2.78298 -0.24558,0.65522 -1.63658,2.45389 -1.63658,3.51875 0,1.06584 -0.16405,2.21027 -0.65522,2.21027 -0.49117,0 -1.06486,-0.73676 -1.39198,0 -0.32712,0.73676 -1.88217,1.7191 -2.37334,3.4382 -0.49117,1.7191 -0.3281,2.45586 -0.98234,2.70144 -0.65523,0.24559 -1.96469,-1.30848 -2.45586,-0.32614 -0.49117,0.98235 -0.90081,0.98038 -1.22793,2.29083 -0.3281,1.31142 -0.81927,1.47351 -0.40963,2.62089 0.40963,1.14639 0.24558,3.19359 -0.49118,3.60225 -0.73675,0.40767 -1.63756,1.31044 -1.14639,1.96468 0.49117,0.65326 2.12775,1.39198 2.45586,2.21027 0.3281,0.81829 0.5727,3.19261 -0.24559,2.78298 -0.81829,-0.41062 -2.53739,-3.1101 -3.35568,-3.02856 -0.81927,0.0815 -1.4745,-0.0835 -2.0472,0.40767 -0.57271,0.49117 -0.65523,-0.73479 -1.47352,0.0835 -0.81829,0.81829 -1.88216,1.88118 -3.11009,0.89884 -1.22793,-0.98234 -2.37432,-2.45586 -3.11108,-1.96468 -0.73676,0.49117 -2.94801,0.40865 -2.61991,-0.49118 0.3281,-0.89884 2.78396,-2.94702 3.35667,-3.76433 0.5727,-0.81829 0.16306,-1.80064 -1.63757,-1.80064 -1.80064,0 -2.61893,-0.65718 -3.76532,-0.57467 -1.14639,0.0835 -1.06486,0.98235 -2.61991,0.73676 -1.55505,-0.24558 -2.94703,-0.24558 -1.88217,-1.55406 1.06388,-1.30947 2.04622,-1.96665 0.98235,-3.11207 -1.06486,-1.14442 -3.92937,-0.24362 -3.68379,-1.6356 0.24559,-1.39198 0.24461,-1.31142 1.391,-2.12873 1.14639,-0.81829 2.61892,-1.391 0.98234,-2.53739 -1.63658,-1.1464 -3.35666,-1.55505 -1.7191,-1.96469 1.63757,-0.40963 1.63757,-0.49117 2.37432,-1.47351 0.73676,-0.98234 1.55505,-0.65719 1.63757,-1.55701 0.0815,-0.89885 -1.39296,-0.73676 -1.31045,-1.79966 0.0825,-1.06387 2.12874,-2.45782 -0.16306,-2.3753 -2.29279,0.0835 -5.1573,0.57369 -4.33901,-0.49117 0.81829,-1.0629 1.39198,-0.89884 0.90081,-2.04524 -0.49117,-1.14737 -0.65523,-1.9637 -0.40964,-2.78297 0.24559,-0.82026 0.65522,-1.88217 -0.73676,-1.96469 -1.39198,-0.0835 -2.12873,-0.24559 -3.27414,0.49117 -1.1464,0.73676 -4.83018,2.45488 -5.40289,3.3547 -0.57369,0.90179 -1.39296,1.391 -2.0472,1.22793 -0.65424,-0.16209 -1.06486,-0.57172 -1.7191,-0.32614 -0.65424,0.24559 -1.22793,-0.002 -0.40865,-0.90179 M 91.977847,692.68687 c 0.14146,-0.30747 0.73577,-1.88413 0.0815,-2.86647 -0.65424,-0.98235 -0.73675,-1.0629 -1.7191,-2.94703 -0.98234,-1.88217 -0.73675,-2.12775 0.16406,-2.78199 0.9008,-0.65621 1.80063,-1.55604 1.88315,-2.21028 0.0815,-0.6562 0.16306,-1.80161 -0.24559,-2.62089 -0.40964,-0.8173 -2.29279,-1.96468 -2.0472,-2.45585 0.24558,-0.49117 0.40964,-0.73676 0.57369,-1.391 0.16307,-0.65424 -1.06486,-2.12972 0.49117,-2.21027 1.55505,-0.0825 3.68378,-0.73676 4.50207,-0.81927 0.81829,-0.0806 1.22793,-0.89983 0.16405,-0.98235 -1.06485,-0.0806 -2.6199,-0.40865 -2.37432,-0.98234 0.24559,-0.57172 0.90081,-1.30848 1.96469,-0.98234 1.06387,0.3281 1.7191,1.06486 2.70144,0.57369 0.98234,-0.49117 2.046223,-0.24559 2.455863,0.24558 0.40963,0.49117 1.9637,2.12972 2.04622,0.81928 0.0825,-1.31045 0.16405,-1.80162 1.14639,-1.80162 0.98234,0 2.53738,-1.47351 2.12873,-0.3281 -0.40963,1.14737 -1.80161,3.02954 0.16307,2.53837 1.96468,-0.49117 2.78395,-0.89982 4.50305,-1.63658 1.7191,-0.73676 2.04622,-0.81927 1.96469,-1.7191 -0.0825,-0.90179 1.88217,-0.41062 1.80063,-1.63855 -0.0815,-1.22793 -0.81927,-2.0472 0.57271,-2.12775 1.39198,-0.0825 1.391,-0.49117 2.37334,-1.391 0.98234,-0.90179 0.41062,-2.45782 1.88413,-3.02954 1.47351,-0.57369 0.98234,-1.7191 1.63658,-2.0472 0.65424,-0.32614 0.57369,0.0825 1.55603,0.16503 0.98235,0.0806 0.0806,-1.14738 2.04524,-0.90179 1.96469,0.24558 2.45586,0.41062 4.25747,-0.57172 1.80162,-0.98235 1.63659,-2.78396 3.19262,-3.76631 1.55603,-0.98234 2.29278,-1.55603 3.52071,-2.6199 1.22793,-1.06388 1.79965,-2.61991 3.02758,-3.11108 1.22793,-0.49117 0.98234,-0.89983 1.96469,-1.88217 0.98234,-0.98234 1.39198,-1.7191 2.53837,-2.45586 1.14639,-0.73675 2.12775,-2.78395 3.68378,-3.02954 1.55603,-0.24559 2.21027,-0.24559 3.35667,-1.55505 1.14639,-1.30946 1.7191,-2.2918 2.70144,-3.35666 0.98234,-1.06388 0.73577,-2.29181 2.04622,-2.94703 1.31044,-0.65424 2.37334,-2.12775 4.42054,-3.1101 2.0472,-0.98234 2.21027,-1.31044 3.4382,-2.12873 1.22793,-0.81829 1.96468,-1.7191 2.0472,-2.45586 0.0815,-0.73676 0.73676,-2.61892 -0.16405,-3.02856 -0.90081,-0.40964 -2.53837,-0.57369 -1.14639,-1.31045 1.39197,-0.73675 1.63756,-0.81829 3.02954,-0.81829 1.391,0 1.391,-0.24558 1.7191,-0.9008 0.32712,-0.65424 4.17496,-2.70046 5.40289,-2.86452 1.22792,-0.16405 2.94604,0.24559 3.35568,-0.24558 0.40963,-0.49117 1.80161,-1.06388 2.0472,-0.98234 0.24558,0.0815 1.22793,-0.24559 1.47351,-0.81928 0.24559,-0.5727 1.30946,-2.37334 2.04622,-2.12775 0.73676,0.24558 1.55505,1.14541 2.04622,1.391 0.49117,0.24558 1.31045,0.57368 2.78396,0.16405 1.47351,-0.40964 2.53739,-0.40964 3.27415,-0.40964 0.73675,0 1.88315,-0.24559 1.22793,0.16405 -0.65523,0.40964 -2.45586,0.40964 -2.45586,1.80064 0,1.39197 -0.3281,1.47449 -0.65522,2.29278 -0.32712,0.81829 -0.0815,1.63659 -0.40866,2.04622 -0.3281,0.40964 -0.57369,1.63757 -2.70144,0.98234 -2.12874,-0.65522 -4.58557,-1.14639 -5.73099,-1.14639 -1.14541,0 -3.43819,0.0825 -3.68378,0.81927 -0.24559,0.73676 -1.88217,1.30947 0.57369,1.63659 2.45585,0.3281 3.51973,0.24558 5.1573,-0.0815 1.63658,-0.32712 2.61892,-0.90081 4.50207,-0.24558 1.88315,0.65522 1.55505,0.40963 3.51973,0.49117 1.96469,0.0815 4.09244,0.90081 3.92937,0.0815 -0.16306,-0.81829 0.24559,-1.30946 -0.65424,-2.04622 -0.9008,-0.73675 -0.90179,-0.65522 -1.55603,-0.40963 -0.65424,0.24558 -1.96468,-0.57173 -1.47351,-1.391 0.49117,-0.81927 -0.16307,-2.70144 0.81927,-2.70144 0.98235,0 0.81731,-0.24559 1.88217,1.22793 1.06486,1.47351 1.7191,3.19261 2.61991,2.21027 0.90081,-0.98235 1.06388,-0.98235 2.04622,-1.55603 0.98234,-0.57271 2.12874,-1.391 3.52071,-1.47352 1.391,-0.0815 3.60127,0.81928 6.13965,1.06486 2.53739,0.24559 7.61315,-0.0815 9.08666,-0.24558 1.47352,-0.16406 2.53739,-0.89983 4.74766,-0.49118 2.21027,0.40866 4.25649,0 5.89406,-0.49117 1.63756,-0.49117 2.20929,-0.73675 3.76532,-1.7191 1.55603,-0.98234 0.81927,-1.31044 2.78396,-1.63756 1.96468,-0.32712 1.96468,-0.0815 3.4382,-1.06388 1.47351,-0.98234 2.04523,-1.55505 3.84685,-1.7191 1.80161,-0.16405 2.21027,-0.16405 3.68378,-0.16405 1.47352,0 1.22793,-0.0815 3.52072,-0.32712 2.2918,-0.24558 4.99324,0.0815 5.64847,0.40866 0.65424,0.3281 1.06387,0.6562 3.19261,0.3281 2.12775,-0.3281 2.37334,-0.57369 3.35568,-1.31045 0.98234,-0.73675 1.80064,0 2.70144,-0.98234 0.90081,-0.98234 0.73676,-1.30946 2.37433,-2.21027 1.63756,-0.89982 1.63756,-0.73676 2.86549,-0.98234 1.22793,-0.24559 1.7191,-1.391 2.78297,-0.73676 1.06388,0.65522 1.88316,0.65621 2.37433,2.0472 0.49117,1.391 1.30848,1.22793 0.40865,2.29181 -0.89982,1.06388 -1.391,0.90081 -1.88217,2.04622 -0.49117,1.14639 -1.88315,2.21125 -2.12873,2.78396 -0.24559,0.5727 -1.22793,2.12775 -0.0815,1.55504 1.14541,-0.5727 0.81829,-1.80063 1.80064,-0.9008 0.98234,0.9008 0.40865,0.57368 1.06387,1.39198 0.65523,0.81829 1.39198,0.32712 1.80162,1.47351 0.40865,1.14639 -0.24657,2.2918 0.16307,2.45586 0.40963,0.16405 0.65424,-0.57271 1.96468,-0.49118 1.31045,0.0815 2.0472,0.16406 0.81928,-1.06387 -1.22793,-1.22793 -2.37531,-1.14541 -1.06486,-1.96469 1.31044,-0.81927 0.98234,-1.22793 2.78396,-1.55603 1.80063,-0.32712 2.45585,0.40964 2.45585,0.90081 0,0.49117 -0.73675,-0.49117 0,0.49117 0.73676,0.98234 2.04622,2.86549 2.78298,2.61991 0.73676,-0.24559 0,-0.0825 1.47351,-0.81928 1.47352,-0.73675 2.21027,-2.37333 2.21027,-0.98234 0,1.39198 -1.63756,2.12874 -0.0815,2.12874 1.55505,0 3.02856,0.24657 3.27415,-0.57271 0.24558,-0.81927 -0.49118,-1.55603 -0.57271,-2.37432 -0.0825,-0.81829 -0.6562,-1.47351 0.89983,-0.98234 1.55603,0.49117 2.12873,2.0472 2.86549,1.39198 0.73676,-0.65522 0.0815,-1.1464 0.81829,-1.55603 0.73676,-0.40866 1.06486,0.3281 0.90081,-0.89983 -0.16405,-1.22793 -2.04622,-1.7191 -0.24559,-1.80161 1.80064,-0.0815 2.70046,0.3281 3.76532,0.3281 1.06486,0 0.49117,0.0825 1.39198,-0.24559 0.90081,-0.3281 1.47351,0 1.14639,-1.14639 -0.3281,-1.14639 -0.81927,-1.71812 -0.98234,-3.02856 -0.16405,-1.31045 0.49117,-2.29279 1.47352,-2.37432 0.98234,-0.0815 1.47351,0.81829 1.47351,2.2918 0,1.47351 1.30946,2.86549 1.7191,1.96469 0.40865,-0.89983 0.32712,-2.70046 0.5727,-3.60127 0.24559,-0.90081 0.73676,-2.94703 -0.24558,-3.60225 -0.98234,-0.65522 -3.68379,-2.12874 -3.4382,-3.68379 0.24559,-1.55504 0.65522,-2.04622 -0.0815,-2.70144 -0.73676,-0.65522 -2.45586,-2.12873 -0.98235,-3.11108 1.47352,-0.98234 1.391,-0.89982 1.88217,-2.61892 0.49117,-1.7191 0.90081,-2.78396 1.80162,-3.7663 0.89982,-0.98235 1.88217,-1.96469 2.2918,-3.1101 0.40964,-1.14639 -0.40963,-2.70144 0.57271,-2.94703 0.98234,-0.24558 3.27513,-0.65522 4.25747,-1.14639 0.98234,-0.49117 1.88217,-3.19261 3.02856,-3.60225 1.1464,-0.40865 2.45684,-0.98136 3.60225,-2.12775 1.14541,-1.1464 4.66515,-6.63082 5.81154,-7.69568 1.14639,-1.06387 2.29279,-3.35568 3.52072,-4.74766 1.22792,-1.39198 1.63658,-2.53739 2.37334,-3.27414 0.73675,-0.73676 2.70242,-5.1573 3.27512,-6.22216 0.57271,-1.06388 0.98136,-2.29082 0.89983,-3.19261 -0.0815,-0.89983 -1.14639,-1.7191 -0.49117,-2.94703 0.65522,-1.22793 0.49117,-1.96469 -0.32712,-3.1101 -0.81829,-1.14639 -1.30946,-3.02954 -1.30946,-3.7663 0,-0.73676 0.5727,-2.53837 -0.65523,-2.37334 -1.22792,0.16307 -1.63756,-0.73676 -1.47351,-1.80161 0.16405,-1.06388 0.81829,-2.70145 1.55505,-3.35569 0.73676,-0.65522 1.14639,-1.14541 0.90081,-2.78396 -0.24559,-1.63658 0.40963,-2.70144 1.63756,-3.27414 1.22793,-0.57271 3.51875,-1.80064 4.8292,-1.55505 1.31044,0.24558 1.22891,0.40865 3.02954,-0.16405 1.80064,-0.57271 2.37334,-1.1464 3.51973,-1.88315 1.1464,-0.73676 1.47254,-1.63659 2.78298,-2.12776 1.31045,-0.49117 1.96469,-0.73675 2.61991,-0.73675 0.65522,0 1.22694,-0.73676 3.02856,-1.1464 1.80162,-0.40963 4.25747,-0.73774 4.33901,0.16405 0.0815,0.89983 0.16405,1.7191 0.40963,2.29181 0.24559,0.57271 1.391,1.88315 -0.9008,1.96468 -2.29181,0.0815 -3.19262,-0.40963 -3.4382,0.65523 -0.24559,1.06387 -0.81928,1.7191 -0.16405,2.61892 0.65522,0.90081 1.14639,1.55603 0.16405,2.21027 -0.98235,0.65522 -1.391,1.391 -3.27415,1.55603 -1.88315,0.16307 -2.29279,-0.24558 -3.02954,0.81829 -0.73676,1.06388 -2.04622,3.11108 -2.29181,3.4382 -0.24559,0.32712 -1.63756,1.06388 -2.61991,0.49117 -0.98234,-0.5727 -1.63658,-2.45487 -2.37334,-1.39198 -0.73675,1.06486 -1.7191,2.45586 -1.88315,3.35667 -0.16405,0.90081 0.32712,0.90081 -0.16405,2.12874 -0.49117,1.22792 -0.5727,2.0472 0.16405,1.88216 0.73676,-0.16307 1.88217,-0.73675 2.29181,-0.16307 0.40963,0.57271 1.39198,0.98235 1.88315,0.89983 0.49117,-0.0815 1.88315,-1.7191 0.90081,-1.88217 -0.98235,-0.16405 -2.04721,0.57369 -2.78396,-0.3281 -0.73676,-0.89983 -1.63757,-1.391 -0.49117,-1.63658 1.14639,-0.24559 1.7191,-1.14738 2.70144,-0.73676 0.98234,0.40865 0.98332,0.24559 1.31044,0.0815 0.32712,-0.16405 1.14541,-0.32712 1.14541,0.49118 0,0.81829 0.0825,2.12873 0.16406,3.35666 0.0815,1.22793 0.49117,4.42054 0,5.56595 -0.49118,1.1464 -0.90081,2.37531 -1.47352,2.94703 -0.5727,0.57369 -1.96468,0.81927 0.73676,3.35666 2.70144,2.53739 3.19359,2.8655 5.07576,3.35667 1.88217,0.49117 3.60127,1.06486 5.48442,0.40865 1.88315,-0.65424 3.60127,-1.47351 4.01091,-2.53739 0.40963,-1.06387 0.9008,-1.80063 0.9008,-3.19261 0,-1.39198 0,-1.55505 0.98235,-2.29181 0.98234,-0.73675 0.73675,-0.90179 2.70144,-1.47351 1.96468,-0.57369 4.66514,-0.98234 6.22117,-1.55603 1.55603,-0.57271 8.51396,-2.78298 9.98748,-3.51973 1.47351,-0.73676 2.53837,-1.30947 4.42054,-2.70144 1.88217,-1.39198 2.86451,-3.60225 4.33802,-3.27415 1.47352,0.32712 3.02955,1.14541 5.23982,-0.0825 2.21027,-1.22793 5.56693,-4.50306 6.8764,-5.81154 1.30946,-1.31044 3.68378,-2.78396 5.23883,-3.60225 1.55505,-0.81829 1.7191,-1.80063 2.94703,-4.09342 1.22792,-2.2918 1.55504,-2.70144 2.53739,-3.68378 0.98234,-0.98234 2.21125,-1.88217 3.35666,-3.60127 1.14541,-1.7191 0.89983,-1.88315 1.80063,-5.73099 0.90081,-3.84685 1.71812,-4.99324 3.51974,-6.22117 1.80161,-1.22793 3.92937,-2.61991 6.13964,-4.09342 2.21027,-1.47352 3.27513,-2.37334 5.23981,-2.70144 1.96469,-0.32712 2.94703,-0.65424 4.42054,-1.88217 1.47352,-1.22793 3.92839,-3.35667 5.07479,-5.07577 1.14639,-1.71909 2.86647,-3.02856 3.02954,-6.46676 0.16307,-3.43819 0,-6.87639 0.73676,-8.34991 0.73675,-1.47351 1.39099,-3.68378 2.12775,-4.50306 0.73676,-0.81829 1.39296,-1.06289 1.31045,-2.21027 -0.0825,-1.14541 0.32712,-2.21027 1.06387,-3.35568 0.73676,-1.14639 2.78396,-4.50306 3.84784,-4.91171 1.06387,-0.40964 2.37334,-2.0472 3.27414,-3.4382 0.90081,-1.39198 2.21028,-5.4854 2.70145,-6.95891 0.49117,-1.47352 1.47253,-2.94605 2.04622,-4.8292 0.57368,-1.88315 0.40865,-4.25747 1.22792,-5.81252 0.81928,-1.55505 0.57369,-2.78298 0.57369,-4.17495 0,-1.39198 -0.0815,-2.61893 1.22793,-3.51974 1.30946,-0.90081 2.86451,-2.45585 3.76532,-5.56693 0.90081,-3.11108 1.80162,-5.89406 1.63756,-8.75955 -0.16405,-2.86451 7.9e-4,-6.8764 -0.5727,-8.34991 -0.57369,-1.47352 -2.29279,-4.33803 -2.37432,-4.8292 -0.0815,-0.49117 -0.65523,-2.86647 0.49117,-2.21027 1.14639,0.65424 1.96468,0.73676 1.96468,-0.49117 0,-1.22793 1.1464,-2.45585 -0.73675,-2.0472 -1.88315,0.40964 -3.35667,-0.65424 -3.60225,-0.49117 -0.24559,0.16405 -0.32811,-0.0806 -0.24559,0.98234 0.0825,1.06486 1.47351,2.12775 0.24559,2.29279 -1.22793,0.16307 -2.21027,-0.0825 -2.78298,0.40865 -0.57271,0.49117 -0.49019,0.73676 -1.80063,0.81928 -1.31045,0.0815 -2.78396,0.98234 -3.35667,-0.24559 -0.5727,-1.22793 -1.88315,-1.14541 -2.12873,-2.53837 -0.24559,-1.391 -0.57369,-1.96469 -0.49118,-3.02856 0.0825,-1.06388 -0.57172,-2.45684 1.06486,-1.06388 1.63659,1.391 3.51974,2.53739 4.74766,1.55505 1.22793,-0.98235 2.12874,-0.90081 3.4382,-3.51974 1.30947,-2.6199 1.71812,-2.53837 2.53739,-4.99423 0.81928,-2.45585 1.22793,-4.17495 1.47352,-6.13964 0.24558,-1.96468 1.30946,-2.61892 0.49117,-4.09243 -0.81829,-1.47352 -1.47351,-1.7191 -2.45586,-2.94703 -0.98234,-1.22793 -0.40865,-1.63757 -0.40865,-3.84784 0,-2.21027 0.40964,-3.84685 -1.22793,-4.50207 -1.63756,-0.65523 -3.51973,0 -2.70144,-1.39198 0.81829,-1.39198 1.22793,-1.22695 2.78297,-2.53739 1.55505,-1.31045 1.391,-3.35568 3.02857,-4.42054 1.63756,-1.06486 1.39198,-2.37334 3.60225,-1.22793 2.21027,1.14541 1.47449,0.81927 3.35666,0 1.88217,-0.81928 2.94605,-0.3281 3.84685,-2.37432 0.90081,-2.04622 2.21126,-6.05811 2.29279,-7.28604 0.0815,-1.22793 0.57271,-2.29082 0.57271,-3.60127 0,-1.31044 0.40963,-2.21027 -0.98235,-3.02954 -1.39197,-0.81829 -3.60225,-1.30848 -1.96468,-1.63658 1.63756,-0.3281 2.53837,-0.40866 2.86549,-1.47352 0.32712,-1.06486 -0.32712,-4.01188 0.49117,-4.25747 0.81829,-0.24558 1.96469,-0.89982 2.94703,0.3281 0.98234,1.22793 1.71812,2.45586 2.61893,2.45586 0.9008,0 1.22792,-1.391 2.70144,-1.47351 1.47351,-0.0825 1.22793,-0.65424 2.45585,0.49117 1.22793,1.14541 2.12874,0.57369 1.63757,2.70144 -0.49117,2.12775 0.65522,4.8292 0.73676,6.79388 0.0815,1.96468 1.14639,7.77819 2.21027,8.43243 1.06387,0.65424 2.6199,0.90081 3.92937,0.24558 1.30946,-0.65522 2.6199,-2.12873 2.70144,-3.27513 0.0815,-1.14541 -0.57271,-1.47253 -0.32712,-2.86451 0.24558,-1.39198 0.49117,-2.37432 1.47351,-2.29278 0.98234,0.0825 2.45488,0.65522 3.1101,1.88315 0.65522,1.22792 0.0825,1.88315 1.63756,2.45585 1.55505,0.57271 3.19262,2.53739 4.42054,2.37432 1.22793,-0.16405 2.94703,-2.12775 3.68379,-3.7663 0.73676,-1.63658 1.14639,-4.25649 1.39198,-5.23883 0.24558,-0.98234 1.06387,-3.11108 1.39099,-4.0109 0.32712,-0.90081 -1.22891,-3.02955 -1.63756,-4.33901 -0.40865,-1.30946 -0.98136,-2.70046 -2.12775,-2.37432 -1.1464,0.3281 0.16405,0.57369 -1.22793,1.55603 -1.39198,0.98234 -1.4745,2.61892 -3.52072,2.61892 -2.04622,0 -2.12873,-0.57172 -3.68378,0 -1.55505,0.57369 -1.96469,0.24559 -3.51973,1.1464 -1.55505,0.90081 -3.1101,3.02856 -4.01091,1.7191 -0.90081,-1.30947 -1.63855,-1.63757 -1.31044,-3.19262 0.3281,-1.55504 0.6562,-2.2918 1.06486,-4.0109 0.40865,-1.7191 0.57172,-2.37531 1.14541,-3.92937 0.57368,-1.55603 0.3281,-3.11108 1.31044,-3.84784 0.98234,-0.73675 2.12776,-2.12873 2.29181,-3.35666 0.16405,-1.22793 -0.24559,-3.1101 0.98234,-1.96469 1.22793,1.1464 0.24657,2.29279 3.11108,2.37433 2.86451,0.0815 3.43721,-7.9e-4 4.33802,1.14639 0.90081,1.14541 2.78396,3.19261 4.09342,4.09244 1.30947,0.90081 4.25649,1.96468 5.1573,1.63756 0.90081,-0.32712 2.21125,-0.73774 3.60225,-2.04622 1.391,-1.31044 1.80162,-2.12873 1.96469,-1.14639 0.16306,0.98234 -0.57369,3.51973 -1.31045,5.40288 -0.73676,1.88315 -1.9637,6.79487 -1.391,8.43145 0.57271,1.63756 0.0825,3.19261 0,4.74864 -0.0825,1.55505 -0.41062,6.13964 -0.3281,7.53064 0.0825,1.39198 0.24657,5.64847 0.81928,7.45009 0.5727,1.80063 1.31044,6.13964 2.45585,7.77622 1.14541,1.63756 1.31045,2.45586 2.70144,2.53837 1.391,0.0815 1.88315,-0.3281 3.19262,0.89983 1.30946,1.22793 3.68378,4.25747 4.66612,5.64847 0.98235,1.39198 3.1101,4.74864 3.76532,5.97657 0.65522,1.22793 0.73578,2.21027 0.32712,3.02856 -0.40865,0.81829 -1.06388,1.06388 0.16405,2.04622 1.22793,0.98234 3.1936,1.06486 2.12874,1.88315 -1.06486,0.81829 -2.21027,1.22891 -1.47351,2.53739 0.73675,1.31045 0.73675,1.80162 2.70144,3.35667 1.96468,1.55504 2.12775,1.88315 2.12775,2.53739 0,0.65522 -1.06388,1.14541 -0.65424,2.29278 0.40964,1.14541 1.22793,0.73676 1.47351,2.45586 0.24559,1.7191 -0.40963,2.0472 0.32712,3.1101 0.73676,1.06485 0.98235,1.39197 0.49118,2.86549 -0.49118,1.47351 -0.89983,1.06388 -0.89983,2.78297 0,1.7191 -1.55603,3.84784 -0.65522,3.84784 0.90081,0 2.37334,-2.45684 2.53739,-1.30946 0.16405,1.14541 -0.49117,2.86451 0.40964,3.35568 0.9008,0.49117 2.45585,1.31044 1.47351,1.96468 -0.98234,0.65523 -1.47253,1.06486 -2.29181,1.88316 -0.81927,0.81829 -2.21027,0.16405 -2.12873,1.47351 0.0815,1.30946 0.0825,2.12874 1.39198,1.06388 1.30946,-1.06388 1.96468,-2.45586 2.21027,-1.391 0.24558,1.06388 -0.41062,3.35568 -1.55603,3.35568 -1.14541,0 -2.78298,0.24559 -2.78298,1.06486 0,0.81829 1.06388,0.81829 0.24559,1.55505 -0.81829,0.73676 -3.02955,1.14639 -1.39198,1.22793 1.63756,0.0815 3.02856,-0.49019 2.45585,0.0815 -0.5727,0.57369 -2.78297,0.49117 -2.53739,1.7191 0.24559,1.22793 -0.32712,1.7191 0.40964,2.45586 0.73676,0.73675 0.65424,1.88216 -0.3281,2.0472 -0.98235,0.16307 -2.70144,0.3281 -1.55505,0.65424 1.14639,0.3281 2.21027,1.22793 1.22793,1.63756 -0.98235,0.40964 -2.94801,0.32712 -1.88315,1.1464 1.06486,0.81829 2.78297,2.0472 1.7191,2.12775 -1.06388,0.0825 -2.94703,-0.98234 -2.78298,-0.0815 0.16405,0.9008 0.73676,2.53739 0,2.86549 -0.73676,0.32712 -3.27415,-0.16405 -3.68378,0.5727 -0.40964,0.73676 -0.0815,1.1464 -0.32712,2.12874 -0.24559,0.98234 -1.39198,2.70144 -1.88315,1.30946 -0.49118,-1.39198 -0.98235,-2.12873 -1.47352,-2.12873 -0.49117,0 -1.7191,0.24558 -1.22793,1.31044 0.49117,1.06388 1.391,2.78298 1.55505,3.51974 0.16405,0.73675 1.1464,2.94702 -0.49117,1.96468 -1.63756,-0.98234 -3.02954,-1.7191 -3.11108,-0.65522 -0.0815,1.06486 1.06486,0.81927 0.81928,1.63756 -0.24559,0.81829 -2.70145,1.06486 -3.11108,2.12874 -0.40964,1.06388 -1.1464,1.63658 0.32712,2.61892 1.47351,0.98235 2.0472,1.06486 1.06486,1.63757 -0.98235,0.5727 -2.61991,1.22793 -2.8655,1.55505 -0.24558,0.3281 -2.12873,0.9008 -1.14639,1.47351 0.98234,0.57369 3.11206,0.90179 2.53837,1.80162 -0.57369,0.89982 -2.53739,1.96468 -1.96468,2.45585 0.5727,0.49117 0.57369,1.47352 1.47351,1.47352 0.89983,0 1.14639,0.49117 0.98234,1.30946 -0.16405,0.81829 -2.0472,0.90081 -1.88315,1.47351 0.16405,0.57271 1.39198,1.47352 0.98235,1.80064 -0.40964,0.3281 -2.29181,0.49215 -1.7191,1.06486 0.5727,0.5727 2.94702,0.98234 2.45585,1.55504 -0.49117,0.57271 -1.06387,0.32811 -0.49117,1.39198 0.57271,1.06388 -0.0815,2.37334 0.65522,2.53739 0.73676,0.16406 2.70046,0.73774 2.12776,1.39198 -0.57271,0.65424 -1.63659,-0.16405 -1.80064,0.16307 -0.16405,0.3281 -0.73774,1.39198 -1.88315,1.39198 -1.14541,0 -0.89982,-0.81829 -0.89982,-1.55505 0,-0.73675 -1.391,-0.73675 -0.98235,-1.47351 0.40866,-0.73676 0.40964,-0.49117 -0.49117,-1.14639 -0.9008,-0.65523 -0.0815,-0.98136 -0.73675,-1.55505 -0.65523,-0.57369 -0.0825,-0.81829 -1.39198,-0.73676 -1.30947,0.0815 -0.98333,-1.06486 -1.88315,-1.31044 -0.89983,-0.24559 -5.1573,0.16503 -5.64847,0.57368 -0.49117,0.40866 -1.63659,-0.3281 -1.391,1.391 0.24559,1.7191 0.49019,3.35667 -0.57369,2.86549 -1.06387,-0.49117 -0.73675,-2.2918 -1.80063,-2.45585 -1.06388,-0.16405 -1.7191,-0.65522 -1.96469,0.5727 -0.24558,1.22793 0.73578,0.73774 0.32712,2.04721 -0.40865,1.30946 -0.49117,1.47351 -0.98234,1.88216 -0.49117,0.40964 -3.02856,2.94703 -3.76532,4.33901 -0.73675,1.39198 -0.98234,3.02954 -1.22793,5.07576 -0.24558,2.04622 -0.98234,4.83018 -0.5727,6.63082 0.40964,1.80063 0.73577,5.64846 1.80063,6.71234 1.06486,1.06388 2.53739,4.9127 2.45586,6.54928 -0.0815,1.63658 0.65424,6.79388 0.73676,8.67703 0.0825,1.88315 -0.32712,7.69469 -0.57271,10.23306 -0.24559,2.53739 -0.98234,4.25551 -0.90081,6.13964 0.0815,1.88217 -0.0825,2.61893 -0.65522,4.74766 -0.57271,2.12874 -0.65424,2.8655 -1.06388,4.50208 -0.40963,1.63756 -1.71811,2.61991 -3.02856,3.11108 -1.31044,0.49117 -1.30946,0.49019 -2.45586,1.14639 -1.14639,0.65424 -1.71909,1.22793 -1.71909,1.88217 0,0.65522 1.22792,1.63855 0.5727,1.96468 -0.65522,0.32811 -2.29279,1.22793 -2.61991,2.70145 -0.32712,1.47351 -0.73675,2.94702 -1.06387,4.74864 -0.32712,1.80063 -1.55505,3.1101 -1.55505,4.25649 0,1.14639 -1.391,2.94703 -1.47352,4.17496 -0.0825,1.22792 -0.98234,2.948 -0.24558,4.0109 0.73676,1.06486 1.31044,1.63756 0.49117,2.61991 -0.81927,0.98234 -2.37432,2.86549 -2.45586,3.92937 -0.0815,1.06387 0.0815,5.07576 1.06388,6.95793 0.98234,1.88315 2.12972,5.8135 2.53837,7.2045 0.40866,1.391 0.98136,3.68378 1.88217,4.66613 0.90081,0.98234 1.47352,3.92937 2.61991,5.15729 1.14639,1.22793 2.04622,2.0472 2.78298,2.70145 0.73675,0.65424 1.63658,0.40865 1.22792,1.88216 -0.40865,1.47352 -0.65424,0.49117 -1.88216,0.65523 -1.22793,0.16405 -2.21027,0.0815 -2.94703,0.49117 -0.73676,0.40963 -2.70243,-0.65523 -3.52072,0 -0.81829,0.65522 -6.38424,5.48441 -7.28505,6.87639 -0.90081,1.39198 -2.78298,4.17496 -3.4382,5.97559 -0.65522,1.80162 -0.90081,3.35667 -0.40963,4.42054 0.49117,1.06486 1.06387,1.63855 0.5727,2.53838 -0.49117,0.89982 -0.57172,2.86451 -0.89982,3.84685 -0.32811,0.98234 -2.29279,3.27513 -2.78396,3.92937 -0.49117,0.65522 -1.79965,-0.16307 -2.37334,0.40964 -0.57369,0.5727 -0.81829,0.73675 -1.7191,1.06387 -0.90081,0.32811 -1.80162,-0.0815 -2.86549,-0.0815 -1.06388,0 -1.80162,-0.2446 -2.12874,0.65522 -0.32712,0.89983 -2.78199,2.21027 -3.84685,3.27415 -1.06486,1.06388 -1.96567,0.98234 -2.04721,2.21027 -0.0815,1.22793 -0.98234,3.76532 -2.2918,4.17496 -1.30946,0.40963 -3.35568,0.9008 -3.51973,0 -0.16406,-0.90081 -0.24559,-1.88315 -1.47352,-1.96469 -1.22793,-0.0815 -2.78297,-1.06388 -0.98234,-1.30946 1.80063,-0.24559 2.53739,0.0815 3.02856,-0.81928 0.49117,-0.89982 -0.0825,-0.73577 -0.65522,-2.37333 -0.57271,-1.63757 0.0815,-0.32712 0,-2.45586 -0.0815,-2.12874 -0.57271,-2.45586 -0.57271,-3.60225 0,-1.14639 -0.73577,-1.47351 0.65523,-2.21027 1.39099,-0.73676 1.96468,-2.12874 1.06387,-3.19261 -0.90081,-1.06388 -2.78396,-1.30947 -2.12873,-2.29181 0.65522,-0.98234 1.14737,-0.3281 1.55603,-1.63756 0.40865,-1.30947 0.98136,-1.06388 1.63658,-1.30947 0.65522,-0.24558 0,-2.21027 1.22793,-3.02954 1.22793,-0.81829 2.94801,-1.47351 3.7663,-2.53739 0.81829,-1.06388 0.98234,-1.96469 2.53739,-2.61991 1.55505,-0.65424 2.45586,-1.55505 2.70144,-2.21027 0.24559,-0.65424 -0.0815,-0.81829 -0.73676,-1.96468 -0.65522,-1.14542 0.16307,-1.391 -0.65522,-1.88217 -0.81829,-0.49117 -2.53837,-2.29279 -3.19261,-2.29279 -0.65424,0 -2.70144,-0.73676 -2.70144,0 0,0.73676 -1.06388,1.7191 -1.30947,2.45586 -0.24558,0.73675 0.0815,2.12873 -1.22792,1.63756 -1.30947,-0.49117 -1.96469,-0.49019 -2.45586,-0.32712 -0.49117,0.16307 -1.55505,-0.24558 -2.04622,0.73676 -0.49117,0.98234 -1.14639,2.86451 -0.65522,3.76532 0.49117,0.9008 0.49117,2.12873 -0.49117,2.70144 -0.98235,0.5727 -4.50208,0.40964 -4.17496,1.14639 0.32712,0.73676 1.06388,1.30946 0.98234,1.88217 -0.0815,0.57369 -2.12873,0.81927 -1.88315,1.31045 0.24559,0.49117 0.81928,2.12775 0.81928,3.11009 0,0.98234 -0.57369,2.0472 0.16307,2.29279 0.73675,0.24558 1.47351,1.22793 2.45585,1.30946 0.98234,0.0815 1.391,0.57271 0.98234,1.22793 -0.40865,0.65522 -3.02757,1.14639 -2.86451,2.53739 0.16307,1.39198 0.57271,2.37432 0.0815,2.61991 -0.49117,0.24558 -2.94801,0.73675 -2.61991,-0.65522 0.3281,-1.391 0.40866,-1.47352 0.24559,-2.29181 -0.16307,-0.81829 -0.81731,-2.37334 -1.391,-3.27415 -0.57369,-0.90081 -1.06486,-1.39198 -2.29279,-1.39198 -1.22793,0 -2.04523,-0.40963 -3.60126,-0.40963 -1.55604,0 -4.83018,-0.32712 -5.32135,-0.0815 -0.49118,0.24559 -4.66613,1.96469 -5.40289,3.4382 -0.73675,1.47351 -1.47449,1.80063 -1.14639,2.70144 0.3281,0.90081 0.5727,0.81928 -0.73676,1.88315 -1.30946,1.06388 -1.88315,0.57271 -1.96468,1.55505 -0.0815,0.98234 -0.24559,1.55505 0.24558,2.29181 0.49117,0.73675 0.0825,2.12873 0.16405,3.11107 0.0815,0.98235 1.63757,0.90081 1.88315,2.04622 0.24559,1.1464 0.40866,2.29279 -0.40963,3.35667 -0.81829,1.06388 -1.63757,0.81927 -2.12874,2.37432 -0.49117,1.55505 -0.49019,2.45586 -1.88217,3.76532 -1.39198,1.30946 -2.04622,2.12874 -1.96468,3.19359 0.0815,1.0629 0.81829,2.21027 -0.40964,2.21027 -1.22793,0 -1.30946,-1.06485 -1.96468,-0.16503 -0.65523,0.90179 -3.4382,3.52072 -4.42054,2.86648 -0.98235,-0.65621 -1.47352,-2.12972 -1.7191,-2.78396 -0.24559,-0.65424 -1.72009,-0.65424 -1.63757,-1.88217 0.0825,-1.22793 0.0825,-1.4745 0.57369,-2.70242 0.49117,-1.22793 -0.65424,-2.45586 -0.24559,-3.4382 0.40866,-0.98235 1.14541,-1.55505 0.65424,-2.12874 -0.49117,-0.5727 -1.14639,-0.98234 -0.24558,-1.80063 0.90081,-0.81829 0.81927,-1.80064 0.3281,-2.94703 -0.49117,-1.14639 -0.49117,-3.02856 0.57271,-3.19261 1.06387,-0.16405 2.21125,-0.40964 3.11107,-0.24559 0.89983,0.16405 2.45488,-0.65522 1.391,-1.39198 -1.06388,-0.73675 -3.51875,-3.11009 -5.32037,-3.4382 -1.80161,-0.32712 -5.15828,-0.24558 -6.22215,0.24559 -1.06388,0.49117 -3.35667,1.88413 -3.68379,2.94703 -0.32712,1.06486 -1.31044,0.89982 -0.49117,1.55603 0.81928,0.65424 0.73774,2.45585 -0.40865,2.94702 -1.1464,0.49118 -2.37334,0 -3.92937,1.391 -1.55603,1.39198 -2.94703,1.55603 -2.94703,2.70144 0,1.1464 0.40964,0.49117 0,2.21027 -0.40964,1.7191 -0.98333,3.4382 -2.0472,3.92937 -1.06388,0.49117 -2.29279,0.89983 -2.70144,2.78396 -0.40866,1.88217 -1.30947,3.1101 -0.57271,3.92937 0.73676,0.81928 0.57271,2.21027 -2.37432,0.89983 -2.94703,-1.30848 -6.8764,-2.94703 -8.34991,-2.94703 -1.47352,0 -2.70046,-0.16307 -4.09244,0.49117 -1.39198,0.65621 -1.88315,0.65621 -4.58459,0 -2.70145,-0.65424 -4.5846,-1.31044 -6.13964,-1.391 -1.55505,-0.0825 -2.61991,0.16307 -4.09343,0.49118 -1.47351,0.3281 -5.81153,1.39296 -7.4491,1.80161 -1.63756,0.40866 -5.32135,1.7191 -6.30369,2.29082 -0.98234,0.57369 -2.94703,1.06486 -4.42054,0.73676 -1.47351,-0.32614 -1.71812,-0.32614 -1.06388,-1.55406 0.65424,-1.22793 -7.8e-4,-3.02955 1.63658,-2.45586 1.63757,0.57172 1.63757,0.57172 2.8655,0.0806 1.22793,-0.49117 3.35568,-0.73676 4.50207,-1.96468 1.1464,-1.22793 1.88414,-1.63659 2.29279,-1.55505 0.40866,0.0815 0.90081,0.90081 0.98234,-0.49117 0.0815,-1.39198 0.89983,-2.37432 -0.40963,-2.94703 -1.30947,-0.57271 -1.30947,-0.81829 -2.45586,-0.65522 -1.14639,0.16405 -1.06486,-1.06388 -1.88315,0.16405 -0.81829,1.22793 -0.65522,2.29279 -1.7191,1.88315 -1.06388,-0.40964 -1.88217,-0.89983 -3.27415,-0.73676 -1.39198,0.16307 -2.29278,0.73676 -3.11108,-0.65522 -0.81829,-1.39198 -1.31044,-1.80063 -1.47351,-3.11108 -0.16307,-1.30946 -1.06289,-2.53641 -1.63658,-0.65424 -0.57369,1.88217 -0.49216,2.37334 -0.57369,3.76532 -0.0815,1.39198 0.24657,1.55505 1.06486,2.86549 0.81829,1.31045 1.9637,2.53641 0.65424,2.21027 -1.30946,-0.3281 -3.35568,-0.49117 -4.25649,-1.63756 -0.90081,-1.1464 -1.39198,-1.1464 -0.98234,-2.70144 0.40963,-1.55505 0.98332,-3.60225 0.40963,-4.42054 -0.57368,-0.8183 -1.14737,-3.11108 -0.81927,-3.92937 0.3281,-0.8183 0.65522,-3.19164 1.39198,-3.60225 0.73676,-0.40866 1.80063,-1.391 0.81829,-1.63659 -0.98234,-0.24558 -1.80162,-1.22793 -2.70144,-0.16405 -0.89983,1.06388 -1.30848,1.06388 -2.61893,0.90081 -1.31044,-0.16405 -0.98234,-1.06486 -1.88315,0.24559 -0.9008,1.30946 -3.51973,1.63658 -3.02856,2.86451 0.49117,1.22792 0.90081,2.78395 0.24559,3.84783 -0.65523,1.06388 -2.37334,3.92839 -3.19262,5.07577 -0.81927,1.14541 -1.63756,3.43819 -1.39198,4.33802 0.24559,0.90179 1.55505,0.41062 1.22793,1.63855 -0.32712,1.22792 -2.12873,2.37334 -0.65522,3.02758 1.47351,0.6562 3.27415,0.24558 4.91171,1.7191 1.63757,1.47351 0.89983,1.96665 2.94703,2.62089 2.0472,0.65424 2.0472,0.24362 3.60225,1.39099 1.55505,1.14541 0.73676,1.79965 1.96468,2.21027 1.22793,0.40866 2.8655,0.73676 2.12874,2.21027 -0.73676,1.47352 -2.86549,1.0629 -2.37432,1.96469 0.49117,0.89982 0.98234,1.47351 0.98234,2.86451 0,1.39296 -0.98136,3.27513 -1.55505,3.02954 -0.57368,-0.24558 -0.57368,-1.06486 -1.14639,-1.55603 -0.57271,-0.49117 -1.4745,-0.24558 -2.12874,-0.16307 -0.65424,0.0825 -3.60126,-0.49117 -2.78297,-1.14541 0.81829,-0.6562 0.0815,-2.0472 -0.73676,-1.47351 -0.81829,0.57172 -2.12874,0.81731 -1.63756,1.55406 0.49117,0.73676 -0.81731,2.21028 -1.63659,2.45586 -0.81927,0.24559 -1.39198,-1.06289 -2.37432,-0.49117 -0.98234,0.57369 -1.88217,1.06486 -2.04622,1.63855 -0.16405,0.57172 -0.90179,0.81731 -1.55603,0.81731 -0.65424,0 -3.68378,1.22792 -4.66613,1.31044 -0.98234,0.0825 -1.88315,0.65621 -2.21027,1.55603 -0.32712,0.89983 0.0825,0.89983 0.0825,2.12776 0,1.22792 -1.7191,2.21027 -2.21027,1.39099 -0.49117,-0.81731 -2.12972,0.73676 -1.55603,1.06486 0.57369,0.3281 1.88315,0.81731 2.37432,1.7191 0.49117,0.89983 -0.0815,3.60323 -0.49117,3.52072 -0.40964,-0.0825 -0.32712,-1.22793 -0.98234,-1.22793 -0.65522,0 -0.98234,0.65424 -0.57271,1.22793 0.40866,0.57172 0.24559,1.55406 -0.65522,2.04523 -0.90081,0.49117 -1.22891,0.57369 -1.63757,0.49117 -0.40865,-0.0806 -0.5727,0.81928 -1.55504,1.22793 -0.98235,0.41062 -1.63757,1.391 -1.96469,2.29279 -0.32712,0.89983 -1.63756,2.37334 -1.63756,3.27513 0,0.89983 -0.65424,2.37334 -1.30947,3.35568 -0.65522,0.98234 -0.5727,0.57467 -1.14639,1.96469 -0.5727,1.39099 -1.31044,0.57467 -1.14541,2.21125 0.16307,1.6356 -0.57369,2.61794 -1.14639,3.02856 -0.57271,0.40964 -2.94605,2.21027 -3.35667,2.70144 -0.40865,0.49117 -2.0472,0.98235 -0.65424,1.22793 1.391,0.24559 2.21027,1.63658 1.06388,1.79965 -1.1464,0.16504 -1.22695,-0.89982 -2.12874,0 -0.89982,0.90179 -1.88217,0.89983 -1.55505,0 0.32712,-0.89884 1.4745,-1.06289 -0.65522,-1.30848 -2.12775,-0.24558 -2.04524,-0.0815 -3.92937,-0.73675 -1.88217,-0.65621 -3.52071,-0.65621 -4.58361,-1.22793 -1.06486,-0.57271 -2.45585,-1.14738 -3.02954,-1.47352 -0.57271,-0.32712 -3.35568,-1.63854 -3.35568,-2.86647 0,-1.22793 0.73675,-1.3075 -0.32811,-1.88119 -1.06387,-0.57467 -2.78396,-1.39394 -1.39099,-2.04818 1.39099,-0.65424 2.86451,-1.63658 1.55504,-2.29082 -1.30946,-0.65621 -3.02856,-1.55603 -4.42054,-2.21027 -1.39198,-0.65621 -2.37432,-1.63855 -2.86549,-1.88414 -0.49117,-0.24558 -1.30946,-1.22596 -1.80063,-2.12775 -0.49117,-0.89983 -1.4745,-1.63855 -2.04622,-1.55603 -0.57369,0.0825 -2.29279,0.41062 -2.12874,-0.81731 0.16405,-1.22793 0.57271,-0.98234 0.73676,-2.21027 0.16405,-1.22793 -0.65522,-1.88413 0.98234,-2.37531 1.63757,-0.49117 2.94703,-0.98234 2.45586,-1.71909 -0.49117,-0.73676 -2.29181,-1.22793 -2.53739,-1.96469 -0.24559,-0.73676 -0.57369,-1.88217 0.32712,-2.61892 0.9008,-0.73676 1.55504,-0.98235 2.53739,-1.14542 0.98234,-0.16503 1.06486,-1.31044 -0.24559,-2.0472 -1.30946,-0.73675 -0.40865,-1.39296 -1.7191,-2.0472 -1.30946,-0.65424 -2.12775,-1.3075 -2.21027,-2.37334 -0.0815,-1.06486 0.3281,-2.12677 2.12874,-2.45586 1.80063,-0.3281 3.43918,-1.14737 5.23883,-2.0472 1.80162,-0.89982 2.94703,-3.27218 3.60225,-4.09244 0.65522,-0.81927 1.63756,-2.53837 2.70144,-3.27513 1.06388,-0.73675 1.55505,-0.49117 1.06388,-1.47351 -0.49117,-0.98234 -0.73676,-1.22793 -0.65424,-2.29082 0.0815,-1.06486 0.24558,-1.06486 0.0815,-2.21027 -0.16405,-1.14738 0.49019,-1.06486 0.16405,-1.88414 -0.3281,-0.8173 -0.24558,-0.16306 -1.55603,-0.8173 -1.30946,-0.65621 -0.65424,-1.80162 -1.88217,-1.55603 -1.22792,0.24558 -3.92936,0.73675 -4.66612,1.22792 -0.73676,0.49117 -1.7191,2.04819 -3.11108,2.62089 -1.39198,0.57173 -2.53739,0.89983 -4.50208,0.16307 -1.96468,-0.73676 -2.94702,0.41062 -4.09342,-0.65424 -1.14639,-1.06486 -2.12873,-1.31044 -2.6199,-2.0472 -0.49118,-0.73676 -0.65523,-1.55603 -1.22793,-0.98234 -0.57271,0.57369 -1.63757,0.16307 -1.96469,-0.65522 -0.32712,-0.8183 -1.7191,-2.21126 -2.94703,-2.29181 -1.22792,-0.0825 -1.06485,-0.40865 -2.94702,-0.3281 -1.88217,0.0825 -1.7191,0.98234 -2.86451,0.90081 -1.1464,-0.0815 -1.63855,-0.57271 -2.53838,-0.40964 -0.89982,0.16405 -1.47351,-0.24559 -2.37334,0.40964 -0.9008,0.65522 -1.22792,1.22792 -2.12873,1.22792 -0.90081,0 -1.63757,-0.73675 -2.37432,-0.24558 -0.73676,0.49117 -2.29279,0.49117 -3.35569,0.49117 -1.06485,0 -1.55603,0 -1.55603,0 0,0 -0.65424,-0.16405 -0.16306,0.98136 0.49117,1.14738 0.0806,0.81927 -0.98235,2.0472 -1.06486,1.22793 -0.90081,2.12776 -2.12873,2.86451 -1.22793,0.73676 -2.53739,1.80162 -3.60225,1.22793 -1.06388,-0.57172 -3.60127,-1.47351 -4.42054,-1.06289 -0.8183,0.40865 -2.70145,2.94506 -1.22793,2.29082 1.47351,-0.65424 2.86647,-1.71714 3.4382,-0.89983 0.57368,0.81928 0.9008,1.7191 -0.0815,2.0472 -0.98234,0.32614 -2.45684,0.16307 -2.53739,1.63659 -0.0825,1.47351 2.12775,2.21027 1.80063,2.70144 -0.32712,0.49117 -2.37432,0.49117 -3.35666,0.3281 -0.98234,-0.16503 -2.61892,-1.63855 -3.19261,-0.98234 -0.57271,0.65424 0.41062,2.04524 -1.22793,1.79965 -1.63658,-0.24559 -0.98234,-2.61893 -2.29181,-2.70144 -1.30946,-0.0806 -1.14639,1.39394 -1.63756,0.57369 -0.49117,-0.81928 0.73676,-2.782 -0.73676,-2.45586 -1.47351,0.3281 -3.35568,1.47351 -4.74766,2.45586 -1.39198,0.98234 -4.17397,3.11009 -3.84783,1.88216 0.3281,-1.22792 2.12971,-1.30848 1.22792,-2.29082 -0.89982,-0.98234 -1.63658,-1.39296 -2.2918,-0.41062 -0.65522,0.98235 -1.55505,2.29279 -2.37432,3.52072 -0.81829,1.22793 -4.42054,4.33802 -4.74766,3.02954 -0.32712,-1.31044 -0.16406,-2.12972 -0.65523,-2.70144 -0.49117,-0.57369 -1.47351,-1.47548 -2.45585,-0.6562 -0.98234,0.81927 -4.83018,1.22792 -5.40289,2.21027 -0.5727,0.98234 -1.14639,2.53837 -2.94702,2.53837 -1.80064,0 -2.78396,-0.57369 -3.92937,0.0825 -1.14541,0.65424 -2.45586,1.72008 -3.51974,1.39099 -1.06387,-0.3281 -0.9008,-1.22793 -1.63756,0.0825 -0.73676,1.30848 -2.21027,2.70242 -3.60127,3.35568 -1.39198,0.65424 -2.21027,1.88217 -3.35667,1.55603 -1.14639,-0.3281 -1.39197,-0.41062 -1.96468,-0.24558 -0.57271,0.16307 -2.61991,0.40865 -2.21027,-0.65621 0.40964,-1.06289 -0.16405,-0.24558 -0.65522,-1.7191 -0.49117,-1.47351 -1.22793,-2.61892 -0.32712,-3.68378 0.9008,-1.0629 1.22792,-1.31045 -0.57271,-1.22793 -1.80162,0.0825 -2.70144,-0.24559 -4.42054,0 -1.7191,0.24559 -1.47351,0.4116 -2.29279,1.06486 -0.81829,0.65424 -3.68378,2.12775 -3.68378,3.60127 0,1.47351 -0.24559,1.39296 -0.0815,3.11206 0.16405,1.7191 -0.73675,1.88217 -0.98234,3.76433 -0.24558,1.88414 0.24559,3.19458 0,4.74865 -0.24558,1.55603 -0.49019,2.62089 -2.37432,3.19261 -1.88217,0.57369 -1.391,0 -0.81829,2.12775 0.5727,2.12972 0.49117,4.58361 0.24558,4.66613 -0.24558,0.0825 -0.65522,-0.73676 -1.88315,0.73676 -1.22793,1.47351 -2.37334,0.57369 -1.39099,-0.49117 0.98234,-1.0629 2.61892,-1.3075 1.06387,-2.86451 -1.55505,-1.55603 -1.63756,-1.22793 -3.02856,-1.55603 -1.39198,-0.32614 -2.12972,-0.89983 -2.70144,-1.63659 -0.57369,-0.73675 -1.31045,-2.12677 -2.45586,-1.47351 -1.14639,0.65424 -2.70144,0.89983 -2.29278,0.16307 0.40963,-0.73676 2.21027,-1.7191 0.3281,-1.55407 -1.88315,0.16307 -2.70144,0.16307 -2.37432,-0.73675 0.32712,-0.90179 0.16405,-0.73578 -0.73676,-1.31045 -0.90081,-0.57369 -0.98136,-2.12972 -2.12874,-1.31044 -1.14541,0.81927 -0.40865,1.63953 -2.12775,1.80161 -1.7191,0.16307 -1.80162,-0.98234 -2.53837,0.40866 -0.73676,1.39296 -1.14541,1.55603 -1.7191,0.98234 -0.57271,-0.57172 -0.57271,0.65719 -1.55505,0.0825 -0.98234,-0.57369 -0.40964,-2.04524 -1.47351,-1.22793 -1.06388,0.81927 -0.73774,2.94703 -1.80064,2.21027 -1.06486,-0.73676 -0.98234,-2.61893 -1.88315,-2.12776 -0.90081,0.49118 -0.73577,-0.3281 -1.39198,1.47352 -0.65424,1.79965 -2.21027,3.27513 -3.84685,3.35568 -1.63756,0.0825 -3.52071,0.32614 -4.339,-0.3281 -0.81829,-0.65424 -0.65522,-0.40866 -0.40964,-1.30848 0.24559,-0.90179 0.89983,-1.80162 -0.16307,-1.88414 -1.06486,-0.0806 -0.73774,-0.24362 -1.55603,-0.4892 -0.818293,-0.24559 -2.127753,-1.47352 -2.864513,-1.7191 -0.73675,-0.24559 -0.49117,-0.24559 -1.14639,0.57172 -0.65522,0.81928 -0.24559,0.57369 -0.98234,1.7191 -0.73676,1.14738 -0.98235,1.63855 -1.80064,2.21027 -0.81927,0.57369 -2.29082,0.40866 -1.80063,-0.65424 m -29.80624,130.23209 c -1.09727,-0.90572 -0.56288,-1.68963 -1.44699,-2.25153 -0.8841,-0.5619 -2.81343,-1.84975 -1.36644,-2.00987 1.447,-0.16012 2.09043,0 3.37632,0.96564 1.28588,0.96466 1.36643,0.96368 2.41165,-0.56386 1.04423,-1.52754 2.25153,-3.13367 2.57275,-5.30465 0.32123,-2.17098 0.96466,-4.2614 -0.24165,-5.62784 -1.20632,-1.36546 -2.09043,-2.81638 -2.81343,-3.70049 -0.72399,-0.88509 -1.44699,-0.56288 -2.3311,-1.92932 -0.88411,-1.36742 -1.6081,-1.28687 -0.88411,-2.73287 0.723,-1.44699 0.5619,-1.6081 1.04423,-2.01086 0.48331,-0.40178 0.88509,-0.64343 0.64343,-1.76821 -0.24165,-1.12577 0.48233,-2.17 -0.48233,-4.09932 -0.96466,-1.92932 -1.60711,-1.04521 -0.8841,-2.57275 0.723,-1.52755 1.28686,-2.0089 0.0805,-2.893 -1.20534,-0.88509 -2.89398,-1.36742 -3.05509,-2.57374 -0.16012,-1.20534 -0.64245,-2.17098 -0.40178,-2.81343 0.24166,-0.64245 0.64344,-1.60809 1.76822,-1.60809 1.12577,0 2.00987,-1.1238 2.09043,-0.16013 0.0805,0.96466 -0.72301,1.52656 0.1611,2.08945 0.88411,0.56288 0.96368,0.56288 0.48135,1.36742 -0.48135,0.80355 -1.76724,1.76821 -0.48135,1.36545 1.28589,-0.40177 2.25055,-1.36644 2.89398,-0.32122 0.64245,1.04619 0.723,1.44797 1.76822,0.96564 1.04521,-0.48331 2.00987,-0.56288 2.00987,-1.60809 0,-1.04522 -0.0805,-1.92933 1.12478,-3.13466 1.20632,-1.20632 1.52853,-0.88509 1.93031,-2.09042 0.40177,-1.20632 0.8841,-0.64344 1.52656,-1.84877 0.64343,-1.20534 -0.16111,-1.36742 0.3222,-2.49221 0.48233,-1.12576 0.24068,-2.17097 1.20534,-2.81441 0.96466,-0.64245 2.3311,-1.44699 2.16999,-2.4922 -0.16012,-1.04423 -0.96368,-1.60613 -0.48135,-2.08846 0.48135,-0.48331 0.88411,-1.04521 0.5619,-1.92932 -0.32122,-0.88509 0,-1.93325 1.36644,-2.57669 1.36644,-0.64245 1.76822,-0.48036 2.17,-1.60613 0.40178,-1.12674 0.24165,-1.68864 -1.76822,-1.28686 -2.00987,0.40177 -2.65331,0 -3.13564,0.80355 -0.48134,0.80454 -2.08944,-0.24165 -2.08944,0.56288 0,0.80356 0.56288,2.49123 -0.56288,2.73288 -1.12577,0.24166 -2.3311,1.28785 -2.3311,-0.0796 0,-1.36742 -1.7692,-1.84877 0.0805,-2.73288 1.84877,-0.88509 1.28589,-1.20729 2.89398,-1.9303 1.60712,-0.723 2.25055,-1.60809 3.85864,-2.3311 1.60712,-0.723 1.92933,-0.40079 2.00988,-1.76821 0.0796,-1.36742 0.48233,-2.49221 -1.20632,-4.1003 -1.68865,-1.60711 -1.68865,-2.65233 -2.89398,-3.13466 -1.20632,-0.48233 -0.88411,-0.48233 -2.41165,-1.44797 -1.52656,-0.96466 -1.44699,-0.96368 -1.44699,-2.41165 0,-1.44797 -0.96466,-2.17098 -0.40178,-3.29576 0.56288,-1.12576 1.12577,-0.64343 0.24166,-2.25054 -0.88411,-1.6081 -1.36644,-2.08945 -2.25055,-2.73386 -0.88509,-0.64344 -7.9e-4,-0.96466 -1.68865,-1.04522 -1.68864,-0.0806 -1.04521,0.64344 -2.00987,-0.5619 -0.96466,-1.20631 -1.36644,-2.73386 -2.17098,-1.60809 -0.80355,1.12576 -0.8841,1.84877 -1.60711,2.65232 -0.72398,0.80454 -2.16999,-0.80453 -2.25054,0.64246 -0.0806,1.44797 -0.24166,1.60907 0.96466,2.97551 1.20533,1.36546 1.2849,3.21521 2.25054,3.93821 0.96466,0.72399 0.80356,2.25251 -0.1611,2.89497 -0.96466,0.64245 -4.34097,0.80257 -4.09932,2.16999 0.24068,1.36742 -0.64441,2.65232 1.68767,1.92932 2.33208,-0.72399 2.97453,-1.60711 4.42152,-1.68766 1.44699,-0.0806 3.37729,0.40079 3.85864,1.36643 0.48233,0.96466 1.20632,2.81442 1.12577,3.77809 -0.0815,0.96466 -0.24166,2.65331 -1.04522,3.9392 -0.80453,1.2849 -2.73386,1.44699 -3.21619,2.16999 -0.48233,0.72301 -1.68766,2.09043 -2.81244,2.41165 -1.12577,0.32123 -2.09043,0.88313 -2.00987,-0.1611 0.0796,-1.04423 -0.96466,-0.64344 -0.80454,-2.00987 0.1611,-1.36644 -1.20534,-1.20632 0.32221,-2.3311 1.52656,-1.12479 2.08944,-1.28687 2.00889,-2.25055 -0.0806,-0.96466 0.48233,-2.00987 -0.64246,-2.41165 -1.12576,-0.40178 -0.3222,-0.24166 -2.57275,0 -2.25055,0.24166 -1.6081,0.48331 -2.97453,1.04521 -1.36644,0.56288 -3.37632,-0.80257 -3.61699,0 -0.24166,0.80356 -0.1611,1.52656 -0.80454,2.4922 -0.64245,0.96467 -1.12478,1.20436 -1.68766,1.92834 -0.56288,0.72497 -3.13466,2.73386 -3.45687,3.61797 -0.3222,0.88411 -0.24165,2.17098 -1.12576,2.17098 -0.88411,0 -2.97453,-0.0806 -1.92932,-1.20534 1.04521,-1.12576 1.92932,-2.41165 2.33208,-3.45686 0.4008,-1.04619 -1.04619,-1.12675 0.4008,-2.17098 1.44797,-1.04521 2.6533,-0.48233 1.36742,-1.68864 -1.28589,-1.20534 -2.57276,-1.44699 -2.57276,-2.81343 0,-1.36644 -0.40178,-1.93031 -1.36644,-1.6081 -0.96466,0.32221 -0.723,0.56387 -1.84876,-0.96368 -1.12577,-1.52754 -0.64246,-1.44993 -1.60613,-3.13858 -0.96467,-1.68766 -2.41264,-1.60809 -1.7692,-3.29576 0.64343,-1.68766 2.17097,-1.84877 0.88509,-2.3311 -1.28687,-0.48233 -2.57374,0.96466 -2.49319,-0.32122 0.0806,-1.28687 0.24166,-2.3311 1.0462,-2.41165 0.80355,-0.0806 1.36643,1.20533 1.92833,0.40177 0.56289,-0.80355 0.40277,-1.92833 1.6081,-1.04521 1.20533,0.88411 3.13564,1.20632 2.65331,1.84877 -0.48332,0.64343 -1.04522,1.52853 0.16012,1.68865 1.20631,0.16012 2.16999,-0.16012 2.25054,0.80355 0.0806,0.96466 -0.80355,2.33012 -0.56288,3.37631 0.24166,1.04522 -0.1611,1.60712 0.16111,2.41166 0.32221,0.80355 1.04521,1.84975 1.84877,1.28686 0.80453,-0.56386 0.24067,-1.52754 1.76919,-0.72398 1.52755,0.80454 4.6622,1.92932 3.53644,0.32221 -1.12479,-1.60908 -1.84877,-1.12675 -1.92932,-3.3773 -0.0796,-2.25054 1.44699,-1.92834 0.32122,-3.29576 -1.12478,-1.36644 -0.96466,-3.13563 -2.73287,-3.05508 -1.76822,0.0806 -1.68767,0.16012 -2.89399,-0.40178 -1.20533,-0.5619 -2.41066,-0.16012 -2.33109,-0.96368 0.0806,-0.80454 -0.24166,-0.88509 0.48233,-1.60809 0.72398,-0.72399 -0.24068,-2.01086 -0.80356,-1.36742 -0.56288,0.64343 -3.29674,2.17097 -2.97453,1.28588 0.32221,-0.88411 0.88411,-1.12478 0.0806,-1.84778 -0.80356,-0.72399 -0.72399,-0.16111 -1.28687,-1.36742 -0.56288,-1.20534 -0.64245,-0.80356 -2.08944,-1.12479 -1.44699,-0.3222 -2.00987,-0.80453 -1.44699,-1.28686 0.56288,-0.48135 0.64441,-1.53148 1.12674,-2.4146 0.48233,-0.88411 1.20534,-0.80356 0.0796,-1.44699 -1.12478,-0.64246 -0.80355,-2.00791 -1.446,-1.44601 -0.64344,0.5619 -1.84976,2.08944 -1.84976,2.893 0,0.80355 -0.24067,1.28687 -0.88312,2.41165 -0.64442,1.12478 -0.56387,2.33208 -2.49319,2.65331 -1.92932,0.32122 -3.7771,1.28686 -2.89398,-0.0806 0.88411,-1.36644 1.36742,-0.72398 1.52755,-1.76821 0.1611,-1.04522 -0.32123,-1.52755 0.723,-3.05509 1.04521,-1.52754 2.09042,-1.12478 1.20632,-2.3311 -0.88411,-1.20631 -2.00988,-1.52754 -1.36644,-3.13465 0.64343,-1.6081 0.16012,-3.13564 0.64343,-2.73386 0.48233,0.40276 0.32123,3.05508 1.60711,3.53741 1.28589,0.48233 1.28687,0.72301 1.6081,-0.40177 0.32122,-1.12577 1.20533,0 0.32122,-1.92932 -0.88312,-1.92933 -1.60711,-2.57178 -0.48134,-3.13466 1.12478,-0.56288 3.29576,-1.7692 3.37631,-0.64343 0.0796,1.12478 -2.00987,1.44699 -1.04521,2.89398 0.96466,1.44601 0.64245,2.41067 1.76821,2.57177 1.12577,0.1611 1.52754,0.24166 2.57276,0.1611 1.04521,-0.0806 1.12576,0.16111 1.84877,0.56289 0.723,0.40177 0.64343,0 1.92932,0 1.28588,0 1.84778,-0.40276 2.3311,0.88312 0.48233,1.28687 0.8841,2.17098 1.20631,2.09043 0.32123,-0.0806 1.36644,-1.20632 0.40178,-2.09043 -0.96466,-0.88312 -1.68865,-0.80355 -1.28687,-1.92834 0.40178,-1.12576 0.64245,-1.92932 -0.80454,-1.44699 -1.44601,0.48233 -2.57177,1.28589 -2.33011,0.16013 0.24067,-1.12479 0.32122,-2.16902 1.20533,-2.0089 0.88509,0.16013 0.96466,-0.1611 1.6081,-0.64343 0.64343,-0.48233 1.52754,-1.52852 2.00987,-1.68865 0.48233,-0.16012 -2.09141,-2.09042 0.0796,-2.33109 2.17097,-0.24068 3.77907,-0.64147 3.85962,0.3222 0.0796,0.96466 -0.40178,1.68767 0.0796,2.57276 0.48233,0.88411 1.52754,2.49122 2.33208,1.84778 0.80356,-0.64245 0.80356,-1.446 2.00889,-1.76821 1.20632,-0.32123 2.25153,-0.80258 3.29674,-1.52656 1.04423,-0.72497 1.68767,-0.72497 0.0806,-1.84975 -1.6081,-1.12577 -1.84877,-1.6081 -0.80454,-1.92932 1.04521,-0.32123 1.44699,0.8841 1.60809,-0.0806 0.16012,-0.96367 -0.0805,-1.20533 0.80356,-1.76821 0.88411,-0.56288 1.12576,-1.84975 1.7692,-1.36644 0.64245,0.48233 0.0796,1.28687 1.28588,1.84877 1.20534,0.56288 1.60712,-0.96466 1.76822,-0.0805 0.16012,0.88509 -1.28687,2.00987 -0.24166,2.00987 1.04522,0 0.0806,-0.80356 2.17098,-0.48233 2.09043,0.32122 2.57276,-0.24166 3.13564,-1.36644 0.56288,-1.12576 1.44601,-2.4922 0.32122,-2.25055 -1.12576,0.24166 -2.17097,1.6081 -2.97453,0.56289 -0.80356,-1.0462 0.40178,-0.96663 1.20632,-1.44798 0.80355,-0.48134 1.20631,-1.36742 2.25054,-2.00987 1.04522,-0.64245 1.44699,-1.68766 0.88411,-2.49122 -0.56288,-0.80454 -0.40374,-2.09534 0.23969,-2.41656 0.64344,-0.32123 0.56289,-0.40178 1.28589,-1.52755 0.72399,-1.12478 -0.24067,-2.25054 1.12576,-1.92932 1.36644,0.32221 1.7692,0.96565 3.13564,0.40276 1.36644,-0.56288 2.81245,-0.80453 3.93821,-1.84975 1.12577,-1.04521 2.09043,-1.446 2.57276,-0.8841 0.48233,0.56288 0.32122,-0.0806 1.76821,-0.56289 1.44699,-0.48233 1.60908,0.40178 1.93031,0.80454 0.32122,0.40178 0.80257,-0.40276 1.44601,-0.48331 0.64343,-0.0796 0.24165,1.68865 0.88509,2.17098 0.64245,0.48331 1.28588,0 2.00987,-0.80356 0.723,-0.80356 1.84778,-2.01086 2.49122,-1.44699 0.64343,0.56288 0.88411,1.12576 0.1611,1.84877 -0.72398,0.723 -1.20631,1.68766 -1.12576,2.57177 0.0805,0.88509 -1.6081,2.01086 -0.48233,2.17098 1.12576,0.16012 1.84975,0.0806 1.92932,0.80355 0.0805,0.72399 0.72399,4.58361 1.20632,5.22607 0.48233,0.64245 1.12478,1.52754 2.00889,2.57177 0.885093,1.04521 1.688643,0.5619 2.974533,1.04521 1.28687,0.48233 1.68865,0.72399 2.89398,1.12576 1.20631,0.40178 1.44698,-0.0796 3.29575,0.80356 1.84975,0.88411 2.81441,0.64344 3.77809,0.24068 0.96466,-0.40178 1.7692,-1.76822 2.41263,-2.17 0.64344,-0.40276 1.28589,-2.3311 2.00988,-2.65331 0.723,-0.32122 3.0541,-1.2849 4.42054,-0.64245 1.36742,0.64245 2.17097,0.24068 2.73287,1.20435 0.56289,0.96466 2.09043,2.97454 2.3311,3.77809 0.24166,0.80454 -0.48233,3.21521 -0.32122,4.34097 0.1611,1.12675 0.24165,2.9765 -1.04522,3.45785 -1.28588,0.48135 -2.00987,-0.24264 -2.09042,0.88313 -0.0796,1.12674 -0.80356,1.28785 -1.68766,2.33208 -0.88411,1.04521 -2.0089,0.64343 -2.73288,0.56288 -0.72399,-0.0806 -2.00987,-0.64344 -1.84877,0.56288 0.16012,1.20534 -0.56288,2.893 0.88411,3.45588 1.44699,0.56288 1.76821,1.04521 3.53741,0.64344 1.76822,-0.40276 2.73288,-0.88411 3.93821,-0.24068 1.20632,0.64245 1.60712,1.28589 3.85865,0.80356 2.25152,-0.48233 3.45686,-1.44601 3.61796,-0.64344 0.16012,0.80356 -2.3311,4.42349 -2.57275,5.38815 -0.24166,0.96466 0.40079,2.49319 1.60711,1.84975 1.20632,-0.64343 2.97552,-1.36742 2.09042,-0.0806 -0.8841,1.28589 -2.00889,2.17098 -0.32122,2.00987 1.68766,-0.1611 1.60809,-0.1611 2.73288,0.16013 1.12576,0.32122 1.12576,-0.40375 1.12576,0.32122 0,0.72399 -2.25153,0.32123 -2.57275,1.28687 -0.32123,0.96466 -0.64344,1.44601 -0.40178,2.33012 0.24165,0.88509 -0.32221,2.09042 0.56288,2.09042 0.88411,0 1.52656,0 2.81343,0 1.28588,0 3.05508,0.0805 1.84877,0.80454 -1.20534,0.723 -3.05509,1.20632 -2.49221,2.41165 0.56289,1.20534 0.40178,1.20435 0.40178,2.25055 0,1.04521 -1.04521,2.65232 -2.81343,2.81343 -1.76821,0.1611 -1.68766,7.8e-4 -2.08944,0.96466 -0.40178,0.96466 -1.28589,2.6533 -2.4922,3.37631 -1.20534,0.723 -1.92932,0.80454 -2.09043,2.57275 -0.1611,1.76822 -0.88411,1.04423 -1.92932,2.08945 -1.04521,1.04619 -1.52754,1.92932 -1.44699,2.89398 0.0806,0.96564 1.60711,1.36742 1.52754,2.17097 -0.0806,0.80454 -2.09042,0.80454 -2.25054,1.6081 -0.16111,0.80454 0.24067,1.36742 0.24067,1.92932 0,0.5619 -0.64245,0.16208 -1.20533,1.60908 -0.56288,1.446 -3.29576,7.23495 -3.69754,9.16427 -0.40178,1.92932 -2.97355,9.48451 -3.45588,12.13782 -0.48331,2.65331 -1.7692,5.70839 -1.04521,6.91471 0.723,1.20533 0.88411,2.08944 1.04521,2.4922 0.16012,0.40178 0.56288,0.32418 0.32123,0.88706 -0.24068,0.56288 -0.80454,2.16999 -0.88411,3.61698 -0.0806,1.44798 0.24165,2.41165 -0.48233,3.13564 -0.72399,0.72399 -2.01086,1.36644 -2.49221,2.89398 -0.48233,1.52754 -0.0796,2.89398 -0.56288,4.01975 -0.48233,1.12478 -0.5619,1.36644 -0.723,2.81343 -0.16111,1.44699 -0.40178,3.13465 -1.04521,3.29576 -0.64344,0.1611 -0.24166,-0.72399 -2.17098,-0.64344 -1.92931,0.0806 -1.52754,0.0806 -2.25054,-1.44601 -0.723,-1.52754 -1.04521,-2.16999 -2.25055,-2.41165 -1.20631,-0.24165 -2.41263,-0.88509 -3.135633,-0.40276 -0.72301,0.48331 -2.57276,1.7692 -2.89398,2.81441 -0.32123,1.04423 -1.84877,2.16901 -0.40178,2.49122 1.44699,0.32221 2.89398,-0.72398 2.97453,0.88411 0.0805,1.6081 -0.96466,2.41263 -0.1611,2.65331 0.804533,0.24165 1.367423,0.48331 1.206313,1.12576 -0.1611,0.64246 -2.572753,1.12479 -3.456863,1.84877 -0.88411,0.72301 -1.36644,1.36644 -1.84877,2.3311 -0.48233,0.96466 -1.52754,2.41362 -3.53741,3.13662 -2.00988,0.72399 -3.69754,1.44601 -5.22508,2.49122 -1.52755,1.0462 -2.65331,2.49122 -3.85865,2.73288 -1.20631,0.24165 -1.28588,7.8e-4 -0.8841,-1.28491 0.40177,-1.28687 -0.88411,-1.77018 1.12478,-3.05508 2.00987,-1.28589 1.76822,-2.08944 2.3311,-4.01877 0.56386,-1.9303 1.04619,-2.97551 1.68864,-4.98538 0.64344,-2.00889 0.80356,-2.33012 -0.3222,-4.6622 -1.12479,-2.33012 -3.37533,-3.37533 -3.37533,-5.06398 0,-1.68864 1.28588,-2.4922 -0.56289,-2.97453 -1.84876,-0.48233 -4.34097,-0.64343 -3.61698,-2.16999 0.723,-1.52755 0.4008,-1.84975 2.08944,-2.09043 1.68865,-0.24067 2.09043,-0.80355 2.65331,0.72301 0.5619,1.52754 0.80356,2.89398 1.68766,2.00987 0.88509,-0.88411 1.44798,-2.57177 2.09043,-3.53643 0.64245,-0.96565 1.28687,-1.60908 -1.36644,-2.97552 -2.65331,-1.36644 -3.94018,-2.16999 -4.74373,-1.36644 -0.80356,0.80454 -1.28589,0.16111 -1.44601,1.84877 -0.1611,1.68865 -0.24166,1.60908 -1.12576,2.97552 -0.88411,1.36545 -1.36644,3.05312 -2.25055,4.09931 -0.88509,1.04521 -1.6081,1.84877 -1.04521,3.53643 0.56288,1.68865 0.723,1.6081 1.28588,3.29675 0.56289,1.68766 -0.24165,3.37631 0.48233,4.17986 0.72399,0.80454 2.3311,2.09043 3.13466,2.41165 0.80454,0.32221 1.84975,0.16111 1.52754,1.36644 -0.32123,1.20632 -1.20533,3.29576 -2.65232,3.85864 -1.44699,0.56289 -1.52755,1.12675 -2.89399,0.32221 -1.36643,-0.80356 -0.0815,-1.2073 -1.12576,-2.25153 -1.04423,-1.04521 -0.32123,-1.76821 -2.25055,-1.84877 -1.92932,-0.0806 -3.93919,0.0796 -5.14452,-0.24165 -1.20632,-0.32123 -0.16111,-0.80356 -2.09043,-0.32123 -1.92932,0.48233 -2.97453,1.28785 -2.97453,-0.16012 0,-1.44797 -0.80454,-1.04521 -0.96466,-2.3311 -0.16012,-1.28687 0.80257,-1.58943 0.40079,-1.92048"
       inkscape:connector-curvature="0" />
  </g>
</svg>
