<?xml version="1.0" encoding="UTF-8" standalone="no"?>
<svg
   xmlns:dc="http://purl.org/dc/elements/1.1/"
   xmlns:cc="http://creativecommons.org/ns#"
   xmlns:rdf="http://www.w3.org/1999/02/22-rdf-syntax-ns#"
   xmlns:svg="http://www.w3.org/2000/svg"
   xmlns="http://www.w3.org/2000/svg"
   xmlns:sodipodi="http://sodipodi.sourceforge.net/DTD/sodipodi-0.dtd"
   xmlns:inkscape="http://www.inkscape.org/namespaces/inkscape"
   width="297mm"
   height="210mm"
   viewBox="0 0 297 210"
   version="1.1"
   id="svg39"
   inkscape:version="1.0.1 (3bc2e813f5, 2020-09-07)"
   sodipodi:docname="History.svg">
  <defs
     id="defs33" />
  <sodipodi:namedview
     id="base"
     pagecolor="#ffffff"
     bordercolor="#666666"
     borderopacity="1.0"
     inkscape:pageopacity="0.0"
     inkscape:pageshadow="2"
     inkscape:zoom="0.61862103"
     inkscape:cx="561.25984"
     inkscape:cy="396.85039"
     inkscape:document-units="mm"
     inkscape:current-layer="layer1"
     inkscape:document-rotation="0"
     showgrid="false"
     inkscape:window-width="1280"
     inkscape:window-height="697"
     inkscape:window-x="-8"
     inkscape:window-y="-8"
     inkscape:window-maximized="1"
     inkscape:snap-global="false" />
  <metadata
     id="metadata36">
    <rdf:RDF>
      <cc:Work
         rdf:about="">
        <dc:format>image/svg+xml</dc:format>
        <dc:type
           rdf:resource="http://purl.org/dc/dcmitype/StillImage" />
        <dc:title />
      </cc:Work>
    </rdf:RDF>
  </metadata>
  <g
     inkscape:label="Layer 1"
     inkscape:groupmode="layer"
     id="layer1">
    <rect
       style="fill:none;stroke:none;stroke-width:0.282223"
       width="76.771042"
       height="76.39045"
       x="110.11449"
       y="66.804779"
       id="rect5703" />
    <g
       id="g5727"
       transform="matrix(-0.31232419,1.0953377,-1.0953377,-0.31232419,517.93919,480.67071)">
      <path
         d="m -221.87763,405.93868 c -2.18875,-0.63 -4.1875,-0.73125 -5.66875,-0.0387 0.1525,0.34125 0.3075,0.69375 0.46625,1.0625 1.69125,3.36875 4.4575,7.825 8.11,10.15 l 0.24875,-0.1575 c 0.825,-0.41875 1.83375,-0.0888 2.2525,0.73625 0.41875,0.825 0.0888,1.83375 -0.73625,2.2525 -0.825,0.41875 -1.83375,0.0888 -2.2525,-0.73625 -0.14375,-0.28375 -0.1975,-0.59 -0.175,-0.88625 -1.975,-1.2375 -3.69,-3.01375 -5.135,-4.9225 0.755,2.73 1.14125,5.4225 0.64125,7.42875 0.1725,0.1425 0.31875,0.32125 0.42625,0.5325 0.41875,0.825 0.0888,1.83375 -0.73625,2.2525 -0.825,0.41875 -1.83375,0.0888 -2.2525,-0.73625 -0.41875,-0.825 -0.0887,-1.83375 0.73625,-2.2525 0.16375,-0.0825 0.335,-0.135 0.5075,-0.16125 0.765,-3.0075 -0.955,-8.35375 -2.78375,-12.68875 -0.18625,-0.3675 -0.35625,-0.7175 -0.5175,-1.0575 -0.955,0.88625 -1.725,2.21375 -2.32,3.80375 -0.0725,-2.17375 -0.5525,-4.0325 -1.56625,-5.2375 -0.365,0.33375 -0.7525,0.6825 -1.16375,1.0425 -2.68125,2.65 -6.065,6.6575 -7.1475,10.84875 l 0.22625,0.18875 c 0.65375,0.65625 0.65125,1.71625 -0.004,2.37 -0.655,0.65375 -1.71625,0.65125 -2.37,-0.004 -0.6525,-0.65625 -0.65125,-1.71625 0.005,-2.37 0.225,-0.225 0.5,-0.37 0.78875,-0.44 0.56625,-2.26125 1.72625,-4.44125 3.09375,-6.405 -2.3625,1.56125 -4.80375,2.76125 -6.86625,2.905 -0.0825,0.2075 -0.20625,0.4025 -0.375,0.57 -0.655,0.65375 -1.71625,0.65125 -2.37,-0.004 -0.6525,-0.65625 -0.65125,-1.71625 0.004,-2.37 0.65625,-0.65375 1.7175,-0.65125 2.37,0.004 0.13,0.13125 0.2325,0.2775 0.31125,0.4325 3.095,-0.20125 7.64875,-3.49 11.20625,-6.5675 0.41875,-0.41625 0.81375,-0.79125 1.19125,-1.14 -1.1575,-0.71125 -2.72875,-1.0725 -4.52375,-1.15 1.8475,-0.67 3.34625,-1.57625 4.23375,-2.73125 -0.39875,-0.22625 -0.8125,-0.465 -1.24375,-0.7225 -3.34875,-1.73 -8.205,-3.71 -12.52625,-3.445 l -0.11,0.27375 c -0.42125,0.825 -1.43125,1.15 -2.255,0.72875 -0.82375,-0.42125 -1.14875,-1.43125 -0.7275,-2.255 0.42125,-0.82375 1.43125,-1.15 2.255,-0.72875 0.28375,0.14625 0.50625,0.36125 0.6625,0.615 2.325,-0.16 4.7575,0.26875 7.0475,0.96375 -2.215,-1.765 -4.11125,-3.71625 -4.885,-5.6325 -0.22375,-0.0137 -0.4475,-0.0725 -0.65875,-0.18125 -0.82375,-0.42125 -1.15,-1.43125 -0.7275,-2.255 0.42125,-0.82375 1.43,-1.14875 2.255,-0.7275 0.82375,0.42125 1.15,1.43125 0.7275,2.255 -0.0838,0.1625 -0.19125,0.30625 -0.315,0.42875 1.14875,2.8825 5.68375,6.19625 9.71,8.62875 0.535,0.27375 1.02375,0.54 1.48,0.795 0.48,-1.39875 0.3525,-3.18375 -0.185,-5.11875 1.1925,1.5325 2.5,2.66875 3.855,3.1675 0.065,-0.3075 0.1325,-0.62 0.20625,-0.945 0.61125,-3.71875 0.99375,-8.95 -0.595,-12.9775 l -0.29375,-0.0188 c -0.91375,-0.1475 -1.53625,-1.00625 -1.39,-1.92 0.14625,-0.91375 1.00625,-1.53625 1.92,-1.39 0.91375,0.14625 1.535,1.00625 1.39,1.92 -0.0513,0.31375 -0.1875,0.59375 -0.38,0.82 0.87,2.16125 1.21375,4.6075 1.26125,7 0.99375,-2.65125 2.26375,-5.0575 3.8475,-6.38625 -0.0563,-0.21625 -0.07,-0.4475 -0.0325,-0.68125 0.14625,-0.91375 1.00625,-1.53625 1.92,-1.39 0.91375,0.14625 1.53625,1.00625 1.39,1.92 -0.14625,0.91375 -1.00625,1.53625 -1.92,1.38875 -0.18125,-0.0288 -0.35125,-0.0875 -0.505,-0.1675 -2.38625,1.98375 -4.1375,7.32 -5.20625,11.90125 -0.0687,0.425 -0.14,0.82375 -0.2125,1.2075 1.49375,0.0463 3.17375,-0.62125 4.87125,-1.74625 -1.19375,1.76625 -1.89375,3.5175 -1.815,5.065 0.2675,-0.0275 0.52875,-0.055 0.80875,-0.0813 3.72625,-0.5675 8.82,-1.82125 12.16,-4.57625 l -0.0725,-0.285 c -0.14375,-0.915 0.48125,-1.77125 1.39625,-1.915 0.91375,-0.1425 1.77125,0.48125 1.91375,1.39625 0.14375,0.91375 -0.48125,1.77125 -1.39625,1.915 -0.315,0.0487 -0.6225,0.005 -0.89625,-0.1075 -1.7875,1.495 -4.0075,2.57875 -6.26875,3.3625 2.83,0.12625 5.51,0.59 7.26375,1.68625 0.1875,-0.12 0.40375,-0.205 0.6375,-0.24125 0.915,-0.14375 1.7725,0.48125 1.915,1.39625 0.14375,0.91375 -0.4825,1.77125 -1.39625,1.91375 -0.91375,0.14375 -1.77125,-0.48125 -1.915,-1.395 -0.0288,-0.18125 -0.025,-0.36125 0.004,-0.5325 -2.62375,-1.6575 -8.24,-1.6725 -12.9275,-1.27375 -0.3175,0.05 -0.6225,0.0925 -0.92,0.1325 0.5025,1.2925 1.57875,2.54375 3.02375,3.69125 m 15.175,11.16125 c -0.68125,-1.3425 -1.9875,-2.87375 -3.64,-4.375 -0.88,-0.8 -1.8525,-1.59125 -2.8925,-2.34125 0.75375,0.2525 1.50375,0.47125 2.245,0.665 2.73875,0.7175 5.31625,1.02125 7.1275,0.7375 6.00125,-0.94 9.6925,-9.1925 8.7525,-15.1925 -0.94,-6.00125 -6.9775,-12.72875 -12.9775,-11.79 -2.28,0.3575 -5.43,1.96 -8.4075,4.1375 2.22125,-2.99625 3.8625,-6.18 4.23125,-8.48 0.685,-4.28 -2.53375,-8.58875 -6.6125,-11.0575 -0.9525,-0.57625 -1.95125,-1.0525 -2.95875,-1.40375 -0.725,-0.2525 -1.455,-0.44375 -2.17375,-0.5575 -5.9975,-0.96125 -14.2625,2.70125 -15.2225,8.69875 -0.365,2.28 0.185,5.7725 1.3375,9.27875 -2.1625,-3.03875 -4.68375,-5.58625 -6.75875,-6.64875 -5.4075,-2.76625 -13.24375,1.74 -16.01125,7.14625 -2.76625,5.4075 -1.8375,14.4 3.57,17.16625 2.055,1.05125 5.54375,1.6075 9.2325,1.595 -3.5575,1.11875 -6.75625,2.72875 -8.40625,4.37375 -4.3025,4.2875 -2.43875,13.13375 1.84875,17.43625 4.2875,4.3025 13.12625,6.19625 17.42875,1.91 1.63625,-1.63 3.24125,-4.77875 4.37,-8.2925 -0.0362,3.73125 0.5075,7.2725 1.5625,9.35125 2.7475,5.41625 11.73625,6.3775 17.15375,3.62875 2.46625,-1.25125 4.74625,-3.555 6.2425,-6.20375 0.73625,-1.30375 1.28125,-2.68875 1.56375,-4.075 0.40625,-1.985 0.27625,-3.97 -0.605,-5.7075"
         style="fill:#7daddc;fill-opacity:1;fill-rule:nonzero;stroke:none"
         id="path5729"
         inkscape:connector-curvature="0" />
      <path
         d="m -211.05388,403.38868 c -0.0288,0.17125 -0.0312,0.35 -0.004,0.5325 0.14375,0.91375 1.00125,1.53875 1.915,1.39625 0.915,-0.14375 1.54,-1.00125 1.39625,-1.915 -0.1425,-0.915 -1,-1.54 -1.915,-1.39625 -0.23375,0.0363 -0.45,0.12125 -0.6375,0.24125 -1.75375,-1.09625 -4.43375,-1.56 -7.26375,-1.68625 2.26125,-0.78375 4.48125,-1.86625 6.26875,-3.3625 0.27375,0.1125 0.58125,0.15625 0.89625,0.1075 0.915,-0.14375 1.54,-1.00125 1.39625,-1.915 -0.1425,-0.91375 -1,-1.54 -1.91375,-1.39625 -0.915,0.14375 -1.54,1 -1.39625,1.915 l 0.0725,0.285 c -3.34,2.755 -8.43375,4.00875 -12.16,4.57625 -0.27875,0.0263 -0.54125,0.0537 -0.8075,0.0813 -0.55875,0.0575 -1.09875,0.1175 -1.58625,0.1775 -0.3,-0.86 -0.9875,-1.51125 -1.82625,-1.78625 0.11375,-0.5 0.235,-1.07875 0.355,-1.71 0.0725,-0.38375 0.14375,-0.7825 0.2125,-1.2075 1.06875,-4.58125 2.82,-9.9175 5.20625,-11.90125 0.155,0.08 0.32375,0.13875 0.505,0.1675 0.91375,0.1475 1.77375,-0.475 1.92,-1.38875 0.14625,-0.91375 -0.47625,-1.77375 -1.39,-1.92 -0.91375,-0.14625 -1.7725,0.47625 -1.92,1.39 -0.0375,0.23375 -0.0238,0.465 0.0325,0.68125 -1.58375,1.32875 -2.85375,3.735 -3.8475,6.38625 -0.0475,-2.3925 -0.39125,-4.83875 -1.26125,-7 0.1925,-0.22625 0.32875,-0.505 0.37875,-0.82 0.1475,-0.91375 -0.475,-1.77375 -1.38875,-1.92 -0.91375,-0.14625 -1.77375,0.47625 -1.92,1.39 -0.14625,0.91375 0.47625,1.7725 1.39,1.92 l 0.29375,0.0188 c 1.58875,4.0275 1.20625,9.25875 0.595,12.97875 -0.0737,0.32375 -0.14125,0.63625 -0.20625,0.94375 -0.14625,0.685 -0.27375,1.3275 -0.38,1.9025 -0.68375,0.12875 -1.2675,0.49125 -1.68125,0.9925 -0.445,-0.27375 -0.9925,-0.5975 -1.60875,-0.94375 -0.45625,-0.255 -0.945,-0.52125 -1.48,-0.795 -4.02625,-2.4325 -8.56125,-5.74625 -9.71,-8.62875 0.12375,-0.1225 0.23125,-0.26625 0.315,-0.42875 0.4225,-0.82375 0.0962,-1.83375 -0.7275,-2.255 -0.82375,-0.42125 -1.83375,-0.0962 -2.255,0.7275 -0.4225,0.82375 -0.0962,1.83375 0.7275,2.255 0.2125,0.10875 0.43625,0.1675 0.65875,0.18125 0.77375,1.91625 2.67,3.8675 4.885,5.6325 -2.29,-0.695 -4.7225,-1.12375 -7.0475,-0.96375 -0.15625,-0.2525 -0.37875,-0.46875 -0.6625,-0.615 -0.82375,-0.42125 -1.83375,-0.095 -2.255,0.72875 -0.4225,0.82375 -0.0963,1.83375 0.7275,2.255 0.825,0.42125 1.83375,0.0962 2.255,-0.72875 l 0.11,-0.27375 c 4.32125,-0.265 9.1775,1.715 12.52625,3.445 0.4325,0.2575 0.845,0.49625 1.24375,0.7225 0.61625,0.35125 1.1925,0.66875 1.695,0.9375 -0.0675,0.33 -0.0812,0.675 -0.0262,1.02625 0.03,0.19625 0.08,0.385 0.1475,0.565 -0.425,0.3575 -0.94875,0.82 -1.52625,1.3525 -0.3775,0.34875 -0.7725,0.72375 -1.19125,1.14 -3.5575,3.0775 -8.11,6.36625 -11.20625,6.5675 -0.0788,-0.155 -0.18125,-0.30125 -0.31125,-0.4325 -0.6525,-0.655 -1.71375,-0.65625 -2.37,-0.004 -0.655,0.65375 -0.65625,1.715 -0.004,2.37 0.65375,0.655 1.715,0.6575 2.37,0.004 0.16875,-0.1675 0.2925,-0.3625 0.375,-0.57 2.0625,-0.14375 4.50375,-1.34375 6.86625,-2.905 -1.3675,1.96375 -2.5275,4.14375 -3.09375,6.405 -0.28875,0.07 -0.56375,0.215 -0.78875,0.44 -0.65625,0.65375 -0.6575,1.71375 -0.005,2.37 0.65375,0.655 1.715,0.6575 2.37,0.004 0.655,-0.65375 0.6575,-1.71375 0.004,-2.37 l -0.22625,-0.18875 c 1.0825,-4.19125 4.46625,-8.19875 7.1475,-10.84875 0.41125,-0.36 0.79875,-0.70875 1.16375,-1.0425 0.44625,-0.4075 0.8575,-0.79375 1.22,-1.14125 0.4975,0.43875 1.14375,0.70125 1.83375,0.71625 0.225,0.535 0.50625,1.1675 0.83375,1.85875 0.16125,0.34 0.33,0.69 0.51625,1.0575 1.82875,4.335 3.54875,9.68125 2.78375,12.68875 -0.1725,0.0263 -0.34375,0.0788 -0.5075,0.16125 -0.825,0.41875 -1.155,1.4275 -0.73625,2.2525 0.41875,0.825 1.4275,1.155 2.2525,0.73625 0.825,-0.41875 1.155,-1.4275 0.73625,-2.2525 -0.1075,-0.21125 -0.25375,-0.39 -0.42625,-0.5325 0.5,-2.00625 0.11375,-4.69875 -0.64125,-7.42875 1.445,1.90875 3.16,3.685 5.135,4.9225 -0.0225,0.29625 0.0312,0.6025 0.175,0.88625 0.41875,0.825 1.4275,1.155 2.2525,0.73625 0.825,-0.41875 1.155,-1.4275 0.73625,-2.2525 -0.41875,-0.825 -1.4275,-1.155 -2.2525,-0.73625 l -0.24875,0.1575 c -3.6525,-2.325 -6.41875,-6.78125 -8.11,-10.15 -0.1575,-0.36875 -0.31375,-0.72125 -0.46625,-1.0625 -0.21875,-0.4875 -0.43125,-0.94875 -0.63,-1.36875 0.79875,-0.4175 1.36,-1.19 1.5075,-2.07875 0.52625,-0.0513 1.12375,-0.11875 1.7675,-0.205 0.2975,-0.04 0.6025,-0.0825 0.92,-0.1325 4.6875,-0.39875 10.30375,-0.38375 12.9275,1.27375"
         style="fill:#ebeef0;fill-opacity:1;fill-rule:nonzero;stroke:none"
         id="path5731"
         inkscape:connector-curvature="0" />
    </g>
  </g>
</svg>
