<?xml version="1.0" encoding="UTF-8" standalone="no"?>
<!-- Created with Inkscape (http://www.inkscape.org/) -->

<svg
   xmlns:dc="http://purl.org/dc/elements/1.1/"
   xmlns:cc="http://creativecommons.org/ns#"
   xmlns:rdf="http://www.w3.org/1999/02/22-rdf-syntax-ns#"
   xmlns:svg="http://www.w3.org/2000/svg"
   xmlns="http://www.w3.org/2000/svg"
   xmlns:sodipodi="http://sodipodi.sourceforge.net/DTD/sodipodi-0.dtd"
   xmlns:inkscape="http://www.inkscape.org/namespaces/inkscape"
   id="svg2"
   version="1.1"
   inkscape:version="0.91 r13725"
   xml:space="preserve"
   width="1788.925"
   height="1357.6375"
   viewBox="0 0 1788.925 1357.6375"
   sodipodi:docname="07_01_AdjustingColor.svg"><metadata
     id="metadata8"><rdf:RDF><cc:Work
         rdf:about=""><dc:format>image/svg+xml</dc:format><dc:type
           rdf:resource="http://purl.org/dc/dcmitype/StillImage" /><dc:title /></cc:Work></rdf:RDF></metadata><defs
     id="defs6" /><sodipodi:namedview
     pagecolor="#ffffff"
     bordercolor="#666666"
     borderopacity="1"
     objecttolerance="10"
     gridtolerance="10"
     guidetolerance="10"
     inkscape:pageopacity="0"
     inkscape:pageshadow="2"
     inkscape:window-width="1360"
     inkscape:window-height="745"
     id="namedview4"
     showgrid="false"
     inkscape:zoom="0.17383139"
     inkscape:cx="342.20324"
     inkscape:cy="678.81875"
     inkscape:window-x="-8"
     inkscape:window-y="-8"
     inkscape:window-maximized="1"
     inkscape:current-layer="g10" /><g
     id="g10"
     inkscape:groupmode="layer"
     inkscape:label="Layer 1"
     transform="matrix(1.25,0,0,-1.25,0,1357.6375)"><g
       id="g12"
       transform="scale(0.1,0.1)"><path
         d="m 0,0 14311.4,0 0,10861.1 L 0,10861.1 0,0 Z"
         style="fill:#aee5f0;fill-opacity:1;fill-rule:nonzero;stroke:none"
         id="path14"
         inkscape:connector-curvature="0" /><path
         d="m 4581.97,5600.5 1524.44,-80.92 246.53,-0.1 8.71,1253.61 -1672.31,105.55 -107.37,-1278.14"
         style="fill:#459cd6;fill-opacity:1;fill-rule:nonzero;stroke:none"
         id="path16"
         inkscape:connector-curvature="0" /><path
         d="m 4444.94,3798.32 254.07,-21.44 7.8,142.98 399.43,-23.05 -3.53,72.16 985.67,-36.07 18.03,1586.68 -1524.44,80.92 -137.03,-1802.18"
         style="fill:#5a3198;fill-opacity:1;fill-rule:nonzero;stroke:none"
         id="path18"
         inkscape:connector-curvature="0" /><path
         d="m 4188.69,6929.84 38.96,276.12 -695.14,150.95 -225.53,-1589.94 1274.99,-166.47 107.37,1278.14 -500.65,51.2"
         style="fill:#e71b2b;fill-opacity:1;fill-rule:nonzero;stroke:none"
         id="path20"
         inkscape:connector-curvature="0" /><path
         d="m 4227.65,8115.81 -55.57,-90.29 -125.01,48.62 -104.18,-27.78 -90.29,62.5 -111.13,340.33 -104.18,-6.95 41.67,326.43 -236.14,305.6 39.99,485.53 -13.43,1.58 -216.36,55.16 0,-0.01 0.03,0 -158.32,-924.08 -2.26,0.4 50.45,-55.49 0,-117.05 -82.63,-65.41 -20.66,-117.05 -89.51,-72.3 3.44,-99.84 44.76,-34.43 -51.64,-72.29 -96.39,-554.29 682.22,-147.79 695.14,-150.95 111.12,840.4 -111.12,69.45"
         style="fill:#2c913e;fill-opacity:1;fill-rule:nonzero;stroke:none"
         id="path22"
         inkscape:connector-curvature="0" /><path
         d="m 3306.98,5766.97 -37.93,-267.45 -180.03,30.75 -13.18,-92.22 17.57,-122.94 -52.66,-101.27 127.52,-293.68 -88.88,-34.78 -42.51,-162.29 -54.09,-34.78 -7.73,-81.14 42.5,-139.1 -61.82,7.71 -12.14,-48.54 -12.43,7.38 998.31,-592.75 515.46,-43.55 137.03,1802.18 -1274.99,166.47"
         style="fill:#f5911f;fill-opacity:1;fill-rule:nonzero;stroke:none"
         id="path24"
         inkscape:connector-curvature="0" /><path
         d="m 3269.05,5499.52 263.46,1857.39 -682.22,147.79 -713.42,184.14 -205.12,-968 1109,-1507 52.66,101.27 -17.57,122.94 13.18,92.22 180.03,-30.75"
         style="fill:#fbd217;fill-opacity:1;fill-rule:nonzero;stroke:none"
         id="path26"
         inkscape:connector-curvature="0" /><path
         d="m 3040.75,5213.84 -1109,1507 205.29,968.83 -970.91,251.79 4.99,8.05 -46.79,-75.39 31.19,-103.99 -163.782,-283.38 80.592,-241.77 -49.4,-296.38 109.19,-236.57 -7.79,-80.59 116.98,-85.8 5.2,96.19 70.2,-20.8 -26,-140.38 -72.79,7.8 -10.41,-163.79 137.79,-161.18 -51.99,-75.4 187.19,-413.36 0,-67.59 49.39,-23.39 -7.8,-236.58 257.39,-106.6 166.38,-163.78 62.4,-10.4 44.19,-88.39 72.79,-39.01 155.99,-223.58 -7.8,-109.19 44.2,-26 -5.2,-54.59 618.74,-91 12.43,-7.38 12.14,48.54 61.82,-7.71 -42.5,139.1 7.73,81.14 54.09,34.78 42.51,162.29 88.88,34.78 -127.52,293.68"
         style="fill:#3572c2;fill-opacity:1;fill-rule:nonzero;stroke:none"
         id="path28"
         inkscape:connector-curvature="0" /><path
         d="m 2031.65,9927.93 1130.37,-288.19 0,0 -1130.37,288.19 z m -190.08,-1008.26 -69.9,176.34 -181.98,41.6 -109.19,-324.97 -311.97,-577.15 2.59,-285.98 -4.99,-8.05 1684.16,-436.76 96.39,554.29 51.64,72.29 -44.76,34.43 -3.44,99.84 89.51,72.3 20.66,117.05 82.63,65.41 0,117.05 -50.45,55.49 -1250.9,226.82"
         style="fill:#5a3198;fill-opacity:1;fill-rule:nonzero;stroke:none"
         id="path30"
         inkscape:connector-curvature="0" /><path
         d="m 1602.69,9181.8 168.98,-85.79 69.9,-176.34 1253.16,-227.22 158.32,924.08 -1221.4,311.4 98.79,-153.38 -44.19,-26 33.79,-46.79 7.8,-127.39 -57.2,-70.2 -7.8,-85.79 -111.79,-77.99 -80.59,31.19 137.79,72.8 18.2,101.39 -65,5.2 52,83.19 -408.17,168.99 41.6,-215.78 -33.8,-158.59 75.4,-75.39 -59.8,-18.2 26,-54.59 -41.6,-46.8 -10.39,-52"
         style="fill:#e71b2b;fill-opacity:1;fill-rule:nonzero;stroke:none"
         id="path32"
         inkscape:connector-curvature="0" /><path
         d="m 5899.82,6802.24 27.7,1251.06 -1583.54,109.39 -5.21,-116.33 -111.12,-840.4 -38.96,-276.12 500.65,-51.2 1210.48,-76.4"
         style="fill:#b3d91f;fill-opacity:1;fill-rule:nonzero;stroke:none"
         id="path34"
         inkscape:connector-curvature="0" /><path
         d="m 3678.96,8768.67 -41.67,-326.43 104.18,6.95 111.13,-340.33 90.29,-62.5 104.18,27.78 125.01,-48.62 55.57,90.29 111.12,-69.45 5.21,116.33 1583.54,-109.39 -0.28,-12.97 44.07,1227.62 -2501.93,293.43 13.43,-1.58 -39.99,-485.53 236.14,-305.6"
         style="fill:#8a152f;fill-opacity:1;fill-rule:nonzero;stroke:none"
         id="path36"
         inkscape:connector-curvature="0" /><path
         d="m 8696.69,3681.45 -69.1,184.28 -46.08,23.04 -87.53,193.51 -4.61,433.1 -308.69,78.32 -147.44,-9.22 -142.82,-73.72 -368.58,73.72 -69.12,-9.21 -73.7,50.68 -184.28,4.6 -101.36,82.94 -59.89,-32.26 -170.47,78.32 -4.61,589.74 -753.89,4.13 -16.14,-1420.52 -985.67,36.07 3.53,-72.16 -399.43,23.05 405.57,-23.39 265.17,-296.39 122.19,-31.19 161.18,-397.77 179.39,-103.99 194.98,-127.37 249.58,257.37 353.57,-163.8 317.17,-467.96 90.99,-49.38 148.19,-374.38 387.34,-132.59 181.98,-7.79 -67.59,83.2 -85.8,220.98 c 0,0 38.99,93.59 28.6,93.59 -10.4,0 -70.19,12.99 -70.19,12.99 l -18.2,49.41 98.79,13 7.79,70.18 c 0,0 -51.99,51.98 -44.18,59.8 7.8,7.79 77.98,18.19 77.98,18.19 l 18.2,54.6 -46.79,36.4 127.38,33.79 26.01,127.4 111.78,-18.21 -31.2,72.81 228.79,-15.59 140.38,184.57 72.8,46.8 -28.6,88.4 75.4,67.58 13,-119.58 248.61,99.12 21.99,179.65 -36.86,41.45 0,124.4 64.49,55.29"
         style="fill:#459cd6;fill-opacity:1;fill-rule:nonzero;stroke:none"
         id="path38"
         inkscape:connector-curvature="0" /><path
         d="m 7489.37,8916.16 -56.95,39.15 -3.57,231.37 -46.39,100.52 -1386.1,-22.19 -25.05,2.94 -33.83,-942.43 1658.66,10.46 -106.77,580.18"
         style="fill:#fbd217;fill-opacity:1;fill-rule:nonzero;stroke:none"
         id="path40"
         inkscape:connector-curvature="0" /><path
         d="m 7694.47,7486.95 -42.22,78.41 -12.07,554.84 -84.42,81.41 -6.04,57.29 35.12,77 -1647.03,-10.38 c -0.11,-0.04 -0.23,-0.08 -0.34,-0.12 l -10.23,-285.01 -13.75,-620.79 1325.68,-23.11 48.24,-39.2 c 0,0 120.58,57.3 132.65,57.3 12.06,0 280.43,-147.77 280.43,-147.77 l -6.02,220.13"
         style="fill:#3572c2;fill-opacity:1;fill-rule:nonzero;stroke:none"
         id="path42"
         inkscape:connector-curvature="0" /><path
         d="m 6359.64,6483.71 1636.5,48.88 -122.26,247.24 -32.6,173.88 -140.79,313.11 c 0,0 -268.37,147.77 -280.43,147.77 -12.07,0 -132.65,-57.3 -132.65,-57.3 l -48.24,39.2 -1325.68,23.11 0,-0.01 -13.67,-617.35 461.83,-29.15 -2.01,-289.38"
         style="fill:#5a3198;fill-opacity:1;fill-rule:nonzero;stroke:none"
         id="path44"
         inkscape:connector-curvature="0" /><path
         d="m 8230.82,6252.25 -104.69,31.86 -13.65,154.75 -116.34,93.73 -1636.5,-48.88 -6.7,-964.23 1909.73,36.42 -31.85,696.35"
         style="fill:#fbd217;fill-opacity:1;fill-rule:nonzero;stroke:none"
         id="path46"
         inkscape:connector-curvature="0" /><path
         d="m 8262.67,5555.9 -1909.73,-36.42 -246.53,0.1 -1.89,-166.16 753.89,-4.13 4.61,-589.74 170.47,-78.32 59.89,32.26 101.36,-82.94 184.28,-4.6 73.7,-50.68 69.12,9.21 368.58,-73.72 142.82,73.72 147.44,9.22 179.02,-45.42 -10.58,479.68 -86.45,527.94"
         style="fill:#e71b2b;fill-opacity:1;fill-rule:nonzero;stroke:none"
         id="path48"
         inkscape:connector-curvature="0" /><path
         d="m 9950.52,3290.73 -96.19,88.39 -46.8,57.18 13,49.4 72.8,-7.79 7.8,57.2 c 0,0 -85.79,41.59 -93.6,33.8 -7.8,-7.81 -52,-67.6 -52,-67.6 l -25.98,75.39 -62.41,2.6 0,-41.6 -114.38,-39 -15.61,64.99 -57.18,54.6 96.18,0 2.6,44.19 183.51,-39.15 -53.02,93.81 -20.74,117.55 -484.03,-17.3 -3.45,134.85 117.55,165.94 -41.49,273.14 -785.98,-38.03 2.88,-271.01 87.53,-193.51 46.08,-23.04 69.1,-184.28 -64.49,-55.29 0,-124.4 36.86,-41.45 -21.99,-179.65 149.16,59.46 298.97,-62.39 5.2,77.99 145.59,15.59 70.19,-64.99 5.19,72.8 -67.59,59.79 41.61,10.39 77.98,-77.99 -7.8,-137.77 93.59,-75.41 49.41,70.19 145.58,-26 12.99,119.61 -75.39,51.98 41.59,49.41 106.6,-122.2 67.59,-18.2 77.99,-75.39 88.4,28.58 -23.4,54.62"
         style="fill:#5a3198;fill-opacity:1;fill-rule:nonzero;stroke:none"
         id="path50"
         inkscape:connector-curvature="0" /><path
         d="m 9532.94,5407.76 -159.04,13.82 0,127.93 -1093.66,-100.9 68.88,-420.65 10.58,-479.68 129.67,-32.9 1.73,-162.09 785.98,38.03 6.93,159.01 -41.5,114.1 103.74,203.98 186.69,539.35"
         style="fill:#f5911f;fill-opacity:1;fill-rule:nonzero;stroke:none"
         id="path52"
         inkscape:connector-curvature="0" /><path
         d="m 9773.74,3620.89 168.99,78 141.47,19.21 -126.01,1454.56 -528.59,-63.43 -83.35,-240.82 -103.74,-203.98 41.5,-114.1 -6.93,-159.01 41.49,-273.14 -117.55,-165.94 3.45,-134.85 484.03,17.3 20.74,-117.55 53.02,-93.81"
         style="fill:#fbd217;fill-opacity:1;fill-rule:nonzero;stroke:none"
         id="path54"
         inkscape:connector-curvature="0" /><path
         d="m 10895.2,4463.9 51.8,58.79 -96.8,110.62 -200.5,667.27 -511.7,-107.17 -27.7,38.03 -120.97,-27.68 -30.84,-34.67 125.71,-1450.99 69.1,9.37 18.2,117 91,-135.18 65.8,17.82 -3.6,83.34 -31.1,121.02 646.5,152.13 -44.9,380.3"
         style="fill:#e71b2b;fill-opacity:1;fill-rule:nonzero;stroke:none"
         id="path56"
         inkscape:connector-curvature="0" /><path
         d="m 12539.9,3002.14 -91,215.76 -72.8,127.4 -161.2,223.59 20.8,33.8 39,-7.8 67.6,-132.6 -52,150.79 -75.4,62.39 -91,91.02 -65,124.76 -49.4,75.41 -44.2,148.18 -31.2,-23.4 36.5,-171.58 -67.6,96.19 5.2,124.79 64.9,44.19 -10.3,31.32 -179.1,-25.6 -10.4,-148.66 -72.6,58.79 -646.5,-96.82 -114.1,79.54 -646.5,-152.13 31.1,-121.02 3.6,-83.34 -47.5,-12.88 106.5,28.85 20.8,75.39 78,0 26,-25.99 104,41.59 127.4,-44.19 70.1,36.4 137.8,-150.79 135.2,31.19 93.6,116.98 158.6,5.21 104,-135.2 179.4,-96.18 52,-83.2 18.2,-218.37 36.4,-80.6 31.2,36.4 44.2,-31.21 -20.8,-114.38 135.1,-181.99 41.6,62.39 20.8,-72.78 54.6,-36.4 -2.6,-36.4 119.6,-161.18 72.8,-2.6 65,-124.8 85.8,-31.19 -59.8,-18.19 62.4,-41.61 54.6,72.8 54.6,-23.4 39,91 -20.8,75.39 33.8,324.97"
         style="fill:#b3d91f;fill-opacity:1;fill-rule:nonzero;stroke:none"
         id="path58"
         inkscape:connector-curvature="0" /><path
         d="m 11994,4663.39 -1,19.86 -39,20.1 -139.2,130.47 -17.3,114.09 -401,255.85 -51.9,82.98 -121,76.06 0,82.98 -573.9,-145.2 200.5,-667.27 96.8,-110.62 -51.8,-58.79 44.9,-380.3 114.1,-79.54 646.5,96.82 72.6,-58.79 10.4,148.66 179.1,25.6 -52,158.47 83.2,288.57 z m -1186.3,-840.2 5.9,3.09 -5.9,-3.09 0,0"
         style="fill:#3572c2;fill-opacity:1;fill-rule:nonzero;stroke:none"
         id="path60"
         inkscape:connector-curvature="0" /><path
         d="m 8839.34,7849.62 c -62.51,31.26 -145.86,31.26 -166.69,114.6 -62.51,41.67 -145.86,52.09 -218.78,72.92 0,72.93 10.42,135.44 20.83,197.95 10.42,31.25 -20.83,52.09 -52.09,72.92 -10.41,10.42 -10.41,20.84 -10.41,31.26 41.67,52.09 72.92,114.6 104.18,166.69 10.41,41.67 -31.26,83.34 -10.42,125.01 31.25,41.67 72.92,72.93 104.18,114.6 104.18,187.53 291.71,260.45 435.71,394.65 -133.59,-9.18 -258.6,-40.43 -394.04,-19.6 -93.76,0 -166.69,62.51 -250.03,93.77 -31.26,10.41 -62.51,20.83 -93.77,10.41 -93.76,-20.83 -177.1,0 -270.87,0 -31.25,0 -62.5,10.42 -93.76,31.26 -31.25,31.25 -31.25,83.34 -52.09,114.6 -20.84,20.83 -62.51,31.25 -98.52,34.73 -16.08,-34.73 -5.66,-76.41 -5.66,-107.66 -135.78,-8.23 -269.92,-11.56 -403.41,-13.21 l 45.15,-97.84 3.57,-231.37 56.95,-39.15 106.77,-580.18 -11.3,-0.08 -35.12,-77 6.04,-57.29 84.42,-81.41 11.94,-549.37 c 419.33,50.54 819.11,81.66 1227.42,129.15 -0.21,1.19 -0.79,2.17 -1.65,2.99 -26.22,45.19 12.42,105.87 -38.55,146.65"
         style="fill:#2c913e;fill-opacity:1;fill-rule:nonzero;stroke:none"
         id="path62"
         inkscape:connector-curvature="0" /><path
         d="m 9211.44,7205.56 -190.16,228.19 -107.17,44.94 -35.73,221.16 c -407.9,-47.42 -807.32,-78.53 -1226.26,-129.02 l 0.13,-5.47 42.22,-78.41 6.02,-220.13 140.79,-313.11 32.6,-173.88 56.29,-113.84 904.41,100.49 114.1,-89.89 -3.45,121 110.62,165.96 -86.43,76.06 162.5,38.03 79.52,127.92"
         style="fill:#fbd217;fill-opacity:1;fill-rule:nonzero;stroke:none"
         id="path64"
         inkscape:connector-curvature="0" /><path
         d="m 9875.24,6202.92 110.63,165.95 -89.88,193.62 41.49,114.08 -116.92,636 -70.18,93.6 -19.46,128.02 -696.96,-115.65 -12.68,15.21 190.16,-228.19 -79.52,-127.92 -162.5,-38.03 86.43,-76.06 -110.62,-165.96 3.45,-121 38.01,-148.68 121.01,-44.94 82.98,-155.59 131.39,-6.91 -48.41,-93.35 13.83,-100.26 183.24,-138.3 58.78,-165.95 110.63,-34.57 17.29,58.78 62.23,6.91 89.89,-38.03 -3.46,76.06 72.61,79.52 -3.46,231.64"
         style="fill:#b3d91f;fill-opacity:1;fill-rule:nonzero;stroke:none"
         id="path66"
         inkscape:connector-curvature="0" /><path
         d="m 9529.51,5822.61 -58.78,165.95 -183.24,138.3 -13.83,100.26 48.41,93.35 -131.39,6.91 -82.98,155.59 -121.01,44.94 -38.01,148.68 -114.1,89.89 -904.41,-100.49 65.97,-133.4 116.34,-93.73 13.65,-154.75 104.69,-31.86 31.85,-696.35 49.65,-303.24 0.01,0 -32.09,195.95 1093.66,100.9 0,-127.93 159.04,-13.82 34.59,186.66 86.44,58.78 -13.83,134.84 -110.63,34.57"
         style="fill:#2c913e;fill-opacity:1;fill-rule:nonzero;stroke:none"
         id="path68"
         inkscape:connector-curvature="0" /><path
         d="m 9986.07,5745.81 -59.74,-59.73 -272.36,-32.88 -86.44,-58.78 -34.59,-186.66 -103.34,-298.53 528.59,63.43 0.3,-3.57 30.84,34.67 120.97,27.68 27.7,-38.03 511.7,107.17 286,72.36 -14.7,82 c 0,0 337.6,353.2 345.4,360.99 7.8,7.79 83.1,-2.6 83.1,-2.6 l 39,80.51 122,38.95 2.6,122.06 -1527.03,-309.04"
         style="fill:#5a3198;fill-opacity:1;fill-rule:nonzero;stroke:none"
         id="path70"
         inkscape:connector-curvature="0" /><path
         d="m 12162.7,5646.73 -309.1,-86.82 -76.4,62.51 -368.1,-62.51 -185.5,-114.13 0,-82.98 121,-76.06 51.9,-82.98 401,-255.85 17.3,-114.09 139.2,-130.47 39,-20.1 1,-19.86 -2.6,54.59 2.6,98.79 54.5,-31.19 13,72.78 158.6,101.4 10.4,57.19 54.6,26.01 52,158.58 77.7,44.83 46.3,166.35 -298.4,234.01"
         style="fill:#5a3198;fill-opacity:1;fill-rule:nonzero;stroke:none"
         id="path72"
         inkscape:connector-curvature="0" /><path
         d="m 10174.1,8635.86 -36.4,-67.59 50.7,-50.7 -58.5,-29.9 15.6,-109.19 -67.6,-23.39 -39,77.99 -44.16,-83.19 -57.2,-129.99 26,-301.58 77.96,-72.79 -10.4,-353.57 -49.36,-114.39 798.26,115.9 -7.9,1.09 31.2,83.19 -5.2,46.79 -20.8,59.8 122.2,145.58 -18.2,106.6 -96.2,249.58 -111.8,28.59 -72.8,-132.59 -72.8,0 -20.8,75.4 57.2,36.39 41.6,127.39 -78,176.79 26,67.6 -379.6,70.19"
         style="fill:#459cd6;fill-opacity:1;fill-rule:nonzero;stroke:none"
         id="path74"
         inkscape:connector-curvature="0" /><path
         d="m 9895.99,6562.49 89.88,-193.62 -110.63,-165.95 1.69,-113.29 59.77,-1.86 59.04,55.55 90.26,-24.3 79.9,59.03 79.9,6.95 -3.5,76.4 72.9,-62.51 73,138.9 48.6,24.31 -17.4,86.82 218.8,72.93 -210.4,920.48 -446.06,-64.76 -161.18,-65 116.92,-636 -41.49,-114.08"
         style="fill:#2c913e;fill-opacity:1;fill-rule:nonzero;stroke:none"
         id="path76"
         inkscape:connector-curvature="0" /><path
         d="m 11221.6,6400.3 -38.2,166.69 -145.9,104.18 -55.5,-48.61 -145.9,-27.79 -233,80.44 35.1,-153.36 -218.8,-72.93 17.4,-86.82 -48.6,-24.31 -73,-138.9 -72.9,62.51 3.5,-76.4 -79.9,-6.95 -79.9,-59.03 -90.26,24.3 -59.04,-55.55 -59.77,1.86 1.77,-118.35 -72.61,-79.52 3.46,-76.06 -89.89,38.03 -62.23,-6.91 -17.29,-58.78 13.83,-134.84 272.36,32.88 59.74,59.73 1165.13,235.79 77.3,106.16 0,72.92 114.6,173.64 -121.5,65.98"
         style="fill:#e71b2b;fill-opacity:1;fill-rule:nonzero;stroke:none"
         id="path78"
         inkscape:connector-curvature="0" /><path
         d="m 11400.4,7768.92 -415.2,-292.57 -98.7,2.61 -114.4,15.6 7.9,-1.09 -352.2,-51.14 175.3,-767.12 233,-80.44 145.9,27.79 55.5,48.61 145.9,-104.18 3.4,-14.78 83.4,139.8 -24.3,69.45 27.8,31.26 31.2,-76.41 41.7,31.26 10.4,149.33 97.3,104.18 48.6,375.04 -102.5,392.8"
         style="fill:#5a3198;fill-opacity:1;fill-rule:nonzero;stroke:none"
         id="path80"
         inkscape:connector-curvature="0" /><path
         d="m 12864.9,6085.47 33.8,51.99 20.8,-39 83.2,5.2 67.6,114.39 -49.4,90.99 -44.2,-2.6 -10.4,-49.39 -78,15.6 -67.6,-44.2 -70.2,121.57 23.4,13.62 46.8,-59.8 135.2,83.2 -45.8,94.04 -1397,-426.23 -2.6,-122.06 -122,-38.95 -39,-80.51 c 0,0 -75.3,10.39 -83.1,2.6 -7.8,-7.79 -345.4,-360.99 -345.4,-360.99 l 14.7,-82 -131.2,-33.19 419.1,106.03 185.5,114.13 368.1,62.51 76.4,-62.51 309.1,86.82 298.4,-234.01 3.4,12.41 192.4,127.37 137.8,259.99 150.8,67.59 10.4,85.8 -41.6,-2.6 -36.4,-44.21 -57.2,-15.59 -49.4,26 72.8,18.19 44.2,72.8 -83.2,0 -49.4,44.19 72.8,-7.79 36.4,28.6"
         style="fill:#f5911f;fill-opacity:1;fill-rule:nonzero;stroke:none"
         id="path82"
         inkscape:connector-curvature="0" /><path
         d="m 12870.1,6951.19 -15.6,-90.99 13,-114.39 59.8,59.8 0,150.78 1.9,36.85 -112.3,-32.24 1.2,-7.21 52,-2.6"
         style="fill:#e71b2b;fill-opacity:1;fill-rule:nonzero;stroke:none"
         id="path84"
         inkscape:connector-curvature="0" /><path
         d="m 12925.7,6499.13 c 1.4,7.17 4,14.04 7.9,20.13 l -14.1,15.97 -54.6,54.6 -46.8,-20.8 -33.8,-23.4 -132.6,54.6 93.6,12.99 52,-31.2 13,44.2 -70.2,36.4 28.6,49.4 -143,93.59 28.6,26 72.8,-31.2 10.4,49.39 -68.7,68.7 -26.9,-7.71 -142.4,-17.37 -72.9,62.51 -6.9,149.33 -63.9,31.94 -16,47.93 -104.2,24.31 3.8,-59.68 c -5.5,-12.72 -11.9,-23.66 -17.7,-23.66 -13.9,0 -83.3,-10.42 -83.3,-10.42 l -145.9,-295.19 -100.7,-48.61 -111.1,-184.05 13.9,-163.22 -66,-52.09 -149.3,-59.03 -55.6,-79.88 -180.6,100.71 -114.6,-173.64 0,-72.92 -77.3,-106.16 361.9,73.25 1397,426.23 -3.6,7.35 19.2,10.7"
         style="fill:#459cd6;fill-opacity:1;fill-rule:nonzero;stroke:none"
         id="path86"
         inkscape:connector-curvature="0" /><path
         d="m 11332.2,6340.27 c 2.4,1.1 4.9,2.23 7.4,3.33 l 3.5,-9.28 180.6,-100.71 55.6,79.88 149.3,59.03 66,52.09 -13.9,163.22 111.1,184.05 100.7,48.61 145.9,295.19 c 0,0 69.4,10.42 83.3,10.42 5.8,0 12.2,10.94 17.7,23.66 l -3.8,59.68 6.3,-1.46 -6.3,29.24 c 0,0 -76.4,6.94 -90.3,6.94 -13.9,0 -45.1,-65.98 -45.1,-65.98 l -97.3,6.95 -41.6,-69.45 -41.7,-13.9 -6.9,-41.67 -59.1,-13.89 -34.7,104.18 -243.1,-52.09 -72.9,277.81 -48.6,-375.04 -97.3,-104.18 -10.4,-149.33 -41.7,-31.26 -31.2,76.41 -27.8,-31.26 24.3,-69.45 -83.4,-139.8 -3.4,14.78 38.2,-166.69 110.6,-60.03"
         style="fill:#fbd217;fill-opacity:1;fill-rule:nonzero;stroke:none"
         id="path88"
         inkscape:connector-curvature="0" /><path
         d="m 12749.6,7733.81 -45.2,156.27 79.9,128.49 -76.4,10.42 -138.9,142.38 -1168.1,-404.34 102,-390.91 72.9,-277.81 243.1,52.09 944.6,312.54 104.1,170.16 -10.4,62.51 -107.6,38.2"
         style="fill:#2c913e;fill-opacity:1;fill-rule:nonzero;stroke:none"
         id="path90"
         inkscape:connector-curvature="0" /><path
         d="m 12693,7439.61 -874.1,-289.21 34.7,-104.18 59.1,13.89 6.9,41.67 41.7,13.9 41.6,69.45 97.3,-6.95 c 0,0 31.2,65.98 45.1,65.98 13.9,0 90.3,-6.94 90.3,-6.94 l 6.3,-29.24 -6.3,1.46 104.2,-24.31 16,-47.93 63.9,-31.94 6.9,-149.33 72.9,-62.51 142.4,17.37 26.9,7.71 24.9,-24.88 0,0 -34.2,34.17 44.2,33.8 -10.4,39 -70.2,44.2 -62.4,174.18 28.6,85.79 41.6,23.4 15.6,-109.19 -10.4,-33.8 57.2,-44.2 -10.4,-49.39 67.6,-57.19 49.4,25.99 17,-99.38 112.3,32.24 5.9,112.91 -119.5,-21.73 -122.6,355.19"
         style="fill:#5a3198;fill-opacity:1;fill-rule:nonzero;stroke:none"
         id="path92"
         inkscape:connector-curvature="0" /><path
         d="m 12815.5,7302.16 -46.8,109.19 -13.4,48.89 -62.9,-20.8 0,-0.01 0.6,0.18 122.6,-355.19 116.5,21.19 3.1,1.96 5.1,98.4 -124.8,96.19"
         style="fill:#459cd6;fill-opacity:1;fill-rule:nonzero;stroke:none"
         id="path94"
         inkscape:connector-curvature="0" /><path
         d="m 12985.7,8310.27 -45.1,336.86 -240.1,556.25 -7.2,-3.38 -400.4,-171.59 -46.8,-153.37 -18.2,-75.4 -54.6,-41.6 -18.2,-54.59 72.8,10.4 13,-59.8 -41.6,-51.99 65,-62.4 -23.4,-41.59 -70.2,-26 -111.8,-122.19 -215.7,-18.2 c 0,0 -167.7,-87.09 -176.8,-96.19 -9.1,-9.1 13,-64.99 13,-64.99 l 46.8,-28.6 -2.6,-72.8 -236.6,-239.17 -86.3,-60.79 c 1.2,-0.31 2.4,-0.58 3.6,-0.94 l 1164.7,403.17 138.9,-142.38 76.4,-10.42 191,-17.36 51.4,-18.69 61.8,83.97 2.1,1.73 -104.9,242.05"
         style="fill:#e71b2b;fill-opacity:1;fill-rule:nonzero;stroke:none"
         id="path96"
         inkscape:connector-curvature="0" /><path
         d="m 13359.7,8468.96 -375.4,-147.72 1.4,-10.97 104.9,-242.05 -2.1,-1.73 142.9,114.39 85.8,10.4 117,88.39 1.6,1.87 -76.1,187.42"
         style="fill:#459cd6;fill-opacity:1;fill-rule:nonzero;stroke:none"
         id="path98"
         inkscape:connector-curvature="0" /><path
         d="m 13135.4,9196.12 -18.1,86.83 -39.6,96.44 -377.2,-176.01 240.1,-556.25 14,-104.36 0,0 159.1,74.51 -54.3,296.66 18.1,238.77 57.9,43.41"
         style="fill:#459cd6;fill-opacity:1;fill-rule:nonzero;stroke:none"
         id="path100"
         inkscape:connector-curvature="0" /><path
         d="m 13461,8519.6 -101.3,-50.64 76.1,-187.42 -1.6,-1.87 46.8,54.6 5.2,103.99 8.5,-6.38 -33.7,87.72"
         style="fill:#2c913e;fill-opacity:1;fill-rule:nonzero;stroke:none"
         id="path102"
         inkscape:connector-curvature="0" /><path
         d="m 13798.2,8620.24 -96.2,26 2.6,-33.8 41.6,-33.8 -28.6,-46.79 -59.8,-5.2 -59.8,72.79 -72.8,67.6 -13,103.99 -57.2,50.02 -84.5,-106.09 -256.8,-97.68 -159.1,-74.51 -9,66.51 0,0 40.1,-299.01 -1.4,10.97 375.4,147.72 101.3,50.64 33.7,-87.72 53.9,-40.41 67.6,-10.41 0,59.8 96.2,31.2 80.6,57.19 20.8,38.99 -15.6,52"
         style="fill:#f5911f;fill-opacity:1;fill-rule:nonzero;stroke:none"
         id="path104"
         inkscape:connector-curvature="0" /><path
         d="m 13117.3,9282.95 18.1,-86.83 -57.9,-43.41 -18.1,-238.77 54.3,-296.66 256.8,97.68 84.5,106.09 31.5,-27.51 -36.7,32.09 10.5,36.24 -78.9,30.36 -229.2,561.65 c -2.5,-5.95 -4,-9.5 -4,-9.5 l -65,-62.4 -5.5,-2.59 39.6,-96.44"
         style="fill:#8a152f;fill-opacity:1;fill-rule:nonzero;stroke:none"
         id="path106"
         inkscape:connector-curvature="0" /><path
         d="m 13735.8,9917.53 c 0,0 -156,343.17 -169,343.17 -13,0 -96.2,13 -96.2,13 l -101.4,-117 -140.4,39 -44.2,-327.56 c 0,0 49.1,-254.17 39,-259.97 -9.2,-5.32 -64.7,-138.13 -74,-160.52 0.7,1.59 1.5,3.63 2.6,6.23 l 229.2,-561.65 78.9,-30.36 12.9,44.35 18.2,145.58 33.8,111.8 85.8,41.59 59.8,77.99 33.8,101.4 -28.6,49.39 41.6,39 67.6,-70.2 39,75.4 187.2,236.58 -275.6,202.78"
         style="fill:#fbd217;fill-opacity:1;fill-rule:nonzero;stroke:none"
         id="path108"
         inkscape:connector-curvature="0" /><path
         d="m 13061.8,7934.7 -35.3,-22.35 14.1,-60.01 149.5,83.54 225.9,191.78 25.9,57.65 -140.1,-85.88 -42.3,-7.07 -93,-77.65 -54.1,-1.18 -50.6,-78.83"
         style="fill:#e71b2b;fill-opacity:1;fill-rule:nonzero;stroke:none"
         id="path110"
         inkscape:connector-curvature="0" /><path
         d="m 953.02,3847.39 77.4,-56.47 18.83,133.89 -69.035,37.65 6.273,60.67 -46.019,-69.03 35.566,-37.66 -23.015,-69.05 z m -223.836,-545.99 20.918,48.11 -108.789,81.59 14.656,-87.88 73.215,-41.82 z M 162.25,2698.9 c -12.547,0 58.586,-98.3 58.586,-98.3 l 75.312,-31.39 -14.644,48.11 c 0,0 -106.703,81.58 -119.254,81.58 z m 1058.56,-435.14 c 0,0 -16.75,-23.02 -8.38,-23.02 8.38,0 94.14,-50.19 94.14,-50.19 l -14.64,64.84 -71.12,8.37 z m -121.35,-50.19 -33.47,56.49 -62.76,-23.04 4.19,-56.47 -39.748,-62.75 129.708,16.72 75.31,-14.64 33.46,66.95 -39.74,52.29 -66.95,-35.55 z M 2551.3,887.262 l -50.21,73.207 -25.1,-66.918 -35.57,-29.309 27.2,-37.64 -35.56,-41.801 23,-98.399 43.94,-18.8 46.02,10.398 33.48,60.699 -37.66,62.801 10.46,85.762 z m -83.68,152.708 -56.48,-112.97 85.76,71.121 -29.28,41.849 z m 106.7,20.92 -18.84,14.64 -31.38,2.08 2.09,-92.028 48.13,29.278 0,46.03 z m -110.88,119.24 -25.11,23.02 -48.12,-106.7 14.65,-66.95 56.48,46.03 2.1,104.6 z m 205.01,192.45 -27.2,81.61 -10.45,102.49 -66.95,6.26 -71.13,-31.37 -66.94,10.47 -29.29,171.53 c 0,0 21.42,77.67 16.74,85.78 -4.68,8.1 -43.93,25.11 -43.93,25.11 l -100.42,60.61 966.49,1301.22 -64.84,129.73 -129.71,54.37 -29.29,56.5 -43.93,10.46 -48.12,156.9 -102.5,41.82 -12.55,129.72 -43.93,10.45 0,64.86 -56.49,-12.55 -33.48,35.55 52.32,25.11 c 0,0 -2.11,41.83 -10.47,41.83 -8.37,0 -71.13,0 -71.13,0 l -98.32,43.94 -92.04,-37.64 16.73,46 -131.8,43.93 -186.19,-31.35 c 0,0 -169.45,115.05 -177.82,115.05 -8.36,0 -75.31,-43.93 -75.31,-43.93 l -8.36,-217.57 -64.86,-23.01 79.5,-142.28 -39.75,-16.71 c 0,0 8.36,-35.55 16.74,-35.55 8.37,0 54.39,-14.66 54.39,-14.66 l -16.74,-79.48 -98.32,62.75 -144.35,123.44 66.94,62.74 -332.62,154.8 39.74,-119.24 -31.37,-29.28 -33.48,31.37 c 0,0 -16.73,-89.94 -23,-96.22 -6.28,-6.28 31.37,-98.33 31.37,-98.33 l 94.14,-98.32 c 0,0 125.52,-31.39 119.24,-37.66 -6.27,-6.28 -20.91,-62.77 -20.91,-62.77 l -56.48,10.46 -39.76,-94.14 -238.48,73.23 c 0,0 -6.28,75.32 -16.75,75.32 -10.44,0 -290.674,-14.83 -301.236,-20.92 -10.555,-6.08 -39.746,-79.51 -39.746,-79.51 l 41.836,-154.8 -29.286,-18.83 -54.39,102.52 -58.578,-27.21 0,-144.36 46.031,-79.49 104.598,58.58 c 0,0 33.472,-46.03 25.101,-46.03 -8.367,0 -79.496,-125.51 -79.496,-125.51 l -140.168,-73.22 18.836,-43.93 142.254,-123.4 -16.738,-66.95 37.664,-8.38 35.554,54.41 83.684,-100.43 -106.691,-39.73 -31.375,-60.66 -236.399,-6.28 c 0,0 -133.887,41.83 -142.258,41.83 -8.371,0 -52.3,-33.48 -52.3,-33.48 l -50.207,75.33 -104.606,25.12 27.207,-77.42 48.109,-8.37 104.602,-100.41 c 0,0 153.762,-49.17 161.078,-56.5 7.32,-7.31 73.219,8.36 81.586,8.36 8.383,0 366.104,2.11 366.104,2.11 l 33.47,-37.67 144.35,10.47 -39.75,115.07 c 0,0 384.93,66.94 393.29,66.94 8.37,0 133.89,-43.95 133.89,-43.95 0,0 -4.18,-87.83 -4.18,-98.3 0,-10.49 -108.78,75.31 -108.78,75.31 l -205.03,-71.14 50.22,-50.22 c 0,0 -142.25,-37.66 -135.98,-43.92 6.27,-6.28 370.28,-58.58 370.28,-58.58 l 62.76,85.78 71.13,31.36 112.95,-64.84 -79.47,-96.23 125.5,-140.15 -12.54,-64.87 190.37,-135.99 16.73,-66.93 110.88,-35.56 -43.93,-37.66 56.48,-108.77 18.84,-186.18 77.4,-18.84 -2.09,73.24 46.01,-12.55 12.56,-133.91 c 0,0 -107.74,21.96 -119.25,10.47 -11.5,-11.5 0,-138.07 0,-138.07 l 77.41,43.92 c 0,0 73.22,-39.75 66.94,-46.02 -6.27,-6.28 -29.29,-96.23 -29.29,-96.23 l 94.15,60.67 -46.02,106.69 -6.29,228.02 37.66,-33.46 10.46,-215.5 35.57,-108.74 -35.57,-41.85 27.2,-110.871 20.92,-108.797 -60.67,-35.512 20.92,-41.898 46.02,39.796 37.66,-54.398 -23.01,-83.699 c 0,0 -60.68,-90 -48.12,-90 12.56,0 182,156.898 182,156.898 l -125.51,186.223 -4.19,424.658"
         style="fill:#fbd217;fill-opacity:1;fill-rule:nonzero;stroke:none"
         id="path112"
         inkscape:connector-curvature="0" /><path
         d="m 3941.36,1854.2 -43.47,-43.47 -28.98,-68.83 112.31,-50.71 65.2,14.49 7.25,119.55 -47.1,43.45 -65.21,-14.48 z m 630.34,-173.9 -39.84,-57.95 -65.21,-10.85 36.23,-68.84 54.33,-54.33 72.46,18.11 86.94,-18.11 0,43.46 -50.71,32.6 -94.2,115.91 z m 648.47,-289.78 -68.84,68.81 -28.98,-68.81 18.11,-57.98 72.46,-3.61 43.47,-76.09 115.92,21.73 25.36,50.73 0,57.95 -108.68,54.35 -68.82,-47.08 z m -79.71,-170.27 25.37,0 47.09,7.24 -28.98,43.46 -43.48,-50.7 z m 717.29,-260.84 -36.22,-10.859 -25.36,86.939 -76.08,47.08 -105.06,21.76 -97.81,39.83 -39.85,-3.61 -10.87,-43.49 43.48,-43.46 -65.21,-115.92 79.69,-181.18 0,-126.699 155.78,-76.102 10.87,130.403 134.04,61.597 108.67,68.801 3.63,57.961 -79.7,86.949 z m -873.06,420.22 c -14.49,0 14.49,-50.7 14.49,-50.7 l 50.72,-32.6 28.98,36.21 -32.6,61.6 c 0,0 -47.1,-14.51 -61.59,-14.51 z m 39.85,101.44 -36.23,50.72 -10.86,-32.6 -65.21,3.62 -47.1,-21.74 0,-54.34 54.34,-7.24 50.72,43.46 86.94,-25.35 14.5,7.25 28.98,39.84 -25.36,25.37 -50.72,-28.99"
         style="fill:#e71b2b;fill-opacity:1;fill-rule:nonzero;stroke:none"
         id="path114"
         inkscape:connector-curvature="0" /><path
         d="m 12806.4,7323.29 -37.7,88.06 37.7,-88.05 0,-0.01 z m 253.5,433.83 -88.4,23.4 7.8,90.99 44.2,106.59 1.9,2.66 -0.2,0.03 1.5,1.73 -51.4,18.69 -191,17.36 -0.6,0.08 -7.5,-13.03 -71.8,-115.54 45.2,-156.27 107.6,-38.2 10.4,-62.51 -104.1,-170.16 -8.2,-2.7 13.4,-48.89 119.6,-46.8 75.4,-90.98 39,114.39 39,194.98 39,106.59 -20.8,67.59"
         style="fill:#8a152f;fill-opacity:1;fill-rule:nonzero;stroke:none"
         id="path116"
         inkscape:connector-curvature="0" /><path
         d="m 8936.67,8681.42 c 1.85,1.29 3.75,2.59 5.74,3.95 -1.98,-1.35 -3.89,-2.67 -5.74,-3.95 z m 699.31,-874.89 31.2,75.4 -36.39,96.19 72.79,57.19 -15.6,98.8 2.59,77.99 72.8,176.78 -77.99,-44.2 -18.2,-98.79 -38.99,-15.6 -7.8,-62.39 -52.01,-20.8 -28.59,39 52,75.4 13,70.19 12.99,38.99 -12.8,-38.43 -68.56,121.41 34.57,51.86 -62.23,0 -55.32,55.31 -414.88,38.03 -109.07,77.62 c 1.55,1.07 3.25,2.24 4.97,3.42 -10.75,-7.4 -18.6,-12.84 -18.6,-12.84 l -116.99,5.2 -7.79,88.39 c 0,0 -114.4,-67.6 -124.79,-67.6 -5.52,0 -35.91,-1.46 -63.24,-2.83 l -102.47,-77.61 c -4.22,-35.55 24.69,-71.1 15.8,-106.65 -31.26,-52.09 -62.51,-114.6 -104.18,-166.69 0,-10.42 0,-20.84 10.41,-31.26 31.26,-20.83 62.51,-41.67 52.09,-72.92 -10.41,-62.51 -20.83,-125.02 -20.83,-197.95 72.92,-20.83 156.27,-31.25 218.78,-72.92 20.83,-83.34 104.18,-83.34 166.69,-114.6 50.97,-40.78 12.33,-101.46 38.55,-146.65 0.86,-0.82 1.44,-1.8 1.65,-2.99 -0.39,-0.04 -0.77,-0.08 -1.16,-0.13 l 35.73,-221.16 107.17,-44.94 12.68,-15.21 696.96,115.65 -11.75,77.36 -83.19,194.98 z m -701.52,873.37 c 0.73,0.51 1.44,1 2.21,1.52 -0.76,-0.52 -1.48,-1.01 -2.21,-1.52"
         style="fill:#f5911f;fill-opacity:1;fill-rule:nonzero;stroke:none"
         id="path118"
         inkscape:connector-curvature="0" /><path
         d="m 8929.49,8676.48 109.07,-77.62 414.88,-38.03 55.32,-55.31 62.23,0 -34.57,-51.86 68.56,-121.41 12.8,38.43 90.99,236.58 28.61,-59.79 44.19,64.99 33.8,0 -28.6,-57.19 44.19,-20.8 72.79,106.59 80.6,18.19 54.65,78 103.9,7.8 49.4,-33.79 41.6,15.59 7.8,41.6 109.2,-18.2 -7.8,59.8 -96.2,44.19 -101.4,-20.8 -75.4,15.6 20.8,90.99 -46.8,-5.2 -44.14,-44.19 -140.39,-39 -80.6,-90.99 -187.18,5.2 -88.38,77.99 -93.58,7.8 c 0,0 -62.4,-54.6 -62.4,-41.59 0,12.99 18.19,122.19 18.19,122.19 l 65,18.19 41.59,88.39 -189.78,-77.99 -46.79,-77.99 c 0,0 -80.59,-46.8 -88.39,-54.6 -7.8,-7.79 -62.39,-85.79 -62.39,-85.79 0,0 -77.23,-14.35 -88.4,-20.8 -8.05,-4.64 -46.19,-30.83 -66.97,-45.17"
         style="fill:#459cd6;fill-opacity:1;fill-rule:nonzero;stroke:none"
         id="path120"
         inkscape:connector-curvature="0" /></g></g></svg>