<?xml version="1.0" encoding="UTF-8" standalone="no"?>
<!-- Created with Inkscape (http://www.inkscape.org/) -->

<svg
   xmlns:dc="http://purl.org/dc/elements/1.1/"
   xmlns:cc="http://creativecommons.org/ns#"
   xmlns:rdf="http://www.w3.org/1999/02/22-rdf-syntax-ns#"
   xmlns:svg="http://www.w3.org/2000/svg"
   xmlns="http://www.w3.org/2000/svg"
   xmlns:sodipodi="http://sodipodi.sourceforge.net/DTD/sodipodi-0.dtd"
   xmlns:inkscape="http://www.inkscape.org/namespaces/inkscape"
   width="11in"
   height="8.5in"
   viewBox="0 0 990 764.99999"
   id="svg15976"
   version="1.1"
   inkscape:version="0.91 r13725"
   sodipodi:docname="06_04_Distorting.svg">
  <defs
     id="defs15978" />
  <sodipodi:namedview
     id="base"
     pagecolor="#ffffff"
     bordercolor="#666666"
     borderopacity="1.0"
     inkscape:pageopacity="0.0"
     inkscape:pageshadow="2"
     inkscape:zoom="0.8496732"
     inkscape:cx="495"
     inkscape:cy="382.5"
     inkscape:document-units="px"
     inkscape:current-layer="layer1"
     showgrid="false"
     units="in"
     inkscape:window-width="1360"
     inkscape:window-height="745"
     inkscape:window-x="-8"
     inkscape:window-y="-8"
     inkscape:window-maximized="1" />
  <metadata
     id="metadata15981">
    <rdf:RDF>
      <cc:Work
         rdf:about="">
        <dc:format>image/svg+xml</dc:format>
        <dc:type
           rdf:resource="http://purl.org/dc/dcmitype/StillImage" />
        <dc:title />
      </cc:Work>
    </rdf:RDF>
  </metadata>
  <g
     inkscape:label="Layer 1"
     inkscape:groupmode="layer"
     id="layer1"
     transform="translate(0,-287.36221)">
    <path
       sodipodi:type="spiral"
       style="fill:none;fill-rule:evenodd;stroke:#ffcc00;stroke-width:17;stroke-linecap:butt;stroke-linejoin:miter;stroke-miterlimit:4;stroke-dasharray:none;stroke-opacity:1;"
       id="path16563"
       sodipodi:cx="259.89145"
       sodipodi:cy="678.77118"
       sodipodi:expansion="1"
       sodipodi:revolution="3.5"
       sodipodi:radius="123.72987"
       sodipodi:argument="-17.01696"
       sodipodi:t0="0.079999998"
       d="m 250.97974,674.46309 c -0.59399,-8.90924 9.40633,-13.78542 17.0663,-12.5605 13.23903,2.11709 19.7539,16.7457 16.67088,28.86969 -4.45765,17.52969 -24.15591,25.83615 -40.67308,20.78125 -21.83113,-6.68119 -31.96615,-31.59036 -24.89162,-52.47646 8.85477,-26.14191 39.03621,-38.12078 64.27985,-29.002 30.4589,11.0027 44.28974,46.4885 33.11237,76.08324 -13.13578,34.78006 -53.94482,50.46777 -87.88662,37.22274 -39.10409,-15.25949 -56.65189,-61.40385 -41.33312,-99.69001 17.37694,-43.43016 68.8648,-62.84028 111.4934,-45.44349 47.75772,19.48999 69.03179,76.32716 49.55386,123.29678 -21.59983,52.08642 -83.79059,75.22566 -135.10017,53.66424 -56.416,-23.70725 -81.42134,-91.25485 -57.77461,-146.90356 22.32976,-52.54945 81.06136,-81.21499 136.41792,-69.04771" />
    <path
       sodipodi:type="spiral"
       style="fill:none;fill-rule:evenodd;stroke:#ffcc00;stroke-width:17;stroke-linecap:butt;stroke-linejoin:miter;stroke-miterlimit:4;stroke-dasharray:none;stroke-opacity:1"
       id="path16565"
       sodipodi:cx="524.6991"
       sodipodi:cy="678.77118"
       sodipodi:expansion="1"
       sodipodi:revolution="3.5"
       sodipodi:radius="123.72987"
       sodipodi:argument="-17.01696"
       sodipodi:t0="0.079999998"
       d="m 515.78739,674.46309 c -0.59399,-8.90924 9.40632,-13.78542 17.0663,-12.5605 13.23903,2.11709 19.7539,16.7457 16.67087,28.86969 -4.45764,17.52969 -24.1559,25.83615 -40.67307,20.78125 -21.83113,-6.68119 -31.96615,-31.59036 -24.89162,-52.47646 8.85477,-26.14191 39.03621,-38.12078 64.27985,-29.002 30.4589,11.0027 44.28974,46.4885 33.11237,76.08324 -13.13578,34.78006 -53.94482,50.46777 -87.88663,37.22274 -39.10409,-15.25949 -56.65188,-61.40385 -41.33311,-99.69001 17.37694,-43.43016 68.8648,-62.84028 111.49339,-45.44349 47.75773,19.48999 69.0318,76.32716 49.55387,123.29678 -21.59983,52.08642 -83.79059,75.22566 -135.10017,53.66424 -56.416,-23.70725 -81.42134,-91.25485 -57.77461,-146.90356 22.32976,-52.54945 81.06136,-81.21499 136.41792,-69.04771" />
    <path
       d="m 780.59507,674.46309 c -0.59399,-8.90924 9.40632,-13.78542 17.0663,-12.5605 13.23903,2.11709 19.75389,16.7457 16.67087,28.86969 -4.45764,17.52969 -24.1559,25.83615 -40.67307,20.78125 -21.83114,-6.68119 -31.96615,-31.59036 -24.89162,-52.47646 8.85476,-26.14191 39.03621,-38.12078 64.27984,-29.002 30.45891,11.0027 44.28975,46.4885 33.11237,76.08324 -13.13577,34.78006 -53.94481,50.46777 -87.88662,37.22274 -39.10409,-15.25949 -56.65188,-61.40385 -41.33311,-99.69001 17.37694,-43.43016 68.86479,-62.84028 111.49339,-45.44349 47.75772,19.48999 69.03179,76.32716 49.55387,123.29678 -21.59983,52.08642 -83.7906,75.22566 -135.10017,53.66424 -56.416,-23.70725 -81.42134,-91.25485 -57.77462,-146.90356 22.32977,-52.54945 81.06137,-81.21499 136.41793,-69.04771"
       sodipodi:t0="0.079999998"
       sodipodi:argument="-17.01696"
       sodipodi:radius="123.72987"
       sodipodi:revolution="3.5"
       sodipodi:expansion="1"
       sodipodi:cy="678.77118"
       sodipodi:cx="789.50677"
       id="path16561"
       style="fill:none;fill-rule:evenodd;stroke:#ffcc00;stroke-width:17;stroke-linecap:butt;stroke-linejoin:miter;stroke-miterlimit:4;stroke-dasharray:none;stroke-opacity:1;"
       sodipodi:type="spiral" />
  </g>
</svg>
