<?xml version="1.0" encoding="UTF-8" standalone="no"?>
<svg
   xmlns:dc="http://purl.org/dc/elements/1.1/"
   xmlns:cc="http://creativecommons.org/ns#"
   xmlns:rdf="http://www.w3.org/1999/02/22-rdf-syntax-ns#"
   xmlns:svg="http://www.w3.org/2000/svg"
   xmlns="http://www.w3.org/2000/svg"
   xmlns:sodipodi="http://sodipodi.sourceforge.net/DTD/sodipodi-0.dtd"
   xmlns:inkscape="http://www.inkscape.org/namespaces/inkscape"
   width="11in"
   height="8.5in"
   viewBox="0 0 990 765"
   id="svg6215"
   version="1.1"
   inkscape:version="1.0.1 (3bc2e813f5, 2020-09-07)"
   sodipodi:docname="PathEffects.svg">
  <defs
     id="defs6217">
    <clipPath
       clipPathUnits="userSpaceOnUse"
       id="clipPath18">
      <path
         d="m 1107.73,1396.71 c -3.51,4.81 -6.87,9.28 -9.91,13.76 -18.71,27.99 -20.79,51.98 -10.09,60.95 8.81,7.5 26.72,4.15 50.89,-16.49 29.27,-24.95 76.79,-56.14 117.75,-67.49 -36.64,-13.43 -76.32,-21.27 -117.6,-15.84 -11.03,7.83 -20.62,16.95 -31.04,25.11 l 0,0"
         id="path20"
         inkscape:connector-curvature="0" />
    </clipPath>
    <clipPath
       clipPathUnits="userSpaceOnUse"
       id="clipPath34">
      <path
         d="m 1087.73,1471.42 c -10.7,-8.97 -8.62,-32.96 10.09,-60.95 44.32,-65.73 152.31,-160.09 41.29,-314.28 19.83,151.47 -138.23,281.02 -100.81,324.84 l 49.43,50.39"
         id="path36"
         inkscape:connector-curvature="0" />
    </clipPath>
    <clipPath
       clipPathUnits="userSpaceOnUse"
       id="clipPath50">
      <path
         d="m 1113.97,1065.32 c -4.79,-3.53 -9.28,-6.87 -13.75,-9.92 -28,-18.71 -52,-20.8 -60.96,-10.08 -7.52,8.81 -4.15,26.72 16.48,50.87 24.97,29.27 56.16,76.77 67.51,117.72 13.45,-36.63 21.29,-76.3 15.86,-117.72 -7.86,-10.88 -16.97,-20.47 -25.14,-30.87 l 0,0"
         id="path52"
         inkscape:connector-curvature="0" />
    </clipPath>
    <clipPath
       clipPathUnits="userSpaceOnUse"
       id="clipPath66">
      <path
         d="m 1039.26,1045.32 c 8.96,-10.72 32.96,-8.63 60.96,10.08 65.75,44.31 160.15,152.27 314.39,41.27 -151.52,19.83 -281.12,-138.201 -324.96,-100.76 l -50.39,49.41"
         id="path68"
         inkscape:connector-curvature="0" />
    </clipPath>
    <clipPath
       clipPathUnits="userSpaceOnUse"
       id="clipPath82">
      <path
         d="m 1445.48,1071.56 c 3.51,-4.8 6.87,-9.28 9.91,-13.76 18.73,-27.98 20.8,-51.98 10.08,-60.933 -8.79,-7.519 -26.72,-4.316 -50.86,16.473 -29.29,24.95 -76.8,56.14 -117.76,67.49 36.63,13.44 76.31,21.27 117.76,15.84 10.86,-8 20.46,-16.95 30.87,-25.11 l 0,0"
         id="path84"
         inkscape:connector-curvature="0" />
    </clipPath>
    <clipPath
       clipPathUnits="userSpaceOnUse"
       id="clipPath98">
      <path
         d="m 1465.47,996.867 c 10.72,8.953 8.65,32.953 -10.08,60.933 -44.32,65.74 -152.3,160.1 -41.27,314.13 -19.84,-151.31 138.22,-280.86 100.8,-324.67 l -49.45,-50.393"
         id="path100"
         inkscape:connector-curvature="0" />
    </clipPath>
    <clipPath
       clipPathUnits="userSpaceOnUse"
       id="clipPath114">
      <path
         d="m 1439.23,1402.95 c 4.81,3.52 9.28,6.88 13.76,9.92 27.99,18.72 52.01,20.79 60.96,10.08 7.52,-8.8 4.32,-26.72 -16.47,-50.86 -24.98,-29.27 -56.18,-76.78 -67.52,-117.72 -13.43,36.63 -21.28,76.29 -15.84,117.56 7.99,11.03 16.95,20.62 25.11,31.02 l 0,0"
         id="path116"
         inkscape:connector-curvature="0" />
    </clipPath>
    <clipPath
       clipPathUnits="userSpaceOnUse"
       id="clipPath130">
      <path
         d="m 1513.95,1422.95 c -8.95,10.71 -32.97,8.64 -60.96,-10.08 -65.76,-44.3 -160.14,-152.26 -314.22,-41.27 151.35,-19.83 280.95,138.2 324.79,100.77 l 50.39,-49.42"
         id="path132"
         inkscape:connector-curvature="0" />
    </clipPath>
    <clipPath
       clipPathUnits="userSpaceOnUse"
       id="clipPath146">
      <path
         d="m 2294.05,2413.61 c -5.86,-60.58 -28.9,-116.2 -64.15,-161.89 l 58.68,0 c 46.85,42.26 80.97,98.38 95.86,161.89 l -90.39,0"
         id="path148"
         inkscape:connector-curvature="0" />
    </clipPath>
    <clipPath
       clipPathUnits="userSpaceOnUse"
       id="clipPath164">
      <path
         d="m 2036.9,2278.96 c 55.74,-24.3 101.58,-63.38 134.03,-111.11 l 18.21,55.87 c -25.84,57.53 -68.62,107.3 -124.38,141.02 l -27.86,-85.78"
         id="path166"
         inkscape:connector-curvature="0" />
    </clipPath>
    <clipPath
       clipPathUnits="userSpaceOnUse"
       id="clipPath182">
      <path
         d="m 2085.39,1992.73 c 40.49,45.57 91.79,77 147.16,93.16 l -47.61,34.61 c -62.63,-6.73 -123.24,-32.07 -172.49,-74.7 l 72.94,-53.07"
         id="path184"
         inkscape:connector-curvature="0" />
    </clipPath>
    <clipPath
       clipPathUnits="userSpaceOnUse"
       id="clipPath200">
      <path
         d="m 2372.72,1950.47 c -30.79,52.56 -44.94,110.98 -43.15,168.63 l -47.61,-34.48 c -12.99,-61.73 -7.52,-127.03 17.68,-187.22 l 73.08,53.07"
         id="path202"
         inkscape:connector-curvature="0" />
    </clipPath>
    <clipPath
       clipPathUnits="userSpaceOnUse"
       id="clipPath218">
      <path
         d="m 2501.7,2210.62 c -59.46,-13.12 -119.43,-8.41 -173.79,11.06 l 18.08,-55.86 c 54.75,-31.45 118.65,-46.45 183.58,-41.12 l -27.87,85.92"
         id="path220"
         inkscape:connector-curvature="0" />
    </clipPath>
    <clipPath
       clipPathUnits="userSpaceOnUse"
       id="clipPath236">
      <path
         d="m 2223.65,2413.61 c 5.98,-60.58 29.02,-116.2 64.3,-161.89 l -58.82,0 c -46.72,42.26 -80.84,98.38 -95.75,161.89 l 90.27,0"
         id="path238"
         inkscape:connector-curvature="0" />
    </clipPath>
    <clipPath
       clipPathUnits="userSpaceOnUse"
       id="clipPath252">
      <path
         d="m 2015.11,2212.02 c 59.46,-13.11 119.43,-8.41 173.79,11.06 l -18.21,-55.87 c -54.62,-31.43 -118.53,-46.45 -183.45,-41.1 l 27.87,85.91"
         id="path254"
         inkscape:connector-curvature="0" />
    </clipPath>
    <clipPath
       clipPathUnits="userSpaceOnUse"
       id="clipPath268">
      <path
         d="m 2142.42,1951.36 c 30.82,52.44 44.82,110.98 43.16,168.63 l 47.5,-34.48 c 13.11,-61.73 7.63,-127.15 -17.58,-187.23 l -73.08,53.08"
         id="path270"
         inkscape:connector-curvature="0" />
    </clipPath>
    <clipPath
       clipPathUnits="userSpaceOnUse"
       id="clipPath284">
      <path
         d="m 2429.77,1991.84 c -40.49,45.56 -91.8,76.99 -147.18,93.16 l 47.48,34.63 c 62.77,-6.76 123.23,-32.09 172.64,-74.72 l -72.94,-53.07"
         id="path286"
         inkscape:connector-curvature="0" />
    </clipPath>
    <clipPath
       clipPathUnits="userSpaceOnUse"
       id="clipPath300">
      <path
         d="m 2479.92,2277.55 c -55.76,-24.3 -101.58,-63.37 -134.06,-111.09 l -18.19,55.86 c 25.71,57.54 68.62,107.3 124.38,141.02 l 27.87,-85.79"
         id="path302"
         inkscape:connector-curvature="0" />
    </clipPath>
    <clipPath
       clipPathUnits="userSpaceOnUse"
       id="clipPath412">
      <path
         d="m 2403.47,1150.04 c -34.96,-22.06 -74.8,-33.64 -116.15,-33.64 -95.83,0 -197.56,64.14 -236.55,166.49 l 0,-192.31 239.06,-138.314 c 68.35,41.672 110.87,116.064 113.64,197.774"
         id="path414"
         inkscape:connector-curvature="0" />
    </clipPath>
    <clipPath
       clipPathUnits="userSpaceOnUse"
       id="clipPath430">
      <path
         d="m 2529.57,1366.6 c -34.67,18.96 -72.37,28.58 -112.07,28.58 -40.34,0 -80.12,-10.04 -115.97,-29.14 69.68,-36.67 113.62,-106.89 118.57,-190.86 3.97,-67.39 -17.3,-131.57 -57.81,-181.157 l 167.05,96.437 0.23,276.14"
         id="path432"
         inkscape:connector-curvature="0" />
    </clipPath>
    <clipPath
       clipPathUnits="userSpaceOnUse"
       id="clipPath448">
      <path
         d="m 2416.75,1411.59 c 13.68,0 27.3,-1.12 40.73,-3.31 l -167.25,96.49 -239.41,-137.84 c 1.97,-80.05 45.17,-153.98 114.54,-197.11 -2.23,57.24 17.75,112.14 57.1,156.06 48.07,53.67 120.72,85.71 194.29,85.71"
         id="path450"
         inkscape:connector-curvature="0" />
    </clipPath>
  </defs>
  <sodipodi:namedview
     id="base"
     pagecolor="#ffffff"
     bordercolor="#666666"
     borderopacity="1.0"
     inkscape:pageopacity="0.0"
     inkscape:pageshadow="2"
     inkscape:zoom="0.62132353"
     inkscape:cx="866.46977"
     inkscape:cy="408"
     inkscape:document-units="px"
     inkscape:current-layer="layer1"
     showgrid="false"
     units="in"
     inkscape:window-width="1280"
     inkscape:window-height="697"
     inkscape:window-x="-8"
     inkscape:window-y="-8"
     inkscape:window-maximized="1"
     inkscape:document-rotation="0" />
  <metadata
     id="metadata6220">
    <rdf:RDF>
      <cc:Work
         rdf:about="">
        <dc:format>image/svg+xml</dc:format>
        <dc:type
           rdf:resource="http://purl.org/dc/dcmitype/StillImage" />
        <dc:title />
      </cc:Work>
    </rdf:RDF>
  </metadata>
  <g
     inkscape:label="Layer 1"
     inkscape:groupmode="layer"
     id="layer1"
     transform="translate(0,-287.3622)">
    <text
       id="text6318"
       y="878.64716"
       x="170.53912"
       style="font-style:normal;font-weight:normal;line-height:0%;font-family:sans-serif;letter-spacing:0px;word-spacing:0px;fill:#ffcc00;fill-opacity:1;stroke:#000000;stroke-width:1px;stroke-linecap:butt;stroke-linejoin:miter;stroke-opacity:1"
       xml:space="preserve"><tspan
         style="font-size:180px;line-height:1.25;fill:#ffcc00;fill-opacity:1;stroke:#000000"
         y="878.64716"
         x="170.53912"
         id="tspan6320"
         sodipodi:role="line">Effects</tspan></text>
    <g
       id="g7450"
       transform="translate(74.563021,-136.90235)"
       style="fill:#ffcc00">
      <g
         transform="matrix(0.31210964,0,0,-0.31210964,27.280154,1064.584)"
         id="g14"
         style="fill:#ffcc00;stroke:#000000;stroke-width:3.20400238;stroke-miterlimit:4;stroke-dasharray:none;stroke-opacity:1">
        <g
           id="g16"
           clip-path="url(#clipPath18)"
           style="fill:#ffcc00;stroke:#000000;stroke-width:3.20400238;stroke-miterlimit:4;stroke-dasharray:none;stroke-opacity:1">
          <path
             d="m 1107.73,1396.71 c -3.51,4.81 -6.87,9.28 -9.91,13.76 -18.71,27.99 -20.79,51.98 -10.09,60.95 8.81,7.5 26.72,4.15 50.89,-16.49 29.27,-24.95 76.79,-56.14 117.75,-67.49 -36.64,-13.43 -76.32,-21.27 -117.6,-15.84 -11.03,7.83 -20.62,16.95 -31.04,25.11 l 0,0"
             style="fill:#ffcc00;fill-opacity:1;fill-rule:nonzero;stroke:#000000;stroke-width:3.20400238;stroke-miterlimit:4;stroke-dasharray:none;stroke-opacity:1"
             id="path28"
             inkscape:connector-curvature="0" />
        </g>
      </g>
      <g
         transform="matrix(0.31210964,0,0,-0.31210964,27.280154,1064.584)"
         id="g30"
         style="fill:#ffcc00;stroke:#000000;stroke-width:3.20400238;stroke-miterlimit:4;stroke-dasharray:none;stroke-opacity:1">
        <g
           id="g32"
           clip-path="url(#clipPath34)"
           style="fill:#ffcc00;stroke:#000000;stroke-width:3.20400238;stroke-miterlimit:4;stroke-dasharray:none;stroke-opacity:1">
          <path
             d="m 1087.73,1471.42 c -10.7,-8.97 -8.62,-32.96 10.09,-60.95 44.32,-65.73 152.31,-160.09 41.29,-314.28 19.83,151.47 -138.23,281.02 -100.81,324.84 l 49.43,50.39"
             style="fill:#ffcc00;fill-opacity:1;fill-rule:nonzero;stroke:#000000;stroke-width:3.20400238;stroke-miterlimit:4;stroke-dasharray:none;stroke-opacity:1"
             id="path44"
             inkscape:connector-curvature="0" />
        </g>
      </g>
      <g
         transform="matrix(0.31210964,0,0,-0.31210964,27.280154,1064.584)"
         id="g46"
         style="fill:#ffcc00;stroke:#000000;stroke-width:3.20400238;stroke-miterlimit:4;stroke-dasharray:none;stroke-opacity:1">
        <g
           id="g48"
           clip-path="url(#clipPath50)"
           style="fill:#ffcc00;stroke:#000000;stroke-width:3.20400238;stroke-miterlimit:4;stroke-dasharray:none;stroke-opacity:1">
          <path
             d="m 1113.97,1065.32 c -4.79,-3.53 -9.28,-6.87 -13.75,-9.92 -28,-18.71 -52,-20.8 -60.96,-10.08 -7.52,8.81 -4.15,26.72 16.48,50.87 24.97,29.27 56.16,76.77 67.51,117.72 13.45,-36.63 21.29,-76.3 15.86,-117.72 -7.86,-10.88 -16.97,-20.47 -25.14,-30.87 l 0,0"
             style="fill:#ffcc00;fill-opacity:1;fill-rule:nonzero;stroke:#000000;stroke-width:3.20400238;stroke-miterlimit:4;stroke-dasharray:none;stroke-opacity:1"
             id="path60"
             inkscape:connector-curvature="0" />
        </g>
      </g>
      <g
         transform="matrix(0.31210964,0,0,-0.31210964,27.280154,1064.584)"
         id="g62"
         style="fill:#ffcc00;stroke:#000000;stroke-width:3.20400238;stroke-miterlimit:4;stroke-dasharray:none;stroke-opacity:1">
        <g
           id="g64"
           clip-path="url(#clipPath66)"
           style="fill:#ffcc00;stroke:#000000;stroke-width:3.20400238;stroke-miterlimit:4;stroke-dasharray:none;stroke-opacity:1">
          <path
             d="m 1039.26,1045.32 c 8.96,-10.72 32.96,-8.63 60.96,10.08 65.75,44.31 160.15,152.27 314.39,41.27 -151.52,19.83 -281.12,-138.201 -324.96,-100.76 l -50.39,49.41"
             style="fill:#ffcc00;fill-opacity:1;fill-rule:nonzero;stroke:#000000;stroke-width:3.20400238;stroke-miterlimit:4;stroke-dasharray:none;stroke-opacity:1"
             id="path76"
             inkscape:connector-curvature="0" />
        </g>
      </g>
      <g
         transform="matrix(0.31210964,0,0,-0.31210964,27.280154,1064.584)"
         id="g78"
         style="fill:#ffcc00;stroke:#000000;stroke-width:3.20400238;stroke-miterlimit:4;stroke-dasharray:none;stroke-opacity:1">
        <g
           id="g80"
           clip-path="url(#clipPath82)"
           style="fill:#ffcc00;stroke:#000000;stroke-width:3.20400238;stroke-miterlimit:4;stroke-dasharray:none;stroke-opacity:1">
          <path
             d="m 1445.48,1071.56 c 3.51,-4.8 6.87,-9.28 9.91,-13.76 18.73,-27.98 20.8,-51.98 10.08,-60.933 -8.79,-7.519 -26.72,-4.316 -50.86,16.473 -29.29,24.95 -76.8,56.14 -117.76,67.49 36.63,13.44 76.31,21.27 117.76,15.84 10.86,-8 20.46,-16.95 30.87,-25.11 l 0,0"
             style="fill:#ffcc00;fill-opacity:1;fill-rule:nonzero;stroke:#000000;stroke-width:3.20400238;stroke-miterlimit:4;stroke-dasharray:none;stroke-opacity:1"
             id="path92"
             inkscape:connector-curvature="0" />
        </g>
      </g>
      <g
         transform="matrix(0.31210964,0,0,-0.31210964,27.280154,1064.584)"
         id="g94"
         style="fill:#ffcc00;stroke:#000000;stroke-width:3.20400238;stroke-miterlimit:4;stroke-dasharray:none;stroke-opacity:1">
        <g
           id="g96"
           clip-path="url(#clipPath98)"
           style="fill:#ffcc00;stroke:#000000;stroke-width:3.20400238;stroke-miterlimit:4;stroke-dasharray:none;stroke-opacity:1">
          <path
             d="m 1465.47,996.867 c 10.72,8.953 8.65,32.953 -10.08,60.933 -44.32,65.74 -152.3,160.1 -41.27,314.13 -19.84,-151.31 138.22,-280.86 100.8,-324.67 l -49.45,-50.393"
             style="fill:#ffcc00;fill-opacity:1;fill-rule:nonzero;stroke:#000000;stroke-width:3.20400238;stroke-miterlimit:4;stroke-dasharray:none;stroke-opacity:1"
             id="path108"
             inkscape:connector-curvature="0" />
        </g>
      </g>
      <g
         transform="matrix(0.31210964,0,0,-0.31210964,27.280154,1064.584)"
         id="g110"
         style="fill:#ffcc00;stroke:#000000;stroke-width:3.20400238;stroke-miterlimit:4;stroke-dasharray:none;stroke-opacity:1">
        <g
           id="g112"
           clip-path="url(#clipPath114)"
           style="fill:#ffcc00;stroke:#000000;stroke-width:3.20400238;stroke-miterlimit:4;stroke-dasharray:none;stroke-opacity:1">
          <path
             d="m 1439.23,1402.95 c 4.81,3.52 9.28,6.88 13.76,9.92 27.99,18.72 52.01,20.79 60.96,10.08 7.52,-8.8 4.32,-26.72 -16.47,-50.86 -24.98,-29.27 -56.18,-76.78 -67.52,-117.72 -13.43,36.63 -21.28,76.29 -15.84,117.56 7.99,11.03 16.95,20.62 25.11,31.02 l 0,0"
             style="fill:#ffcc00;fill-opacity:1;fill-rule:nonzero;stroke:#000000;stroke-width:3.20400238;stroke-miterlimit:4;stroke-dasharray:none;stroke-opacity:1"
             id="path124"
             inkscape:connector-curvature="0" />
        </g>
      </g>
      <g
         transform="matrix(0.31210964,0,0,-0.31210964,27.280154,1064.584)"
         id="g126"
         style="fill:#ffcc00;stroke:#000000;stroke-width:3.20400238;stroke-miterlimit:4;stroke-dasharray:none;stroke-opacity:1">
        <g
           id="g128"
           clip-path="url(#clipPath130)"
           style="fill:#ffcc00;stroke:#000000;stroke-width:3.20400238;stroke-miterlimit:4;stroke-dasharray:none;stroke-opacity:1">
          <path
             d="m 1513.95,1422.95 c -8.95,10.71 -32.97,8.64 -60.96,-10.08 -65.76,-44.3 -160.14,-152.26 -314.22,-41.27 151.35,-19.83 280.95,138.2 324.79,100.77 l 50.39,-49.42"
             style="fill:#ffcc00;fill-opacity:1;fill-rule:nonzero;stroke:#000000;stroke-width:3.20400238;stroke-miterlimit:4;stroke-dasharray:none;stroke-opacity:1"
             id="path140"
             inkscape:connector-curvature="0" />
        </g>
      </g>
      <g
         transform="matrix(0.31210964,0,0,-0.31210964,-516.14614,1354.4565)"
         id="g142"
         style="fill:#ffcc00;stroke:#000000;stroke-width:3.20400238;stroke-miterlimit:4;stroke-dasharray:none;stroke-opacity:1">
        <g
           id="g144"
           clip-path="url(#clipPath146)"
           style="fill:#ffcc00;stroke:#000000;stroke-width:3.20400238;stroke-miterlimit:4;stroke-dasharray:none;stroke-opacity:1">
          <path
             d="m 2294.05,2413.61 c -5.86,-60.58 -28.9,-116.2 -64.15,-161.89 l 58.68,0 c 46.85,42.26 80.97,98.38 95.86,161.89 l -90.39,0"
             style="fill:#ffcc00;fill-opacity:1;fill-rule:nonzero;stroke:#000000;stroke-width:3.20400238;stroke-miterlimit:4;stroke-dasharray:none;stroke-opacity:1"
             id="path158"
             inkscape:connector-curvature="0" />
        </g>
      </g>
      <g
         transform="matrix(0.31210964,0,0,-0.31210964,-516.14614,1354.4565)"
         id="g160"
         style="fill:#ffcc00;stroke:#000000;stroke-width:3.20400238;stroke-miterlimit:4;stroke-dasharray:none;stroke-opacity:1">
        <g
           id="g162"
           clip-path="url(#clipPath164)"
           style="fill:#ffcc00;stroke:#000000;stroke-width:3.20400238;stroke-miterlimit:4;stroke-dasharray:none;stroke-opacity:1">
          <path
             d="m 2036.9,2278.96 c 55.74,-24.3 101.58,-63.38 134.03,-111.11 l 18.21,55.87 c -25.84,57.53 -68.62,107.3 -124.38,141.02 l -27.86,-85.78"
             style="fill:#ffcc00;fill-opacity:1;fill-rule:nonzero;stroke:#000000;stroke-width:3.20400238;stroke-miterlimit:4;stroke-dasharray:none;stroke-opacity:1"
             id="path176"
             inkscape:connector-curvature="0" />
        </g>
      </g>
      <g
         transform="matrix(0.31210964,0,0,-0.31210964,-516.14614,1354.4565)"
         id="g178"
         style="fill:#ffcc00;stroke:#000000;stroke-width:3.20400238;stroke-miterlimit:4;stroke-dasharray:none;stroke-opacity:1">
        <g
           id="g180"
           clip-path="url(#clipPath182)"
           style="fill:#ffcc00;stroke:#000000;stroke-width:3.20400238;stroke-miterlimit:4;stroke-dasharray:none;stroke-opacity:1">
          <path
             d="m 2085.39,1992.73 c 40.49,45.57 91.79,77 147.16,93.16 l -47.61,34.61 c -62.63,-6.73 -123.24,-32.07 -172.49,-74.7 l 72.94,-53.07"
             style="fill:#ffcc00;fill-opacity:1;fill-rule:nonzero;stroke:#000000;stroke-width:3.20400238;stroke-miterlimit:4;stroke-dasharray:none;stroke-opacity:1"
             id="path194"
             inkscape:connector-curvature="0" />
        </g>
      </g>
      <g
         transform="matrix(0.31210964,0,0,-0.31210964,-516.14614,1354.4565)"
         id="g196"
         style="fill:#ffcc00;stroke:#000000;stroke-width:3.20400238;stroke-miterlimit:4;stroke-dasharray:none;stroke-opacity:1">
        <g
           id="g198"
           clip-path="url(#clipPath200)"
           style="fill:#ffcc00;stroke:#000000;stroke-width:3.20400238;stroke-miterlimit:4;stroke-dasharray:none;stroke-opacity:1">
          <path
             d="m 2372.72,1950.47 c -30.79,52.56 -44.94,110.98 -43.15,168.63 l -47.61,-34.48 c -12.99,-61.73 -7.52,-127.03 17.68,-187.22 l 73.08,53.07"
             style="fill:#ffcc00;fill-opacity:1;fill-rule:nonzero;stroke:#000000;stroke-width:3.20400238;stroke-miterlimit:4;stroke-dasharray:none;stroke-opacity:1"
             id="path212"
             inkscape:connector-curvature="0" />
        </g>
      </g>
      <g
         transform="matrix(0.31210964,0,0,-0.31210964,-516.14614,1354.4565)"
         id="g214"
         style="fill:#ffcc00;stroke:#000000;stroke-width:3.20400238;stroke-miterlimit:4;stroke-dasharray:none;stroke-opacity:1">
        <g
           id="g216"
           clip-path="url(#clipPath218)"
           style="fill:#ffcc00;stroke:#000000;stroke-width:3.20400238;stroke-miterlimit:4;stroke-dasharray:none;stroke-opacity:1">
          <path
             d="m 2501.7,2210.62 c -59.46,-13.12 -119.43,-8.41 -173.79,11.06 l 18.08,-55.86 c 54.75,-31.45 118.65,-46.45 183.58,-41.12 l -27.87,85.92"
             style="fill:#ffcc00;fill-opacity:1;fill-rule:nonzero;stroke:#000000;stroke-width:3.20400238;stroke-miterlimit:4;stroke-dasharray:none;stroke-opacity:1"
             id="path230"
             inkscape:connector-curvature="0" />
        </g>
      </g>
      <g
         transform="matrix(0.31210964,0,0,-0.31210964,-516.14614,1354.4565)"
         id="g232"
         style="fill:#ffcc00;stroke:#000000;stroke-width:3.20400238;stroke-miterlimit:4;stroke-dasharray:none;stroke-opacity:1">
        <g
           id="g234"
           clip-path="url(#clipPath236)"
           style="fill:#ffcc00;stroke:#000000;stroke-width:3.20400238;stroke-miterlimit:4;stroke-dasharray:none;stroke-opacity:1">
          <path
             d="m 2223.65,2413.61 c 5.98,-60.58 29.02,-116.2 64.3,-161.89 l -58.82,0 c -46.72,42.26 -80.84,98.38 -95.75,161.89 l 90.27,0"
             style="fill:#ffcc00;fill-opacity:1;fill-rule:nonzero;stroke:#000000;stroke-width:3.20400238;stroke-miterlimit:4;stroke-dasharray:none;stroke-opacity:1"
             id="path246"
             inkscape:connector-curvature="0" />
        </g>
      </g>
      <g
         transform="matrix(0.31210964,0,0,-0.31210964,-516.14614,1354.4565)"
         id="g248"
         style="fill:#ffcc00;stroke:#000000;stroke-width:3.20400238;stroke-miterlimit:4;stroke-dasharray:none;stroke-opacity:1">
        <g
           id="g250"
           clip-path="url(#clipPath252)"
           style="fill:#ffcc00;stroke:#000000;stroke-width:3.20400238;stroke-miterlimit:4;stroke-dasharray:none;stroke-opacity:1">
          <path
             d="m 2015.11,2212.02 c 59.46,-13.11 119.43,-8.41 173.79,11.06 l -18.21,-55.87 c -54.62,-31.43 -118.53,-46.45 -183.45,-41.1 l 27.87,85.91"
             style="fill:#ffcc00;fill-opacity:1;fill-rule:nonzero;stroke:#000000;stroke-width:3.20400238;stroke-miterlimit:4;stroke-dasharray:none;stroke-opacity:1"
             id="path262"
             inkscape:connector-curvature="0" />
        </g>
      </g>
      <g
         transform="matrix(0.31210964,0,0,-0.31210964,-516.14614,1354.4565)"
         id="g264"
         style="fill:#ffcc00;stroke:#000000;stroke-width:3.20400238;stroke-miterlimit:4;stroke-dasharray:none;stroke-opacity:1">
        <g
           id="g266"
           clip-path="url(#clipPath268)"
           style="fill:#ffcc00;stroke:#000000;stroke-width:3.20400238;stroke-miterlimit:4;stroke-dasharray:none;stroke-opacity:1">
          <path
             d="m 2142.42,1951.36 c 30.82,52.44 44.82,110.98 43.16,168.63 l 47.5,-34.48 c 13.11,-61.73 7.63,-127.15 -17.58,-187.23 l -73.08,53.08"
             style="fill:#ffcc00;fill-opacity:1;fill-rule:nonzero;stroke:#000000;stroke-width:3.20400238;stroke-miterlimit:4;stroke-dasharray:none;stroke-opacity:1"
             id="path278"
             inkscape:connector-curvature="0" />
        </g>
      </g>
      <g
         transform="matrix(0.31210964,0,0,-0.31210964,-516.14614,1354.4565)"
         id="g280"
         style="fill:#ffcc00;stroke:#000000;stroke-width:3.20400238;stroke-miterlimit:4;stroke-dasharray:none;stroke-opacity:1">
        <g
           id="g282"
           clip-path="url(#clipPath284)"
           style="fill:#ffcc00;stroke:#000000;stroke-width:3.20400238;stroke-miterlimit:4;stroke-dasharray:none;stroke-opacity:1">
          <path
             d="m 2429.77,1991.84 c -40.49,45.56 -91.8,76.99 -147.18,93.16 l 47.48,34.63 c 62.77,-6.76 123.23,-32.09 172.64,-74.72 l -72.94,-53.07"
             style="fill:#ffcc00;fill-opacity:1;fill-rule:nonzero;stroke:#000000;stroke-width:3.20400238;stroke-miterlimit:4;stroke-dasharray:none;stroke-opacity:1"
             id="path294"
             inkscape:connector-curvature="0" />
        </g>
      </g>
      <g
         transform="matrix(0.31210964,0,0,-0.31210964,-516.14614,1354.4565)"
         id="g296"
         style="fill:#ffcc00;stroke:#000000;stroke-width:3.20400238;stroke-miterlimit:4;stroke-dasharray:none;stroke-opacity:1">
        <g
           id="g298"
           clip-path="url(#clipPath300)"
           style="fill:#ffcc00;stroke:#000000;stroke-width:3.20400238;stroke-miterlimit:4;stroke-dasharray:none;stroke-opacity:1">
          <path
             d="m 2479.92,2277.55 c -55.76,-24.3 -101.58,-63.37 -134.06,-111.09 l -18.19,55.86 c 25.71,57.54 68.62,107.3 124.38,141.02 l 27.87,-85.79"
             style="fill:#ffcc00;fill-opacity:1;fill-rule:nonzero;stroke:#000000;stroke-width:3.20400238;stroke-miterlimit:4;stroke-dasharray:none;stroke-opacity:1"
             id="path310"
             inkscape:connector-curvature="0" />
        </g>
      </g>
      <g
         transform="matrix(0.31210964,0,0,-0.31210964,-52.719846,1064.584)"
         id="g408"
         style="fill:#ffcc00;stroke:#000000;stroke-width:3.20400238;stroke-miterlimit:4;stroke-dasharray:none;stroke-opacity:1">
        <g
           id="g410"
           clip-path="url(#clipPath412)"
           style="fill:#ffcc00;stroke:#000000;stroke-width:3.20400238;stroke-miterlimit:4;stroke-dasharray:none;stroke-opacity:1">
          <path
             d="m 2403.47,1150.04 c -34.96,-22.06 -74.8,-33.64 -116.15,-33.64 -95.83,0 -197.56,64.14 -236.55,166.49 l 0,-192.31 239.06,-138.314 c 68.35,41.672 110.87,116.064 113.64,197.774"
             style="fill:#ffcc00;fill-opacity:1;fill-rule:nonzero;stroke:#000000;stroke-width:3.20400238;stroke-miterlimit:4;stroke-dasharray:none;stroke-opacity:1"
             id="path424"
             inkscape:connector-curvature="0" />
        </g>
      </g>
      <g
         transform="matrix(0.31210964,0,0,-0.31210964,-52.719846,1064.584)"
         id="g426"
         style="fill:#ffcc00;stroke:#000000;stroke-width:3.20400238;stroke-miterlimit:4;stroke-dasharray:none;stroke-opacity:1">
        <g
           id="g428"
           clip-path="url(#clipPath430)"
           style="fill:#ffcc00;stroke:#000000;stroke-width:3.20400238;stroke-miterlimit:4;stroke-dasharray:none;stroke-opacity:1">
          <path
             d="m 2529.57,1366.6 c -34.67,18.96 -72.37,28.58 -112.07,28.58 -40.34,0 -80.12,-10.04 -115.97,-29.14 69.68,-36.67 113.62,-106.89 118.57,-190.86 3.97,-67.39 -17.3,-131.57 -57.81,-181.157 l 167.05,96.437 0.23,276.14"
             style="fill:#ffcc00;fill-opacity:1;fill-rule:nonzero;stroke:#000000;stroke-width:3.20400238;stroke-miterlimit:4;stroke-dasharray:none;stroke-opacity:1"
             id="path442"
             inkscape:connector-curvature="0" />
        </g>
      </g>
      <g
         transform="matrix(0.31210964,0,0,-0.31210964,-52.719846,1064.584)"
         id="g444"
         style="fill:#ffcc00;stroke:#000000;stroke-width:3.20400238;stroke-miterlimit:4;stroke-dasharray:none;stroke-opacity:1">
        <g
           id="g446"
           clip-path="url(#clipPath448)"
           style="fill:#ffcc00;stroke:#000000;stroke-width:3.20400238;stroke-miterlimit:4;stroke-dasharray:none;stroke-opacity:1">
          <path
             d="m 2416.75,1411.59 c 13.68,0 27.3,-1.12 40.73,-3.31 l -167.25,96.49 -239.41,-137.84 c 1.97,-80.05 45.17,-153.98 114.54,-197.11 -2.23,57.24 17.75,112.14 57.1,156.06 48.07,53.67 120.72,85.71 194.29,85.71"
             style="fill:#ffcc00;fill-opacity:1;fill-rule:nonzero;stroke:#000000;stroke-width:3.20400238;stroke-miterlimit:4;stroke-dasharray:none;stroke-opacity:1"
             id="path460"
             inkscape:connector-curvature="0" />
        </g>
      </g>
    </g>
  </g>
</svg>
