<?xml version="1.0" encoding="UTF-8" standalone="no"?>
<!-- Created with Inkscape (http://www.inkscape.org/) -->

<svg
   xmlns:dc="http://purl.org/dc/elements/1.1/"
   xmlns:cc="http://creativecommons.org/ns#"
   xmlns:rdf="http://www.w3.org/1999/02/22-rdf-syntax-ns#"
   xmlns:svg="http://www.w3.org/2000/svg"
   xmlns="http://www.w3.org/2000/svg"
   xmlns:xlink="http://www.w3.org/1999/xlink"
   xmlns:sodipodi="http://sodipodi.sourceforge.net/DTD/sodipodi-0.dtd"
   xmlns:inkscape="http://www.inkscape.org/namespaces/inkscape"
   id="svg2"
   version="1.1"
   inkscape:version="0.91 r13725"
   xml:space="preserve"
   width="562.5"
   height="562.5"
   viewBox="0 0 562.5 562.5"
   sodipodi:docname="06_06_Shadows.svg"><metadata
     id="metadata8"><rdf:RDF><cc:Work
         rdf:about=""><dc:format>image/svg+xml</dc:format><dc:type
           rdf:resource="http://purl.org/dc/dcmitype/StillImage" /><dc:title /></cc:Work></rdf:RDF></metadata><defs
     id="defs6"><linearGradient
       x1="0"
       y1="0"
       x2="1"
       y2="0"
       gradientUnits="userSpaceOnUse"
       gradientTransform="matrix(0,50.5788,50.5788,0,97.1165,338.164)"
       spreadMethod="pad"
       id="linearGradient272"><stop
         style="stop-opacity:1;stop-color:#5e6064"
         offset="0"
         id="stop274" /><stop
         style="stop-opacity:1;stop-color:#86888b"
         offset="1"
         id="stop276" /></linearGradient><linearGradient
       x1="0"
       y1="0"
       x2="1"
       y2="0"
       gradientUnits="userSpaceOnUse"
       gradientTransform="matrix(0,50.5789,50.5789,0,63.4065,286.978)"
       spreadMethod="pad"
       id="linearGradient346"><stop
         style="stop-opacity:1;stop-color:#797096"
         offset="0"
         id="stop348" /><stop
         style="stop-opacity:1;stop-color:#9c95b4"
         offset="1"
         id="stop350" /></linearGradient><linearGradient
       x1="0"
       y1="0"
       x2="1"
       y2="0"
       gradientUnits="userSpaceOnUse"
       gradientTransform="matrix(0,50.5788,50.5788,0,126.092,295.082)"
       spreadMethod="pad"
       id="linearGradient470"><stop
         style="stop-opacity:1;stop-color:#3e49bb"
         offset="0"
         id="stop472" /><stop
         style="stop-opacity:1;stop-color:#497cf7"
         offset="1"
         id="stop474" /></linearGradient><linearGradient
       x1="0"
       y1="0"
       x2="1"
       y2="0"
       gradientUnits="userSpaceOnUse"
       gradientTransform="matrix(0,50.5788,50.5788,0,234.001,234.3)"
       spreadMethod="pad"
       id="linearGradient582"><stop
         style="stop-opacity:1;stop-color:#e04f06"
         offset="0"
         id="stop584" /><stop
         style="stop-opacity:1;stop-color:#f17a3e"
         offset="1"
         id="stop586" /></linearGradient><linearGradient
       x1="0"
       y1="0"
       x2="1"
       y2="0"
       gradientUnits="userSpaceOnUse"
       gradientTransform="matrix(0,50.5788,50.5788,0,307.625,251.209)"
       spreadMethod="pad"
       id="linearGradient606"><stop
         style="stop-opacity:1;stop-color:#960000"
         offset="0"
         id="stop608" /><stop
         style="stop-opacity:1;stop-color:#b4261e"
         offset="1"
         id="stop610" /></linearGradient><linearGradient
       inkscape:collect="always"
       xlink:href="#linearGradient582"
       id="linearGradient7460"
       gradientUnits="userSpaceOnUse"
       gradientTransform="matrix(0,50.5788,50.5788,0,234.001,234.3)"
       spreadMethod="pad"
       x1="0"
       y1="0"
       x2="1"
       y2="0" /></defs><sodipodi:namedview
     pagecolor="#ffffff"
     bordercolor="#666666"
     borderopacity="1"
     objecttolerance="10"
     gridtolerance="10"
     guidetolerance="10"
     inkscape:pageopacity="0"
     inkscape:pageshadow="2"
     inkscape:window-width="1360"
     inkscape:window-height="745"
     id="namedview4"
     showgrid="false"
     inkscape:zoom="1.1555556"
     inkscape:cx="281.25"
     inkscape:cy="281.25"
     inkscape:window-x="-8"
     inkscape:window-y="-8"
     inkscape:window-maximized="1"
     inkscape:current-layer="g10" /><g
     inkscape:groupmode="layer"
     id="layer1"
     inkscape:label="Map"
     style="display:inline"
     sodipodi:insensitive="true"><path
       transform="matrix(1.25,0,0,-1.25,0,562.5)"
       inkscape:connector-curvature="0"
       id="path14"
       style="fill:#ffffff;fill-opacity:1;fill-rule:nonzero;stroke:none"
       d="M 0,0 450,0 450,450 0,450 0,0 Z" /><path
       transform="matrix(1.25,0,0,-1.25,0,562.5)"
       inkscape:connector-curvature="0"
       id="path16"
       style="fill:#f4e5bc;fill-opacity:1;fill-rule:nonzero;stroke:none"
       d="m 5.71875,5.71797 438.562,0 0,438.563 -438.562,0 0,-438.563 z" /><path
       transform="matrix(1.25,0,0,-1.25,0,562.5)"
       inkscape:connector-curvature="0"
       id="path20"
       style="fill:#c8cac8;fill-opacity:1;fill-rule:nonzero;stroke:none"
       d="m 154.998,43.6332 c 4.735,12.5008 20.799,45.9559 27.733,60.2648 -41.243,9.761 -93.2259,21.638 -101.1212,21.638 -10.5528,0 -59.5934,-28.7391 -76.04378,-47.5098 l 0,-71.72932 146.35398,0 c -0.632,10.97812 -0.79,27.12502 3.078,37.33632" /><path
       transform="matrix(1.25,0,0,-1.25,0,562.5)"
       inkscape:connector-curvature="0"
       id="path22"
       style="fill:#9cb6fc;fill-opacity:1;fill-rule:nonzero;stroke:none"
       d="M 5.56602,78.0262 C 22.0164,96.7969 71.057,125.536 81.6098,125.536 c 12.3531,0 132.6352,-29.077 150.8402,-33.6282 18.205,-4.5508 26.007,-15.6039 26.007,-25.3566 0,-6.0352 -4.131,-36.9801 -7.357,-60.25432 l 107.992,0 C 346.804,36.5801 339.637,81.1832 317.623,96.2969 295.68,111.362 219.853,117.021 207.906,128.968 195.959,140.915 151.304,173.58 130.861,178.897 90.5508,189.383 44.5496,174.318 31.3836,166.516 23.3992,161.784 12.7313,150.244 5.56602,141.888 l 0,-63.8618" /><path
       transform="matrix(1.25,0,0,-1.25,0,562.5)"
       inkscape:connector-curvature="0"
       id="path24"
       style="fill:#c4daac;fill-opacity:1;fill-rule:nonzero;stroke:none"
       d="m 272.436,69.3469 -34.784,36.8661 -64.738,0 -29.328,-45.9689 3.959,-53.94722 115.996,0 8.895,63.05002" /><path
       transform="matrix(1.25,0,0,-1.25,0,562.5)"
       inkscape:connector-curvature="0"
       id="path26"
       style="fill:#c8cac8;fill-opacity:1;fill-rule:nonzero;stroke:none"
       d="m 329.193,233.499 16.457,36.019 c 0,0 28.7,-9.591 38.941,-7.316 10.242,2.276 43.504,34.121 43.504,34.121 l 16.248,-1.499 0.01,-143.132 -53.292,53.373 -61.868,28.434" /><path
       transform="matrix(1.25,0,0,-1.25,0,562.5)"
       inkscape:connector-curvature="0"
       id="path28"
       style="fill:#c4daac;fill-opacity:1;fill-rule:nonzero;stroke:none"
       d="m 444.434,136.52 -56.592,56.592 -43.887,-97.303 47.135,-89.51212 53.263,0 0.081,130.22312" /><path
       transform="matrix(1.25,0,0,-1.25,0,562.5)"
       inkscape:connector-curvature="0"
       id="path32"
       style="fill:#ffffff;fill-opacity:1;fill-rule:nonzero;stroke:none"
       d="m 382.346,264.379 c -13.065,0 -37.419,9.426 -37.667,9.523 l -1.771,-4.543 c 1.047,-0.408 25.456,-9.857 39.457,-9.857 0.19,0 0.378,0.002 0.563,0.005 14.2,0.27 45.788,33.732 49.344,37.548 l -3.568,3.323 c -9.269,-9.946 -35.578,-35.8 -45.867,-35.995 -0.163,-0.003 -0.326,-0.004 -0.491,-0.004" /><path
       transform="matrix(1.25,0,0,-1.25,0,562.5)"
       inkscape:connector-curvature="0"
       id="path34"
       style="fill:#ffffff;fill-opacity:1;fill-rule:nonzero;stroke:none"
       d="m 386.588,68.3469 c 0.201,-13.0629 -8.299,-36.8528 -8.391,-37.102 l 3.253,-6.282 c 0.392,1.0531 10.229,29.4801 10.013,43.4793 -0.003,0.1898 -0.008,0.3777 -0.013,0.5629 -0.489,14.1937 -34.435,45.2619 -38.305,48.7579 l -3.268,-3.618 c 10.087,-9.114 36.345,-35.022 36.698,-45.3059 0.006,-0.1629 0.01,-0.3262 0.013,-0.4922" /><path
       transform="matrix(1.25,0,0,-1.25,0,562.5)"
       inkscape:connector-curvature="0"
       id="path36"
       style="fill:#fcfedc;fill-opacity:1;fill-rule:nonzero;stroke:none"
       d="m 358.066,6.29688 33.024,0 c 0,0 -43.17,83.85822 -46.195,87.72812 -3.026,3.8711 -57.646,25.034 -63.437,23.676 -5.787,-1.358 -7.317,-7.087 -7.319,-7.093 18.042,-3.957 34.893,-8.413 43.484,-14.3111 22.014,-15.1137 28.155,-59.7168 40.443,-90.00002" /><path
       transform="matrix(1.25,0,0,-1.25,0,562.5)"
       inkscape:connector-curvature="0"
       id="path38"
       style="fill:#ffffff;fill-opacity:1;fill-rule:nonzero;stroke:none"
       d="m 49.134,403.105 124.174,-11.15 4.588,-8.05 c -1.367,-0.139 -2.812,-0.231 -4.286,-0.231 -3.761,0 -64.837,5.328 -125.2541,10.692 l 0.7781,8.739 m 185.36,20.259 37.974,-13.694 c -6.377,-15.566 -12.869,-31.647 -17.603,-43.924 l -37.38,14.461 17.009,43.157 m 69.451,-81.835 -75.979,-169.424 c -5.174,2.448 -18.706,8.852 -34.486,16.34 6.801,14.733 49.368,106.958 55.16,119.433 5.447,11.731 4.64,25.099 4.157,33.086 -0.099,1.629 -0.183,3.036 -0.186,3.951 0.129,1.331 2.002,6.65 5.015,14.534 l 46.319,-17.92 m -298.37898,56.65 0,-4.895 c 11.12618,-0.995 23.94728,-2.139 37.45158,-3.339 l -4.7949,-48.273 4.8515,-0.482 4.7996,48.324 c 56.0892,-4.98 121.5852,-10.716 125.7362,-10.716 6.388,0 12.204,1.458 13.88,1.918 l 20.014,-1.877 45.62,-17.648 c -3.297,-8.711 -5.387,-14.788 -5.387,-16.202 0,-1.137 0.089,-2.611 0.193,-4.318 0.454,-7.528 1.215,-20.126 -3.713,-30.74 -5.787,-12.465 -48.269,-104.504 -55.142,-119.396 -10.172,4.828 -21.003,9.977 -30.968,14.728 l 49.457,113.273 -5.55,-0.607 -48.311,-110.565 c -13.933,6.65 -25.587,12.249 -30.365,14.634 l 45.908,103.514 -4.457,1.978 -45.863,-103.414 c -10.583,4.692 -20.9252,7.153 -29.8299,7.153 -3.2113,0 -6.2363,-0.32 -9.0184,-0.97 -3.0265,-0.709 -10.973,-2.963 -20.8742,-5.851 l -18.9539,72.048 67.0744,19.567 -1.365,4.682 -100.39298,-29.286 0,-5.08 30.00038,8.751 18.9551,-72.051 C 38.0641,218.211 17.8773,212.159 5.56602,208.454 l 0,-5.093 c 20.59958,6.2 67.41528,20.228 75.62418,22.149 10.4661,2.453 25.0358,-0.418 39.9668,-7.873 11.731,-5.857 64.696,-30.984 91.433,-43.648 L 163.459,64.5941 C 157.186,53.1809 121.557,61.5391 95.527,67.643 80.8406,71.0879 68.1602,74.066 61.7223,73.4789 47.8066,72.2141 19.4395,50.8371 5.56602,39.7531 l 0,-6.2761 C 17.498,43.1578 48.5746,67.3879 62.1641,68.623 67.809,69.1391 80.7324,66.1051 94.4137,62.8961 125.09,55.7012 159.859,47.5449 167.795,62.3621 l 49.203,109.5389 c 3.965,-1.877 7.062,-3.343 8.972,-4.246 l -6.797,-15.157 126.011,-59.9742 44.893,103.0892 -4.47,1.947 -42.88,-98.4659 -117.154,55.7579 84.924,189.371 -51.117,19.776 c 4.536,11.677 10.9,27.452 17.685,44.014 l 75.538,-27.242 -26.505,-64.127 4.506,-1.863 53.577,129.561 -5.277,0 -24.437,-59.06 -75.55,27.245 c 4.407,10.732 8.933,21.509 13.204,31.754 l -5.283,0 c -3.547,-8.51 -7.952,-18.979 -12.518,-30.096 l -38.037,13.717 6.531,16.455 -5.242,0 -5.879,-14.8 -41.328,14.815 -14.372,0 53.911,-19.353 -16.967,-43.052 -4.303,1.665 -21.616,2.026 -0.453,-0.135 c -0.026,-0.008 -1.064,-0.312 -2.721,-0.671 l -6.537,11.804 -128.1207,11.34 4.1496,36.346 -4.8992,0 -4.107,-35.916 -38.76368,3.431 0,-4.896 38.76328,-3.388 -0.8301,-8.776 c -12.9398,1.15 -25.7687,2.294 -37.93318,3.382" /><path
       transform="matrix(1.25,0,0,-1.25,0,562.5)"
       inkscape:connector-curvature="0"
       id="path40"
       style="fill:#ffc059;fill-opacity:1;fill-rule:nonzero;stroke:none"
       d="m 107.722,263.099 c 0.569,3.868 2.726,27.925 5.32,57.936 l 201.946,-92.814 -25.731,-56.318 c -14.572,6.849 -30.777,14.479 -46.796,22.022 -51.913,24.443 -105.594,49.718 -113.563,53.109 l -1.256,0.534 c -15.481,6.578 -20.818,9.425 -19.92,15.531 M 349.4,303.543 319.446,237.979 133.743,323.328 349.4,303.543 m 35.435,-107.423 30.82,-30.821 c -25.778,-10.173 -63.268,-22.218 -73.409,-18.069 -2.716,1.111 -20.071,9.213 -43.279,20.111 l 25.768,56.4 60.1,-27.621 M 5.56602,335.088 102.718,326.174 c -2.7344,-31.745 -5.0422,-57.658 -5.6094,-61.514 -2.184,-14.846 11.0334,-20.462 26.3384,-26.966 l 1.25,-0.532 c 7.783,-3.312 61.371,-28.543 113.194,-52.943 16.426,-7.734 32.545,-15.324 46.908,-22.075 L 247.9,81.3801 247.831,81.2238 C 241.468,66.0379 223.974,57.8352 207.058,49.902 186.119,40.0832 165.997,31.166 162.043,6.29688 l 10.796,0 c 2.058,17.39532 19.082,24.65822 38.774,33.89222 18.729,8.7828 38.094,17.8648 46.077,36.8058 l 36.819,80.5871 c 23.602,-11.082 40.77,-19.092 43.673,-20.28 17.135,-7.018 68.92,12.901 85.725,19.746 l 20.446,-20.528 0,15.172 -53.292,53.373 -61.868,28.434 31.527,69.005 83.623,-7.68 0,10.773 -78.899,7.247 60.094,131.498 -11.794,0 -59.62,-130.46 -239.804,22.001 c 3.421,39.903 7.294,85.489 9.199,108.367 l -10.766,0 c -1.92,-23.05 -5.745,-68.03 -9.117,-107.387 l -98.06998,8.997 0,-10.772" /><path
       transform="matrix(1.25,0,0,-1.25,0,562.5)"
       inkscape:connector-curvature="0"
       id="path42"
       style="fill:#ffc059;fill-opacity:1;fill-rule:nonzero;stroke:none"
       d="m 340.218,308.365 c 0,10.02 8.123,18.142 18.143,18.142 10.02,0 18.142,-8.122 18.142,-18.142 0,-10.02 -8.122,-18.143 -18.142,-18.143 -10.02,0 -18.143,8.123 -18.143,18.143" /><path
       transform="matrix(1.25,0,0,-1.25,0,562.5)"
       inkscape:connector-curvature="0"
       id="path44"
       style="fill:#afb1af;fill-opacity:1;fill-rule:nonzero;stroke:none"
       d="m 89.7395,117.021 78.6555,-16.78 -4.81,-22.5469 -78.6561,16.7797 4.8106,22.5472" /><path
       transform="matrix(1.25,0,0,-1.25,0,562.5)"
       inkscape:connector-curvature="0"
       id="path46"
       style="fill:#c4daac;fill-opacity:1;fill-rule:nonzero;stroke:none"
       d="m 348.775,308.365 c 0,5.294 4.291,9.586 9.586,9.586 5.294,0 9.586,-4.292 9.586,-9.586 0,-5.295 -4.292,-9.586 -9.586,-9.586 -5.295,0 -9.586,4.291 -9.586,9.586" /><path
       transform="matrix(1.25,0,0,-1.25,0,562.5)"
       inkscape:connector-curvature="0"
       id="path54"
       style="fill:#d4c292;fill-opacity:1;fill-rule:nonzero;stroke:none"
       d="m 71.8387,298.485 8.3558,-37.066 -22.4894,-5.07 -8.3559,37.066 22.4895,5.07" /><path
       transform="matrix(1.25,0,0,-1.25,0,562.5)"
       inkscape:connector-curvature="0"
       id="path58"
       style="fill:#d4c292;fill-opacity:1;fill-rule:nonzero;stroke:none"
       d="m 296.504,143.327 50.606,-22.492 -6.872,-15.461 -50.606,22.492 6.872,15.461" /><path
       transform="matrix(1.25,0,0,-1.25,0,562.5)"
       inkscape:connector-curvature="0"
       id="path62"
       style="fill:#d4c292;fill-opacity:1;fill-rule:nonzero;stroke:none"
       d="m 382.624,325.668 61.729,-5.601 0,-12.685 -62.69,6.446 0.961,11.84" /><path
       transform="matrix(1.25,0,0,-1.25,0,562.5)"
       inkscape:connector-curvature="0"
       id="path74"
       style="fill:#d4c292;fill-opacity:1;fill-rule:nonzero;stroke:none"
       d="m 16.3457,387.408 18.1508,-1.48 -3.011,-36.925 -18.1511,1.48 3.0113,36.925" /><path
       transform="matrix(1.25,0,0,-1.25,0,562.5)"
       inkscape:connector-curvature="0"
       id="path84"
       style="fill:#d4c292;fill-opacity:1;fill-rule:nonzero;stroke:none"
       d="m 192.038,202.74 -3.346,-7.335 -26.962,12.298 3.345,7.334 26.963,-12.297" /><path
       transform="matrix(1.25,0,0,-1.25,0,562.5)"
       inkscape:connector-curvature="0"
       id="path86"
       style="fill:#d4c292;fill-opacity:1;fill-rule:nonzero;stroke:none"
       d="m 156.4,218.71 -3.345,-7.335 -26.963,12.298 3.346,7.334 26.962,-12.297" /><path
       transform="matrix(1.25,0,0,-1.25,0,562.5)"
       inkscape:connector-curvature="0"
       id="path88"
       style="fill:#d4c292;fill-opacity:1;fill-rule:nonzero;stroke:none"
       d="m 228.129,185.691 -3.345,-7.334 -26.963,12.297 3.346,7.335 26.962,-12.298" /><path
       transform="matrix(1.25,0,0,-1.25,0,562.5)"
       inkscape:connector-curvature="0"
       id="path108"
       style="fill:#d4c292;fill-opacity:1;fill-rule:nonzero;stroke:none"
       d="m 41.8633,432.062 -1.5719,-17.577 -34.54257,3.106 0,17.717 36.11447,-3.246" /><path
       transform="matrix(1.25,0,0,-1.25,0,562.5)"
       inkscape:connector-curvature="0"
       id="path112"
       style="fill:#d4c292;fill-opacity:1;fill-rule:nonzero;stroke:none"
       d="m 340.31,413.537 -5.107,-11.844 19.859,-8.563 5.107,11.843 -4.086,1.762 6.978,16.182 3.867,-1.667 5.107,11.844 -19.86,8.563 -5.107,-11.844 4.149,-1.789 -6.977,-16.182 -3.93,1.695" /><path
       transform="matrix(1.25,0,0,-1.25,0,562.5)"
       inkscape:connector-curvature="0"
       id="path114"
       style="fill:#d4c292;fill-opacity:1;fill-rule:nonzero;stroke:none"
       d="m 321.039,164.52 18.524,-8.449 3.345,7.335 -13.207,6.024 16.02,36.043 -19.376,8.612 -19.271,-43.358 13.965,-6.207" /><path
       transform="matrix(1.25,0,0,-1.25,0,562.5)"
       inkscape:connector-curvature="0"
       id="path116"
       style="fill:#d4c292;fill-opacity:1;fill-rule:nonzero;stroke:none"
       d="m 170.867,229.048 26.963,-12.297 3.345,7.334 -19.695,8.983 17.809,40.069 -7.367,3.274 -20.897,-47.017 -0.158,-0.346" /><path
       transform="matrix(1.25,0,0,-1.25,0,562.5)"
       inkscape:connector-curvature="0"
       id="path120"
       style="fill:#ffffff;fill-opacity:1;fill-rule:nonzero;stroke:none"
       d="m 408.127,62.6559 c 9.291,0 16.823,7.532 16.823,16.823 0,9.291 -7.532,16.8242 -16.823,16.8242 -9.291,0 -16.823,-7.5332 -16.823,-16.8242 0,-9.291 7.532,-16.823 16.823,-16.823 m -21.313,16.823 c 0,11.7711 9.542,21.3141 21.313,21.3141 11.771,0 21.313,-9.543 21.313,-21.3141 0,-11.7707 -9.542,-21.3129 -21.313,-21.3129 -11.771,0 -21.313,9.5422 -21.313,21.3129" /><path
       transform="matrix(1.25,0,0,-1.25,0,562.5)"
       inkscape:connector-curvature="0"
       id="path126"
       style="fill:#c4daac;fill-opacity:1;fill-rule:nonzero;stroke:none"
       d="m 5.56602,398.179 0,8.782 38.76328,-3.388 -0.8301,-8.776 -37.93318,3.382" /><path
       transform="matrix(1.25,0,0,-1.25,0,562.5)"
       inkscape:connector-curvature="0"
       id="path128"
       style="fill:#c4daac;fill-opacity:1;fill-rule:nonzero;stroke:none"
       d="m 54.5215,223.039 -18.9551,72.051 -30.00077,-8.751 0,-77.885 48.95587,14.585" /><path
       transform="matrix(1.25,0,0,-1.25,0,562.5)"
       inkscape:connector-curvature="0"
       id="path136"
       style="fill:#d4c292;fill-opacity:1;fill-rule:nonzero;stroke:none"
       d="m 382.74,417.442 11.317,-5.068 -25.899,-57.835 -11.317,5.068 25.899,57.835" /><path
       transform="matrix(1.25,0,0,-1.25,0,562.5)"
       inkscape:connector-curvature="0"
       id="path140"
       style="fill:#d4c292;fill-opacity:1;fill-rule:nonzero;stroke:none"
       d="m 432.19,444.342 12.163,0 -20.724,-46.894 -9.966,4.463 18.527,42.431" /><path
       transform="matrix(1.25,0,0,-1.25,0,562.5)"
       inkscape:connector-curvature="0"
       id="path142"
       style="fill:#d4c292;fill-opacity:1;fill-rule:nonzero;stroke:none"
       d="m 410.291,394.555 23.891,-10.699 -25.899,-57.835 -23.891,10.699 25.899,57.835" /><path
       transform="matrix(1.25,0,0,-1.25,0,562.5)"
       inkscape:connector-curvature="0"
       id="path148"
       style="fill:#d4c292;fill-opacity:1;fill-rule:nonzero;stroke:none"
       d="M 57.1344,309.767 5.56563,295.09 l 0,17.09 44.98637,12.263 6.5824,-14.676" /><path
       transform="matrix(1.25,0,0,-1.25,0,562.5)"
       inkscape:connector-curvature="0"
       id="path18"
       style="fill:#c8cac8;fill-opacity:1;fill-rule:nonzero;stroke:none"
       d="m 31.3836,166.516 c 13.166,7.802 59.1672,22.867 99.4774,12.381 18.736,-4.874 57.792,-32.707 73.383,-46.52 l 0.005,0 c 0,0 7.604,18.727 3.762,30.186 -3.842,11.459 -20.559,26.043 -20.559,26.043 l -67.298,32.227 c 0,0 -17.463,8.64 -34.261,7.845 C 70.4809,227.95 14.6707,209.071 5.56563,205.96 l 0,-64.072 c 7.16567,8.356 17.83357,19.896 25.81797,24.628" /><path
       transform="matrix(1.25,0,0,-1.25,0,562.5)"
       inkscape:connector-curvature="0"
       id="path56"
       style="fill:#d4c292;fill-opacity:1;fill-rule:nonzero;stroke:none"
       d="m 245.716,175.343 31.491,-13.997 -9.363,-21.067 -31.492,13.997 9.364,21.067" /><path
       transform="matrix(1.25,0,0,-1.25,0,562.5)"
       inkscape:connector-curvature="0"
       id="path30"
       style="fill:#c8cac8;fill-opacity:1;fill-rule:nonzero;stroke:none"
       d="m 246.917,323.718 -132.597,12.165 4.154,48.908 c 0,0 51.501,-6.337 60.117,-4.712 8.615,1.626 25.356,2.113 36.084,-2.763 10.728,-4.876 32.242,-53.598 32.242,-53.598" /><path
       transform="matrix(1.25,0,0,-1.25,0,562.5)"
       inkscape:connector-curvature="0"
       id="path60"
       style="fill:#d4c292;fill-opacity:1;fill-rule:nonzero;stroke:none"
       d="m 277.829,393.659 25.433,-11.304 -12.344,-27.771 -25.432,11.303 12.343,27.772" /><path
       transform="matrix(1.25,0,0,-1.25,0,562.5)"
       inkscape:connector-curvature="0"
       id="path64"
       style="fill:#c4daac;fill-opacity:1;fill-rule:nonzero;stroke:none"
       d="m 234.494,423.364 37.974,-13.694 -17.603,-43.924 -37.38,14.461 17.009,43.157" /><path
       transform="matrix(1.25,0,0,-1.25,0,562.5)"
       inkscape:connector-curvature="0"
       id="path66"
       style="fill:#d4c292;fill-opacity:1;fill-rule:nonzero;stroke:none"
       d="m 214.208,271.408 7.366,-3.274 -12.036,-27.08 -7.366,3.274 12.036,27.08" /><path
       transform="matrix(1.25,0,0,-1.25,0,562.5)"
       inkscape:connector-curvature="0"
       id="path68"
       style="fill:#d4c292;fill-opacity:1;fill-rule:nonzero;stroke:none"
       d="m 83.698,439.517 22.927,-1.667 -2.15,-29.557 -22.9266,1.668 2.1496,29.556" /><path
       transform="matrix(1.25,0,0,-1.25,0,562.5)"
       inkscape:connector-curvature="0"
       id="path82"
       style="fill:#d4c292;fill-opacity:1;fill-rule:nonzero;stroke:none"
       d="m 231.483,291.124 -3.345,-7.334 -26.963,12.297 3.345,7.335 26.963,-12.298" /><path
       transform="matrix(1.25,0,0,-1.25,0,562.5)"
       inkscape:connector-curvature="0"
       id="path96"
       style="fill:#d4c292;fill-opacity:1;fill-rule:nonzero;stroke:none"
       d="m 327.086,302.314 -1.183,-11.902 -29.489,2.932 1.183,11.902 29.489,-2.932" /><path
       transform="matrix(1.25,0,0,-1.25,0,562.5)"
       inkscape:connector-curvature="0"
       id="path98"
       style="fill:#d4c292;fill-opacity:1;fill-rule:nonzero;stroke:none"
       d="m 291.865,335.23 -1.183,-11.902 -29.489,2.932 1.183,11.902 29.489,-2.932" /><path
       transform="matrix(1.25,0,0,-1.25,0,562.5)"
       inkscape:connector-curvature="0"
       id="path100"
       style="fill:#d4c292;fill-opacity:1;fill-rule:nonzero;stroke:none"
       d="m 282.459,306.988 -0.805,-8.094 -29.886,2.971 0.804,8.094 29.887,-2.971" /><path
       transform="matrix(1.25,0,0,-1.25,0,562.5)"
       inkscape:connector-curvature="0"
       id="path104"
       style="fill:#d4c292;fill-opacity:1;fill-rule:nonzero;stroke:none"
       d="m 273.846,426.94 -2.544,-7.049 -27.875,10.059 2.544,7.049 27.875,-10.059" /><path
       transform="matrix(1.25,0,0,-1.25,0,562.5)"
       inkscape:connector-curvature="0"
       id="path106"
       style="fill:#d4c292;fill-opacity:1;fill-rule:nonzero;stroke:none"
       d="m 170.923,419.381 -1.572,-17.576 -44.533,3.983 1.572,17.576 44.533,-3.983" /><path
       transform="matrix(1.25,0,0,-1.25,0,562.5)"
       inkscape:connector-curvature="0"
       id="path110"
       style="fill:#d4c292;fill-opacity:1;fill-rule:nonzero;stroke:none"
       d="m 184.574,399.246 -0.855,-7.445 29.279,-3.365 0.052,-0.018 0.004,0.012 0.106,-0.012 0.051,0.447 11.789,32.669 -0.104,0.037 0.104,0.288 -27.875,10.059 -2.544,-7.049 20.93,-7.553 -7.493,-20.764 -23.444,2.694" /><path
       transform="matrix(1.25,0,0,-1.25,0,562.5)"
       inkscape:connector-curvature="0"
       id="path118"
       style="fill:#d4c292;fill-opacity:1;fill-rule:nonzero;stroke:none"
       d="m 332.852,293.606 7.366,-3.274 -14.659,-32.981 -7.366,3.274 14.659,32.981" /><path
       transform="matrix(1.25,0,0,-1.25,0,562.5)"
       inkscape:connector-curvature="0"
       id="path122"
       style="fill:#c4daac;fill-opacity:1;fill-rule:nonzero;stroke:none"
       d="m 177.896,383.905 -4.588,8.05 -53.824,4.833 -0.725,-8.616 c 0,0 53.513,-4.498 55.097,-4.498 1.585,0 4.04,0.231 4.04,0.231" /><path
       transform="matrix(1.25,0,0,-1.25,0,562.5)"
       inkscape:connector-curvature="0"
       id="path130"
       style="fill:#c4daac;fill-opacity:1;fill-rule:nonzero;stroke:none"
       d="m 204.301,211.887 25.597,55.441 33.804,-15.536 -25.13,-56.036 -34.271,16.131" /><path
       transform="matrix(1.25,0,0,-1.25,0,562.5)"
       inkscape:connector-curvature="0"
       id="path132"
       style="fill:#ffffff;fill-opacity:1;fill-rule:nonzero;stroke:none"
       d="m 233.236,221.253 c 5.083,0 9.204,4.121 9.204,9.205 0,5.083 -4.121,9.204 -9.204,9.204 -5.084,0 -9.205,-4.121 -9.205,-9.204 0,-5.084 4.121,-9.205 9.205,-9.205 z m -11.662,9.205 c 0,6.44 5.221,11.661 11.662,11.661 6.44,0 11.661,-5.221 11.661,-11.661 0,-6.44 -5.221,-11.661 -11.661,-11.661 -6.441,0 -11.662,5.221 -11.662,11.661" /><path
       transform="matrix(1.25,0,0,-1.25,0,562.5)"
       inkscape:connector-curvature="0"
       id="path134"
       style="fill:#d4c292;fill-opacity:1;fill-rule:nonzero;stroke:none"
       d="m 349.73,353.612 10.48,-4.693 -6.377,-14.242 -10.481,4.694 6.378,14.241" /><path
       transform="matrix(1.25,0,0,-1.25,0,562.5)"
       inkscape:connector-curvature="0"
       id="path138"
       style="fill:#d4c292;fill-opacity:1;fill-rule:nonzero;stroke:none"
       d="m 303.262,322.245 19.581,-1.947 0.032,-0.014 0.005,0.01 0.109,-0.01 0.032,0.324 24.61,58.654 -12.428,3.924 -21.826,-53.773 -6.072,0.604 -4.043,-7.772" /><path
       transform="matrix(1.25,0,0,-1.25,0,562.5)"
       inkscape:connector-curvature="0"
       id="path144"
       style="fill:#c4daac;fill-opacity:1;fill-rule:nonzero;stroke:none"
       d="m 192.561,296.295 -30.131,13.848 4.497,10.141 34.724,-3.186 -9.09,-20.803" /><path
       transform="matrix(1.25,0,0,-1.25,0,562.5)"
       inkscape:connector-curvature="0"
       id="path152"
       style="fill:#c4daac;fill-opacity:1;fill-rule:nonzero;stroke:none"
       d="m 70.648,406.096 4.1583,38.246 -21.4774,0 -4.1426,-36.346 21.4617,-1.9" /><path
       transform="matrix(1.25,0,0,-1.25,0,562.5)"
       inkscape:connector-curvature="0"
       id="path154"
       style="fill:#d4c292;fill-opacity:1;fill-rule:nonzero;stroke:none"
       d="m 234.001,444.373 -3.64,-9.065 -26.002,9.065 29.642,0" /><path
       transform="matrix(1.25,0,0,-1.25,0,562.5)"
       inkscape:connector-curvature="0"
       id="path156"
       style="fill:#d4c292;fill-opacity:1;fill-rule:nonzero;stroke:none"
       d="m 312.249,403.752 5.226,14.483 -13.708,5.397 8.367,20.649 -15.828,0 -12.611,-29.864 28.554,-10.665" /><path
       transform="matrix(1.25,0,0,-1.25,0,562.5)"
       inkscape:connector-curvature="0"
       id="path50"
       style="fill:#d4c292;fill-opacity:1;fill-rule:nonzero;stroke:none"
       d="m 161.243,291.25 19.375,-8.611 -9.363,-21.067 -19.376,8.612 9.364,21.066" /><path
       transform="matrix(1.25,0,0,-1.25,0,562.5)"
       inkscape:connector-curvature="0"
       id="path70"
       style="fill:#d4c292;fill-opacity:1;fill-rule:nonzero;stroke:none"
       d="m 77.3961,356.619 22.9269,-1.667 -0.9867,-13.566 -22.9269,1.667 0.9867,13.566" /><path
       transform="matrix(1.25,0,0,-1.25,0,562.5)"
       inkscape:connector-curvature="0"
       id="path72"
       style="fill:#d4c292;fill-opacity:1;fill-rule:nonzero;stroke:none"
       d="m 51.2113,382.803 18.1508,-1.48 -3.0109,-36.925 -18.1512,1.48 3.0113,36.925" /><path
       transform="matrix(1.25,0,0,-1.25,0,562.5)"
       inkscape:connector-curvature="0"
       id="path78"
       style="fill:#d4c292;fill-opacity:1;fill-rule:nonzero;stroke:none"
       d="m 292.232,218.043 11.416,-5.074 -15.571,-35.034 -11.417,5.074 15.572,35.034" /><path
       transform="matrix(1.25,0,0,-1.25,0,562.5)"
       inkscape:connector-curvature="0"
       id="path94"
       style="fill:#d4c292;fill-opacity:1;fill-rule:nonzero;stroke:none"
       d="m 320.719,248.662 -3.345,-7.334 -26.962,12.297 3.345,7.335 26.962,-12.298" /><path
       transform="matrix(1.25,0,0,-1.25,0,562.5)"
       inkscape:connector-curvature="0"
       id="path102"
       style="fill:#d4c292;fill-opacity:1;fill-rule:nonzero;stroke:none"
       d="m 266.667,266.595 -7.41,3.355 14.845,32.784 7.41,-3.355 -14.845,-32.784" /><path
       transform="matrix(1.25,0,0,-1.25,0,562.5)"
       inkscape:connector-curvature="0"
       id="path124"
       style="fill:#c4daac;fill-opacity:1;fill-rule:nonzero;stroke:none"
       d="m 48.3559,394.366 0.7781,8.739 59.663,-5.357 -0.727,-8.645 -59.7141,5.263" /><path
       transform="matrix(1.25,0,0,-1.25,0,562.5)"
       inkscape:connector-curvature="0"
       id="path146"
       style="fill:#c4daac;fill-opacity:1;fill-rule:nonzero;stroke:none"
       d="m 157.999,312.18 -24.256,11.148 28.058,-2.574 -3.802,-8.574" /><path
       transform="matrix(1.25,0,0,-1.25,0,562.5)"
       inkscape:connector-curvature="0"
       id="path150"
       style="fill:#c4daac;fill-opacity:1;fill-rule:nonzero;stroke:none"
       d="m 102.49,319.693 -41.581,-11.404 -9.509,22.456 51.318,-4.571 -0.228,-6.481" /><path
       transform="matrix(1.25,0,0,-1.25,0,562.5)"
       inkscape:connector-curvature="0"
       id="path48"
       style="fill:#d4c292;fill-opacity:1;fill-rule:nonzero;stroke:none"
       d="m 257.153,215.85 19.376,-8.612 -9.364,-21.066 -19.376,8.611 9.364,21.067" /><path
       transform="matrix(1.25,0,0,-1.25,0,562.5)"
       inkscape:connector-curvature="0"
       id="path52"
       style="fill:#d4c292;fill-opacity:1;fill-rule:nonzero;stroke:none"
       d="m 118.759,309.959 27.075,-12.481 -16.411,-36.924 -16.113,7.162 5.449,42.243" /><path
       transform="matrix(1.25,0,0,-1.25,0,562.5)"
       inkscape:connector-curvature="0"
       id="path80"
       style="fill:#d4c292;fill-opacity:1;fill-rule:nonzero;stroke:none"
       d="m 269.841,240.58 7.366,-3.274 -8.241,-18.543 -7.367,3.274 8.242,18.543" /><path
       transform="matrix(1.25,0,0,-1.25,0,562.5)"
       inkscape:connector-curvature="0"
       id="path90"
       style="fill:#d4c292;fill-opacity:1;fill-rule:nonzero;stroke:none"
       d="m 270.006,273.929 -3.345,-7.334 -26.963,12.298 3.345,7.334 26.963,-12.298" /><path
       transform="matrix(1.25,0,0,-1.25,0,562.5)"
       inkscape:connector-curvature="0"
       id="path92"
       style="fill:#d4c292;fill-opacity:1;fill-rule:nonzero;stroke:none"
       d="m 288.045,230.091 -2.503,-5.631 3.475,-1.544 2.487,5.597 15.535,-7.085 2.628,5.762 -26.963,12.298 -2.628,-5.762 7.969,-3.635" /><path
       transform="matrix(1.25,0,0,-1.25,0,562.5)"
       inkscape:connector-curvature="0"
       id="path76"
       style="fill:#d4c292;fill-opacity:1;fill-rule:nonzero;stroke:none"
       d="m 79.5633,381.738 22.9267,-1.668 -0.987,-13.565 -22.9264,1.667 0.9867,13.566" /></g><g
     inkscape:groupmode="layer"
     id="layer2"
     inkscape:label="Shadows"
     style="display:inline" /><g
     id="g10"
     inkscape:groupmode="layer"
     inkscape:label="Pins"
     transform="matrix(1.25,0,0,-1.25,0,562.5)"
     style="display:inline"><path
       inkscape:connector-curvature="0"
       id="path278"
       style="fill:url(#linearGradient272);fill-opacity:1;fill-rule:nonzero;stroke:none"
       d="m 97.1164,388.743 c -9.2703,0 -16.8059,-7.666 -15.7656,-17.117 0.8199,-7.44 6.8945,-13.363 10.2121,-20.949 3.65,-8.345 4.3316,-12.513 5.5535,-12.513 1.2223,0 1.9039,4.168 5.5536,12.513 3.318,7.586 9.392,13.509 10.212,20.949 1.041,9.451 -6.495,17.117 -15.7656,17.117" /><path
       inkscape:connector-curvature="0"
       id="path280"
       style="fill:#ffffff;fill-opacity:1;fill-rule:nonzero;stroke:none"
       d="m 97.1164,385.798 c -7.2816,0 -13.1816,-5.902 -13.1816,-13.183 0,-7.277 5.9,-13.181 13.1816,-13.181 7.2806,0 13.1826,5.904 13.1826,13.181 0,7.281 -5.902,13.183 -13.1826,13.183" /><path
       inkscape:connector-curvature="0"
       id="path284"
       style="fill:#3c3c3c;fill-opacity:1;fill-rule:nonzero;stroke:none"
       d="m 93.8699,370.481 c -0.8371,0 -1.5179,-0.68 -1.5179,-1.517 0,-0.837 0.6808,-1.518 1.5179,-1.518 0.8367,0 1.5176,0.681 1.5176,1.518 0,0.837 -0.6809,1.517 -1.5176,1.517 z m -4e-4,-3.467 c -1.0746,0 -1.9492,0.875 -1.9492,1.95 0,1.074 0.8746,1.949 1.9492,1.949 1.0746,0 1.9493,-0.875 1.9493,-1.949 0,-1.075 -0.8747,-1.95 -1.9493,-1.95" /><path
       inkscape:connector-curvature="0"
       id="path286"
       style="fill:#3c3c3c;fill-opacity:1;fill-rule:nonzero;stroke:none"
       d="m 92.2621,368.964 c 0,-0.888 0.7199,-1.608 1.6074,-1.608 0.8879,0 1.6075,0.72 1.6075,1.608 0,0.887 -0.7196,1.607 -1.6075,1.607 -0.8875,0 -1.6074,-0.72 -1.6074,-1.607 z m 1.6074,-1.86 c -1.0254,0 -1.8593,0.834 -1.8593,1.86 0,1.025 0.8339,1.859 1.8593,1.859 1.0254,0 1.8598,-0.834 1.8598,-1.859 0,-1.026 -0.8344,-1.86 -1.8598,-1.86" /><path
       inkscape:connector-curvature="0"
       id="path288"
       style="fill:#3c3c3c;fill-opacity:1;fill-rule:nonzero;stroke:none"
       d="m 93.8699,369.823 c -0.4742,0 -0.8597,-0.385 -0.8597,-0.859 0,-0.475 0.3855,-0.86 0.8597,-0.86 0.4739,0 0.8594,0.385 0.8594,0.86 0,0.474 -0.3855,0.859 -0.8594,0.859 z m -4e-4,-2.15 c -0.7121,0 -1.291,0.579 -1.291,1.291 0,0.711 0.5789,1.29 1.291,1.29 0.7118,0 1.291,-0.579 1.291,-1.29 0,-0.712 -0.5792,-1.291 -1.291,-1.291" /><path
       inkscape:connector-curvature="0"
       id="path290"
       style="fill:#3c3c3c;fill-opacity:1;fill-rule:nonzero;stroke:none"
       d="m 93.8695,368.014 c -0.5242,0 -0.9492,0.425 -0.9492,0.95 0,0.524 0.425,0.949 0.9492,0.949 0.5243,0 0.9493,-0.425 0.9493,-0.949 0,-0.525 -0.425,-0.95 -0.9493,-0.95 z m 0,2.151 c -0.6625,0 -1.2011,-0.539 -1.2011,-1.201 0,-0.663 0.5386,-1.201 1.2011,-1.201 0.6625,0 1.2016,0.538 1.2016,1.201 0,0.662 -0.5391,1.201 -1.2016,1.201" /><path
       inkscape:connector-curvature="0"
       id="path292"
       style="fill:#3c3c3c;fill-opacity:1;fill-rule:nonzero;stroke:none"
       d="m 105.371,370.481 c -0.836,0 -1.517,-0.68 -1.517,-1.517 0,-0.837 0.681,-1.518 1.517,-1.518 0.837,0 1.518,0.681 1.518,1.518 0,0.837 -0.681,1.517 -1.518,1.517 z m 0,-3.467 c -1.074,0 -1.949,0.875 -1.949,1.95 0,1.074 0.875,1.949 1.949,1.949 1.075,0 1.949,-0.875 1.949,-1.949 0,-1.075 -0.874,-1.95 -1.949,-1.95" /><path
       inkscape:connector-curvature="0"
       id="path294"
       style="fill:#3c3c3c;fill-opacity:1;fill-rule:nonzero;stroke:none"
       d="m 103.764,368.964 c 0,-0.888 0.719,-1.608 1.607,-1.608 0.888,0 1.608,0.72 1.608,1.608 0,0.887 -0.72,1.607 -1.608,1.607 -0.888,0 -1.607,-0.72 -1.607,-1.607 z m 1.607,-1.86 c -1.025,0 -1.859,0.834 -1.859,1.86 0,1.025 0.834,1.859 1.859,1.859 1.026,0 1.86,-0.834 1.86,-1.859 0,-1.026 -0.834,-1.86 -1.86,-1.86" /><path
       inkscape:connector-curvature="0"
       id="path296"
       style="fill:#3c3c3c;fill-opacity:1;fill-rule:nonzero;stroke:none"
       d="m 105.371,369.823 c -0.474,0 -0.859,-0.385 -0.859,-0.859 0,-0.475 0.385,-0.86 0.859,-0.86 0.474,0 0.86,0.385 0.86,0.86 0,0.474 -0.386,0.859 -0.86,0.859 z m 0,-2.15 c -0.712,0 -1.291,0.579 -1.291,1.291 0,0.711 0.579,1.29 1.291,1.29 0.712,0 1.291,-0.579 1.291,-1.29 0,-0.712 -0.579,-1.291 -1.291,-1.291" /><path
       inkscape:connector-curvature="0"
       id="path298"
       style="fill:#3c3c3c;fill-opacity:1;fill-rule:nonzero;stroke:none"
       d="m 105.371,368.014 c -0.524,0 -0.949,0.425 -0.949,0.95 0,0.524 0.425,0.949 0.949,0.949 0.525,0 0.949,-0.425 0.949,-0.949 0,-0.525 -0.424,-0.95 -0.949,-0.95 z m 0,2.151 c -0.662,0 -1.201,-0.539 -1.201,-1.201 0,-0.663 0.539,-1.201 1.201,-1.201 0.663,0 1.201,0.538 1.201,1.201 0,0.662 -0.538,1.201 -1.201,1.201" /><path
       inkscape:connector-curvature="0"
       id="path300"
       style="fill:#3c3c3c;fill-opacity:1;fill-rule:nonzero;stroke:none"
       d="m 104.223,374.343 c -0.106,1.197 -0.295,3.315 -0.3,3.365 l -0.007,0.06 c -0.085,0.441 -0.472,0.766 -0.924,0.766 l -13.8346,0 c -0.3804,0 -0.939,-0.266 -0.9847,-0.698 l 3e-4,-3.493 16.05,0 z m -16.4812,-0.431 0,3.947 c 0.0766,0.73 0.8711,1.106 1.4156,1.106 l 13.8346,0 c 0.689,0 1.275,-0.517 1.362,-1.204 l 0.023,-0.288 c 0.061,-0.671 0.318,-3.561 0.318,-3.561 l -16.9532,0" /><path
       inkscape:connector-curvature="0"
       id="path302"
       style="fill:#3c3c3c;fill-opacity:1;fill-rule:nonzero;stroke:none"
       d="m 104.012,377.718 0.003,0 c -0.065,0.51 -0.495,0.905 -1.022,0.905 l -13.8356,0 c -0.4293,0 -1.0234,-0.297 -1.0738,-0.777 l 0,-3.592 16.2374,0 -0.309,3.464 z m -16.1807,-3.716 0,3.857 0.0015,0.013 c 0.0692,0.655 0.8137,1.004 1.325,1.004 l 13.8352,0 c 0.643,0 1.19,-0.484 1.272,-1.126 l 0.023,-0.284 c 0.06,-0.673 0.309,-3.464 0.309,-3.464 l -16.7657,0" /><path
       inkscape:connector-curvature="0"
       id="path304"
       style="fill:#3c3c3c;fill-opacity:1;fill-rule:nonzero;stroke:none"
       d="m 103.725,374.727 c -0.094,0 -0.172,0.077 -0.172,0.172 l 0,2.365 c 0,0.095 0.078,0.172 0.172,0.172 l 0.315,0 c 0.046,-0.515 0.16,-1.814 0.239,-2.709 l -0.554,0" /><path
       inkscape:connector-curvature="0"
       id="path306"
       style="fill:#3c3c3c;fill-opacity:1;fill-rule:nonzero;stroke:none"
       d="m 89.1797,374.757 c -0.0949,0 -0.1719,0.077 -0.1719,0.172 l 0,2.366 c 0,0.094 0.077,0.171 0.1719,0.171 l 2.5324,0 c 0.0949,0 0.1719,-0.077 0.1719,-0.171 l 0,-2.366 c 0,-0.095 -0.077,-0.172 -0.1719,-0.172 l -2.5324,0" /><path
       inkscape:connector-curvature="0"
       id="path308"
       style="fill:#3c3c3c;fill-opacity:1;fill-rule:nonzero;stroke:none"
       d="m 92.6031,374.757 c -0.0945,0 -0.1715,0.077 -0.1715,0.172 l 0,2.366 c 0,0.094 0.077,0.171 0.1715,0.171 l 2.5328,0 c 0.0946,0 0.1719,-0.077 0.1719,-0.171 l 0,-2.366 c 0,-0.095 -0.0773,-0.172 -0.1719,-0.172 l -2.5328,0" /><path
       inkscape:connector-curvature="0"
       id="path310"
       style="fill:#3c3c3c;fill-opacity:1;fill-rule:nonzero;stroke:none"
       d="m 96.027,374.757 c -0.0946,0 -0.1715,0.077 -0.1715,0.172 l 0,2.366 c 0,0.094 0.0769,0.171 0.1715,0.171 l 2.5328,0 c 0.0945,0 0.1715,-0.077 0.1715,-0.171 l 0,-2.366 c 0,-0.095 -0.077,-0.172 -0.1715,-0.172 l -2.5328,0" /><path
       inkscape:connector-curvature="0"
       id="path312"
       style="fill:#3c3c3c;fill-opacity:1;fill-rule:nonzero;stroke:none"
       d="m 99.4508,374.757 c -0.0949,0 -0.1719,0.077 -0.1719,0.172 l 0,2.366 c 0,0.094 0.077,0.171 0.1719,0.171 l 2.5322,0 c 0.095,0 0.172,-0.077 0.172,-0.171 l 0,-2.366 c 0,-0.095 -0.077,-0.172 -0.172,-0.172 l -2.5322,0" /><path
       inkscape:connector-curvature="0"
       id="path314"
       style="fill:#3c3c3c;fill-opacity:1;fill-rule:nonzero;stroke:none"
       d="m 88.0453,372.996 -0.064,0.084 0,0.259 0.064,0.083 0.0383,0.011 0,-0.447 -0.0383,0.01" /><path
       inkscape:connector-curvature="0"
       id="path316"
       style="fill:#3c3c3c;fill-opacity:1;fill-rule:nonzero;stroke:none"
       d="m 88.0453,372.317 -0.064,0.083 0,0.259 0.064,0.084 0.0383,0.01 0,-0.447 -0.0383,0.011" /><path
       inkscape:connector-curvature="0"
       id="path318"
       style="fill:#3c3c3c;fill-opacity:1;fill-rule:nonzero;stroke:none"
       d="m 108.044,369.082 c 0.169,0 0.307,0.138 0.307,0.307 l 0,0.882 -0.79,0 0,-1.189 0.483,0 z m -0.914,-0.432 0,2.053 1.653,0 0,-1.314 c 0,-0.407 -0.332,-0.739 -0.739,-0.739 l -0.914,0" /><path
       inkscape:connector-curvature="0"
       id="path320"
       style="fill:#3c3c3c;fill-opacity:1;fill-rule:nonzero;stroke:none"
       d="m 108.441,369.389 c 0,-0.219 -0.178,-0.397 -0.397,-0.397 l -0.572,0 0,1.369 0.969,0 0,-0.972 z m -1.221,1.224 0,-1.873 0.824,0 c 0.358,0 0.649,0.291 0.649,0.649 l 0,1.224 -1.473,0" /><path
       inkscape:connector-curvature="0"
       id="path322"
       style="fill:#3c3c3c;fill-opacity:1;fill-rule:nonzero;stroke:none"
       d="m 87.7828,369.389 c 0,-0.169 0.1375,-0.307 0.307,-0.307 l 0.6911,0 0,1.189 -0.9981,0 0,-0.882 z m 0.307,-0.739 c -0.4074,0 -0.7386,0.332 -0.7386,0.739 l 0,1.314 1.8613,0 0,-2.053 -1.1227,0" /><path
       inkscape:connector-curvature="0"
       id="path324"
       style="fill:#3c3c3c;fill-opacity:1;fill-rule:nonzero;stroke:none"
       d="m 87.693,369.389 c 0,-0.219 0.1777,-0.397 0.3968,-0.397 l 0.7809,0 0,1.369 -1.1777,0 0,-0.972 z m 0.3968,-0.649 c -0.3578,0 -0.6488,0.291 -0.6488,0.649 l 0,1.224 1.6817,0 0,-1.873 -1.0329,0" /><path
       inkscape:connector-curvature="0"
       id="path326"
       style="fill:#3c3c3c;fill-opacity:1;fill-rule:nonzero;stroke:none"
       d="m 102.743,369.082 c 0.11,3.661 1.075,4.281 3.183,4.281 l 1.742,-0.002 -0.011,0.111 c -0.023,0.253 -0.233,0.444 -0.488,0.444 l -18.996,0 0,-3.213 1.0395,0 0,-1.621 2.7113,0 c 0.0617,1.017 0.9157,1.831 1.9442,1.831 1.0285,0 1.8828,-0.814 1.9445,-1.831 l 6.9305,0 z m -7.3532,-0.432 -0.0054,0.337 c -0.0121,0.824 -0.6926,1.494 -1.5164,1.494 -0.8239,0 -1.5035,-0.67 -1.516,-1.494 l -0.0051,-0.337 -3.5543,0 -0.0117,0.339 0,1.282 -1.0391,0 0,4.076 19.4272,0 c 0.478,0 0.873,-0.359 0.918,-0.835 l 0.055,-0.583 -2.216,0.003 c -1.802,0 -2.662,-0.389 -2.754,-3.943 l -0.009,-0.33 -0.332,-0.009 -7.4412,0" /><path
       inkscape:connector-curvature="0"
       id="path328"
       style="fill:#3c3c3c;fill-opacity:1;fill-rule:nonzero;stroke:none"
       d="m 105.926,373.274 c -2.064,0 -3.001,-0.618 -3.096,-4.276 l 0,-0.006 -7.1038,0 c -0.0153,1.012 -0.8422,1.831 -1.8578,1.831 -1.0161,0 -1.8426,-0.819 -1.8582,-1.831 l -2.8875,0 0,1.621 -1.0391,0 0,3.392 19.0864,0 c 0.299,0 0.549,-0.227 0.577,-0.525 l 0.019,-0.209 -1.84,0.003 z m 2.072,0.23 c -0.041,0.43 -0.397,0.753 -0.828,0.753 l -19.3387,0 0,-3.896 1.0394,0 0,-1.369 0.0086,-0.252 3.3793,0 0.0035,0.248 c 0.0137,0.873 0.734,1.583 1.6063,1.583 0.8722,0 1.5925,-0.71 1.6058,-1.583 l 0.0039,-0.248 7.3519,0 0.246,0.006 0.006,0.246 c 0.09,3.47 0.913,4.03 2.844,4.03 l 2.117,-0.004 -0.045,0.486" /><path
       inkscape:connector-curvature="0"
       id="path330"
       style="fill:#3c3c3c;fill-opacity:1;fill-rule:nonzero;stroke:none"
       d="m 103.416,369.082 c 0.062,1.017 0.916,1.831 1.944,1.831 0.78,0 1.46,-0.469 1.77,-1.139 l 0,0.929 0.823,0 0,0.119 0.066,0.018 0.031,0.17 0,0.153 -0.066,0.018 -0.031,0.086 0,0.251 0.158,0.043 0.128,0.167 0,0.783 -0.128,0.168 -0.157,0.042 -0.003,0.065 -0.148,0.143 -1.877,0.003 c -1.787,0 -2.647,-0.382 -2.752,-3.85 l 0.242,0 z m 3.465,-0.432 -0.004,0.337 c -0.013,0.824 -0.694,1.494 -1.517,1.494 -0.823,0 -1.504,-0.67 -1.516,-1.494 l -0.005,-0.337 -1.107,0 0.008,0.351 c 0.098,3.733 1.062,4.362 3.186,4.362 l 1.877,-0.002 c 0.211,-10e-4 0.401,-0.113 0.504,-0.295 0.218,-0.096 0.363,-0.314 0.363,-0.555 l 0,-0.783 c 0,-0.174 -0.075,-0.338 -0.204,-0.453 l 0.015,-0.112 0,-0.305 c 0,-0.101 -0.034,-0.199 -0.097,-0.277 l 0,-0.31 -0.823,0 0,-1.279 0.004,-0.342 -0.684,0" /><path
       inkscape:connector-curvature="0"
       id="path332"
       style="fill:#3c3c3c;fill-opacity:1;fill-rule:nonzero;stroke:none"
       d="m 108.328,372.12 0,-0.392 c 0,-0.119 -0.079,-0.223 -0.193,-0.254 l -0.093,-0.025 0,-0.182 0.022,-0.006 0.075,-0.098 0,-0.305 -0.075,-0.099 -0.022,-0.005 0,-0.141 -0.822,0 0,-1.621 -0.002,0 c -0.015,1.012 -0.842,1.831 -1.858,1.831 -1.016,0 -1.843,-0.819 -1.858,-1.831 l -0.42,0 c 0.091,3.478 0.879,4.03 2.844,4.03 l 1.877,-0.003 c 0.128,0 0.231,-0.101 0.237,-0.228 l 0.095,-0.026 c 0.114,-0.031 0.193,-0.135 0.193,-0.253 l 0,-0.392 z m -0.085,0.875 c -0.08,0.164 -0.247,0.276 -0.44,0.276 l -1.877,0.003 c -2.064,0 -3.001,-0.618 -3.096,-4.276 l -0.007,-0.258 0.927,0 0.004,0.248 c 0.013,0.873 0.734,1.583 1.606,1.583 0.872,0 1.593,-0.71 1.606,-1.583 l 0.004,-0.248 0.505,0 -0.003,0.252 0,1.369 0.822,0 0,0.253 c 0.061,0.065 0.097,0.151 0.097,0.244 l 0,0.305 -0.031,0.143 c 0.135,0.094 0.22,0.251 0.22,0.422 l 0,0.784 c 0,0.216 -0.136,0.409 -0.337,0.483" /><path
       inkscape:connector-curvature="0"
       id="path334"
       style="fill:#3c3c3c;fill-opacity:1;fill-rule:nonzero;stroke:none"
       d="m 107.199,372.002 c -0.091,0 -0.164,0.073 -0.164,0.163 0,0.09 0.073,0.164 0.164,0.164 0.09,0 0.163,-0.074 0.163,-0.164 0,-0.09 -0.073,-0.163 -0.163,-0.163" /><path
       inkscape:connector-curvature="0"
       id="path352"
       style="fill:url(#linearGradient346);fill-opacity:1;fill-rule:nonzero;stroke:none"
       d="m 63.4063,337.557 c -9.2704,0 -16.8059,-7.666 -15.7657,-17.117 0.8199,-7.44 6.8946,-13.363 10.2121,-20.948 3.65,-8.346 4.3317,-12.514 5.5536,-12.514 1.2222,0 1.9039,4.168 5.5539,12.514 3.3175,7.585 9.3921,13.508 10.2121,20.948 1.0406,9.451 -6.4953,17.117 -15.766,17.117" /><path
       inkscape:connector-curvature="0"
       id="path354"
       style="fill:#ffffff;fill-opacity:1;fill-rule:nonzero;stroke:none"
       d="m 63.4063,334.612 c -7.2813,0 -13.1817,-5.902 -13.1817,-13.183 0,-7.277 5.9004,-13.181 13.1817,-13.181 7.2808,0 13.1828,5.904 13.1828,13.181 0,7.281 -5.902,13.183 -13.1828,13.183" /><path
       inkscape:connector-curvature="0"
       id="path358"
       style="fill:#3c3c3c;fill-opacity:1;fill-rule:nonzero;stroke:none"
       d="m 69.432,314.437 0,12.87 c -0.0211,0.032 -0.2101,0.155 -0.4445,0.239 l 0,-13.109 0.4445,0 z m -0.9097,-0.465 0,14.116 0.0965,0 c 0.3687,0 1.2785,-0.311 1.2785,-0.781 l 0,-13.335 -1.375,0" /><path
       inkscape:connector-curvature="0"
       id="path360"
       style="fill:#3c3c3c;fill-opacity:1;fill-rule:nonzero;stroke:none"
       d="m 69.8008,327.308 0,-13.239 -1.182,0 0,13.922 c 0.3777,0 1.182,-0.306 1.182,-0.683" /><path
       inkscape:connector-curvature="0"
       id="path362"
       style="fill:#3c3c3c;fill-opacity:1;fill-rule:nonzero;stroke:none"
       d="m 69.5289,314.34 0,12.967 c -0.009,0.094 -0.3289,0.286 -0.6383,0.371 l 0,-13.338 0.6383,0" /><path
       inkscape:connector-curvature="0"
       id="path364"
       style="fill:#3c3c3c;fill-opacity:1;fill-rule:nonzero;stroke:none"
       d="m 59.0129,314.437 0,13.109 c -0.2344,-0.085 -0.4238,-0.21 -0.4477,-0.259 l 0.0032,-12.85 0.4445,0 z m -0.9098,-0.465 0,13.335 c 0,0.478 0.8989,0.781 1.2785,0.781 l 0.0965,0 0,-14.116 -1.375,0" /><path
       inkscape:connector-curvature="0"
       id="path366"
       style="fill:#3c3c3c;fill-opacity:1;fill-rule:nonzero;stroke:none"
       d="m 59.3813,327.991 0,-13.922 -1.1817,0 0,13.239 c 0,0.377 0.8039,0.683 1.1817,0.683" /><path
       inkscape:connector-curvature="0"
       id="path368"
       style="fill:#3c3c3c;fill-opacity:1;fill-rule:nonzero;stroke:none"
       d="m 59.1098,314.34 0,13.338 c -0.3094,-0.085 -0.6297,-0.277 -0.6383,-0.371 l 0,-12.967 0.6383,0" /><path
       inkscape:connector-curvature="0"
       id="path370"
       style="fill:#3c3c3c;fill-opacity:1;fill-rule:nonzero;stroke:none"
       d="m 65.9191,326.195 0,0 -0.025,-0.157 -0.0359,-0.149 -0.0312,-0.094 -0.1989,0.082 -0.0941,-0.229 0.1988,-0.082 -0.0508,-0.098 -0.0777,-0.128 -0.0934,-0.126 -0.0613,-0.071 -0.1519,0.152 -0.1754,-0.175 0.1527,-0.152 -0.0809,-0.068 -0.1168,-0.086 -3e-4,0 -0.1305,-0.081 -0.0949,-0.048 -0.0821,0.198 -0.2289,-0.094 0.0824,-0.199 -0.0953,-0.031 -0.1539,-0.037 -0.1488,-0.023 -0.1008,-0.008 0,0.215 -0.248,0 0,-0.215 -0.0985,0.008 -0.15,0.023 0,0 -0.1539,0.037 -0.0961,0.031 0.0821,0.199 -0.2289,0.094 -0.0821,-0.198 -0.0945,0.048 -0.132,0.082 -0.116,0.084 -0.0805,0.069 0.1523,0.152 -0.1754,0.175 -0.1519,-0.152 -0.0649,0.075 4e-4,0 -0.0898,0.122 -0.0789,0.13 0,0 -0.05,0.096 0.2,0.082 -0.0961,0.229 -0.1988,-0.082 -0.0321,0.1 -0.0343,0.144 -0.0254,0.157 -0.0071,0.098 0.2153,0 0,0.247 -0.2153,0 0.0075,0.099 0,0 0.025,0.156 0.0343,0.144 0.0321,0.1 0.1988,-0.082 0.0961,0.228 -0.1996,0.083 0.0511,0.099 0.0743,0.122 0.0957,0.13 0.0617,0.072 0.1519,-0.152 0.1754,0.175 -0.1543,0.154 0.0813,0.07 0.1179,0.085 4e-4,0 0.1289,0.08 4e-4,0 0.0957,0.049 0.0825,-0.199 0.2285,0.095 -0.0821,0.199 0.0942,0.031 4e-4,-10e-4 0.1469,0.037 0,-10e-4 0.1519,0.025 0.1055,0.008 0,-0.215 0.248,0 0,0.215 0.1071,-0.008 0.1558,-0.026 0.1492,-0.037 0.0867,-0.028 -0.082,-0.199 0.2285,-0.095 0.0825,0.199 0.096,-0.049 0.1348,-0.084 0.1164,-0.085 0.0774,-0.066 -0.1543,-0.154 0.1754,-0.175 0.1519,0.152 0.0621,-0.072 0.0953,-0.13 0.0743,-0.122 0.0515,-0.099 -0.1988,-0.082 0.0941,-0.229 0.1989,0.082 0.0312,-0.093 0.0359,-0.151 0.0254,-0.158 0.0071,-0.097 -0.2153,0 0,-0.247 0.2153,0 -0.0075,-0.099 z m 0.4235,0.099 0,0.247 -0.0414,0 -0.0137,0.157 4e-4,0.001 -8e-4,0.004 -8e-4,0.008 -4e-4,0 -0.0289,0.178 -0.0011,0 -0.0422,0.176 -0.0024,-10e-4 -0.0383,0.12 0.0379,0.015 -0.0941,0.229 -0.0387,-0.016 -0.0765,0.152 -0.002,-0.001 -0.0941,0.154 -0.0016,-10e-4 -0.107,0.146 -0.0016,-0.001 -0.0805,0.096 0.0293,0.029 -0.1753,0.175 -0.0274,-0.028 -0.1316,0.112 -8e-4,-10e-4 -0.1469,0.106 -4e-4,-0.001 -0.1547,0.094 -4e-4,-10e-4 -0.1117,0.057 0.0156,0.038 -0.2285,0.095 -0.016,-0.038 -0.1617,0.052 -8e-4,-0.001 -0.1754,0.041 0,-10e-4 -0.1789,0.028 -4e-4,-0.002 -0.1246,0.01 0,0.042 -0.248,0 0,-0.042 -0.1692,-0.013 0,-0.002 -0.1781,-0.028 4e-4,-0.002 -0.1766,-0.042 4e-4,-0.001 -0.1187,-0.04 -0.016,0.039 -0.2286,-0.095 0.0157,-0.038 -0.152,-0.077 0.0012,-0.002 -0.1543,-0.094 0.0012,-0.002 -0.1465,-0.106 8e-4,-0.001 -0.0969,-0.084 -0.0274,0.028 -0.1753,-0.175 0.0292,-0.029 -0.1089,-0.13 7e-4,-10e-4 -0.1074,-0.146 0.002,-0.001 -0.0942,-0.155 8e-4,0 -0.0562,-0.112 -0.0379,0.016 -0.0961,-0.229 0.0387,-0.016 -0.0516,-0.161 8e-4,0 -0.0418,-0.177 0.0019,0 -0.0289,-0.179 0.0028,0 -0.011,-0.125 -0.0414,0 0,-0.247 0.0414,0 0.011,-0.125 -0.0028,0 0.0059,-0.037 8e-4,-0.008 4e-4,0 0.0214,-0.134 -0.0015,0 0.0058,-0.025 0.0032,-0.019 0.0015,0 0.0313,-0.133 -8e-4,0 0.0043,-0.013 0.007,-0.03 0.0024,0.001 0.0379,-0.12 -0.0387,-0.016 0.0961,-0.228 0.0379,0.016 0.0562,-0.112 -8e-4,-10e-4 0.0082,-0.013 0.0129,-0.026 0.002,10e-4 0.0711,-0.116 -0.002,-0.001 0.0145,-0.02 0.0105,-0.017 0.0016,0.001 0.0808,-0.111 -7e-4,0 0.0078,-0.009 0.0191,-0.026 0.0016,10e-4 0.0804,-0.096 -0.0292,-0.029 0.1753,-0.175 0.0297,0.029 0.0946,-0.082 -8e-4,-10e-4 0.014,-0.01 0.0204,-0.018 0.0015,0.002 0.1106,-0.08 -0.0012,-0.002 0.0242,-0.015 0.0137,-0.009 4e-4,10e-4 0.116,-0.071 -0.0012,-0.002 0.0219,-0.011 0.018,-0.01 7e-4,0.001 0.1114,-0.057 -0.0157,-0.038 0.2286,-0.095 0.016,0.038 0.1187,-0.038 -4e-4,-0.002 0.0246,-0.006 0.0184,-0.006 8e-4,0.002 0.1328,-0.032 -4e-4,-0.002 0.0277,-0.004 0.0157,-0.004 0,0.001 0.1347,-0.021 0,-0.002 0.0285,-0.002 0.0157,-0.003 4e-4,0.002 0.1246,-0.01 0,-0.042 0.248,0 0,0.042 0.1692,0.013 0,0.002 0.1789,0.028 -4e-4,0.002 0.1758,0.042 -8e-4,0.002 0.1191,0.038 0.016,-0.038 0.2285,0.095 -0.0156,0.038 0.152,0.077 -8e-4,0.002 0.1539,0.094 -0.0012,0.002 0.1469,0.106 -0.0012,0.002 0.095,0.081 0.0293,-0.029 0.1753,0.175 -0.0293,0.029 0.109,0.13 -4e-4,0 0.1071,0.147 -0.0016,0.001 0.0938,0.154 -8e-4,10e-4 0.0562,0.112 0.0387,-0.016 0.0941,0.228 -0.0379,0.016 0.052,0.162 -8e-4,0 0.0418,0.177 -0.0015,0 0.0285,0.179 -0.0028,0 0.011,0.125 0.0414,0" /><path
       inkscape:connector-curvature="0"
       id="path372"
       style="fill:#3c3c3c;fill-opacity:1;fill-rule:nonzero;stroke:none"
       d="m 63.0484,327.693 -0.0437,-0.035 -0.0442,-0.036 0.7028,-1.051 0.1305,0.105 0.1304,0.105 -0.8758,0.912" /><path
       inkscape:connector-curvature="0"
       id="path374"
       style="fill:#3c3c3c;fill-opacity:1;fill-rule:nonzero;stroke:none"
       d="m 64.452,326.419 c 0,-0.249 -0.2024,-0.452 -0.4516,-0.452 -0.2496,0 -0.452,0.203 -0.452,0.452 0,0.25 0.2024,0.452 0.452,0.452 0.2492,0 0.4516,-0.202 0.4516,-0.452" /><path
       inkscape:connector-curvature="0"
       id="path376"
       style="fill:#3c3c3c;fill-opacity:1;fill-rule:nonzero;stroke:none"
       d="m 56.5434,313.8 -0.1067,0.004 c -0.8293,0.063 -1.6926,0.827 -1.6601,2.122 0.0316,1.26 0.5,2.346 0.9961,3.495 0.5675,1.314 1.1543,2.673 1.1543,4.448 l 0.475,0 c 0,-1.873 -0.6067,-3.278 -1.1934,-4.637 -0.4773,-1.105 -0.9281,-2.15 -0.9574,-3.318 -0.0254,-1.001 0.6101,-1.591 1.2207,-1.636 0.4844,-0.038 1.0297,0.274 1.1511,1.249 0.1864,1.489 -0.0031,2.641 -0.1414,3.482 -0.0914,0.556 -0.1578,0.957 -0.0867,1.265 0.1586,0.687 0.7035,0.869 0.9699,0.869 l 0,-0.475 c -0.0375,-0.001 -0.3972,-0.025 -0.5074,-0.501 -0.0496,-0.216 0.0129,-0.598 0.0926,-1.081 0.143,-0.869 0.3387,-2.06 0.1441,-3.617 -0.1543,-1.239 -0.9086,-1.669 -1.5507,-1.669" /><path
       inkscape:connector-curvature="0"
       id="path378"
       style="fill:#3c3c3c;fill-opacity:1;fill-rule:nonzero;stroke:none"
       d="m 64.8008,322.615 0,0.485 -0.3516,0 0,-0.485 0.3516,0 z m 0.2719,-0.272 -0.895,0 0,1.029 0.895,0 0,-1.029" /><path
       inkscape:connector-curvature="0"
       id="path380"
       style="fill:#3c3c3c;fill-opacity:1;fill-rule:nonzero;stroke:none"
       d="m 58.109,324.685 c 0,-0.109 -0.0887,-0.198 -0.1981,-0.198 l -0.5785,0 -0.0176,0.018 0,2.117 0.2497,-0.164 c 0.3398,-0.223 0.5445,-0.603 0.5445,-1.009 l 0,-0.764 z m -0.7727,2.551 c 0,0.248 0.0762,0.49 0.2184,0.693 l 0.9183,1.312 -0.1234,0.104 -1.1019,-1.268 c -0.1911,-0.22 -0.2965,-0.502 -0.2965,-0.793 l 0,-3.143 0.0176,-0.018 0.9566,0 c 0.2344,0 0.4242,0.19 0.4242,0.425 l 0,1.333 c 0,0.385 -0.184,0.748 -0.4949,0.975 l -0.5184,0.38" /><path
       inkscape:connector-curvature="0"
       id="path382"
       style="fill:#3c3c3c;fill-opacity:1;fill-rule:nonzero;stroke:none"
       d="m 56.9895,323.971 0.35,0 0,0.15195 -0.35,0 0,-0.15195 z" /><path
       inkscape:connector-curvature="0"
       id="path384"
       style="fill:#3c3c3c;fill-opacity:1;fill-rule:nonzero;stroke:none"
       d="m 56.8254,323.69 0.678125,0 0,0.29609 -0.678125,0 0,-0.29609 z" /><path
       inkscape:connector-curvature="0"
       id="path386"
       style="fill:#3c3c3c;fill-opacity:1;fill-rule:nonzero;stroke:none"
       d="m 65.9965,322.615 0,0.485 -0.352,0 0,-0.485 0.352,0 z m 0.2719,-0.272 -0.8954,0 0,1.029 0.8954,0 0,-1.029" /><path
       inkscape:connector-curvature="0"
       id="path388"
       style="fill:#3c3c3c;fill-opacity:1;fill-rule:nonzero;stroke:none"
       d="m 63.6055,322.615 0,0.485 -0.3516,0 0,-0.485 0.3516,0 z m -0.6235,0.757 0.8953,0 0,-1.029 -0.8953,0 0,1.029" /><path
       inkscape:connector-curvature="0"
       id="path390"
       style="fill:#3c3c3c;fill-opacity:1;fill-rule:nonzero;stroke:none"
       d="m 62.4102,322.615 0,0.485 -0.3516,0 0,-0.485 0.3516,0 z m -0.6235,0.757 0.8953,0 0,-1.029 -0.8953,0 0,1.029" /><path
       inkscape:connector-curvature="0"
       id="path392"
       style="fill:#3c3c3c;fill-opacity:1;fill-rule:nonzero;stroke:none"
       d="m 68.5223,314.437 0,14.184 c 0,0.644 -0.5239,1.168 -1.1676,1.168 l -6.709,0 c -0.6441,0 -1.168,-0.524 -1.168,-1.168 l 0,-14.184 9.0446,0 z m -9.5094,-0.465 0,14.649 c 0,0.9 0.7328,1.633 1.6328,1.633 l 6.7086,0 c 0.9004,0 1.6332,-0.733 1.6332,-1.633 l 0,-14.649 -9.9746,0" /><path
       inkscape:connector-curvature="0"
       id="path394"
       style="fill:#3c3c3c;fill-opacity:1;fill-rule:nonzero;stroke:none"
       d="m 68.6188,314.34 0,14.281 c 0,0.698 -0.5661,1.264 -1.2641,1.264 l -6.7086,0 c -0.6984,0 -1.2648,-0.566 -1.2648,-1.264 l 0,-14.281 9.2375,0 z m -9.5094,-0.271 0,14.552 c 0,0.847 0.6894,1.536 1.5367,1.536 l 6.7086,0 c 0.8469,0 1.5359,-0.689 1.5359,-1.536 l 0,-14.552 -9.7812,0" /><path
       inkscape:connector-curvature="0"
       id="path396"
       style="fill:#3c3c3c;fill-opacity:1;fill-rule:nonzero;stroke:none"
       d="m 61.2008,328.631 c -0.2785,0 -0.5043,-0.226 -0.5043,-0.504 l 0,-5.667 c 0,-0.278 0.2258,-0.504 0.5043,-0.504 l 5.9777,0 c 0.2781,0 0.5039,0.226 0.5039,0.504 l 0,5.667 c 0,0.278 -0.2258,0.504 -0.5039,0.504 l -5.9777,0 z m 0,-7.14 c -0.5348,0 -0.9695,0.435 -0.9695,0.969 l 0,5.667 c 0,0.534 0.4347,0.969 0.9695,0.969 l 5.9777,0 c 0.5348,0 0.9692,-0.435 0.9692,-0.969 l 0,-5.667 c 0,-0.534 -0.4344,-0.969 -0.9692,-0.969 l -5.9777,0" /><path
       inkscape:connector-curvature="0"
       id="path398"
       style="fill:#3c3c3c;fill-opacity:1;fill-rule:nonzero;stroke:none"
       d="m 61.2008,321.859 c -0.3313,0 -0.6008,0.27 -0.6008,0.601 l 0,5.667 c 0,0.331 0.2695,0.601 0.6008,0.601 l 5.9773,0 c 0.3317,0 0.6012,-0.27 0.6012,-0.601 l 0,-5.667 c 0,-0.331 -0.2695,-0.601 -0.6012,-0.601 l -5.9773,0 z m 6.8504,0.601 0,5.667 c 0,0.482 -0.391,0.873 -0.8731,0.873 l -5.9773,0 c -0.482,0 -0.8727,-0.391 -0.8727,-0.873 l 0,-5.667 c 0,-0.482 0.3907,-0.873 0.8727,-0.873 l 5.9773,0 c 0.4821,0 0.8731,0.391 0.8731,0.873" /><path
       inkscape:connector-curvature="0"
       id="path400"
       style="fill:#3c3c3c;fill-opacity:1;fill-rule:nonzero;stroke:none"
       d="m 64,319.957 c 0,0 -0.8762,-0.847 -0.9543,-1.685 -0.0488,-0.525 0.4273,-0.955 0.9543,-0.955 0.5273,0 1.0035,0.43 0.9547,0.955 C 64.8762,319.11 64,319.957 64,319.957" /><path
       inkscape:connector-curvature="0"
       id="path402"
       style="fill:#3c3c3c;fill-opacity:1;fill-rule:nonzero;stroke:none"
       d="m 64,317.589 c -0.2004,0 -0.4,0.088 -0.534,0.235 -0.1105,0.121 -0.1637,0.272 -0.1496,0.423 0.0469,0.501 0.4414,1.029 0.6836,1.31 0.2426,-0.281 0.6371,-0.809 0.684,-1.31 0.014,-0.151 -0.0391,-0.302 -0.1496,-0.423 -0.134,-0.147 -0.3336,-0.235 -0.5344,-0.235" /><path
       inkscape:connector-curvature="0"
       id="path476"
       style="fill:url(#linearGradient470);fill-opacity:1;fill-rule:nonzero;stroke:none"
       d="m 126.092,345.66 c -9.271,0 -16.806,-7.665 -15.766,-17.116 0.82,-7.44 6.895,-13.363 10.212,-20.949 3.65,-8.345 4.332,-12.513 5.554,-12.513 1.222,0 1.904,4.168 5.554,12.513 3.318,7.586 9.392,13.509 10.212,20.949 1.04,9.451 -6.495,17.116 -15.766,17.116" /><path
       inkscape:connector-curvature="0"
       id="path478"
       style="fill:#ffffff;fill-opacity:1;fill-rule:nonzero;stroke:none"
       d="m 126.092,342.715 c -7.282,0 -13.182,-5.902 -13.182,-13.182 0,-7.277 5.9,-13.181 13.182,-13.181 7.281,0 13.183,5.904 13.183,13.181 0,7.28 -5.902,13.182 -13.183,13.182" /><path
       inkscape:connector-curvature="0"
       id="path482"
       style="fill:#3c3c3c;fill-opacity:1;fill-rule:nonzero;stroke:none"
       d="m 132.529,324.285 -12.874,0 0,-0.65 12.874,0 0,0.65 z m -13.099,-0.876 0,1.102 13.325,0 0,-1.102 -13.325,0" /><path
       inkscape:connector-curvature="0"
       id="path484"
       style="fill:#3c3c3c;fill-opacity:1;fill-rule:nonzero;stroke:none"
       d="m 132.929,323.409 -13.673,0 0,-0.65 13.673,0 0,0.65 z m -13.899,-0.876 0,1.102 14.125,0 0,-1.102 -14.125,0" /><path
       inkscape:connector-curvature="0"
       id="path486"
       style="fill:#3c3c3c;fill-opacity:1;fill-rule:nonzero;stroke:none"
       d="m 131.419,333.435 -10.653,0 5.326,3.89 5.327,-3.89 z m 0.692,-0.226 -6.019,4.395 -6.018,-4.395 12.037,0" /><path
       inkscape:connector-curvature="0"
       id="path488"
       style="fill:#3c3c3c;fill-opacity:1;fill-rule:nonzero;stroke:none"
       d="m 133.104,332.3 -14.023,0 0,1.31 7.011,5.12 7.012,-5.12 0,-1.31 z m -7.012,6.71 -7.237,-5.285 0,-1.651 14.475,0 0,1.651 -7.238,5.285" /><path
       inkscape:connector-curvature="0"
       id="path490"
       style="fill:#3c3c3c;fill-opacity:1;fill-rule:nonzero;stroke:none"
       d="m 132.111,325.161 -12.037,0 0,-0.65 12.037,0 0,0.65 z m -12.263,-0.876 0,1.102 12.489,0 0,-1.102 -12.489,0" /><path
       inkscape:connector-curvature="0"
       id="path492"
       style="fill:#3c3c3c;fill-opacity:1;fill-rule:nonzero;stroke:none"
       d="m 121.546,325.971 0,5.199 c -0.175,0.051 -0.329,0.23 -0.441,0.373 -0.111,-0.143 -0.266,-0.322 -0.441,-0.373 l 0,-5.199 0.882,0 z m -1.203,-0.321 0,5.464 0.08,0 c 0.242,0 0.457,0.163 0.523,0.396 l 0.016,0.058 0.286,0 0.016,-0.058 c 0.066,-0.233 0.281,-0.396 0.523,-0.396 l 0.08,0 0,-5.464 -1.524,0" /><path
       inkscape:connector-curvature="0"
       id="path494"
       style="fill:#3c3c3c;fill-opacity:1;fill-rule:nonzero;stroke:none"
       d="m 120.423,331.465 c -0.106,0 -0.193,0.086 -0.193,0.192 0,0.106 0.087,0.193 0.193,0.193 0.106,0 0.192,-0.087 0.192,-0.193 0,-0.106 -0.086,-0.192 -0.192,-0.192 z m 1.364,0 c -0.106,0 -0.192,0.086 -0.192,0.192 0,0.106 0.086,0.193 0.192,0.193 0.106,0 0.192,-0.087 0.192,-0.193 0,-0.106 -0.086,-0.192 -0.192,-0.192 z m 0,0.59 -1.364,0 c -0.22,0 -0.398,-0.178 -0.398,-0.398 0,-0.219 0.178,-0.397 0.398,-0.397 0.219,0 0.397,0.178 0.397,0.397 l -0.005,0.057 0.58,0 -0.006,-0.057 c 0,-0.219 0.178,-0.397 0.398,-0.397 0.22,0 0.398,0.178 0.398,0.397 0,0.22 -0.178,0.398 -0.398,0.398 z m 0,-1.021 c -0.285,0 -0.526,0.192 -0.6,0.454 l -0.164,0 c -0.074,-0.262 -0.315,-0.454 -0.6,-0.454 -0.344,0 -0.624,0.279 -0.624,0.623 0,0.344 0.28,0.624 0.624,0.624 l 1.364,0 c 0.344,0 0.624,-0.28 0.624,-0.624 0,-0.344 -0.28,-0.623 -0.624,-0.623" /><path
       inkscape:connector-curvature="0"
       id="path496"
       style="fill:#3c3c3c;fill-opacity:1;fill-rule:nonzero;stroke:none"
       d="m 121.759,325.387 0,0.263 -1.309,0 0,-0.263 1.309,0 z m 0.226,-0.226 -1.761,0 0,0.715 1.761,0 0,-0.715" /><path
       inkscape:connector-curvature="0"
       id="path498"
       style="fill:#3c3c3c;fill-opacity:1;fill-rule:nonzero;stroke:none"
       d="m 124.871,325.971 0,5.298 c -0.175,0.051 -0.33,0.156 -0.441,0.299 -0.112,-0.143 -0.267,-0.248 -0.442,-0.299 l 0,-5.298 0.883,0 z m -1.204,-0.321 0,5.464 0.081,0 c 0.242,0 0.457,0.163 0.523,0.396 l 0.016,0.058 0.286,0 0.016,-0.058 c 0.066,-0.233 0.281,-0.396 0.523,-0.396 l 0.08,0 0,-5.464 -1.525,0" /><path
       inkscape:connector-curvature="0"
       id="path500"
       style="fill:#3c3c3c;fill-opacity:1;fill-rule:nonzero;stroke:none"
       d="m 123.748,331.465 c -0.106,0 -0.193,0.086 -0.193,0.192 0,0.106 0.087,0.193 0.193,0.193 0.106,0 0.192,-0.087 0.192,-0.193 0,-0.106 -0.086,-0.192 -0.192,-0.192 z m 1.364,0 c -0.106,0 -0.192,0.086 -0.192,0.192 0,0.106 0.086,0.193 0.192,0.193 0.106,0 0.192,-0.087 0.192,-0.193 0,-0.106 -0.086,-0.192 -0.192,-0.192 z m 0,0.59 -1.364,0 c -0.22,0 -0.398,-0.178 -0.398,-0.398 0,-0.219 0.178,-0.397 0.398,-0.397 0.219,0 0.397,0.178 0.397,0.397 l -0.005,0.057 0.58,0 -0.006,-0.057 c 0,-0.219 0.178,-0.397 0.398,-0.397 0.22,0 0.398,0.178 0.398,0.397 0,0.22 -0.178,0.398 -0.398,0.398 z m 0,-1.021 c -0.285,0 -0.526,0.192 -0.6,0.454 l -0.164,0 c -0.074,-0.262 -0.315,-0.454 -0.6,-0.454 -0.344,0 -0.624,0.279 -0.624,0.623 0,0.344 0.28,0.624 0.624,0.624 l 1.364,0 c 0.344,0 0.624,-0.28 0.624,-0.624 0,-0.344 -0.28,-0.623 -0.624,-0.623" /><path
       inkscape:connector-curvature="0"
       id="path502"
       style="fill:#3c3c3c;fill-opacity:1;fill-rule:nonzero;stroke:none"
       d="m 125.084,325.387 0,0.263 -1.309,0 0,-0.263 1.309,0 z m 0.226,-0.226 -1.761,0 0,0.715 1.761,0 0,-0.715" /><path
       inkscape:connector-curvature="0"
       id="path504"
       style="fill:#3c3c3c;fill-opacity:1;fill-rule:nonzero;stroke:none"
       d="m 128.197,325.971 0,5.298 c -0.176,0.051 -0.331,0.156 -0.442,0.299 -0.112,-0.143 -0.267,-0.248 -0.442,-0.299 l 0,-5.298 0.884,0 z m -1.205,-0.321 0,5.464 0.081,0 c 0.242,0 0.456,0.163 0.522,0.396 l 0.017,0.058 0.285,0 0.017,-0.058 c 0.066,-0.233 0.281,-0.396 0.523,-0.396 l 0.08,0 0,-5.464 -1.525,0" /><path
       inkscape:connector-curvature="0"
       id="path506"
       style="fill:#3c3c3c;fill-opacity:1;fill-rule:nonzero;stroke:none"
       d="m 127.073,331.465 c -0.106,0 -0.193,0.086 -0.193,0.192 0,0.106 0.087,0.193 0.193,0.193 0.106,0 0.192,-0.087 0.192,-0.193 0,-0.106 -0.086,-0.192 -0.192,-0.192 z m 1.364,0 c -0.106,0 -0.192,0.086 -0.192,0.192 0,0.106 0.086,0.193 0.192,0.193 0.106,0 0.192,-0.087 0.192,-0.193 0,-0.106 -0.086,-0.192 -0.192,-0.192 z m 0,0.59 -1.364,0 c -0.22,0 -0.398,-0.178 -0.398,-0.398 0,-0.219 0.178,-0.397 0.398,-0.397 0.219,0 0.397,0.178 0.397,0.397 l -0.005,0.057 0.58,0 -0.006,-0.057 c 0,-0.219 0.178,-0.397 0.398,-0.397 0.22,0 0.398,0.178 0.398,0.397 0,0.22 -0.178,0.398 -0.398,0.398 z m 0,-1.021 c -0.285,0 -0.526,0.192 -0.6,0.454 l -0.164,0 c -0.074,-0.262 -0.315,-0.454 -0.6,-0.454 -0.344,0 -0.624,0.279 -0.624,0.623 0,0.344 0.28,0.624 0.624,0.624 l 1.364,0 c 0.344,0 0.624,-0.28 0.624,-0.624 0,-0.344 -0.28,-0.623 -0.624,-0.623" /><path
       inkscape:connector-curvature="0"
       id="path508"
       style="fill:#3c3c3c;fill-opacity:1;fill-rule:nonzero;stroke:none"
       d="m 128.409,325.387 0,0.263 -1.309,0 0,-0.263 1.309,0 z m 0.226,-0.226 -1.761,0 0,0.715 1.761,0 0,-0.715" /><path
       inkscape:connector-curvature="0"
       id="path510"
       style="fill:#3c3c3c;fill-opacity:1;fill-rule:nonzero;stroke:none"
       d="m 131.734,325.387 0,0.263 -1.309,0 0,-0.263 1.309,0 z m 0.226,-0.226 -1.761,0 0,0.715 1.761,0 0,-0.715" /><path
       inkscape:connector-curvature="0"
       id="path512"
       style="fill:#3c3c3c;fill-opacity:1;fill-rule:nonzero;stroke:none"
       d="m 131.522,325.971 -0.001,5.14 c -0.175,0.051 -0.33,0.314 -0.441,0.457 -0.112,-0.143 -0.267,-0.406 -0.442,-0.457 l 0,-5.14 0.884,0 z m -1.205,-0.321 0,5.464 0.081,0 c 0.242,0 0.457,0.163 0.522,0.396 l 0.017,0.058 0.286,0 0.016,-0.058 c 0.066,-0.233 0.281,-0.396 0.523,-0.396 l 0.08,0 0,-5.464 -1.525,0" /><path
       inkscape:connector-curvature="0"
       id="path514"
       style="fill:#3c3c3c;fill-opacity:1;fill-rule:nonzero;stroke:none"
       d="m 130.398,331.465 c -0.106,0 -0.193,0.086 -0.193,0.192 0,0.106 0.087,0.193 0.193,0.193 0.106,0 0.192,-0.087 0.192,-0.193 0,-0.106 -0.086,-0.192 -0.192,-0.192 z m 1.364,0 c -0.106,0 -0.192,0.086 -0.192,0.192 0,0.106 0.086,0.193 0.192,0.193 0.106,0 0.192,-0.087 0.192,-0.193 0,-0.106 -0.086,-0.192 -0.192,-0.192 z m 0,0.59 -1.364,0 c -0.22,0 -0.398,-0.178 -0.398,-0.398 0,-0.219 0.178,-0.397 0.398,-0.397 0.219,0 0.397,0.178 0.397,0.397 l -0.005,0.057 0.58,0 -0.006,-0.057 c 0,-0.219 0.178,-0.397 0.398,-0.397 0.22,0 0.398,0.178 0.398,0.397 0,0.22 -0.178,0.398 -0.398,0.398 z m 0,-1.021 c -0.285,0 -0.526,0.192 -0.6,0.454 l -0.164,0 c -0.074,-0.262 -0.315,-0.454 -0.601,-0.454 -0.343,0 -0.623,0.279 -0.623,0.623 0,0.344 0.28,0.624 0.623,0.624 l 1.365,0 c 0.344,0 0.624,-0.28 0.624,-0.624 0,-0.344 -0.28,-0.623 -0.624,-0.623" /><path
       d="m 234.001,284.879 c -9.271,0 -16.806,-7.665 -15.766,-17.117 0.82,-7.44 6.895,-13.362 10.212,-20.948 3.65,-8.345 4.332,-12.514 5.554,-12.514 1.222,0 1.904,4.169 5.554,12.514 3.317,7.586 9.392,13.508 10.212,20.948 1.04,9.452 -6.495,17.117 -15.766,17.117"
       style="fill:url(#linearGradient7460);fill-opacity:1;fill-rule:nonzero;stroke:none"
       id="path7458"
       inkscape:connector-curvature="0" /><path
       inkscape:connector-curvature="0"
       id="path590"
       style="fill:#ffffff;fill-opacity:1;fill-rule:nonzero;stroke:none"
       d="m 234.001,281.934 c -7.282,0 -13.182,-5.902 -13.182,-13.183 0,-7.277 5.9,-13.181 13.182,-13.181 7.281,0 13.183,5.904 13.183,13.181 0,7.281 -5.902,13.183 -13.183,13.183" /><path
       inkscape:connector-curvature="0"
       id="path594"
       style="fill:#3c3c3c;fill-opacity:1;fill-rule:nonzero;stroke:none"
       d="m 238.003,262.471 -0.764,4.456 3.238,3.156 -4.474,0.651 -2.002,4.054 -2.001,-4.054 -4.474,-0.651 3.238,-3.156 -0.765,-4.456 4.002,2.104 4.002,-2.104 z m -4.002,13.605 2.38,-4.821 5.321,-0.774 -3.85,-3.753 0.909,-5.3 -4.76,2.502 -4.759,-2.502 0.909,5.3 -3.851,3.753 5.322,0.774 2.379,4.821" /><path
       inkscape:connector-curvature="0"
       id="path612"
       style="fill:url(#linearGradient606);fill-opacity:1;fill-rule:nonzero;stroke:none"
       d="m 307.624,301.788 c -9.27,0 -16.806,-7.666 -15.765,-17.117 0.82,-7.44 6.894,-13.363 10.212,-20.948 3.65,-8.346 4.331,-12.514 5.553,-12.514 1.223,0 1.904,4.168 5.554,12.514 3.318,7.585 9.392,13.508 10.212,20.948 1.041,9.451 -6.495,17.117 -15.766,17.117" /><path
       inkscape:connector-curvature="0"
       id="path614"
       style="fill:#ffffff;fill-opacity:1;fill-rule:nonzero;stroke:none"
       d="m 307.624,298.843 c -7.281,0 -13.181,-5.902 -13.181,-13.183 0,-7.277 5.9,-13.181 13.181,-13.181 7.281,0 13.183,5.904 13.183,13.181 0,7.281 -5.902,13.183 -13.183,13.183" /><path
       inkscape:connector-curvature="0"
       id="path618"
       style="fill:#3c3c3c;fill-opacity:1;fill-rule:nonzero;stroke:none"
       d="m 314.359,280.713 0,8.362 -13.457,0 0,-8.362 13.457,0 z m -5.386,-0.336 -8.407,0 0,9.034 14.129,0 0,-9.034 -5.722,0" /><path
       inkscape:connector-curvature="0"
       id="path620"
       style="fill:#3c3c3c;fill-opacity:1;fill-rule:nonzero;stroke:none"
       d="m 310.647,282.051 0,6.004 -6.406,0 0,-6.004 6.406,0 z m -6.779,-0.373 0,6.75 7.152,0 0,-6.75 -7.152,0" /><path
       inkscape:connector-curvature="0"
       id="path622"
       style="fill:#3c3c3c;fill-opacity:1;fill-rule:nonzero;stroke:none"
       d="m 314.8,289.408 -0.441,2.435 -13.063,0 -0.822,-2.435 14.326,0 z m -14.835,-0.336 1.013,3.107 13.705,0 0.602,-3.107 -15.32,0" /><path
       inkscape:connector-curvature="0"
       id="path624"
       style="fill:#3c3c3c;fill-opacity:1;fill-rule:nonzero;stroke:none"
       d="m 314.884,289.338 -0.467,2.575 -13.171,0 -0.869,-2.575 14.507,0 z m 0.316,-0.197 -15.139,0 0.968,2.968 13.597,0 0.574,-2.968" /><path
       inkscape:connector-curvature="0"
       id="path626"
       style="fill:#3c3c3c;fill-opacity:1;fill-rule:nonzero;stroke:none"
       d="m 306.652,283.153 0,1.107 -1.108,0 0,1.585 1.108,0 0,1.107 1.584,0 0,-1.107 1.108,0 0,-1.585 -1.108,0 0,-1.107 -1.584,0" /><path
       inkscape:connector-curvature="0"
       id="path628"
       style="fill:#3c3c3c;fill-opacity:1;fill-rule:nonzero;stroke:none"
       d="m 314.949,279.479 -14.638,0 0,0.399 c 0,0.345 0.168,0.503 0.325,0.503 l 13.988,0 c 0.157,0 0.325,-0.158 0.325,-0.503 l 0,-0.399 z m -0.325,1.238 -13.988,0 c -0.328,0 -0.661,-0.288 -0.661,-0.839 l 0,-0.735 15.31,0 0,0.735 c 0,0.551 -0.333,0.839 -0.661,0.839" /></g></svg>