<?xml version="1.0" encoding="UTF-8" standalone="no"?>
<!-- Created with Inkscape (http://www.inkscape.org/) -->

<svg
   xmlns:dc="http://purl.org/dc/elements/1.1/"
   xmlns:cc="http://creativecommons.org/ns#"
   xmlns:rdf="http://www.w3.org/1999/02/22-rdf-syntax-ns#"
   xmlns:svg="http://www.w3.org/2000/svg"
   xmlns="http://www.w3.org/2000/svg"
   xmlns:sodipodi="http://sodipodi.sourceforge.net/DTD/sodipodi-0.dtd"
   xmlns:inkscape="http://www.inkscape.org/namespaces/inkscape"
   id="svg2"
   version="1.1"
   inkscape:version="0.91 r13725"
   xml:space="preserve"
   width="621.25"
   height="622.5"
   viewBox="0 0 621.25 622.5"
   sodipodi:docname="06_03_AdjustingColor.svg"><metadata
     id="metadata8"><rdf:RDF><cc:Work
         rdf:about=""><dc:format>image/svg+xml</dc:format><dc:type
           rdf:resource="http://purl.org/dc/dcmitype/StillImage" /><dc:title /></cc:Work></rdf:RDF></metadata><defs
     id="defs6" /><sodipodi:namedview
     pagecolor="#ffffff"
     bordercolor="#666666"
     borderopacity="1"
     objecttolerance="10"
     gridtolerance="10"
     guidetolerance="10"
     inkscape:pageopacity="0"
     inkscape:pageshadow="2"
     inkscape:window-width="1360"
     inkscape:window-height="745"
     id="namedview4"
     showgrid="false"
     inkscape:zoom="0.87710843"
     inkscape:cx="310.625"
     inkscape:cy="311.25"
     inkscape:window-x="-8"
     inkscape:window-y="-8"
     inkscape:window-maximized="1"
     inkscape:current-layer="g10" /><g
     id="g10"
     inkscape:groupmode="layer"
     inkscape:label="Layer 1"
     transform="matrix(1.25,0,0,-1.25,0,622.5)"><g
       id="g12"
       transform="scale(0.1,0.1)"><g
         id="g4643"
         transform="translate(473.42,346.03)"><path
           inkscape:connector-curvature="0"
           id="path14"
           style="fill:#6844a5;fill-opacity:1;fill-rule:nonzero;stroke:none"
           d="m 4023.16,337.66 -72.68,-81.941 -175.27,-2.93 -71.02,89.672 c 0,0 -0.03,14.508 -0.08,39.91 -0.21,19.719 -0.44,40.5 -0.69,62.289 -0.15,5.5 -0.2,12.332 -0.45,16.742 l -0.29,7.407 c -0.23,3.062 -0.46,6.14 -0.7,9.242 -1.03,12.769 -2.09,25.828 -3.17,39.16 -2.14,26.648 -4.36,54.391 -6.67,83.168 -1.15,14.383 -2.31,29.031 -3.5,43.93 -1.17,14.91 -3.68,29.921 -5.5,45.261 -3.97,30.641 -8.06,62.262 -12.27,94.809 -2.13,16.269 -4.3,32.781 -6.49,49.512 -2.99,16.609 -6.01,33.449 -9.07,50.5 -6.09,34.109 -12.34,69.109 -18.73,104.929 -2.8,17.99 -7.33,35.84 -11.43,53.99 -4.15,18.14 -8.35,36.48 -12.6,55 -4.23,18.54 -8.51,37.26 -12.83,56.18 -2.16,9.45 -4.34,18.95 -6.53,28.5 -2.65,9.43 -5.31,18.9 -7.98,28.43 -10.65,38.09 -21.5,76.9 -32.54,116.37 -2.85,9.85 -5.3,19.86 -8.5,29.68 -3.26,9.81 -6.53,19.65 -9.82,29.54 -6.56,19.78 -13.18,39.71 -19.84,59.8 -6.65,20.09 -13.35,40.34 -20.1,60.73 -3.18,10.26 -7.03,20.34 -11,30.4 -3.89,10.09 -7.79,20.22 -11.71,30.39 -15.81,40.59 -31.16,82.02 -47.85,123.49 -18,40.93 -36.21,82.36 -54.63,124.24 -4.64,10.46 -9.1,21.03 -13.92,31.47 -5.13,10.29 -10.26,20.62 -15.41,30.97 -10.28,20.71 -20.62,41.52 -31,62.43 -10.4,20.91 -20.85,41.91 -31.35,63.01 -11.46,20.6 -22.96,41.28 -34.52,62.06 -181.31,334.41 -432.59,659.47 -728.58,936.87 l -56.04,51.44 -28,25.73 c -9.22,8.7 -19.31,16.4 -28.91,24.65 -39,32.34 -77.43,65.3 -116.66,97.09 -40.19,30.59 -80.3,61.12 -120.29,91.56 -9.84,7.83 -20.34,14.72 -30.64,21.88 l -30.95,21.34 c -20.61,14.24 -41.18,28.44 -61.71,42.62 -166,110.84 -338.05,206.51 -510.25,286.68 -43.44,19.21 -86.51,38.26 -129.17,57.13 -43.35,17.21 -86.58,33.5 -129.17,50.09 -42.27,17.48 -85.75,30.09 -128,44.55 -21.19,7.04 -42.25,14.04 -63.18,20.99 l -15.68,5.17 -15.85,4.4 c -10.56,2.94 -21.07,5.86 -31.56,8.77 -41.923,11.67 -83.275,23.17 -124.009,34.5 -41.238,9.33 -81.851,18.53 -121.785,27.56 -20.008,4.32 -39.664,9.52 -59.477,13.03 -19.82,3.47 -39.464,6.9 -58.925,10.31 -38.946,6.67 -77.059,13.86 -114.559,19.83 -37.695,4.69 -74.605,9.29 -110.68,13.79 -18.035,2.26 -35.863,4.5 -53.472,6.71 -17.614,2.24 -35.172,2.86 -52.418,4.35 -34.535,2.59 -68.184,5.1 -100.891,7.55 -16.367,0.99 -32.441,3.01 -48.383,3.11 -15.926,0.39 -31.609,0.76 -47.047,1.14 -19.168,0.47 -35.8824,0.89 -49.6442,1.23 -24.7304,0.62 -38.8593,0.98 -38.8593,0.98 l 6.125,318.89 c 0,0 15.3828,-0.38 42.3047,-1.04 20.1758,-0.51 44.6758,-1.12 72.7778,-1.83 16.796,-0.65 33.898,-0.37 51.191,-1.81 17.301,-1.28 34.859,-2.59 52.68,-3.91 35.629,-2.67 72.281,-5.42 109.902,-8.24 9.398,-0.79 18.887,-1.26 28.379,-2.31 9.48,-1.18 19.019,-2.37 28.621,-3.56 19.195,-2.39 38.625,-4.81 58.285,-7.26 19.656,-2.46 39.539,-4.94 59.645,-7.46 10.05,-1.27 20.16,-2.54 30.32,-3.81 l 15.277,-1.95 15.254,-2.66 c 40.785,-7.15 82.418,-14.45 124.848,-21.89 21.156,-4 42.738,-6.91 64.101,-11.92 21.395,-4.83 42.985,-9.72 64.754,-14.64 21.77,-4.94 43.723,-9.92 65.852,-14.94 22.082,-5.19 44.566,-9.56 66.652,-16.2 44.401,-12.37 89.491,-24.93 135.191,-37.67 181.57,-55 369.78,-124.18 557.44,-211.63 373.85,-177.1 746.14,-423.65 1065.34,-728.54 159.71,-152.06 307.06,-316.91 438.75,-489.4 16.31,-21.68 32.58,-43.32 48.83,-64.91 l 24.24,-32.41 22.8,-33.33 c 15.17,-22.21 30.3,-44.35 45.39,-66.44 l 22.58,-33.1 c 7.5,-11.02 15.18,-21.91 21.97,-33.35 27.95,-45.26 55.73,-90.24 83.31,-134.9 7.09,-11.05 13.38,-22.54 19.71,-33.99 6.35,-11.42 12.7,-22.83 19.03,-34.21 12.65,-22.78 25.25,-45.46 37.8,-68.06 26,-44.7 47.42,-91.34 70.33,-136.65 11.28,-22.74 22.5,-45.38 33.67,-67.9 10.81,-22.69 20.4,-45.81 30.57,-68.51 10.01,-22.78 19.97,-45.43 29.86,-67.96 9.77,-22.58 20.18,-44.73 28.47,-67.61 17.46,-45.39 34.71,-90.22 51.73,-134.45 8.94,-21.96 15.72,-44.53 23.24,-66.65 7.35,-22.18 14.65,-44.2 21.9,-66.06 7.23,-21.86 14.41,-43.55 21.53,-65.07 6.63,-21.67 12.34,-43.43 18.46,-64.87 11.99,-42.96 23.77,-85.19 35.34,-126.64 9.61,-41.95 19.04,-83.11 28.28,-123.43 4.6,-20.16 9.16,-40.12 13.66,-59.86 4.05,-19.82 7.25,-39.6 10.85,-59.06 6.96,-38.971 13.76,-77.041 20.38,-114.159 1.58,-9.293 3.47,-18.472 4.75,-27.691 1.2,-9.219 2.39,-18.391 3.57,-27.488 2.36,-18.203 4.69,-36.16 6.99,-53.871 4.57,-35.411 9,-69.809 13.3,-103.141 6.04,-66.918 10.63,-129.66 15.37,-187.621 0.29,-3.617 0.58,-7.231 0.86,-10.809 l 0.43,-5.371 0.27,-6.41 c 0.18,-4.258 0.35,-8.508 0.52,-12.73 0.09,-3.77 0.19,-7.508 0.28,-11.239 0.23,-14.218 0.46,-28.129 0.68,-41.718 0.08,-12.832 0.15,-25.071 0.22,-36.68 0.05,-26.25 0.07,-41.262 0.07,-41.262" /><path
           inkscape:connector-curvature="0"
           id="path16"
           style="fill:#734baa;fill-opacity:1;fill-rule:nonzero;stroke:none"
           d="m 4023.16,341.09 -72.67,-82.129 c 0,0 0.06,16.07 0.15,44.211 0.01,14.09 0.02,31.207 0.04,50.84 -0.04,11.058 -0.07,22.828 -0.11,35.238 -0.24,20.102 -0.48,40.449 -0.72,61.051 l -0.39,16.008 c -0.23,5.742 -0.47,11.5 -0.7,17.281 -0.83,10.371 -1.66,20.808 -2.5,31.301 -3.37,41.988 -6.82,84.941 -10.33,128.808 -0.89,10.973 -1.78,21.992 -2.67,33.071 -1.41,11.031 -2.83,22.109 -4.25,33.25 -2.88,22.269 -5.78,44.769 -8.72,67.468 -6.09,45.383 -10.92,91.821 -20.22,138.391 -8.38,46.711 -16.89,94.211 -25.53,142.441 -10.93,47.77 -22.02,96.27 -33.26,145.44 -48.3,195.81 -113.35,398.95 -198.3,601.98 -168.9,406.45 -423.36,808.91 -740.55,1154.91 -158.4,173.12 -332.1,332.19 -515.27,472.97 -183.11,140.89 -375.62,263.42 -570.22,366.3 -194.66,102.97 -392.27,183.96 -583.55,247.98 -95.21,33.66 -190.47,57.82 -281.921,83.29 -92.688,20.61 -181.727,43.11 -268.86,56.44 -21.687,3.8 -43.148,7.56 -64.379,11.28 -10.617,1.86 -21.171,3.71 -31.671,5.55 -10.516,1.72 -21.071,2.75 -31.512,4.15 -41.82,5.23 -82.668,10.33 -122.496,15.31 -39.75,5.79 -78.824,7.86 -116.715,10.83 -37.906,2.82 -74.723,5.57 -110.398,8.23 -45.372,1.31 -84.926,2.45 -117.5005,3.38 -28.6445,0.71 -45.0117,1.12 -45.0117,1.12 l 1.4492,72.46 c 0,0 15.332,-0.38 42.1563,-1.04 19.6017,-0.49 43.4067,-1.09 70.7107,-1.77 16.735,-0.6 33.77,-0.49 51.012,-1.7 17.234,-1.27 34.734,-2.57 52.484,-3.89 35.504,-2.66 72.024,-5.4 109.508,-8.21 9.371,-0.71 18.801,-1.43 28.289,-2.15 9.449,-1.18 18.953,-2.36 28.52,-3.54 19.125,-2.39 38.488,-4.8 58.074,-7.24 39.137,-5.14 79.336,-9.35 120.09,-15.64 40.636,-7.13 82.121,-14.4 124.394,-21.8 21.102,-3.9 42.547,-7.1 63.914,-11.67 21.321,-4.82 42.828,-9.68 64.524,-14.59 21.687,-4.91 43.562,-9.87 65.613,-14.88 11.024,-2.5 22.09,-5.02 33.199,-7.54 l 16.7,-3.8 16.574,-4.57 c 44.243,-12.32 89.163,-24.83 134.703,-37.52 180.94,-54.61 368.85,-122.64 555.76,-209.97 186.48,-87.98 372.6,-192.71 551.96,-313.74 22.26,-15.37 44.56,-30.77 66.9,-46.2 22.33,-15.43 44.91,-30.61 66.29,-47.5 43.27,-33.06 87,-65.82 130.15,-99.47 41.98,-35.11 84.03,-70.29 126.13,-105.51 10.67,-8.63 20.75,-17.95 30.83,-27.26 l 30.36,-27.83 60.69,-55.73 c 159.64,-150.95 307.07,-314.65 439.01,-485.96 16.26,-21.6 32.48,-43.16 48.66,-64.67 16.07,-21.6 32.74,-42.68 47.44,-65.11 30.22,-44.25 60.28,-88.28 90.17,-132.05 27.87,-45.07 55.58,-89.87 83.09,-134.35 6.74,-11.2 13.97,-22.09 20.28,-33.49 6.33,-11.38 12.66,-22.75 18.97,-34.09 12.61,-22.69 25.16,-45.29 37.67,-67.8 12.3,-22.62 25.39,-44.7 36.87,-67.5 11.36,-22.87 22.67,-45.63 33.92,-68.28 22.23,-45.45 45.71,-89.76 64.77,-135.57 19.87,-45.42 39.91,-90.19 58.93,-134.74 17.4,-45.22 34.6,-89.89 51.56,-133.96 64.21,-177.53 116.43,-348.78 150.96,-510.03 37.72,-160.549 59.18,-310.4 75.32,-443.299 4.98,-33.14 6.37,-65.562 9.21,-96.711 2.5,-31.179 4.91,-61.238 7.22,-90.121 1.12,-14.617 2.22,-28.937 3.3,-42.957 0.82,-17.461 1.03,-31.062 1.3,-44.82 0.18,-20.102 0.36,-39.262 0.53,-57.453 0.05,-26.168 0.07,-41.129 0.07,-41.129" /><path
           inkscape:connector-curvature="0"
           id="path18"
           style="fill:#5b399e;fill-opacity:1;fill-rule:nonzero;stroke:none"
           d="m 3779.57,259.031 -75.38,86.539 c 0,0 -0.06,18.18 -0.16,50.012 -0.11,11.098 -0.23,22.5 -0.34,34.188 -0.11,5.628 -0.21,11.332 -0.32,17.101 -0.15,5.258 -0.3,10.59 -0.46,15.981 l -0.28,7.269 c -0.25,3.078 -0.51,6.18 -0.76,9.289 -0.5,6.231 -1.01,12.531 -1.53,18.899 -1.03,12.73 -2.08,25.742 -3.15,39.023 -4.75,53.078 -7.32,110.758 -16.58,171.688 -3.94,30.539 -8.01,62.05 -12.2,94.5 -1.04,8.109 -2.09,16.281 -3.15,24.511 -1.14,8.207 -2.85,16.399 -4.27,24.688 -2.97,16.551 -5.97,33.332 -9.02,50.332 -6.06,34 -12.28,68.879 -18.65,104.579 -8.09,35.35 -16.37,71.52 -24.83,108.46 -4.21,18.47 -8.47,37.13 -12.77,55.98 -4.23,18.87 -10.23,37.49 -15.32,56.53 -10.61,37.97 -21.42,76.65 -32.41,116 -12.06,39.02 -25.76,78.26 -38.83,118.37 -6.67,20.01 -13.39,40.18 -20.16,60.49 -7.7,19.97 -15.45,40.1 -23.26,60.36 -7.79,20.26 -15.64,40.67 -23.54,61.2 -7.94,20.52 -15.45,41.37 -24.86,61.59 -17.93,40.79 -36.08,82.09 -54.43,123.84 l -6.91,15.66 -7.65,15.38 c -5.1,10.26 -10.22,20.55 -15.35,30.87 -10.24,20.64 -20.54,41.39 -30.88,62.23 -5.17,10.43 -10.35,20.88 -15.54,31.35 l -7.79,15.73 -8.55,15.39 c -11.42,20.53 -22.88,41.15 -34.4,61.85 -11.5,20.72 -23.04,41.52 -34.63,62.41 -5.6,10.56 -11.92,20.72 -18.28,30.88 -6.3,10.2 -12.62,20.42 -18.95,30.65 -12.64,20.48 -25.33,41.03 -38.06,61.65 -12.68,20.65 -25.25,41.47 -39.42,61.34 -27.53,40.26 -55.23,80.77 -83.06,121.48 -29.66,39.41 -59.47,79.01 -89.4,118.77 -122.76,156.69 -259.64,306.3 -407.57,444.09 -148.04,137.56 -306.25,264.61 -472.46,374 -165.76,110.01 -337.47,204.92 -509.27,284.44 -344.24,158.87 -689.345,248.86 -988.463,293.98 -150.058,20.22 -288.445,33.28 -411.535,36.29 -18.449,0.45 -34.535,0.85 -47.7811,1.18 -24.6484,0.63 -38.7304,0.98 -38.7304,0.98 l 1.3047,64.53 c 0,0 15.6484,-0.22 43.0351,-0.6 6.8477,-0.1 14.4297,-0.21 22.6837,-0.32 25.336,-0.53 52.738,-1.11 82.016,-1.72 34.101,-2.5 69.293,-5.08 105.527,-7.74 18.117,-1.32 36.496,-2.66 55.125,-4.02 9.308,-0.75 18.711,-1.21 28.121,-2.2 9.395,-1.16 18.848,-2.34 28.363,-3.52 38.067,-4.69 77.114,-9.51 117.086,-14.44 9.992,-1.23 20.047,-2.47 30.153,-3.71 10.093,-1.34 20.14,-3.4 30.296,-5.08 20.289,-3.53 40.805,-7.1 61.532,-10.71 20.73,-3.6 41.679,-7.24 62.836,-10.91 10.566,-1.9 21.238,-3.56 31.867,-5.66 10.578,-2.39 21.203,-4.79 31.879,-7.2 42.718,-9.6 86.234,-19.39 130.5,-29.35 11.129,-2.25 22.05,-5.51 33.078,-8.55 11.023,-3.05 22.09,-6.12 33.203,-9.21 22.227,-6.15 44.634,-12.36 67.214,-18.61 11.29,-3.12 22.62,-6.26 34,-9.4 l 17.09,-4.73 16.92,-5.54 c 22.58,-7.45 45.32,-14.96 68.22,-22.53 22.91,-7.55 45.97,-15.15 69.17,-22.8 l 17.43,-5.77 17.19,-6.61 c 11.48,-4.42 23,-8.85 34.54,-13.29 23.11,-8.88 46.35,-17.81 69.73,-26.79 23.36,-9.02 47.05,-17.62 70.03,-28.32 46.34,-20.46 93.19,-41.13 140.49,-62.01 46.28,-23.06 93,-46.34 140.12,-69.82 186.46,-97.83 371.05,-214.56 546.74,-349 175.75,-134.33 342.53,-286.29 494.69,-451.82 304.66,-330.85 549.39,-716.15 711.77,-1105.42 81.7,-194.44 144.29,-389.01 190.81,-576.61 10.84,-47.1 21.55,-93.56 32.09,-139.32 8.32,-46.219 16.53,-91.738 24.59,-136.5 9.07,-44.609 13.49,-89.16 19.49,-132.629 2.85,-21.769 5.68,-43.32 8.48,-64.672 1.33,-10.679 2.94,-21.277 4.04,-31.867 0.86,-10.633 1.72,-21.203 2.57,-31.711 3.44,-42.062 6.81,-83.242 10.1,-123.492 0.78,-9.93 1.78,-20.359 2.35,-29.719 l 0.54,-13.328 0.35,-14.402 c 0.24,-19.719 0.48,-39.188 0.72,-58.418 0.15,-11.332 0.29,-22.082 0.43,-32.18 0.19,-19.441 0.36,-36.391 0.5,-50.352 0.21,-27.968 0.33,-43.949 0.33,-43.949" /><path
           inkscape:connector-curvature="0"
           id="path20"
           style="fill:#734baa;fill-opacity:1;fill-rule:nonzero;stroke:none"
           d="m 39.4766,4077.42 c 14.7695,-0.37 29.8242,-0.75 45.4882,-1.15 36.8162,-1.18 75.0782,-2.41 115.5512,-3.71 146.269,-9.51 328.757,-26.74 533.457,-66.97 204.25,-41.46 430.397,-104.99 661.157,-197.93 29.26,-10.56 57.68,-23.77 86.54,-36.44 28.84,-12.73 57.88,-25.54 87.08,-38.43 l 21.92,-9.72 21.51,-10.75 c 14.36,-7.17 28.76,-14.37 43.2,-21.58 28.88,-14.42 57.91,-28.9 87.07,-43.46 28.74,-15.33 57.08,-31.76 85.82,-47.67 14.34,-8.02 28.71,-16.06 43.1,-24.11 14.26,-8.27 29.09,-15.62 42.94,-24.71 28.08,-17.5 56.25,-35.05 84.49,-52.64 28.19,-17.67 56.89,-34.72 84.02,-54.27 222.01,-148.89 431.14,-323.73 615.47,-512.99 184.59,-189.06 344.3,-392.32 473.75,-593.55 31.29,-50.99 62.53,-100.7 92.16,-149.87 27.86,-50.19 55.1,-99.26 81.63,-147.05 24.31,-48.96 47.97,-96.61 70.91,-142.8 11.98,-22.86 21.19,-46.56 31.48,-69.29 10.02,-22.85 19.86,-45.31 29.53,-67.36 20.22,-43.72 35.92,-87.37 51.9,-128.76 7.93,-20.72 15.69,-40.99 23.27,-60.77 3.69,-9.92 7.75,-19.58 11.01,-29.39 3.22,-9.81 6.41,-19.5 9.56,-29.07 12.57,-38.25 24.48,-74.48 35.67,-108.51 2.8,-8.51 5.55,-16.88 8.26,-25.12 2.68,-8.23 4.67,-16.53 6.98,-24.57 4.45,-16.14 8.73,-31.7 12.85,-46.67 34.91,-119.22 49.89,-202.61 57.4,-235.85 0,0 -4.94,21.41 -14.19,61.54 -4.78,20.02 -9.97,44.9 -17.37,73.81 -8.1,28.74 -17.4,61.78 -27.82,98.77 -42.43,147.52 -110.9,357.2 -225.45,594.75 -14.69,29.48 -29.7,59.57 -44.99,90.24 -7.67,15.32 -15.41,30.78 -23.23,46.38 -8.5,15.24 -17.08,30.61 -25.74,46.12 -17.29,31.01 -34.88,62.55 -52.74,94.58 -8.55,16.23 -19.08,31.47 -28.65,47.42 -9.8,15.82 -19.68,31.74 -29.63,47.78 -38.44,65.01 -83.66,128.07 -128.24,193.58 -5.69,8.11 -11.01,16.52 -17.05,24.44 -6,7.94 -12.02,15.91 -18.06,23.9 -12.07,15.97 -24.2,32.03 -36.38,48.16 -24.52,32.15 -48.31,65.37 -75.27,96.52 -26.28,31.68 -52.78,63.63 -79.47,95.8 -27.42,31.55 -56.3,62.22 -84.64,93.7 -14.3,15.62 -28.43,31.49 -42.98,47.04 -15.05,15.07 -30.14,30.19 -45.27,45.35 -15.12,15.16 -30.28,30.36 -45.47,45.6 -15.3,15.12 -30.04,30.89 -46.31,45.13 -31.88,29.17 -63.89,58.44 -95.99,87.81 -15.78,15 -32.63,28.82 -49.42,42.73 -16.75,13.97 -33.53,27.95 -50.32,41.95 l -50.39,42.04 c -17.13,13.63 -34.83,26.56 -52.22,39.9 l -52.41,39.75 -26.21,19.89 -13.11,9.95 -13.53,9.36 c -36.15,24.86 -72.3,49.72 -108.41,74.56 -9.07,6.15 -17.96,12.57 -27.16,18.5 l -27.9,17.32 c -18.59,11.55 -37.17,23.09 -55.72,34.62 -18.56,11.53 -37.09,23.06 -55.6,34.57 -18.59,11.38 -37.93,21.43 -56.81,32.19 -38.05,21.01 -75.6,42.7 -113.68,63 -77.44,38.16 -153.26,78.12 -231.46,110.55 -19.36,8.53 -38.65,17.02 -57.89,25.49 -9.65,4.13 -19.12,8.69 -28.89,12.46 -9.77,3.75 -19.53,7.5 -29.28,11.23 -38.96,14.97 -77.64,29.83 -116,44.57 -309.437,111.5 -612.062,173.02 -873.261,200.86 -8.152,1.01 -16.262,2.01 -24.328,3.01 -8.082,0.87 -16.168,1.25 -24.184,1.89 -16.039,1.17 -31.906,2.32 -47.589,3.47 -31.368,2.3 -62.008,4.54 -91.879,6.73 -7.469,0.54 -14.887,1.09 -22.258,1.63 -7.379,0.39 -14.731,0.4 -22.02,0.61 -14.586,0.33 -28.972,0.66 -43.156,0.98 -4.434,0.06 -8.738,0.12 -12.91,0.18 -14.8947,0.19 -27.883,0.35 -38.5783,0.48 -21.3828,0.28 -33.6015,0.43 -33.6015,0.43 0.1914,2.8 -0.2032,9.03 -0.0586,11.84" /><path
           inkscape:connector-curvature="0"
           id="path22"
           style="fill:#ebd37f;fill-opacity:1;fill-rule:nonzero;stroke:none"
           d="m 4023.16,341.09 c -69.16,0.492 -72.63,-73.211 -72.63,-73.211 0,0 -4.07,75.172 -90.62,75.82 -86.48,0.66 -80.19,-73.699 -80.19,-73.699 0,0 -4.12,75.109 -75.53,75.582 -0.05,-12.172 39.04,-97.953 77.7,-181.531 19.61,-41.781 38.86,-82.7893 53.2,-113.3596 C 3849.76,20.1211 3859.41,0 3859.41,0 c 0,0 10.08,18.9688 25.49,47.9688 15.35,28.9804 35.88,67.9922 56.38,108.2422 41.05,80.398 81.8,166.141 81.88,184.879" /><path
           inkscape:connector-curvature="0"
           id="path24"
           style="fill:#d7bc5a;fill-opacity:1;fill-rule:nonzero;stroke:none"
           d="m 3779.72,270 c 0,0 -4.12,75.121 -75.53,75.582 -0.05,-12.172 39.04,-97.953 77.7,-181.531 19.61,-41.781 38.86,-82.7893 53.2,-113.3596 C 3849.76,20.1211 3859.41,0 3859.41,0 c 0,0 0.52,0.96875 1.44,2.71094 C 3845.43,59.4805 3825.39,126.441 3808.9,179.051 3792.47,231.691 3779.72,270 3779.72,270" /><path
           inkscape:connector-curvature="0"
           id="path26"
           style="fill:#e2c462;fill-opacity:1;fill-rule:nonzero;stroke:none"
           d="m 3903.43,122.609 -7.57,0.121 c 0,0 18.67,49.989 23.48,102.711 4.83,52.7 -4.36,108.188 -59.43,118.258 18.32,-1.367 87.14,-3.199 90.64,-72.058 -13.49,-44.262 -47.12,-149.032 -47.12,-149.032" /><path
           inkscape:connector-curvature="0"
           id="path28"
           style="fill:#6844a5;fill-opacity:1;fill-rule:nonzero;stroke:none"
           d="M 3800.02,124.262 C 3831.8,56.6797 3859.41,0 3859.41,0 c 0,0 29.94,55.7305 64.44,122.281 l -123.83,1.981" /><path
           inkscape:connector-curvature="0"
           id="path30"
           style="fill:#5b399e;fill-opacity:1;fill-rule:nonzero;stroke:none"
           d="m 3815.85,124 c 23.72,-68.8594 43.56,-124 43.56,-124 0,0 -6.9,53.0586 -14.36,123.539 l -29.2,0.461" /><path
           inkscape:connector-curvature="0"
           id="path32"
           style="fill:#7e53af;fill-opacity:1;fill-rule:nonzero;stroke:none"
           d="m 3871,123.129 c -3.62,-47.8204 -5.74,-88.9493 -5.74,-88.9493 0,0 11.77,35.8398 30.6,88.5503 l -24.86,0.399" /><path
           inkscape:connector-curvature="0"
           id="path34"
           style="fill:#ebd37f;fill-opacity:1;fill-rule:nonzero;stroke:none"
           d="m 81.2344,4246.53 c 0,0 -8.8281,18.35 -17.6524,36.69 -8.9961,18.34 -17.9922,36.69 -17.9922,36.69 C 31.1797,4296.09 17.0234,4272.27 3.125,4248.45 L 0,4071.92 c 12.2656,-23.61 24.3047,-47.21 36.1172,-70.81 0,0 9.9453,15.87 19.8945,31.74 10.1172,15.87 20.2344,31.74 20.2344,31.74 l 4.9883,181.94" /><path
           inkscape:connector-curvature="0"
           id="path36"
           style="fill:#5b399e;fill-opacity:1;fill-rule:nonzero;stroke:none"
           d="m 35.8984,4202.69 c -4.1093,0.19 -8.0507,-5.75 -11.2461,-15.77 3.5235,19.91 9.2422,33.03 15.3516,32.76 9.5039,-0.42 16.0859,-32.82 14.7344,-72.38 -0.75,-22.32 -3.793,-42.14 -7.9063,-55.12 1.9688,11 3.3516,24.05 3.8047,38.13 1.3086,39.56 -5.2734,71.97 -14.7383,72.38" /><path
           inkscape:connector-curvature="0"
           id="path38"
           style="fill:#6844a5;fill-opacity:1;fill-rule:nonzero;stroke:none"
           d="m 35.8516,4076.41 c -9.0977,0.41 -15.7344,32.82 -14.7891,72.38 0.3438,14.09 1.6406,27.13 3.5898,38.13 3.1954,10.02 7.1368,15.96 11.2461,15.77 9.4649,-0.41 16.0469,-32.82 14.7383,-72.38 -0.4531,-14.08 -1.8359,-27.13 -3.8047,-38.13 -3.1836,-10.01 -7.0078,-15.95 -10.9804,-15.77" /><path
           inkscape:connector-curvature="0"
           id="path40"
           style="fill:#d7bc5a;fill-opacity:1;fill-rule:nonzero;stroke:none"
           d="M 46.3242,4319.89 C 31.6641,4296.08 17.2656,4272.27 3.125,4248.45 L 0,4071.92 c 12.2656,-23.61 24.3047,-47.21 36.1172,-70.81 l -30.04298,72.04 2.98437,175.15 c 12.19921,23.87 24.62111,47.73 37.26561,71.59" /><path
           inkscape:connector-curvature="0"
           id="path42"
           style="fill:#5687cd;fill-opacity:1;fill-rule:nonzero;stroke:none"
           d="m 3605.43,337.66 -72.7,-81.961 -175.27,-2.89 -71,89.652 c 0,0 -0.03,14.5 -0.09,39.879 -0.17,17.64 -0.36,36.23 -0.56,55.719 -0.12,5.101 -0.25,10.25 -0.37,15.461 l -0.24,7.062 -0.27,6.359 c -0.92,11.059 -1.86,22.36 -2.82,33.899 -2.01,23.539 -4.1,48.039 -6.27,73.449 -2.47,25.391 -3.55,51.852 -7.84,78.832 -13.77,108.27 -31.67,230.348 -63.1,361.039 -59.44,261.81 -164.41,560.5 -327.28,854.75 -10.27,18.33 -20.57,36.73 -30.92,55.2 -5.17,9.24 -10.35,18.5 -15.54,27.78 -5.24,9.24 -11.15,18.11 -16.71,27.22 -22.57,36.21 -45.31,72.68 -68.19,109.37 -24.51,35.62 -49.18,71.46 -73.96,107.48 -11.99,18.3 -25.82,35.34 -38.96,52.95 -13.26,17.51 -26.56,35.05 -39.88,52.64 -108.2,139.38 -228.99,272.54 -359.64,395.26 l -49.65,45.31 -24.8,22.66 c -8.18,7.65 -16.53,15.11 -25.26,22.11 -34.41,28.64 -68.78,57.24 -103.09,85.8 -35.55,26.97 -71.03,53.89 -106.41,80.73 -17.41,13.8 -36,25.91 -54.2,38.5 -18.24,12.53 -36.45,25.04 -54.62,37.52 -146.5,98.17 -298.34,183.02 -450.31,254.28 -152.25,70.88 -305.36,125.58 -452.585,169.78 -37.051,10.28 -73.594,20.43 -109.59,30.41 -36.184,9.25 -72.27,16.55 -107.496,24.76 -17.645,4 -35.137,7.96 -52.477,11.88 -17.43,3.46 -34.852,6.17 -52.031,9.26 -34.391,6.02 -68.133,11.93 -101.188,17.71 -33.199,4.84 -65.898,8.34 -97.746,12.48 -15.937,1.99 -31.691,3.96 -47.254,5.9 -7.785,0.92 -15.5,2.06 -23.211,2.79 -7.726,0.57 -15.406,1.13 -23.035,1.69 -30.515,2.27 -60.246,4.48 -89.148,6.63 -14.453,1.09 -28.696,2.16 -42.727,3.21 -14.051,0.73 -27.926,0.78 -41.558,1.19 -18.821,0.46 -35.227,0.87 -48.7387,1.2 -24.6055,0.62 -38.664,0.97 -38.664,0.97 l 6.5351,318.88 c 0,0 15.457,-0.38 42.5039,-1.04 19.3987,-0.49 42.9457,-1.08 69.9607,-1.76 7.496,-0.21 15.055,-0.41 22.672,-0.62 7.602,-0.56 15.262,-1.12 22.985,-1.69 15.437,-1.14 31.109,-2.3 47.011,-3.47 31.797,-2.39 64.508,-4.83 98.082,-7.35 33.492,-3.36 67.723,-8.15 102.828,-12.35 17.543,-2.19 35.289,-4.4 53.235,-6.64 8.969,-1.14 17.984,-2.28 27.051,-3.43 9.007,-1.56 18.062,-3.14 27.164,-4.72 36.402,-6.36 73.562,-12.85 111.433,-19.46 9.465,-1.66 18.977,-3.33 28.531,-5.01 9.536,-1.77 18.993,-4.16 28.559,-6.23 19.102,-4.3 38.371,-8.64 57.805,-13.02 19.433,-4.39 39.027,-8.81 58.781,-13.28 9.863,-2.28 19.816,-4.37 29.719,-6.84 9.836,-2.72 19.711,-5.45 29.625,-8.19 39.644,-11 79.89,-22.17 120.698,-33.49 161.92,-49.63 329.55,-112.19 497,-190.24 333.75,-158.11 664.85,-379.62 950.26,-651.02 284.88,-271.67 525.27,-588.95 700.08,-914 87.25,-162.58 160.13,-325.78 218.77,-484.51 14.28,-39.8 27.04,-79.54 40.29,-118.44 6.42,-19.52 13.29,-38.73 19.18,-58.08 5.55,-19.46 11.05,-38.76 16.5,-57.9 10.66,-38.34 22.09,-75.79 31.52,-113.01 8.74,-37.4 17.32,-74.1 25.72,-110.05 4.06,-18 8.62,-35.71 12.13,-53.42 3.27,-17.77 6.51,-35.348 9.71,-52.72 6.37,-34.75 12.59,-68.699 18.65,-101.8 5.47,-33.188 9.16,-65.782 13.61,-97.328 4.13,-31.602 8.57,-62.243 12.05,-92.02 5.09,-59.762 9.85,-115.691 14.26,-167.402 0.31,-2.918 0.46,-7.16 0.64,-11.059 0.17,-3.93 0.34,-7.84 0.51,-11.73 0.18,-6.77 0.35,-13.461 0.52,-20.082 0.18,-12.547 0.36,-24.817 0.53,-36.809 0.08,-11.648 0.15,-22.758 0.21,-33.301 0.05,-26.277 0.08,-41.289 0.08,-41.289" /><path
           inkscape:connector-curvature="0"
           id="path44"
           style="fill:#6d9dd9;fill-opacity:1;fill-rule:nonzero;stroke:none"
           d="m 3605.43,341.09 -72.68,-82.149 c 0,0 0.05,16.079 0.15,44.207 0.01,14.102 0.03,31.223 0.04,50.864 -0.03,10.91 -0.07,22.519 -0.11,34.758 -0.19,17.8 -0.38,35.832 -0.57,54.082 -0.29,9.668 -0.33,18.367 -0.83,29.007 -0.27,5.032 -0.36,10.832 -0.81,15.282 l -1.18,13.968 c -3.18,37.383 -6.44,75.61 -9.76,114.672 -16.46,155.758 -40.65,324.41 -85.06,498.609 -43.11,174.36 -101.15,355.24 -176.9,536.03 -151.49,361.48 -377.47,720.09 -660.03,1028.23 -141.01,154.22 -295.6,295.97 -458.59,421.52 -162.95,125.62 -334.19,235.07 -507.38,326.95 -173.65,91.11 -349.07,164.35 -519.35,221.72 -21.34,7.04 -42.53,14.03 -63.58,20.98 -10.52,3.46 -21,6.92 -31.45,10.36 -10.58,2.98 -21.129,5.94 -31.637,8.9 -42.078,11.66 -83.515,23.15 -124.265,34.45 -41.036,10.14 -81.735,18.71 -121.497,27.86 -19.929,4.35 -39.554,9.25 -59.211,13 -19.71,3.45 -39.226,6.86 -58.546,10.24 -38.668,6.53 -76.391,13.86 -113.52,19.27 -37.242,4.64 -73.629,9.17 -109.098,13.59 -17.738,2.17 -35.25,4.32 -52.527,6.43 -17.355,1.3 -34.473,2.58 -51.351,3.85 -33.758,2.51 -66.547,4.95 -98.321,7.31 -7.941,0.56 -15.824,1.11 -23.64,1.66 -7.832,0.2 -15.598,0.4 -23.301,0.59 -8.469,0.22 -16.793,0.43 -24.973,0.63 -4.672,0.12 -9.176,0.23 -13.5,0.34 -8.656,0.21 -16.6053,0.41 -23.785,0.59 -28.7188,0.71 -45.1289,1.11 -45.1289,1.11 l 1.5468,72.46 c 0,0 15.4024,-0.38 42.3555,-1.04 18.8866,-0.47 41.8206,-1.05 68.1286,-1.71 7.473,-0.19 15,-0.39 22.59,-0.58 7.578,-0.54 15.211,-1.08 22.903,-1.62 15.382,-1.14 31,-2.29 46.843,-3.46 31.684,-2.38 64.278,-4.81 97.731,-7.32 33.394,-3.1 67.484,-8.05 102.468,-12.17 17.481,-2.18 35.165,-4.39 53.043,-6.62 8.938,-1.12 17.926,-2.25 26.961,-3.38 9.008,-1.32 18.004,-3.06 27.082,-4.58 72.485,-12.95 148.407,-24.35 225.547,-43.37 19.364,-4.37 38.891,-8.79 58.571,-13.23 9.839,-2.23 19.722,-4.47 29.64,-6.71 9.852,-2.51 19.656,-5.38 29.543,-8.06 39.5,-10.96 79.606,-22.08 120.258,-33.36 161.42,-49.15 328.58,-111.12 495.64,-188.48 332.46,-157.5 663.67,-376.32 948.3,-646.58 142.35,-134.85 273.83,-281.02 391.51,-433.95 14.57,-19.23 29.1,-38.43 43.61,-57.58 l 21.71,-28.7 20.39,-29.56 c 26.96,-39.49 54.46,-78.35 80.48,-117.83 24.99,-40.15 49.84,-80.06 74.5,-119.68 l 9.22,-14.86 8.55,-15.23 c 5.69,-10.13 11.37,-20.26 17.04,-30.36 11.32,-20.21 22.6,-40.34 33.83,-60.39 23.23,-39.69 42.79,-80.9 63.17,-121.19 10.1,-20.18 20.16,-40.28 30.16,-60.27 10.08,-19.95 18.42,-40.61 27.62,-60.72 8.98,-20.22 17.92,-40.33 26.8,-60.32 4.43,-10 8.85,-19.97 13.26,-29.91 l 6.6,-14.89 5.92,-15.13 c 15.69,-40.29 31.19,-80.1 46.48,-119.37 3.72,-9.86 7.84,-19.53 11.19,-29.44 3.34,-9.92 6.67,-19.8 9.99,-29.64 6.62,-19.7 13.2,-39.25 19.73,-58.66 6.51,-19.41 12.98,-38.67 19.39,-57.78 6.56,-19.07 11.3,-38.53 16.96,-57.53 10.84,-38.14 21.49,-75.65 31.94,-112.46 9.36,-37.1 17.47,-73.78 25.97,-109.57 4.17,-17.91 8.3,-35.63 12.38,-53.17 4.42,-17.46 6.82,-35.141 10.26,-52.398 6.35,-34.633 12.56,-68.454 18.61,-101.43 6.72,-32.871 9.96,-65.41 14.48,-96.84 4.22,-31.473 8.31,-62.043 12.27,-91.66 2.27,-14.781 3.19,-29.461 4.49,-43.852 1.23,-14.41 2.45,-28.558 3.64,-42.468 2.36,-27.821 4.64,-54.633 6.83,-80.391 0.54,-6.449 1.08,-12.82 1.61,-19.129 l 0.4,-4.723 0.28,-5.617 c 0.17,-3.832 0.34,-7.64 0.51,-11.441 0.19,-6.742 0.38,-13.403 0.57,-19.992 0.11,-6.219 0.22,-12.36 0.34,-18.438 0.16,-17.973 0.32,-35.109 0.47,-51.371 0.05,-26.191 0.08,-41.16 0.08,-41.16" /><path
           inkscape:connector-curvature="0"
           id="path46"
           style="fill:#3d63b8;fill-opacity:1;fill-rule:nonzero;stroke:none"
           d="m 3361.82,259.051 -75.36,86.519 c 0,0 -0.06,17.68 -0.17,48.629 -0.09,9.86 -0.19,19.992 -0.29,30.371 -0.2,9.922 -0.4,20.078 -0.6,30.489 -0.17,4.211 -0.33,8.48 -0.5,12.793 -0.45,5.367 -0.9,10.796 -1.35,16.289 -0.97,11.25 -1.95,22.738 -2.96,34.468 -2,23.473 -4.08,47.891 -6.23,73.223 -1.08,12.66 -2.18,25.559 -3.3,38.668 -1.76,13.051 -3.56,26.309 -5.38,39.789 -3.61,26.973 -7.35,54.801 -11.19,83.449 -2.11,14.293 -3.39,28.934 -6.26,43.524 -2.69,14.609 -5.42,29.429 -8.19,44.429 -5.5,30.02 -11.14,60.809 -16.91,92.329 -6.28,31.41 -14.51,63.171 -21.89,95.82 -13.76,65.59 -34.45,132.26 -53.87,201.79 -4.54,17.48 -10.84,34.58 -16.6,52 -5.85,17.4 -11.74,34.93 -17.68,52.59 -5.93,17.67 -11.91,35.48 -17.92,53.41 -6.17,17.88 -13.62,35.44 -20.42,53.38 -53.01,144.06 -122.52,290.81 -203.51,437.29 -161,293.77 -383.22,579.26 -644.48,822.95 -260.14,245.49 -563.8,441.75 -866.81,582.89 -38.28,16.85 -76.24,33.55 -113.84,50.1 -37.95,15.67 -76.23,29.53 -113.7,44.2 -37.27,15.26 -75.33,27.01 -112.65,39.4 -37.436,12.02 -73.936,25.48 -111.127,34.84 -36.926,10.25 -73.348,20.36 -109.227,30.32 -36.16,8.82 -72.054,16.38 -107.183,24.48 -17.586,3.98 -35.02,7.93 -52.301,11.84 -17.453,3.05 -34.754,6.07 -51.895,9.06 -34.273,6 -67.906,11.89 -100.851,17.66 -33.133,4.52 -65.688,8.23 -97.442,12.29 -31.8,3.64 -62.707,8.73 -93.199,10.23 -30.414,2.26 -60.047,4.46 -88.851,6.6 -14.407,1.09 -28.602,2.15 -42.586,3.21 -14.024,0.37 -27.832,0.73 -41.426,1.09 -18.192,0.44 -34.047,0.83 -47.1056,1.15 -24.5234,0.62 -38.5351,0.97 -38.5351,0.97 l 1.3867,64.53 c 0,0 15.6015,-0.22 42.9062,-0.6 6.8281,-0.09 14.3867,-0.19 22.6168,-0.31 4.114,-0.05 8.399,-0.11 12.84,-0.17 5.594,-0.11 11.289,-0.23 17.082,-0.34 14.641,-0.51 29.571,-0.21 44.653,-1.67 30.199,-2.2 61.363,-4.48 93.453,-6.82 16.043,-1.16 32.32,-2.33 48.816,-3.53 16.508,-1.12 33.078,-3.82 49.953,-5.69 33.715,-4.13 68.297,-8.37 103.696,-12.7 17.765,-1.76 35.453,-5.39 53.441,-8.38 17.969,-3.11 36.137,-6.26 54.496,-9.43 18.363,-3.17 36.914,-6.37 55.656,-9.61 9.403,-1.44 18.754,-3.39 28.098,-5.61 9.367,-2.1 18.777,-4.21 28.238,-6.33 37.828,-8.49 76.367,-17.14 115.571,-25.94 38.738,-10.68 78.129,-21.53 118.129,-32.56 10.003,-2.75 20.042,-5.51 30.121,-8.28 10.046,-2.87 19.925,-6.43 29.953,-9.63 20.003,-6.57 40.153,-13.19 60.443,-19.85 162.02,-53.96 329.18,-122.73 494.51,-209.14 164.98,-86.96 328.32,-190.55 483.83,-309.75 155.54,-119.1 303.19,-253.76 437.92,-400.39 270,-292.98 486.19,-634.39 631.15,-978.66 72.47,-172.19 128.03,-344.49 169.36,-510.61 42.61,-165.962 65.87,-326.7 81.68,-475.219 3.24,-37.243 6.41,-73.7 9.52,-109.34 l 1.16,-13.332 0.55,-11.649 c 0.23,-8.468 0.47,-16.898 0.7,-25.269 0.2,-17.539 0.41,-34.871 0.61,-51.981 0.15,-11.261 0.3,-21.949 0.43,-32 0.19,-19.429 0.36,-36.371 0.5,-50.328 0.2,-27.961 0.32,-43.941 0.32,-43.941" /><path
           inkscape:connector-curvature="0"
           id="path48"
           style="fill:#6d9dd9;fill-opacity:1;fill-rule:nonzero;stroke:none"
           d="m 39.375,3659.94 c 14.7305,-0.36 29.7422,-0.74 45.3672,-1.13 7.8125,-0.23 15.7778,-0.46 23.9378,-0.7 4.078,-0.12 8.203,-0.24 12.386,-0.37 9.805,-0.25 19.672,-0.5 29.606,-0.75 13.504,-0.07 27.043,-1.18 40.676,-2.26 64.711,-5.4 137.738,-8.54 216.793,-20.08 79.461,-8.25 164.722,-24.21 255.535,-40.75 181.008,-36.44 381.024,-93.95 585.344,-176.43 12.96,-4.69 25.61,-10.24 38.27,-15.9 12.7,-5.58 25.44,-11.18 38.22,-16.8 25.58,-11.22 51.32,-22.52 77.21,-33.89 25.65,-11.88 50.88,-25.06 76.56,-37.62 25.55,-12.83 51.48,-25.26 77.09,-38.58 25.22,-14.05 50.55,-28.16 75.98,-42.33 12.72,-7.07 25.46,-14.16 38.22,-21.27 l 19.14,-10.7 18.66,-11.58 c 24.92,-15.44 49.91,-30.93 74.96,-46.46 l 37.64,-23.3 36.61,-25.05 c 196.59,-132.01 381.82,-286.91 545.14,-454.56 21.15,-20.25 40.21,-42.36 59.93,-63.69 19.59,-21.44 39.1,-42.8 58.52,-64.06 19.18,-21.47 36.96,-43.98 55.37,-65.74 18.2,-21.94 36.31,-43.75 54.31,-65.44 17.01,-22.46 33.93,-44.78 50.73,-66.95 8.4,-11.09 16.77,-22.13 25.12,-33.13 8.28,-11.06 16.9,-21.8 24.43,-33.26 15.54,-22.59 30.96,-45 46.25,-67.22 7.65,-11.11 15.26,-22.18 22.84,-33.19 l 11.35,-16.48 10.59,-16.87 c 115.1,-178.04 205.41,-352.99 271.37,-510.29 4.32,-9.75 8.6,-19.41 12.84,-28.97 4.03,-9.65 7.58,-19.39 11.34,-28.93 7.41,-19.12 14.67,-37.86 21.77,-56.19 7.1,-18.33 14.04,-36.25 20.82,-53.74 3.55,-8.7 6.59,-17.45 9.38,-26.17 2.89,-8.69 5.75,-17.26 8.57,-25.72 11.28,-33.84 21.95,-65.89 31.98,-96 5.33,-14.96 9.15,-29.85 13.19,-44.11 3.99,-14.28 7.84,-28.05 11.55,-41.3 7.38,-26.48 14.18,-50.85 20.35,-72.97 6.24,-22.1 9.93,-42.43 14.15,-60.05 7.91,-35.38 13.53,-61.04 16.56,-75.839 0,0 -4.46,18.939 -12.83,54.449 -4.17,17.75 -9.32,39.65 -15.38,65.39 -6.94,25.51 -15.58,54.67 -24.87,87.41 -37.53,130.68 -98.38,316.37 -200.1,526.66 -51.81,104.52 -110.02,216.97 -181.98,329.73 -69.49,114.27 -152.84,228.36 -243.59,342.43 -23.37,27.98 -46.94,56.19 -70.68,84.61 -11.58,14.45 -24.38,27.94 -36.95,41.7 -12.6,13.74 -25.23,27.53 -37.9,41.37 -12.67,13.83 -25.37,27.71 -38.11,41.63 -12.82,13.84 -26.63,26.8 -39.95,40.31 -26.97,26.66 -53.66,53.9 -81.18,80.48 -111.63,104.82 -231.81,203.76 -357.33,295.47 -126.97,89.72 -259.36,171.43 -394.21,243.62 -34.23,17.01 -68.32,33.96 -102.24,50.82 -17.06,8.23 -33.7,17.23 -50.98,24.76 -17.26,7.54 -34.47,15.07 -51.63,22.58 -17.16,7.51 -34.26,15 -51.31,22.46 -17.06,7.43 -33.92,15.21 -51.33,21.43 -34.53,13.19 -68.81,26.28 -102.8,39.27 -8.5,3.25 -16.98,6.49 -25.44,9.73 -8.6,2.84 -17.19,5.66 -25.75,8.49 -17.14,5.61 -34.2,11.2 -51.19,16.77 -16.97,5.57 -33.87,11.12 -50.683,16.64 -8.41,2.74 -16.797,5.49 -25.164,8.22 -8.484,2.33 -16.949,4.66 -25.39,6.98 -33.762,9.29 -67.157,18.48 -100.149,27.56 -8.246,2.27 -16.469,4.54 -24.664,6.8 -8.223,2.16 -16.551,3.78 -24.777,5.69 -16.493,3.68 -32.875,7.34 -49.149,10.97 -32.586,7.04 -64.531,14.97 -96.347,21.03 -31.926,5.51 -63.364,10.93 -94.282,16.26 -15.457,2.68 -30.781,5.33 -45.968,7.96 -15.168,2.78 -30.438,3.96 -45.434,6 -30.047,3.68 -59.535,7.29 -88.418,10.82 -14.453,1.65 -28.699,3.82 -42.895,4.98 -14.207,1.03 -28.253,2.04 -42.144,3.04 -27.777,2.01 -54.914,3.98 -81.367,5.9 -13.235,0.87 -26.274,2.13 -39.176,2.65 -12.914,0.29 -25.656,0.58 -38.219,0.86 -4.355,0.05 -8.59,0.11 -12.691,0.16 -14.8517,0.19 -27.801,0.35 -38.465,0.48 -21.3164,0.27 -33.5,0.42 -33.5,0.42 0.1914,2.8 -0.1953,9.03 -0.043,11.83" /><path
           inkscape:connector-curvature="0"
           id="path50"
           style="fill:#ebd37f;fill-opacity:1;fill-rule:nonzero;stroke:none"
           d="m 3605.43,341.09 c -69.17,0.48 -72.64,-73.231 -72.64,-73.231 0,0 -4.07,75.192 -90.62,75.84 -86.48,0.66 -80.2,-73.687 -80.2,-73.687 0,0 -4.11,75.109 -75.51,75.57 -0.05,-12.152 39.03,-97.91 77.65,-181.5 19.59,-41.781 38.82,-82.8007 53.16,-113.3828 C 3431.92,20.1289 3441.57,0 3441.57,0 c 0,0 10.08,18.9609 25.51,47.9609 15.36,28.9688 35.9,67.9801 56.42,108.2191 41.08,80.39 81.84,166.152 81.93,184.91" /><path
           inkscape:connector-curvature="0"
           id="path52"
           style="fill:#d7bc5a;fill-opacity:1;fill-rule:nonzero;stroke:none"
           d="m 3361.97,270.012 c 0,0 -4.11,75.109 -75.51,75.57 -0.05,-12.152 39.03,-97.91 77.65,-181.5 19.59,-41.781 38.82,-82.8007 53.16,-113.3828 C 3431.92,20.1289 3441.57,0 3441.57,0 c 0,0 0.51,0.96875 1.44,2.71094 C 3427.6,59.4922 3407.6,126.461 3391.13,179.07 c -16.42,52.641 -29.16,90.942 -29.16,90.942" /><path
           inkscape:connector-curvature="0"
           id="path54"
           style="fill:#e2c462;fill-opacity:1;fill-rule:nonzero;stroke:none"
           d="m 3485.64,122.59 -7.57,0.129 c 0,0 18.69,49.98 23.51,102.703 4.85,52.699 -4.34,108.207 -59.41,118.277 18.32,-1.367 87.15,-3.199 90.63,-72.078 -13.49,-44.262 -47.16,-149.031 -47.16,-149.031" /><path
           inkscape:connector-curvature="0"
           id="path56"
           style="fill:#5687cd;fill-opacity:1;fill-rule:nonzero;stroke:none"
           d="M 3382.22,124.281 C 3413.97,56.6914 3441.57,0 3441.57,0 c 0,0 29.96,55.7188 64.49,122.262 l -123.84,2.019" /><path
           inkscape:connector-curvature="0"
           id="path58"
           style="fill:#3459b1;fill-opacity:1;fill-rule:nonzero;stroke:none"
           d="M 3398.06,124.02 C 3421.75,55.1602 3441.57,0 3441.57,0 c 0,0 -6.88,53.0703 -14.32,123.551 l -29.19,0.469" /><path
           inkscape:connector-curvature="0"
           id="path60"
           style="fill:#86b5e4;fill-opacity:1;fill-rule:nonzero;stroke:none"
           d="m 3453.2,123.121 c -3.63,-47.8124 -5.78,-88.9491 -5.78,-88.9491 0,0 11.79,35.8398 30.65,88.5471 l -24.87,0.402" /><path
           inkscape:connector-curvature="0"
           id="path62"
           style="fill:#ebd37f;fill-opacity:1;fill-rule:nonzero;stroke:none"
           d="m 81.4492,3829.06 c 0,0 -8.8164,18.34 -17.6328,36.68 -9.0039,18.35 -18.0117,36.69 -18.0117,36.69 -14.5078,-23.81 -28.7344,-47.64 -42.67189,-71.46 L 0,3654.44 c 12.2305,-23.6 24.207,-47.21 35.9297,-70.81 0,0 9.9258,15.88 19.8555,31.75 10.1132,15.88 20.2304,31.75 20.2304,31.75 l 5.4336,181.93" /><path
           inkscape:connector-curvature="0"
           id="path64"
           style="fill:#3d63b8;fill-opacity:1;fill-rule:nonzero;stroke:none"
           d="m 35.9453,3785.22 c -4.1172,0.18 -8.0664,-5.75 -11.2734,-15.77 3.5429,19.91 9.2851,33.02 15.4023,32.75 9.5235,-0.41 16.0625,-32.82 14.6406,-72.38 -0.7851,-22.31 -3.8593,-42.14 -7.9843,-55.11 1.9843,11 3.3828,24.05 3.8593,38.13 1.375,39.56 -5.164,71.96 -14.6445,72.38" /><path
           inkscape:connector-curvature="0"
           id="path66"
           style="fill:#5687cd;fill-opacity:1;fill-rule:nonzero;stroke:none"
           d="m 35.7539,3658.94 c -9.0664,0.41 -15.6641,32.81 -14.6992,72.38 0.3516,14.08 1.6562,27.12 3.6172,38.13 3.207,10.02 7.1562,15.95 11.2734,15.77 9.4805,-0.42 16.0195,-32.82 14.6445,-72.38 -0.4765,-14.08 -1.875,-27.13 -3.8593,-38.13 -3.1914,-10.02 -7.0117,-15.95 -10.9766,-15.77" /><path
           inkscape:connector-curvature="0"
           id="path68"
           style="fill:#d7bc5a;fill-opacity:1;fill-rule:nonzero;stroke:none"
           d="M 46.543,3902.41 C 31.7813,3878.6 17.3125,3854.79 3.13281,3830.97 L 0,3654.44 c 12.2305,-23.6 24.207,-47.21 35.9297,-70.81 -9.7383,24.01 -19.6992,48.03 -29.87111,72.05 l 3.02344,175.15 c 12.23827,23.86 24.72657,47.72 37.46097,71.58" /><path
           inkscape:connector-curvature="0"
           id="path70"
           style="fill:#3ab099;fill-opacity:1;fill-rule:nonzero;stroke:none"
           d="m 3188.26,337.641 -72.68,-81.911 -175.27,-2.949 -71.02,89.699 c 0,0 -0.03,14.532 -0.08,39.942 -0.13,15.558 -0.27,31.957 -0.42,49.148 -0.18,8.981 -0.37,18.16 -0.56,27.559 -0.17,3.601 -0.34,7.25 -0.52,10.941 -0.44,5.012 -0.88,10.071 -1.34,15.18 -3.8,40.898 -7,85.219 -11.95,132.41 -3.21,23.512 -6.52,47.77 -9.93,72.738 -1.69,12.493 -3.41,25.161 -5.15,38 -0.88,6.422 -1.77,12.891 -2.66,19.391 -1.21,6.461 -2.42,12.953 -3.64,19.492 -4.86,26.16 -9.84,53 -14.94,80.469 -2.69,13.699 -4.77,27.699 -8.03,41.609 -3.29,13.903 -6.61,27.961 -9.97,42.161 -6.72,28.41 -13.58,57.402 -20.57,86.96 -8.38,29.18 -16.92,58.92 -25.6,89.17 -4.47,15.08 -8.39,30.47 -13.38,45.67 -5.14,15.15 -10.33,30.41 -15.56,45.8 -5.21,15.39 -10.46,30.89 -15.75,46.51 -5.32,15.61 -10.32,31.46 -16.77,46.9 -12.22,31.14 -24.61,62.7 -37.15,94.65 -5.88,16.13 -13.56,31.63 -20.51,47.54 -7.1,15.85 -14.24,31.79 -21.42,47.82 -7.31,15.97 -14.05,32.3 -21.91,48.21 -8.02,15.84 -16.07,31.76 -24.16,47.75 -16.39,31.88 -31.68,64.73 -50.37,96.12 -18.19,31.63 -35.57,64.11 -54.74,95.83 -19.7,31.4 -39.56,63.02 -59.53,94.84 -20.67,31.36 -42.8,62.03 -64.26,93.37 l -16.25,23.45 -17.34,22.73 c -11.6,15.17 -23.22,30.36 -34.86,45.59 -93.97,121.13 -198.95,236.81 -312.54,343.41 -227.15,213.68 -491.17,385.66 -755.27,509.45 -132.78,60.63 -265.472,109.11 -393.504,147.66 -32.246,8.83 -64.051,17.53 -95.383,26.11 -7.839,2.1 -15.601,4.39 -23.421,6.33 -7.872,1.74 -15.707,3.48 -23.512,5.21 -15.613,3.47 -31.098,6.91 -46.449,10.32 -61.141,15.03 -121.387,23.71 -178.836,33.97 -7.196,1.2 -14.325,2.58 -21.469,3.63 -7.168,0.87 -14.297,1.73 -21.391,2.6 -14.179,1.73 -28.203,3.44 -42.07,5.14 -27.746,3.21 -54.77,7.15 -81.258,9.6 -26.547,1.94 -52.406,3.83 -77.551,5.66 -12.57,0.93 -24.961,1.85 -37.164,2.75 -6.101,0.45 -12.16,0.9 -18.168,1.34 -6.027,0.14 -12.007,0.28 -17.941,0.42 -18.461,0.44 -34.5547,0.82 -47.8047,1.14 -24.457,0.6 -38.4336,0.95 -38.4336,0.95 l 7.0039,318.87 c 0,0 15.5391,-0.37 42.7383,-1.03 18.6251,-0.47 41.2421,-1.04 67.1831,-1.69 52.672,-3.67 108.774,-7.43 167.786,-12.57 29.414,-3.59 59.586,-7.28 90.468,-11.06 15.442,-1.91 31.063,-3.83 46.856,-5.78 15.793,-1.94 31.574,-5.19 47.625,-7.78 32.047,-5.53 64.758,-11.17 98.098,-16.93 16.742,-2.52 33.281,-6.9 50.14,-10.43 16.82,-3.75 33.789,-7.52 50.902,-11.33 17.114,-3.82 34.368,-7.67 51.762,-11.55 17.43,-3.75 34.598,-9.15 52.113,-13.72 34.915,-9.6 70.36,-19.34 106.297,-29.22 142.493,-43.87 289.933,-99.22 437.323,-167.95 294.42,-138.12 585.32,-334.07 837.52,-572.03 251.4,-238.87 462.29,-518.91 616.82,-804.87 76.78,-143.29 140.14,-287.38 192.01,-427.08 23.71,-70.64 48.49,-138.81 66.46,-206.63 4.82,-16.85 9.61,-33.55 14.35,-50.11 2.36,-8.29 4.72,-16.53 7.06,-24.74 2,-8.3 3.98,-16.56 5.95,-24.78 7.76,-32.92 15.38,-65.23 22.84,-96.87 8.1,-31.52 12.83,-63.039 18.8,-93.57 5.6,-30.598 11.38,-60.45 16.4,-89.641 4.01,-29.348 7.92,-57.949 11.71,-85.75 1.89,-13.91 3.74,-27.609 5.57,-41.109 1.93,-13.489 3.66,-26.79 4.58,-39.969 2.3,-26.301 4.53,-51.762 6.68,-76.332 1.06,-12.289 2.1,-24.348 3.13,-36.188 0.51,-5.922 1.01,-11.793 1.51,-17.59 l 0.73,-8.859 c 0.16,-3.641 0.33,-7.262 0.5,-10.863 1.02,-27.188 1.11,-47.309 1.31,-68.25 0.06,-10.438 0.11,-20.399 0.17,-29.848 0.03,-26.242 0.06,-41.23 0.06,-41.23" /><path
           inkscape:connector-curvature="0"
           id="path72"
           style="fill:#4ac1ab;fill-opacity:1;fill-rule:nonzero;stroke:none"
           d="m 3188.26,341.07 -72.67,-82.101 c 0,0 0.05,16.07 0.14,44.203 0.02,14.09 0.03,31.199 0.05,50.816 -0.03,10.742 -0.06,22.172 -0.1,34.223 -0.14,15.539 -0.28,31.281 -0.42,47.211 -0.17,8.18 -0.33,16.41 -0.49,24.687 -0.14,7.723 -0.61,18.75 -1.18,26.993 -2.85,32.82 -5.77,66.39 -8.75,100.668 -1.57,17.14 -2.84,34.48 -4.71,51.941 -2.36,17.398 -4.75,34.98 -7.15,52.719 -2.42,17.742 -4.86,35.652 -7.32,53.718 -2.7,18.032 -4.37,36.383 -8.16,54.563 -6.77,36.488 -13.66,73.598 -20.65,111.277 -3.14,18.91 -7.78,37.66 -12.25,56.594 -4.46,18.93 -8.95,37.998 -13.48,57.188 -37.37,153.23 -87.91,312.25 -154.14,471.18 -67.08,158.52 -149.39,316.84 -246.59,469.15 -97.11,152.34 -209.06,298.61 -333.04,433.92 -247.64,271.07 -544.11,496.37 -849.07,656.13 -305.18,159.82 -615.085,257.89 -886.065,305.95 -33.934,5.84 -67.156,11.56 -99.629,17.15 -32.625,4.53 -64.617,8.1 -95.746,12.03 -62.168,8.91 -121.692,11.5 -177.438,15.97 -13.949,0.89 -27.652,2.31 -41.172,2.7 -7.593,0.19 -15.062,0.38 -22.394,0.56 -4.688,0.12 -9.203,0.23 -13.543,0.34 -8.684,0.21 -16.6524,0.41 -23.8555,0.58 -28.8047,0.7 -45.2656,1.1 -45.2656,1.1 l 1.6562,72.46 c 0,0 15.4883,-0.37 42.586,-1.03 18.1839,-0.46 40.2659,-1.01 65.5939,-1.64 52.492,-3.45 108.367,-7.47 167.187,-12.34 29.313,-3.58 59.371,-7.25 90.149,-11.02 15.383,-1.89 30.945,-3.81 46.683,-5.75 15.774,-1.67 31.473,-5.1 47.473,-7.62 31.93,-5.51 64.527,-11.13 97.746,-16.86 16.672,-2.55 33.215,-6.58 49.988,-10.24 16.758,-3.73 33.668,-7.49 50.719,-11.28 68.563,-13.75 137.758,-34.81 209.485,-54.03 142.002,-43.61 289.062,-98.33 436.082,-166.49 293.32,-137.56 584.2,-331.24 835.83,-568.07 250.93,-237.4 463.02,-515.01 617.43,-799.75 77.03,-142.44 141.56,-285.43 193.35,-424.6 12.77,-34.85 23.96,-69.74 35.7,-103.83 5.72,-17.1 11.65,-34 17.05,-50.9 4.91,-17.06 9.78,-33.99 14.6,-50.77 9.49,-33.61 19.41,-66.51 28.01,-99.08 7.74,-32.81 15.34,-64.99 22.78,-96.518 3.67,-15.781 7.3,-31.391 10.9,-46.832 2.9,-15.59 5.77,-31 8.61,-46.238 5.65,-30.481 11.17,-60.262 16.54,-89.293 2.99,-14.457 4.49,-28.969 6.56,-43.2 1.94,-14.238 3.86,-28.289 5.75,-42.14 3.75,-27.707 7.4,-54.617 10.93,-80.688 4.58,-52.422 8.86,-101.472 12.82,-146.832 1.04,-9.129 1.71,-28.519 1.89,-38.008 0.2,-11.132 0.39,-22.019 0.58,-32.671 0.12,-15.77 0.23,-30.821 0.34,-45.098 0.04,-26.152 0.07,-41.102 0.07,-41.102" /><path
           inkscape:connector-curvature="0"
           id="path74"
           style="fill:#349992;fill-opacity:1;fill-rule:nonzero;stroke:none"
           d="m 2944.66,259.02 -75.37,86.57 c 0,0 -0.05,17.242 -0.13,47.41 -0.21,17.059 -0.42,35.031 -0.64,53.879 -0.11,4.281 -0.22,8.613 -0.33,12.992 -0.22,3.649 -0.17,6.258 -0.54,10.879 -0.86,9.77 -1.74,19.762 -2.63,29.949 -1.78,20.391 -3.63,41.621 -5.55,63.633 -2.01,22 -3.37,44.887 -7.09,68.25 -12.12,93.758 -27.95,199.469 -55.5,312.559 -52.04,226.609 -143.71,484.999 -285.51,739.349 -8.95,15.84 -17.93,31.74 -26.94,47.71 l -13.54,24 c -4.48,8.04 -9.7,15.66 -14.52,23.54 -19.65,31.29 -39.44,62.81 -59.35,94.52 -21.35,30.76 -42.84,61.7 -64.43,92.81 -10.45,15.8 -22.37,30.59 -33.86,45.75 -11.56,15.11 -23.13,30.26 -34.74,45.43 -94.14,120.36 -199.18,235.28 -312.72,341.15 -28.96,25.84 -57.29,52.4 -86.66,77.71 -29.92,24.65 -59.82,49.27 -89.66,73.85 -30.57,23.64 -61.74,46.39 -92.42,69.59 -7.75,5.69 -15.24,11.74 -23.19,17.12 l -23.82,16.15 c -15.85,10.77 -31.68,21.53 -47.48,32.26 -127.18,84.62 -258.91,157.77 -390.69,219.3 -132.28,60.59 -264.784,108.28 -392.405,146.58 -32.136,8.8 -63.836,17.48 -95.062,26.03 -15.528,4.61 -31.258,7.91 -46.82,11.33 -15.559,3.46 -30.993,6.89 -46.293,10.3 -60.93,15.01 -121.036,23.35 -178.27,33.71 -14.285,2.78 -28.59,4.41 -42.73,6.08 -14.137,1.73 -28.114,3.44 -41.934,5.13 -27.66,3.15 -54.574,7.23 -81,9.47 -26.457,1.93 -52.231,3.81 -77.289,5.64 -12.527,0.93 -24.875,1.85 -37.043,2.75 -6.082,0.4 -12.109,1 -18.113,1.25 -6.008,0.14 -11.965,0.27 -17.879,0.41 -17.918,0.43 -33.5393,0.8 -46.4026,1.11 -24.375,0.6 -38.3047,0.95 -38.3047,0.95 l 1.4766,64.53 c 0,0 15.5468,-0.21 42.7578,-0.58 6.8047,-0.09 14.3398,-0.19 22.5389,-0.3 4.102,-0.05 8.371,-0.1 12.801,-0.16 5.074,-0.1 10.242,-0.2 15.504,-0.3 12.789,0.02 25.722,-1.29 38.894,-2.16 26.34,-1.88 53.52,-3.83 81.504,-5.83 13.981,-1.14 28.223,-1.67 42.543,-3.34 14.321,-1.73 28.832,-3.49 43.531,-5.27 29.407,-3.54 59.571,-7.17 90.446,-10.89 30.656,-5.21 62.023,-10.53 94.054,-15.97 16.012,-2.75 32.196,-5.53 48.536,-8.33 16.187,-3.58 32.535,-7.2 49.039,-10.84 16.508,-3.64 33.168,-7.32 49.98,-11.02 16.762,-3.92 33.91,-6.9 50.711,-11.9 33.809,-9.19 68.192,-18.53 103.102,-28.01 17.574,-4.35 34.765,-10.45 52.261,-16.02 17.465,-5.65 35.059,-11.35 52.77,-17.09 141.226,-47.18 286.836,-107.35 431.136,-182.33 288.39,-150.17 569.5,-362.06 804.42,-617.89 117.61,-127.67 223.88,-265.77 316.08,-409.67 92.3,-143.86 170.49,-293.45 234.26,-443.28 62.93,-150.22 110.99,-300.56 146.59,-445.49 4.32,-18.148 8.61,-36.179 12.87,-54.089 4.32,-17.891 8.68,-35.629 11.66,-53.532 6.69,-35.648 13.28,-70.757 19.75,-105.277 1.78,-8.602 3.14,-17.242 4.2,-25.883 1.19,-8.629 2.37,-17.219 3.55,-25.769 2.36,-17.098 4.7,-34.051 7.01,-50.84 2.33,-16.789 4.63,-33.418 6.92,-49.891 1.49,-16.558 2.97,-32.957 4.44,-49.187 2.9,-32.473 5.73,-64.262 8.51,-95.332 0.7,-12.739 1.07,-28.121 1.28,-43.379 0.17,-15.391 0.33,-30.59 0.49,-45.59 0.15,-11.223 0.29,-21.859 0.42,-31.859 0.19,-19.45 0.35,-36.411 0.49,-50.372 0.21,-27.968 0.33,-43.96 0.33,-43.96" /><path
           inkscape:connector-curvature="0"
           id="path76"
           style="fill:#4ac1ab;fill-opacity:1;fill-rule:nonzero;stroke:none"
           d="m 39.2539,3242.48 c 14.6875,-0.36 29.6563,-0.73 45.2344,-1.11 7.7851,-0.23 15.7267,-0.45 23.8597,-0.68 4.066,-0.12 8.183,-0.24 12.351,-0.37 8.633,-0.23 17.324,-0.46 26.074,-0.69 11.739,-0.88 23.551,-1.76 35.45,-2.66 28.25,-2.09 58.25,-4.31 89.875,-6.66 15.843,-0.82 31.961,-3.02 48.48,-5.07 16.524,-2.04 33.434,-4.12 50.715,-6.24 17.281,-2.12 34.937,-4.28 52.945,-6.48 17.996,-2.28 36.133,-6.02 54.727,-9.04 18.562,-3.19 37.465,-6.45 56.683,-9.75 19.219,-3.33 38.829,-6.34 58.399,-11.13 157.937,-31.51 332.383,-81.87 510.593,-153.82 178.2,-71.87 359.3,-167.01 530.83,-281.99 171.64,-114.83 333.44,-249.6 476.07,-395.6 143,-145.75 265.18,-303.7 365.6,-458.76 12.28,-19.57 24.44,-38.96 36.48,-58.15 6.03,-9.59 12.02,-19.14 17.98,-28.63 6.03,-9.45 11.13,-19.39 16.69,-28.97 10.9,-19.31 21.68,-38.41 32.32,-57.27 10.49,-18.95 21.65,-37.23 30.74,-56.31 18.9,-37.75 37.71,-74.29 55.23,-110.06 16.24,-36.38 31.96,-71.6 47.11,-105.56 7.96,-16.83 14.04,-34.06 20.67,-50.66 6.5,-16.66 12.87,-32.98 19.1,-48.94 6.22,-15.97 12.29,-31.59 18.22,-46.84 5.21,-15.51 10.29,-30.65 15.24,-45.39 9.9,-29.49 19.27,-57.41 28.07,-83.64 7.54,-26.63 14.59,-51.54 21.12,-74.61 6.44,-23.09 12.38,-44.34 17.77,-63.62 4.42,-19.53 8.39,-37.061 11.87,-52.479 6.93,-30.84 11.84,-53.211 14.46,-66.11 0,0 -3.94,16.5 -11.31,47.438 -3.68,15.473 -8.21,34.543 -13.55,56.981 -2.45,11.27 -5.8,23.19 -9.59,35.86 -3.67,12.7 -7.58,26.19 -11.7,40.45 -4.12,14.25 -8.46,29.27 -13.02,45.02 -2.27,7.88 -4.59,15.94 -6.97,24.18 -2.37,8.24 -5.5,16.44 -8.3,24.93 -11.55,33.85 -24.05,70.46 -37.4,109.58 -15.17,38.45 -31.31,79.37 -48.32,122.5 -18.34,42.57 -38.9,86.79 -59.59,133.25 -88.19,183.25 -211.35,387.91 -371.01,585.95 -41.18,48.42 -81.75,98.77 -127.17,145.9 -43.45,48.96 -91.66,94.4 -138.97,141.45 -97.78,90.81 -201.91,177.87 -311.97,256.99 -27.55,19.7 -56,38.13 -83.91,57.25 -14.09,9.37 -27.86,19.22 -42.17,28.19 l -43.24,26.38 -43.14,26.35 -21.52,13.16 c -7.19,4.35 -14.68,8.16 -22,12.26 -29.43,16.14 -58.77,32.24 -87.99,48.27 -14.44,8.35 -29.66,15.12 -44.5,22.54 -14.9,7.29 -29.77,14.56 -44.61,21.81 -14.83,7.26 -29.62,14.51 -44.38,21.73 -14.94,6.81 -30.08,13.08 -45.04,19.62 -30.03,12.84 -59.68,26.07 -89.45,38.4 -30.15,11.36 -60.09,22.64 -89.78,33.82 -14.919,5.39 -29.454,11.66 -44.501,16.27 -14.964,4.83 -29.863,9.64 -44.687,14.43 -29.723,9.36 -58.859,19.62 -88.207,28.01 -29.469,7.99 -58.617,15.89 -87.414,23.7 -14.43,3.78 -28.625,8.11 -42.988,11.37 -14.391,3.17 -28.688,6.31 -42.887,9.43 -28.391,6.26 -56.395,12.44 -83.981,18.52 -27.769,5.14 -55.257,9.49 -82.207,14.17 -13.484,2.3 -26.851,4.57 -40.101,6.83 -6.625,1.13 -13.223,2.26 -19.789,3.38 -6.586,0.97 -13.192,1.63 -19.739,2.45 -26.211,3.15 -51.929,6.25 -77.121,9.27 -50.265,7.21 -98.965,8.9 -145.062,12.63 -23.074,1.52 -45.52,3.75 -67.453,3.72 -4.282,0.06 -8.442,0.11 -12.473,0.16 -14.8008,0.17 -27.707,0.33 -38.332,0.45 -21.2461,0.26 -33.3867,0.41 -33.3867,0.41 0.1953,2.8 -0.1797,9.02 -0.0274,11.83" /><path
           inkscape:connector-curvature="0"
           id="path78"
           style="fill:#ebd37f;fill-opacity:1;fill-rule:nonzero;stroke:none"
           d="m 3188.26,341.07 c -69.17,0.5 -72.63,-73.179 -72.63,-73.179 0,0 -4.08,75.14 -90.63,75.808 -86.48,0.68 -80.19,-73.711 -80.19,-73.711 0,0 -4.12,75.133 -75.52,75.614 -0.05,-12.172 39.03,-98.012 77.71,-181.571 19.61,-41.761 38.87,-82.7693 53.22,-113.3396 C 3014.88,20.1289 3024.53,0 3024.53,0 c 0,0 10.08,18.9688 25.5,47.9688 15.35,28.9804 35.87,68.0002 56.37,108.2502 41.02,80.429 81.77,166.133 81.86,184.851" /><path
           inkscape:connector-curvature="0"
           id="path80"
           style="fill:#d7bc5a;fill-opacity:1;fill-rule:nonzero;stroke:none"
           d="m 2944.81,269.988 c 0,0 -4.12,75.133 -75.52,75.614 -0.05,-12.172 39.03,-98.012 77.71,-181.571 19.61,-41.761 38.87,-82.7693 53.22,-113.3396 C 3014.88,20.1289 3024.53,0 3024.53,0 c 0,0 0.51,0.96875 1.44,2.71094 -15.4,56.78126 -35.46,123.71906 -51.96,176.32806 -16.45,52.633 -29.2,90.949 -29.2,90.949" /><path
           inkscape:connector-curvature="0"
           id="path82"
           style="fill:#e2c462;fill-opacity:1;fill-rule:nonzero;stroke:none"
           d="m 3068.56,122.621 -7.57,0.117 c 0,0 18.65,49.992 23.45,102.711 4.82,52.699 -4.37,108.172 -59.44,118.25 18.33,-1.367 87.14,-3.207 90.64,-72.058 -13.48,-44.243 -47.08,-149.02 -47.08,-149.02" /><path
           inkscape:connector-curvature="0"
           id="path84"
           style="fill:#3ab099;fill-opacity:1;fill-rule:nonzero;stroke:none"
           d="M 2965.14,124.242 C 2996.94,56.6797 3024.53,0 3024.53,0 c 0,0 29.97,55.7188 64.45,122.301 l -123.84,1.941" /><path
           inkscape:connector-curvature="0"
           id="path86"
           style="fill:#349992;fill-opacity:1;fill-rule:nonzero;stroke:none"
           d="M 2980.98,123.988 C 3004.71,55.1523 3024.53,0 3024.53,0 c 0,0 -6.87,53.0586 -14.36,123.539 l -29.19,0.449" /><path
           inkscape:connector-curvature="0"
           id="path88"
           style="fill:#5cc7b5;fill-opacity:1;fill-rule:nonzero;stroke:none"
           d="m 3036.12,123.129 c -3.61,-47.8204 -5.74,-88.9493 -5.74,-88.9493 0,0 11.78,35.8398 30.61,88.5583 l -24.87,0.391" /><path
           inkscape:connector-curvature="0"
           id="path90"
           style="fill:#ebd37f;fill-opacity:1;fill-rule:nonzero;stroke:none"
           d="m 81.6953,3411.6 c 0,0 -8.8047,18.34 -17.6094,36.68 -9.0156,18.34 -18.0312,36.68 -18.0312,36.68 -14.625,-23.81 -28.9297,-47.64 -42.91407,-71.47 L 0,3236.96 c 12.1914,-23.6 24.0977,-47.2 35.7148,-70.79 0,0 9.9024,15.88 19.8047,31.76 10.1172,15.88 20.2305,31.75 20.2305,31.75 l 5.9453,181.92" /><path
           inkscape:connector-curvature="0"
           id="path92"
           style="fill:#349992;fill-opacity:1;fill-rule:nonzero;stroke:none"
           d="m 36,3367.75 c -4.1211,0.18 -8.0898,-5.75 -11.3047,-15.78 3.5625,19.92 9.332,33.03 15.4649,32.77 9.5468,-0.42 16.0351,-32.82 14.5312,-72.38 -0.8281,-22.31 -3.9375,-42.14 -8.0742,-55.11 1.9961,11 3.418,24.05 3.9219,38.13 1.4453,39.56 -5.043,71.96 -14.5391,72.37" /><path
           inkscape:connector-curvature="0"
           id="path94"
           style="fill:#3ab099;fill-opacity:1;fill-rule:nonzero;stroke:none"
           d="m 35.6445,3241.47 c -9.0351,0.41 -15.5898,32.81 -14.6015,72.37 0.3672,14.09 1.6797,27.13 3.6523,38.13 3.2149,10.03 7.1836,15.96 11.3047,15.78 9.4961,-0.41 15.9844,-32.81 14.5391,-72.37 -0.5039,-14.08 -1.9258,-27.13 -3.9219,-38.13 -3.2031,-10.02 -7.0195,-15.95 -10.9727,-15.78" /><path
           inkscape:connector-curvature="0"
           id="path96"
           style="fill:#d7bc5a;fill-opacity:1;fill-rule:nonzero;stroke:none"
           d="M 46.7969,3484.94 C 31.918,3461.13 17.3672,3437.32 3.14063,3413.49 L 0,3236.96 c 12.1914,-23.6 24.0977,-47.2 35.7148,-70.79 -9.6484,24 -19.539,48.02 -29.67574,72.03 l 3.07422,175.15 c 12.28122,23.87 24.84372,47.74 37.68362,71.59" /><path
           inkscape:connector-curvature="0"
           id="path98"
           style="fill:#66c430;fill-opacity:1;fill-rule:nonzero;stroke:none"
           d="m 2770.11,337.641 -72.71,-81.969 -175.28,-2.832 -70.98,89.64 c 0,0 -0.03,14.489 -0.08,39.84 -0.13,13.34 -0.25,27.391 -0.39,42.129 -0.15,7.801 -0.3,15.781 -0.46,23.93 -0.12,3.672 -0.23,7.371 -0.35,11.121 -0.15,2.941 -0.31,5.91 -0.47,8.91 -3.36,34.672 -7,72.172 -10.88,112.238 -5.46,39.864 -11.66,82.25 -18.47,126.864 -4.33,22.148 -8.77,44.867 -13.32,68.117 -2.25,11.633 -4.54,23.402 -6.84,35.293 -2.22,11.918 -5.65,23.699 -8.45,35.758 -5.88,24.05 -11.89,48.59 -18.01,73.609 -6.3,24.973 -14.52,49.922 -21.85,75.582 -3.77,12.799 -7.58,25.709 -11.42,38.719 -3.77,13.03 -8.79,25.78 -13.17,38.84 -9.07,26.03 -18.29,52.44 -27.63,79.23 -40.61,105.97 -90.15,215.13 -149.58,323.78 -119.37,217 -282.16,428.98 -474.59,610.24 -193.34,180.3 -415.54,328.66 -639.84,433.28 -112.336,51.95 -224.52,93.98 -332.957,127.22 -27.348,7.48 -54.32,14.86 -80.887,22.12 -13.32,3.5 -26.398,7.53 -39.625,10.52 -13.242,2.92 -26.379,5.82 -39.406,8.69 -26.086,5.57 -51.567,11.86 -76.86,16.63 -25.378,4.34 -50.281,8.6 -74.675,12.77 -12.207,2.02 -24.239,4.35 -36.227,6.08 -12.027,1.45 -23.926,2.89 -35.683,4.32 -23.52,2.87 -46.493,5.68 -68.887,8.42 -44.93,4.23 -87.715,6.61 -127.828,9.83 -18.047,0.45 -33.7816,0.84 -46.7386,1.16 -24.2383,0.59 -38.0937,0.93 -38.0937,0.93 l 7.6914,318.86 c 0,0 15.664,-0.38 43.0742,-1.04 6.8555,-0.17 14.4417,-0.36 22.7027,-0.57 4.129,-0.1 8.426,-0.21 12.887,-0.32 2.227,-0.06 4.496,-0.12 6.809,-0.18 l 5.172,-0.13 c 5.589,-0.39 11.222,-0.78 16.906,-1.18 22.719,-1.65 46.164,-3.36 70.301,-5.11 24.129,-1.86 49.004,-3.15 74.336,-6.72 50.703,-6.51 104.281,-11.46 159.425,-22.02 27.625,-4.86 55.926,-9.31 84.575,-14.84 28.503,-6.3 57.539,-12.71 87.074,-19.24 14.719,-3.46 29.75,-6.18 44.558,-10.34 14.84,-4.03 29.797,-8.09 44.871,-12.18 15.071,-4.1 30.254,-8.24 45.547,-12.41 15.309,-4.11 30.727,-8.27 45.942,-13.48 30.582,-9.91 61.582,-19.95 92.965,-30.12 31.269,-10.5 62.242,-23.06 93.906,-34.74 15.725,-6.11 31.795,-11.63 47.465,-18.35 15.66,-6.75 31.4,-13.54 47.22,-20.36 31.55,-13.81 63.82,-26.84 95.05,-42.83 31.4,-15.58 63.51,-30.44 94.99,-47.06 31.23,-17.1 62.68,-34.33 94.32,-51.66 31.22,-18.06 61.94,-37.41 93.16,-56.27 l 23.37,-14.28 22.79,-15.3 c 15.19,-10.24 30.42,-20.5 45.68,-30.79 121.41,-83.15 238.17,-177.17 346.74,-279.9 217.61,-205.37 397.94,-448.07 532.43,-693.89 66.45,-123.49 121.06,-247.82 165.92,-368.23 10.56,-30.35 20.97,-60.29 31.23,-89.78 5.4,-14.66 9.45,-29.62 13.89,-44.33 4.37,-14.74 8.69,-29.36 12.98,-43.86 4.28,-14.5 8.52,-28.87 12.73,-43.12 4.36,-14.21 7.3,-28.669 10.95,-42.79 6.94,-28.34 13.74,-56.141 20.41,-83.391 6.35,-27.301 10.94,-54.398 16.29,-80.687 2.56,-13.18 5.09,-26.192 7.59,-39.063 1.24,-6.429 2.48,-12.82 3.71,-19.168 0.97,-6.402 1.93,-12.761 2.88,-19.082 3.69,-25.277 7.28,-49.918 10.78,-73.867 1.73,-11.973 3.44,-23.781 5.13,-35.41 1.62,-11.633 2.41,-23.192 3.62,-34.512 2.2,-22.66 4.33,-44.601 6.38,-65.781 1.02,-10.59 2.02,-20.988 3,-31.188 l 0.72,-7.621 0.54,-9.859 0.48,-9.762 0.25,-8.109 c 0.22,-10.149 0.44,-20.09 0.65,-29.82 0.1,-9.301 0.21,-18.399 0.31,-27.29 0.06,-9.281 0.12,-18.128 0.17,-26.531 0.04,-26.289 0.07,-41.308 0.07,-41.308" /><path
           inkscape:connector-curvature="0"
           id="path100"
           style="fill:#81cc28;fill-opacity:1;fill-rule:nonzero;stroke:none"
           d="m 2770.11,341.07 -72.7,-82.16 c 0,0 0.06,16.078 0.17,44.231 0.01,14.101 0.03,31.218 0.05,50.859 -0.03,10.602 -0.07,21.879 -0.1,33.77 -0.13,13.312 -0.26,26.8 -0.39,40.449 -0.19,13.832 -0.44,27.582 -1.08,43.32 l -0.65,12.441 -0.99,10.821 c -0.69,7.121 -1.38,14.289 -2.07,21.488 -1.4,14.41 -2.81,28.981 -4.23,43.699 -4.42,59.043 -15.21,119.813 -23.98,182.981 -12.39,62.57 -23.43,127.66 -40.87,193.242 -32.67,131.519 -75.54,268.489 -133.86,404.519 -57.85,136.15 -128.72,272.14 -212.31,403.01 -83.52,130.9 -179.71,256.63 -286.15,373.03 -212.66,233.09 -466.8,427.75 -728.85,565.22 -130.75,69.26 -262.787,125.26 -390.971,169.57 -32.266,10.45 -64.086,20.75 -95.438,30.91 -31.625,9.21 -63.046,17.35 -93.804,25.84 -15.453,3.97 -30.543,8.83 -45.922,11.94 -15.309,3.39 -30.481,6.76 -45.508,10.09 -15.035,3.32 -29.926,6.62 -44.672,9.88 -7.371,1.62 -14.711,3.24 -22.008,4.85 -7.324,1.51 -14.683,2.6 -21.964,3.9 -29.168,5 -57.731,9.9 -85.645,14.68 -6.98,1.19 -13.922,2.38 -20.82,3.55 -6.942,0.88 -13.84,1.75 -20.7,2.62 -13.722,1.68 -27.281,3.34 -40.668,4.97 -26.785,3.09 -52.816,6.84 -78.25,9.11 -25.472,1.87 -50.21,3.68 -74.183,5.44 -11.988,0.87 -23.781,1.72 -35.383,2.56 l -8.66,0.63 -4.301,0.31 -3.25,0.1 -3.562,0.08 c -4.707,0.12 -9.243,0.23 -13.602,0.34 -8.719,0.22 -16.7265,0.42 -23.9609,0.59 -28.9336,0.71 -45.4648,1.11 -45.4648,1.11 l 1.8203,72.45 c 0,0 15.6094,-0.38 42.9219,-1.04 6.8281,-0.17 14.3865,-0.36 22.6175,-0.56 4.117,-0.1 8.398,-0.21 12.843,-0.33 2.219,-0.05 4.481,-0.11 6.782,-0.17 l 4.035,-0.1 c 5.574,-0.21 11.183,-0.75 16.844,-1.12 22.636,-1.64 46,-3.34 70.05,-5.08 24.036,-1.94 48.836,-3.03 74.075,-6.61 25.285,-3.08 51.218,-6.24 77.761,-9.48 26.617,-2.75 53.563,-7.59 81.106,-12.35 27.539,-4.77 55.703,-9.39 84.297,-14.64 28.398,-6.28 57.328,-12.67 86.757,-19.17 14.684,-3.38 29.61,-6.31 44.438,-10.15 14.785,-4.01 29.691,-8.06 44.711,-12.13 15.012,-4.09 30.141,-8.21 45.383,-12.36 15.211,-4.24 30.672,-8.04 45.824,-13.27 30.473,-9.87 61.363,-19.88 92.633,-30.01 15.738,-4.78 31.101,-10.91 46.683,-16.72 15.563,-5.87 31.211,-11.77 46.95,-17.7 15.705,-6 31.605,-11.78 47.375,-18.08 15.61,-6.73 31.29,-13.49 47.05,-20.28 15.75,-6.81 31.58,-13.65 47.48,-20.52 7.92,-3.5 15.97,-6.77 23.83,-10.49 7.81,-3.81 15.65,-7.62 23.5,-11.45 253.18,-118.53 502.66,-287.72 719.78,-491.65 216.83,-204.5 398.32,-444.88 532.8,-689.65 66.63,-122.79 121.86,-246.27 167.3,-366.01 20.9,-60.52 42.57,-118.97 58.52,-177.11 4.27,-14.45 8.5,-28.78 12.69,-42.97 2.09,-7.1 4.18,-14.17 6.25,-21.21 1.77,-7.12 3.53,-14.2 5.28,-21.26 6.92,-28.231 13.71,-55.942 20.36,-83.078 7.18,-27.024 11.53,-54.071 16.89,-80.262 5.06,-26.258 10,-51.898 14.82,-76.91 3.69,-25.192 7.28,-49.738 10.77,-73.602 1.73,-11.929 3.44,-23.699 5.12,-35.277 1.71,-11.582 3.41,-22.992 4.31,-34.301 2.2,-22.59 4.33,-44.449 6.38,-65.551 1.02,-10.55 2.02,-20.91 3,-31.078 0.48,-5.082 0.97,-10.121 1.45,-15.101 l 0.71,-7.442 0.54,-9.347 c 0.8,-13.832 0.86,-22.61 1.17,-32.871 0.16,-9.438 0.31,-18.668 0.46,-27.688 0.1,-13.672 0.2,-26.703 0.3,-39.07 0.05,-26.211 0.08,-41.192 0.08,-41.192" /><path
           inkscape:connector-curvature="0"
           id="path102"
           style="fill:#56ae35;fill-opacity:1;fill-rule:nonzero;stroke:none"
           d="m 2526.48,259.07 -75.34,86.512 c 0,0 -0.05,16.707 -0.14,45.938 -0.17,14.671 -0.34,30.121 -0.52,46.32 -0.21,7.18 -0.42,14.531 -0.64,22.039 -0.19,2.961 -0.16,5 -0.47,8.801 -0.42,4.23 -0.84,8.5 -1.26,12.82 -3.57,34.531 -6.63,71.98 -11.2,111.82 -2.9,19.84 -5.9,40.321 -8.98,61.41 -1.53,10.54 -3.08,21.239 -4.65,32.079 -0.79,5.421 -1.59,10.871 -2.39,16.371 -1.07,5.441 -2.14,10.929 -3.23,16.441 -4.31,22.078 -8.72,44.719 -13.25,67.899 -2.36,11.57 -4.27,23.378 -7.06,35.121 -2.89,11.73 -5.8,23.589 -8.75,35.57 -5.87,23.961 -11.86,48.43 -17.97,73.359 -7.29,24.61 -14.72,49.68 -22.28,75.19 -3.84,12.73 -7.37,25.68 -11.55,38.54 -4.45,12.76 -8.94,25.63 -13.46,38.6 -4.51,12.97 -9.06,26.05 -13.63,39.21 -4.69,13.13 -8.82,26.57 -14.4,39.57 -10.53,26.24 -21.21,52.84 -32.02,79.76 -5.1,13.59 -11.45,26.75 -17.52,40.11 -6.1,13.36 -12.24,26.79 -18.4,40.29 -6.23,13.48 -12.21,27.16 -18.7,40.68 -6.86,13.34 -13.77,26.75 -20.7,40.22 -6.92,13.49 -13.88,27.03 -20.86,40.63 -3.55,6.78 -6.85,13.7 -10.62,20.39 l -11.51,20.02 c -59.26,108.29 -130.59,214.57 -210.22,316.78 -79.75,102.17 -168.7,199.78 -264.82,289.81 -192.82,179.66 -415.12,326.25 -638.6,430.55 -112.067,51.58 -224.02,93.03 -332.063,126.26 -27.269,7.4 -54.164,14.71 -80.66,21.91 -13.289,3.42 -26.273,7.64 -39.523,10.34 -13.199,2.91 -26.293,5.8 -39.274,8.66 -26.011,5.5 -51.371,11.95 -76.629,16.46 -25.296,4.33 -50.117,8.57 -74.429,12.73 -12.172,1.97 -24.141,4.44 -36.117,5.96 -11.993,1.45 -23.848,2.88 -35.571,4.3 -23.437,2.87 -46.332,5.67 -68.656,8.41 -44.797,4.03 -87.426,6.54 -127.406,9.71 -17.598,0.41 -32.9378,0.77 -45.5706,1.06 -24.1601,0.59 -37.9687,0.93 -37.9687,0.93 l 1.6054,64.53 c 0,0 15.4727,-0.21 42.543,-0.57 6.7734,-0.08 14.2656,-0.18 22.4299,-0.28 4.078,-0.05 8.328,-0.1 12.73,-0.16 l 3.336,-0.04 2.442,-0.04 c 2.695,-0.03 5.39,-0.34 8.101,-0.5 10.848,-0.77 21.879,-1.56 33.09,-2.36 22.426,-1.58 45.566,-3.21 69.395,-4.89 11.941,-0.58 23.945,-2.19 36.136,-3.66 12.192,-1.46 24.547,-2.94 37.063,-4.44 12.519,-1.5 25.199,-3.01 38.035,-4.54 12.844,-1.48 25.851,-2.95 38.859,-5.42 26.106,-4.41 52.813,-8.93 80.086,-13.54 6.824,-1.14 13.68,-2.3 20.571,-3.45 6.875,-1.24 13.695,-2.94 20.601,-4.39 13.785,-3.02 27.711,-6.08 41.766,-9.16 28.066,-6.33 56.926,-11.74 85.562,-20.15 28.793,-7.77 58.074,-15.68 87.809,-23.71 29.324,-9.43 59.094,-19 89.273,-28.71 120.004,-40.9 243.704,-92.73 366.304,-157.04 245.73,-127.59 484.25,-309.38 684.31,-527.12 100.1,-108.78 190.61,-226.38 269.23,-348.87 78.69,-122.46 145.45,-249.76 199.98,-377.24 55.01,-127.37 95.39,-255.69 126.28,-378.939 16.55,-61.43 26.9,-122.473 38.69,-181.121 8.31,-59.25 18.59,-116.219 22.78,-171.629 1.38,-13.813 2.74,-27.481 4.08,-41 1.23,-13.141 3.07,-28.102 3.29,-37.93 0.97,-24.551 1.15,-51.801 1.41,-77.301 0.15,-11.148 0.29,-21.71 0.43,-31.648 0.19,-19.43 0.35,-36.371 0.49,-50.32 0.19,-27.961 0.3,-43.942 0.3,-43.942" /><path
           inkscape:connector-curvature="0"
           id="path104"
           style="fill:#89cf25;fill-opacity:1;fill-rule:nonzero;stroke:none"
           d="m 39.0781,2825.01 c 14.6211,-0.36 29.5235,-0.72 45.0313,-1.1 7.7539,-0.22 15.6601,-0.44 23.7536,-0.67 4.051,-0.12 8.149,-0.24 12.297,-0.36 l 1.559,-0.04 2.215,-0.06 c 1.246,-0.02 2.48,-0.16 3.726,-0.24 l 14.945,-1.12 c 10,-0.75 20.067,-1.5 30.2,-2.25 24.062,-1.8 49.617,-3.71 76.554,-5.72 26.805,-3.29 54.985,-6.74 84.426,-10.35 14.692,-2.02 29.836,-3.13 45.031,-5.97 15.231,-2.62 30.758,-5.28 46.575,-8 31.609,-5.53 64.539,-10.36 97.886,-18.48 134.27,-27.91 282.836,-70.84 434.258,-133.11 151.445,-62.02 305.545,-143.3 451.485,-241.56 145.99,-98.12 283.89,-212.9 405.17,-337.53 121.03,-124.92 225.74,-258.89 311.22,-391.09 85.67,-132.16 152.16,-262.32 202.41,-378.62 23.35,-58.89 46.29,-112.89 62.41,-163.42 8.39,-25.13 17.33,-48.61 23.93,-71.24 6.56,-22.64 12.71,-43.82 18.4,-63.439 12.08,-39.039 19.18,-72.672 25.37,-98.871 6.09,-26.219 10.38,-45.25 12.65,-56.231 0,0 -3.48,14.02 -10.01,40.313 -3.25,13.148 -7.27,29.367 -11.98,48.429 -2.47,9.5 -4.65,19.84 -7.83,30.641 -3.23,10.789 -6.66,22.25 -10.28,34.359 -7.35,24.179 -14.99,51.119 -24.19,80.159 -10.09,28.74 -20.99,59.84 -32.65,93.06 -5.42,16.76 -13,33.31 -19.79,50.73 -7.01,17.34 -14.22,35.18 -21.62,53.49 -7,18.47 -15.91,36.68 -24.5,55.55 -8.65,18.84 -17.51,38.11 -26.55,57.79 -74.24,156.57 -180.92,329.81 -316.27,498.87 -17.22,20.88 -35.21,41.42 -52.96,62.4 -8.94,10.44 -17.91,20.92 -26.91,31.43 -9.46,10.1 -18.95,20.24 -28.47,30.41 -19.2,20.17 -37.77,41.19 -57.76,61.02 -20.15,19.67 -40.4,39.44 -60.74,59.29 l -15.31,14.84 -15.96,14.21 c -10.64,9.49 -21.31,18.99 -31.99,28.5 l -32.06,28.6 c -10.71,9.54 -22.17,18.22 -33.23,27.39 -22.4,18.02 -44.48,36.52 -67.2,54.25 l -69.58,51.42 c -187.51,134.55 -393.43,242.84 -596.463,316.8 -12.644,4.73 -25.242,9.45 -37.777,14.15 -12.512,4.78 -25.383,8.34 -37.957,12.55 -25.262,8.11 -50.277,16.15 -75.023,24.1 -24.911,7.41 -49.883,13.6 -74.364,20.36 -24.547,6.53 -48.636,13.61 -72.949,18.36 -48.394,10.45 -95.242,21.67 -141.375,28.41 -22.961,3.88 -45.535,7.7 -67.691,11.44 -22.317,2.68 -44.211,5.31 -65.661,7.89 -21.464,2.42 -42.417,5.38 -63.003,7.23 -20.629,1.44 -40.778,2.85 -60.422,4.23 -19.645,1.37 -38.782,2.7 -57.383,3.99 -4.199,0.05 -8.281,0.1 -12.234,0.15 -14.7271,0.17 -27.5669,0.31 -38.1411,0.43 -21.1367,0.25 -33.2188,0.4 -33.2188,0.4 0.2032,2.8 -0.1562,9.02 0,11.83" /><path
           inkscape:connector-curvature="0"
           id="path106"
           style="fill:#ebd37f;fill-opacity:1;fill-rule:nonzero;stroke:none"
           d="m 2770.11,341.07 c -69.16,0.489 -72.66,-73.23 -72.66,-73.23 0,0 -4.04,75.199 -90.6,75.859 -86.47,0.672 -80.21,-73.66 -80.21,-73.66 0,0 -4.09,75.09 -75.5,75.551 -0.04,-12.129 39.01,-97.879 77.6,-181.469 19.57,-41.789 38.78,-82.8202 53.1,-113.4022 C 2596.47,20.1406 2606.1,0 2606.1,0 c 0,0 10.1,18.9609 25.55,47.9492 15.38,28.961 35.95,67.9488 56.48,108.1918 41.11,80.379 81.9,166.148 81.98,184.929" /><path
           inkscape:connector-curvature="0"
           id="path108"
           style="fill:#d7bc5a;fill-opacity:1;fill-rule:nonzero;stroke:none"
           d="m 2526.64,270.039 c 0,0 -4.09,75.09 -75.5,75.551 -0.04,-12.129 39.01,-97.879 77.6,-181.469 19.57,-41.789 38.78,-82.8202 53.1,-113.4022 C 2596.47,20.1406 2606.1,0 2606.1,0 c 0,0 0.52,0.96875 1.45,2.71094 -15.37,56.80076 -35.33,123.76906 -51.78,176.37906 -16.4,52.64 -29.13,90.949 -29.13,90.949" /><path
           inkscape:connector-curvature="0"
           id="path110"
           style="fill:#e2c462;fill-opacity:1;fill-rule:nonzero;stroke:none"
           d="m 2650.25,122.57 -7.57,0.129 c 0,0 18.72,49.981 23.56,102.699 4.86,52.711 -4.31,108.223 -59.39,118.301 18.32,-1.367 87.15,-3.207 90.62,-72.109 -13.5,-44.258 -47.22,-149.02 -47.22,-149.02" /><path
           inkscape:connector-curvature="0"
           id="path112"
           style="fill:#66c430;fill-opacity:1;fill-rule:nonzero;stroke:none"
           d="M 2546.84,124.309 C 2578.56,56.7188 2606.1,0 2606.1,0 c 0,0 30.01,55.6914 64.57,122.23 l -123.83,2.079" /><path
           inkscape:connector-curvature="0"
           id="path114"
           style="fill:#4e9a35;fill-opacity:1;fill-rule:nonzero;stroke:none"
           d="M 2562.68,124.039 C 2586.33,55.1797 2606.1,0 2606.1,0 c 0,0 -6.83,53.082 -14.23,123.551 l -29.19,0.488" /><path
           inkscape:connector-curvature="0"
           id="path116"
           style="fill:#8ed023;fill-opacity:1;fill-rule:nonzero;stroke:none"
           d="m 2617.82,123.121 c -3.67,-47.8124 -5.84,-88.9491 -5.84,-88.9491 0,0 11.82,35.8281 30.7,88.5271 l -24.86,0.422" /><path
           inkscape:connector-curvature="0"
           id="path118"
           style="fill:#ebd37f;fill-opacity:1;fill-rule:nonzero;stroke:none"
           d="m 82.0586,2994.12 c 0,0 -8.7852,18.34 -17.5742,36.68 -9.0313,18.34 -18.0625,36.68 -18.0625,36.68 -14.793,-23.81 -29.2149,-47.64 -43.26565,-71.47 L 0,2819.49 c 0,0 8.97656,-17.7 17.9492,-35.4 8.7266,-17.7 17.4531,-35.39 17.4531,-35.39 12.9922,21.18 26.3125,42.35 39.961,63.53 l 6.6953,181.89" /><path
           inkscape:connector-curvature="0"
           id="path120"
           style="fill:#56ae35;fill-opacity:1;fill-rule:nonzero;stroke:none"
           d="m 36.0781,2950.27 c -4.1328,0.18 -8.1172,-5.75 -11.3476,-15.77 3.5898,19.91 9.3984,33.03 15.5508,32.76 9.582,-0.41 15.996,-32.81 14.371,-72.37 -0.8906,-22.31 -4.0507,-42.13 -8.207,-55.11 2.0195,11 3.4727,24.05 4.0117,38.13 1.5586,39.55 -4.8554,71.95 -14.3789,72.36" /><path
           inkscape:connector-curvature="0"
           id="path122"
           style="fill:#66c430;fill-opacity:1;fill-rule:nonzero;stroke:none"
           d="m 35.4844,2824 c -8.9883,0.41 -15.4805,32.81 -14.4531,72.37 0.3789,14.08 1.7109,27.13 3.6992,38.13 3.2304,10.02 7.2148,15.95 11.3476,15.77 9.5235,-0.41 15.9375,-32.81 14.3789,-72.36 -0.539,-14.08 -1.9922,-27.13 -4.0117,-38.13 -3.2148,-10.02 -7.0273,-15.96 -10.9609,-15.78" /><path
           inkscape:connector-curvature="0"
           id="path124"
           style="fill:#d7bc5a;fill-opacity:1;fill-rule:nonzero;stroke:none"
           d="M 47.168,3067.47 C 32.1211,3043.66 17.4492,3019.84 3.15625,2996.01 L 0,2819.49 c 0,0 8.97656,-17.7 17.9492,-35.4 8.7266,-17.7 17.4531,-35.39 17.4531,-35.39 0,0 -7.2421,18 -14.4843,36.01 -7.4532,18 -14.90628,36.01 -14.90628,36.01 l 3.14062,175.15 c 12.34766,23.87 25.01956,47.74 38.01566,71.6" /><path
           inkscape:connector-curvature="0"
           id="path126"
           style="fill:#f2a40f;fill-opacity:1;fill-rule:nonzero;stroke:none"
           d="m 2351.68,337.629 -72.76,-82.039 -175.27,-2.668 -70.94,89.547 -0.05,26.261 -0.57,59.168 -0.6,23.59 c -0.41,9.504 -0.19,8.692 -1.16,18.321 l -5.47,48.98 c -1.93,16.313 -3.3,32.699 -5.65,48.949 l -7.78,48.653 c -21.04,129.66 -54.63,257.211 -100.2,380.39 -91.17,246.259 -229.86,475.369 -407.59,669.259 -177.25,194.22 -391.87,354.16 -628.722,467.51 -236.742,113.64 -495.539,180.19 -757.938,194.88 -6.652,0.43 -13.289,1.11 -19.9527,1.35 l -20.0039,0.45 -40.0078,0.95 8.6407,318.85 44.7421,-1.09 22.3676,-0.56 c 7.453,-0.34 14.89,-1.01 22.336,-1.5 305.027,-17.06 606.988,-95.01 882.238,-227.9 275.47,-132.55 524.22,-319.22 729.12,-545.59 204.69,-226.6 365.05,-493.13 469.16,-780.43 52.1,-143.608 90.17,-292.339 113.49,-443.28 2.77,-18.891 6.5,-37.66 8.43,-56.649 l 6.33,-56.922 3.13,-28.468 1.55,-14.231 1.24,-19.078 c 1.01,-22.5 1.25,-40.684 1.52,-59.551 l 0.37,-77.152" /><path
           inkscape:connector-curvature="0"
           id="path128"
           style="fill:#f7b710;fill-opacity:1;fill-rule:nonzero;stroke:none"
           d="m 2351.68,341.07 -72.74,-82.238 0.18,118.477 -0.28,36.8 c -0.33,20.321 -0.45,39.063 -1.81,62.852 l -0.58,9.07 -0.82,7.571 -1.65,15.046 -3.33,30.102 c -2.3,20.051 -4.28,40.152 -6.87,60.16 l -9.5,59.828 c -3.43,19.891 -5.76,39.981 -10.3,59.672 l -12.34,59.309 -6.19,29.652 -7.51,29.34 c -38.85,156.789 -94.25,309.449 -164.82,454.729 -8.2,18.47 -18.34,35.97 -27.52,53.94 l -28.21,53.6 -30.58,52.27 c -10.43,17.28 -19.91,35.15 -31.25,51.87 l -32.95,50.81 c -5.53,8.43 -10.9,16.99 -16.58,25.33 l -17.6,24.64 -35.23,49.25 c -11.69,16.45 -24.7,31.92 -37,47.92 -99.79,126.85 -211.95,244.27 -336.29,347.37 -124.15,103.25 -259.01,193.65 -401.86,269.1 -142.671,75.83 -294.046,135.13 -449.777,178.15 -155.746,43.05 -316.062,69.48 -477.289,78.83 -7.269,0.48 -14.535,1.15 -21.808,1.46 l -21.8518,0.54 -43.6953,1.06 2.0508,72.45 44.7266,-1.09 22.3667,-0.56 c 7.45,-0.34 14.887,-1.01 22.329,-1.5 303.824,-16.98 604.625,-94.37 878.988,-226.32 274.58,-131.64 522.72,-317.02 727.44,-541.92 205,-224.72 365.35,-489.88 470.41,-775.5 52.53,-142.82 91.17,-290.769 115.19,-440.999 l 8.93,-56.36 6.37,-56.679 6.23,-56.762 1.2,-19.32 0.58,-15.778 0.67,-29.121 0.52,-59.691 0.05,-27.36" /><path
           inkscape:connector-curvature="0"
           id="path130"
           style="fill:#eb8215;fill-opacity:1;fill-rule:nonzero;stroke:none"
           d="m 2108.01,259.148 c 0,0 -18.79,21.692 -37.58,43.391 -18.86,21.512 -37.72,43.02 -37.72,43.02 l -0.06,26.152 -0.08,16.891 -0.67,50.199 -0.37,11.281 -0.17,5.648 -0.23,3.961 -0.19,3.59 -0.09,1.871 -0.34,3.047 -1.37,12.199 -5.42,48.801 c -2.85,32.653 -8.92,64.832 -13.88,97.18 -21.59,129.082 -55.63,256.012 -101.54,378.551 -45.89,122.55 -103.62,240.7 -172.07,352.34 -68.43,111.66 -148.03,216.46 -236.56,312.97 -177.09,193.05 -391.22,351.96 -627.354,464.57 -236.027,112.9 -493.902,179 -755.336,193.62 -6.652,0.43 -13.289,1.11 -19.9527,1.35 l -20.0039,0.45 -40.0078,0.95 1.7852,64.53 40.9648,-0.52 20.4924,-0.25 c 6.824,-0.19 13.625,-0.78 20.441,-1.15 148.633,-8.22 296.309,-32.16 439.871,-71.41 143.551,-39.21 283.18,-93.47 414.918,-163.11 131.912,-69.26 256.592,-152.38 371.522,-247.44 115.05,-94.98 218.95,-203.27 311.47,-320.31 92.14,-117.32 173.21,-243.74 238.3,-378.15 65.5,-134.15 117,-275.132 153.22,-420.018 2.31,-9.051 4.85,-18.043 6.98,-27.133 l 5.76,-27.399 11.58,-54.82 c 2.1,-9.102 3.73,-18.289 5.1,-27.531 l 4.47,-27.66 8.99,-55.309 6.37,-55.68 3.18,-27.851 c 0.99,-9.059 2.39,-19.438 2.56,-25.899 0.88,-15.808 1.25,-35.55 1.53,-54.25 l 0.42,-33.89 1.07,-116.782" /><path
           inkscape:connector-curvature="0"
           id="path132"
           style="fill:#f7b710;fill-opacity:1;fill-rule:nonzero;stroke:none"
           d="m 38.8359,2407.54 c 12.8789,-0.3 25.9766,-0.61 39.6211,-0.94 13.6485,-0.29 27.844,-0.63 42.852,-2.09 11.589,-0.87 26.632,-1.98 41.871,-3.11 39.859,-1.98 84.222,-8.47 132.898,-14.15 24.285,-3.21 49.375,-8.17 75.543,-12.4 13.035,-2.37 26.445,-4.11 39.836,-7.1 13.402,-2.94 27.027,-5.94 40.867,-8.97 110.68,-24.1 233.106,-60.42 357.903,-112.52 124.82,-51.91 251.853,-119.52 372.223,-201.01 120.49,-81.28 234.27,-176.39 333.88,-279.97 99.97,-103.23 186.55,-213.87 257.3,-323.02 70.94,-109.12 125.95,-216.62 167.66,-312.6 9.95,-24.21 19.53,-47.52 28.7,-69.84 8.82,-22.44 16.03,-44.37 23.54,-64.929 3.68,-10.309 7.25,-20.34 10.73,-30.102 3.48,-9.75 6.04,-19.488 8.97,-28.769 5.62,-18.641 10.89,-36.09 15.77,-52.239 5.16,-16.07 8.74,-31.191 12.09,-44.879 3.35,-13.683 6.36,-25.972 9.01,-36.773 5.29,-21.598 9,-37.277 10.19,-46.508 -25.75,110.758 -60.2,219.43 -103,324.699 -42.84,105.24 -93.7,207.34 -153.44,304.03 -118.95,193.6 -268.11,368.69 -441.46,515.45 -173.68,146.27 -370.3,264.87 -580.699,349.3 -105.425,41.62 -214.109,74.73 -324.707,99.04 -27.699,5.86 -55.234,12.55 -83.285,16.59 l -41.894,6.98 c -13.973,2.26 -27.875,4.98 -41.989,6.32 l -84.359,9.95 -84.75,5.92 c -6.816,0.36 -13.621,0.95 -20.445,1.12 l -20.4925,0.22 -40.9687,0.47 c 0.207,2.8 -0.1289,9.03 0.0351,11.83" /><path
           inkscape:connector-curvature="0"
           id="path134"
           style="fill:#ebd37f;fill-opacity:1;fill-rule:nonzero;stroke:none"
           d="m 2351.68,341.07 c -69.16,0.461 -72.69,-73.308 -72.69,-73.308 0,0 -4,75.297 -90.57,75.937 -86.46,0.653 -80.24,-73.597 -80.24,-73.597 0,0 -4.05,75.05 -75.47,75.468 -0.03,-12.07 38.99,-97.691 77.44,-181.34 19.5,-41.8 38.65,-82.8589 52.93,-113.4683 C 2177.67,20.1602 2187.29,0 2187.29,0 c 0,0 10.12,18.9492 25.59,47.9102 15.42,28.9414 36.06,67.8988 56.65,108.1098 41.24,80.332 82.08,166.191 82.15,185.05" /><path
           inkscape:connector-curvature="0"
           id="path136"
           style="fill:#d7bc5a;fill-opacity:1;fill-rule:nonzero;stroke:none"
           d="m 2108.18,270.102 c 0,0 -4.05,75.05 -75.47,75.468 -0.03,-12.07 38.99,-97.691 77.44,-181.34 19.5,-41.8 38.65,-82.8589 52.93,-113.4683 C 2177.67,20.1602 2187.29,0 2187.29,0 c 0,0 0.51,0.96875 1.44,2.71094 -15.32,56.82036 -35.14,123.82806 -51.53,176.46106 -16.32,52.648 -29.02,90.93 -29.02,90.93" /><path
           inkscape:connector-curvature="0"
           id="path138"
           style="fill:#e2c462;fill-opacity:1;fill-rule:nonzero;stroke:none"
           d="m 2231.6,122.512 -7.57,0.129 c 0,0 18.8,49.961 23.7,102.699 4.93,52.711 -4.23,108.289 -59.31,118.359 18.32,-1.367 87.17,-3.207 90.59,-72.179 -13.53,-44.301 -47.41,-149.008 -47.41,-149.008" /><path
           inkscape:connector-curvature="0"
           id="path140"
           style="fill:#f2a40f;fill-opacity:1;fill-rule:nonzero;stroke:none"
           d="m 2128.19,124.41 c 15.97,-33.828 30.66,-64.9412 41.36,-87.5897 C 2180.45,14.1797 2187.29,0 2187.29,0 c 0,0 7.44,13.9414 19.32,36.1719 11.74,22.2265 27.88,52.7578 45.41,85.9571 l -123.83,2.281" /><path
           inkscape:connector-curvature="0"
           id="path142"
           style="fill:#e17d18;fill-opacity:1;fill-rule:nonzero;stroke:none"
           d="M 2144.03,124.121 C 2167.57,55.2109 2187.29,0 2187.29,0 c 0,0 -6.79,53.0898 -14.07,123.582 l -29.19,0.539" /><path
           inkscape:connector-curvature="0"
           id="path144"
           style="fill:#fbc528;fill-opacity:1;fill-rule:nonzero;stroke:none"
           d="m 2199.17,123.102 c -3.74,-47.8012 -5.97,-88.9301 -5.97,-88.9301 0,0 11.86,35.7969 30.83,88.4691 l -24.86,0.461" /><path
           inkscape:connector-curvature="0"
           id="path146"
           style="fill:#ebd37f;fill-opacity:1;fill-rule:nonzero;stroke:none"
           d="m 82.5586,2576.64 c -11.4883,24.45 -23.3672,48.91 -35.6328,73.36 0,0 -11.1016,-17.86 -22.207,-35.72 C 13.9453,2596.41 3.17578,2578.54 3.17578,2578.54 L 0,2402.01 c 0,0 8.89063,-17.7 17.7813,-35.4 8.5937,-17.69 17.1875,-35.38 17.1875,-35.38 12.8945,21.19 26.1796,42.37 39.8593,63.55 l 7.7305,181.86" /><path
           inkscape:connector-curvature="0"
           id="path148"
           style="fill:#eb8215;fill-opacity:1;fill-rule:nonzero;stroke:none"
           d="m 36.1875,2532.8 c -4.1445,0.18 -8.1562,-5.76 -11.4102,-15.78 3.629,19.92 9.4961,33.03 15.6719,32.77 9.6328,-0.42 15.9414,-32.81 14.1524,-72.36 -0.9805,-22.32 -4.211,-42.14 -8.3907,-55.11 2.0469,11 3.5469,24.04 4.1368,38.12 1.7109,39.55 -4.6016,71.95 -14.1602,72.36" /><path
           inkscape:connector-curvature="0"
           id="path150"
           style="fill:#f2a40f;fill-opacity:1;fill-rule:nonzero;stroke:none"
           d="m 35.2617,2406.53 c -8.9219,0.4 -15.3281,32.8 -14.25,72.36 0.4024,14.08 1.7539,27.13 3.7656,38.13 3.254,10.02 7.2657,15.96 11.4102,15.78 9.5586,-0.41 15.8711,-32.81 14.1602,-72.36 -0.5899,-14.08 -2.0899,-27.12 -4.1368,-38.12 -3.2343,-10.02 -7.039,-15.96 -10.9492,-15.79" /><path
           inkscape:connector-curvature="0"
           id="path152"
           style="fill:#d7bc5a;fill-opacity:1;fill-rule:nonzero;stroke:none"
           d="m 47.6836,2649.99 c 0,0 -11.2969,-17.86 -22.5938,-35.72 C 14.1328,2596.4 3.17578,2578.54 3.17578,2578.54 L 0,2402.01 c 0,0 8.89063,-17.7 17.7813,-35.4 8.5937,-17.69 17.1875,-35.38 17.1875,-35.38 0,0 -7.125,18 -14.2461,36 -7.375,18.01 -14.75395,36.01 -14.75395,36.01 l 3.23828,175.16 c 0,0 9.47267,17.9 18.94927,35.8 9.7617,17.89 19.5273,35.79 19.5273,35.79" /><path
           inkscape:connector-curvature="0"
           id="path154"
           style="fill:#f04524;fill-opacity:1;fill-rule:nonzero;stroke:none"
           d="m 1933.29,337.609 c 0,0 -18.17,-20.617 -36.34,-41.238 -18.23,-20.43 -36.46,-40.859 -36.46,-40.859 l -175.28,-2.52 c 0,0 -17.68,22.477 -35.37,44.949 -17.76,22.258 -35.52,44.528 -35.52,44.528 l -0.06,26.191 -0.45,50.129 -0.4,19.531 -0.64,17.512 -0.33,4.609 -0.05,1.141 -0.01,0.289 16.51,1.969 c 31.79,3.379 -20.06,-1.86 -16.56,-1.258 l -0.08,0.598 -0.62,4.781 -2.47,19.141 c -3.43,25.488 -5.9,51.14 -10.95,76.367 -17.02,101.441 -43.75,201.179 -79.76,297.472 -71.9,192.639 -181.19,371.319 -319.71,523.649 -138.21,152.68 -306.404,277.86 -491.353,367.66 -184.992,89.92 -387.086,143.71 -592.512,157.89 -13.066,0.87 -26.1172,2.01 -39.1953,2.7 l -39.3125,0.89 9.9805,318.83 45.4179,-1.12 45.3514,-3.1 c 246.887,-17.02 490.875,-82.18 713.446,-190.99 111.328,-54.31 217.387,-119.31 316.317,-193.74 98.9,-74.49 190.4,-158.67 273.28,-250.57 165.79,-183.79 296.3,-399.49 381.5,-632.2 42.66,-116.301 74.07,-236.758 93.65,-359.031 2.95,-15.207 4.6,-30.598 6.63,-45.938 l 5.86,-46.062 1.45,-11.508 0.36,-2.879 0.34,-4.082 0.63,-8.328 c 0.97,-12.352 1.02,-19.082 1.39,-27.762 l 0.61,-23.602 0.36,-22.597 0.35,-71.442" /><path
           inkscape:connector-curvature="0"
           id="path156"
           style="fill:#f2592b;fill-opacity:1;fill-rule:nonzero;stroke:none"
           d="m 1933.29,341.059 c 0,0 -18.16,-20.668 -36.32,-41.34 -18.23,-20.489 -36.46,-40.969 -36.46,-40.969 0.26,39.398 0.43,78.809 0.21,118.609 l -0.26,30.961 -0.39,24.039 c -0.14,7.993 -0.33,16.153 -0.7,24.782 l -0.55,13.011 -1.09,15.188 c -0.91,9.039 -2.01,16.402 -3.01,24.672 l -6.17,48.367 c -1.76,16.16 -4.89,32.133 -7.64,48.152 l -8.46,48.028 c -6.53,31.832 -13.87,63.531 -21.2,95.203 -64.09,252.048 -180.28,491.078 -341.26,695.348 -80.38,102.17 -171.19,196.09 -270.6,279.86 -99.32,83.91 -208.171,156.36 -322.82,217.64 -114.8,61.01 -235.816,110.67 -360.941,146.32 -125.121,35.57 -253.922,58.06 -383.566,67.1 l -43.9927,3.02 -44.0703,1.06 2.3711,72.45 45.4062,-1.12 45.3397,-3.1 c 245.914,-16.95 488.957,-81.66 710.805,-189.73 221.938,-107.86 423.008,-258.25 588.368,-441.19 165.67,-182.6 296.41,-396.96 382.29,-628.369 42.99,-115.653 74.84,-235.469 94.97,-357.16 5.94,-30.289 8.72,-61.032 12.92,-91.571 l 2.89,-22.941 c 0.25,-1.559 0.48,-4.547 0.69,-7.32 l 0.62,-8.297 0.57,-8.313 0.29,-6.578 0.83,-24.461 0.47,-22.879 0.46,-78.472" /><path
           inkscape:connector-curvature="0"
           id="path158"
           style="fill:#ed3c1f;fill-opacity:1;fill-rule:nonzero;stroke:none"
           d="m 1689.58,259.211 c 0,0 -18.77,21.699 -37.55,43.391 -18.85,21.48 -37.71,42.957 -37.71,42.957 l -0.07,26.062 -0.07,15.809 -0.55,39.949 -0.51,18.601 -0.31,8.7 -0.34,5.14 -0.06,1.141 -0.02,0.57 c 1.25,0.321 -5.44,-0.191 12.84,1.879 28.46,3.07 -15.58,-1.469 -12.88,-0.949 l -0.08,0.598 -0.16,1.191 -0.31,2.379 -1.23,9.543 -2.45,19.066 -4.83,38.141 c -1.75,12.703 -4.35,25.25 -6.45,37.891 -17.44,100.98 -44.52,200.218 -80.78,296.019 -72.42,191.641 -181.89,369.291 -320.3,520.711 -138.33,151.53 -306.006,276.01 -490.416,365.22 -184.426,89.35 -385.797,142.79 -590.469,156.92 -13.066,0.87 -26.1172,2.01 -39.1953,2.7 l -39.3125,0.89 2.043,64.53 40.5586,-0.48 40.4722,-2.33 c 117.293,-7.76 233.719,-27.66 346.907,-59.39 113.175,-31.83 222.699,-76.39 326.754,-131.23 103.882,-55.12 202.753,-120.3 292.938,-196.13 90.3,-75.64 172.9,-160.53 246.08,-252.94 146.52,-184.84 252.45,-401.229 311.3,-629.69 6.52,-28.769 13.52,-57.449 19.4,-86.359 l 7.8,-43.57 c 2.63,-14.532 5.42,-29.032 7.03,-43.711 l 5.76,-43.91 1.45,-10.981 c 0.43,-3.48 1.14,-7.848 1.17,-10.09 l 0.6,-8.14 0.43,-10.528 0.66,-21.82 0.43,-22.512 0.39,-28.57 c 0.63,-38.629 0.88,-77.637 1.04,-116.668" /><path
           inkscape:connector-curvature="0"
           id="path160"
           style="fill:#f25838;fill-opacity:1;fill-rule:nonzero;stroke:none"
           d="m 38.4961,1990.09 c 12.7656,-0.3 25.7461,-0.59 39.2734,-0.9 13.5118,-0.6 27.5195,-1.98 42.4185,-3.03 9.164,-0.67 21.066,-1.54 33.113,-2.41 62.621,-6.65 141.008,-15.54 228.226,-36.4 87.274,-20.12 183.77,-49.64 282.192,-91.39 98.429,-41.59 198.66,-95.36 293.726,-159.95 95.025,-64.64 184.255,-140.61 263.255,-222.17 79.07,-81.55 147.62,-168.92 203.64,-255.15 56.15,-86.21 99.71,-171.15 132.6,-247.042 65.97,-152.089 89.56,-266.777 94.44,-295.429 -20.64,87.429 -48.07,173.211 -82.04,256.34 -34,83.131 -75.44,163.111 -122.3,239.631 -93.91,152.92 -211.72,291.36 -348.95,406.89 -273.02,232.89 -621.348,374.47 -978.641,396.48 l -40.4802,2.27 -40.5586,0.43 c 0.2187,2.8 -0.0899,9.02 0.0859,11.83" /><path
           inkscape:connector-curvature="0"
           id="path162"
           style="fill:#ebd37f;fill-opacity:1;fill-rule:nonzero;stroke:none"
           d="m 1933.29,341.059 c -69.15,0.453 -72.72,-73.368 -72.72,-73.368 0,0 -3.96,75.368 -90.54,76 -43.27,0.321 -63.24,-18.043 -72.52,-36.48 -9.26,-18.449 -7.75,-37.051 -7.75,-37.051 0,0 -4.01,75 -75.44,75.399 -0.01,-12.008 38.96,-97.528 77.3,-181.219 19.43,-41.82 38.53,-82.9103 52.76,-113.5392 C 1758.94,20.1719 1768.53,0 1768.53,0 c 0,0 10.15,18.9414 25.65,47.8789 15.46,28.9102 36.16,67.8321 56.81,108.0431 41.35,80.269 82.25,166.207 82.3,185.137" /><path
           inkscape:connector-curvature="0"
           id="path164"
           style="fill:#d7bc5a;fill-opacity:1;fill-rule:nonzero;stroke:none"
           d="m 1689.76,270.16 c 0,0 -4.01,75 -75.44,75.399 -0.01,-12.008 38.96,-97.528 77.3,-181.219 19.43,-41.82 38.53,-82.9103 52.76,-113.5392 C 1758.94,20.1719 1768.53,0 1768.53,0 c 0,0 0.52,0.96875 1.45,2.71094 -15.26,56.83986 -34.97,123.89106 -51.29,176.51906 -16.25,52.668 -28.93,90.93 -28.93,90.93" /><path
           inkscape:connector-curvature="0"
           id="path166"
           style="fill:#e2c462;fill-opacity:1;fill-rule:nonzero;stroke:none"
           d="m 1813.01,122.441 -7.57,0.149 c 0,0 18.87,49.93 23.83,102.691 4.99,52.719 -4.15,108.348 -59.24,118.41 18.31,-1.359 87.19,-3.211 90.57,-72.242 -13.56,-44.328 -47.59,-149.008 -47.59,-149.008" /><path
           inkscape:connector-curvature="0"
           id="path168"
           style="fill:#f04524;fill-opacity:1;fill-rule:nonzero;stroke:none"
           d="m 1709.6,124.5 c 15.92,-33.8516 30.57,-64.9805 41.23,-87.6484 C 1761.71,14.1992 1768.53,0 1768.53,0 c 0,0 7.46,13.9297 19.36,36.1484 11.78,22.2227 27.96,52.7305 45.54,85.8906 L 1709.6,124.5" /><path
           inkscape:connector-curvature="0"
           id="path170"
           style="fill:#d42e23;fill-opacity:1;fill-rule:nonzero;stroke:none"
           d="M 1725.44,124.18 C 1737.31,89.7109 1748,58.6602 1755.72,36.2305 1763.65,13.8086 1768.53,0 1768.53,0 c 0,0 -6.72,53.1094 -13.9,123.602 l -29.19,0.578" /><path
           inkscape:connector-curvature="0"
           id="path172"
           style="fill:#f46c41;fill-opacity:1;fill-rule:nonzero;stroke:none"
           d="m 1780.58,123.09 c -3.81,-47.8009 -6.11,-88.9298 -6.11,-88.9298 0,0 11.92,35.789 30.97,88.4298 l -24.86,0.5" /><path
           inkscape:connector-curvature="0"
           id="path174"
           style="fill:#ebd37f;fill-opacity:1;fill-rule:nonzero;stroke:none"
           d="m 83.2617,2159.17 c -11.3984,24.44 -23.2734,48.9 -35.625,73.36 0,0 -11.3125,-17.86 -22.625,-35.72 C 14.1094,2178.93 3.20313,2161.06 3.20313,2161.06 L 0,1984.53 c 0,0 8.77344,-17.69 17.543,-35.39 8.4062,-17.68 16.8164,-35.36 16.8164,-35.36 12.7578,21.2 25.9961,42.4 39.7148,63.58 l 9.1875,181.81" /><path
           inkscape:connector-curvature="0"
           id="path176"
           style="fill:#ed3c1f;fill-opacity:1;fill-rule:nonzero;stroke:none"
           d="m 36.3398,2115.33 c -4.164,0.18 -8.2109,-5.75 -11.5,-15.78 3.6875,19.92 9.6329,33.03 15.8477,32.77 9.6992,-0.41 15.8633,-32.8 13.8438,-72.35 -1.1094,-22.31 -4.4375,-42.13 -8.6485,-55.1 2.086,11 3.6445,24.04 4.3086,38.12 1.9297,39.54 -4.2383,71.94 -13.8516,72.34" /><path
           inkscape:connector-curvature="0"
           id="path178"
           style="fill:#f04524;fill-opacity:1;fill-rule:nonzero;stroke:none"
           d="m 34.9492,1989.07 c -8.8281,0.4 -15.1133,32.79 -13.9609,72.35 0.4297,14.08 1.8086,27.13 3.8515,38.13 3.2891,10.03 7.336,15.96 11.5,15.78 9.6133,-0.4 15.7813,-32.8 13.8516,-72.34 -0.6641,-14.08 -2.2226,-27.12 -4.3086,-38.12 -3.2617,-10.03 -7.0625,-15.97 -10.9336,-15.8" /><path
           inkscape:connector-curvature="0"
           id="path180"
           style="fill:#d7bc5a;fill-opacity:1;fill-rule:nonzero;stroke:none"
           d="m 48.4063,2232.51 c 0,0 -11.5079,-17.86 -23.0157,-35.71 C 14.2969,2178.93 3.20313,2161.06 3.20313,2161.06 L 0,1984.53 c 0,0 8.77344,-17.69 17.543,-35.39 8.4062,-17.68 16.8164,-35.36 16.8164,-35.36 0,0 -6.9571,17.99 -13.9141,35.99 -7.2656,18 -14.53124,36 -14.53124,36 l 3.3711,175.15 c 0,0 9.60154,17.9 19.20314,35.81 9.9609,17.89 19.918,35.78 19.918,35.78" /><path
           inkscape:connector-curvature="0"
           id="path182"
           style="fill:#e81d24;fill-opacity:1;fill-rule:nonzero;stroke:none"
           d="m 1513.78,337.582 c 0,0 -18.18,-20.684 -36.36,-41.363 -18.27,-20.449 -36.53,-40.887 -36.53,-40.887 l -175.28,-2.172 c 0,0 -17.65,22.461 -35.3,44.922 -17.75,22.188 -35.49,44.367 -35.49,44.367 l -0.07,26.02 -0.42,40.793 -0.69,28.609 -0.6,12.168 -0.13,3.043 c -0.05,1.066 -0.11,0.867 -0.15,1.359 l -0.14,1.981 -8.27,52.91 c -13.19,73.219 -33.14,145.168 -59.8,214.59 -53.16,138.898 -132.648,267.726 -232.761,377.988 -100.023,110.33 -220.578,202.02 -353.609,268.61 -132.969,66.78 -278.356,108.12 -426.742,121.53 -25.3833,1.37 -50.6567,4.32 -76.1372,4.25 l 12.1875,318.77 23.2656,-0.57 23.2461,-1.54 46.477,-3.26 c 188.515,-16.98 374.113,-70.05 543.242,-155.38 169.258,-85.15 322.101,-202.15 448.661,-342.86 126.56,-140.65 227.25,-304.98 293.46,-482.62 33.23,-88.738 58.1,-180.621 74.2,-273.942 l 5.58,-35.066 2.76,-17.543 0.35,-2.238 0.37,-3.449 0.71,-6.911 1.25,-13.832 c 0.76,-13.589 1.45,-26.871 1.66,-38.097 l 0.46,-17.492 0.23,-16.758 0.37,-65.93" /><path
           inkscape:connector-curvature="0"
           id="path184"
           style="fill:#ee2833;fill-opacity:1;fill-rule:nonzero;stroke:none"
           d="m 1513.79,341.051 c 0,0 -18.18,-20.742 -36.35,-41.481 -18.26,-20.5 -36.52,-40.988 -36.52,-40.988 0.33,39.449 0.55,78.918 0.27,118.898 l -0.25,25.149 c -0.11,11.801 -0.39,23.91 -0.75,36.18 -0.11,5.941 -0.42,12.429 -0.75,18.98 l -0.48,9.742 c -0.09,2.918 -0.62,7.789 -0.95,11.59 l -1.22,11.938 -1.44,9.113 -2.88,18.219 -5.82,36.429 -7.37,36.149 c -2.6,12.023 -4.74,24.14 -7.75,36.07 l -9.1,35.762 c -49.24,190.668 -139.62,370.109 -260.69,525.009 -121.11,155.05 -274.58,284.31 -446.963,379.08 -172.855,94 -365,152.7 -560.898,170.63 l -44.6134,3.12 -22.3125,1.46 -22.3398,0.54 2.8984,72.43 23.2617,-0.57 23.2344,-1.54 46.4692,-3.26 c 187.765,-16.94 372.668,-69.58 541.257,-154.35 168.719,-84.57 321.196,-200.78 447.636,-340.59 126.54,-139.71 227.05,-303.13 294.2,-479.608 33.52,-88.242 58.7,-179.652 75.22,-272.523 l 5.59,-34.93 2.76,-17.469 1.37,-8.73 c 0.21,-1.07 0.49,-4 0.72,-6.129 l 0.7,-6.879 1.23,-13.781 0.49,-9.762 0.85,-19.07 0.8,-34.457 0.42,-42.762 0.07,-27.609" /><path
           inkscape:connector-curvature="0"
           id="path186"
           style="fill:#cd1e25;fill-opacity:1;fill-rule:nonzero;stroke:none"
           d="m 1269.99,259.371 c 0,0 -18.75,21.68 -37.49,43.348 -18.84,21.402 -37.68,42.801 -37.68,42.801 l -0.09,25.89 -0.5,44.352 -0.38,14.136 -0.19,7.071 -0.29,6.16 -0.29,6.062 -0.14,3.039 -0.06,1.442 -0.08,0.488 -0.17,1.969 -0.01,0.5 40.98,5.902 10.87,1.68 c 56.02,7.668 -63.07,-8.41 -51.86,-6.723 l -0.14,0.864 -0.28,1.718 -8.87,54.891 c -13.52,72.879 -33.84,144.43 -60.62,213.5 C 1069.19,866.629 989.605,994.73 889.578,1104.32 789.645,1214 669.363,1305.11 536.73,1371.28 c -132.574,66.38 -277.457,107.37 -425.292,120.77 -25.3833,1.37 -50.6567,4.32 -76.1372,4.25 l 2.4648,64.51 19.9375,-0.21 c 6.6407,-0.17 13.2617,-0.72 19.8946,-1.06 l 39.8003,-2.29 c 171.762,-14.93 340.059,-65.5 492.137,-147.17 151.512,-82.53 287.102,-195.42 394.155,-331.42 107.09,-135.808 187.27,-293.262 231.23,-460.91 l 8.19,-31.441 c 2.62,-10.5 4.57,-21.168 6.9,-31.75 2.18,-10.598 4.61,-21.168 6.63,-31.809 l 5.25,-32.078 2.64,-16.051 1.25,-7.789 0.45,-5.172 c 0.42,-2.691 0.61,-8.91 0.9,-13.691 0.31,-4.93 0.54,-10.188 0.67,-15.789 0.39,-10.828 0.67,-21.91 0.83,-33.239 l 0.38,-23.199 c 0.69,-38.453 0.89,-77.402 0.98,-116.371" /><path
           inkscape:connector-curvature="0"
           id="path188"
           style="fill:#ee2833;fill-opacity:1;fill-rule:nonzero;stroke:none"
           d="m 37.9336,1572.64 c 25.1953,0.14 51.0781,-2.8 80.4414,-4.71 6.719,-0.62 15.406,-1.8 24.223,-2.81 91.765,-10.13 229.476,-36.17 373.519,-99.76 71.91,-31.51 145.059,-71.91 214.418,-120.05 69.41,-48.05 134.973,-103.81 192.992,-163.81 116.513,-120.02 199.623,-257.309 247.693,-368.762 24.04,-55.816 41.48,-104.597 51.99,-142.347 11.56,-37.461 16.27,-63.809 18.45,-74.332 -15.54,64.132 -36.67,126.832 -62.42,187.5 -25.69,60.691 -56,119.402 -90.58,175.48 -69.15,112.231 -156.601,212.811 -256.336,298.561 -99.742,85.94 -213.511,154.9 -334.324,206.04 -120.934,51.28 -250.055,81.7 -380.594,93.72 l -39.8044,2.23 c -6.6368,0.33 -13.2539,0.88 -19.8985,1.04 l -19.9375,0.18 c 0.2344,2.81 -0.0234,9.03 0.168,11.83" /><path
           inkscape:connector-curvature="0"
           id="path190"
           style="fill:#ebd37f;fill-opacity:1;fill-rule:nonzero;stroke:none"
           d="m 1513.79,341.051 c -34.63,0.301 -52.69,-18.27 -62.28,-36.641 -9.55,-18.418 -10.52,-36.879 -10.52,-36.879 0,0 -0.91,18.828 -12.71,37.809 -11.76,18.98 -34.52,38.039 -77.75,38.34 -43.28,0.308 -63.24,-18 -72.54,-36.41 -9.28,-18.399 -7.81,-36.969 -7.81,-36.969 0,0 -0.93,18.738 -10.84,37.519 -9.89,18.809 -28.86,37.45 -64.52,37.711 0.01,-11.883 38.9,-97.152 76.97,-180.949 19.28,-41.852 38.24,-83.0117 52.39,-113.7031 C 1338.66,20.2109 1348.2,0 1348.2,0 c 0,0 10.2,18.9219 25.76,47.8086 15.56,28.8516 36.4,67.7034 57.17,107.8634 41.61,80.16 82.63,166.289 82.66,185.379" /><path
           inkscape:connector-curvature="0"
           id="path192"
           style="fill:#d7bc5a;fill-opacity:1;fill-rule:nonzero;stroke:none"
           d="m 1270.18,270.301 c 0,0 -0.93,18.738 -10.84,37.519 -9.9,18.809 -28.86,37.45 -64.52,37.711 0.01,-11.883 38.9,-97.152 76.97,-180.949 19.28,-41.852 38.24,-83.0117 52.39,-113.7031 C 1338.66,20.2109 1348.2,0 1348.2,0 c 0,0 0.52,0.96875 1.45,2.71094 C 1334.5,59.6016 1315.08,126.73 1298.9,179.379 c -16.1,52.703 -28.72,90.922 -28.72,90.922" /><path
           inkscape:connector-curvature="0"
           id="path194"
           style="fill:#e2c462;fill-opacity:1;fill-rule:nonzero;stroke:none"
           d="m 1393.04,122.309 -7.56,0.171 c 0,0 19.04,49.872 24.12,102.649 5.13,52.742 -3.97,108.512 -59.07,118.551 18.29,-1.34 87.22,-3.211 90.49,-72.391 -13.61,-44.391 -47.98,-148.98 -47.98,-148.98" /><path
           inkscape:connector-curvature="0"
           id="path196"
           style="fill:#ee2431;fill-opacity:1;fill-rule:nonzero;stroke:none"
           d="m 1289.64,124.699 c 15.8,-33.8904 30.35,-65.0779 40.94,-87.7888 C 1341.41,14.2188 1348.2,0 1348.2,0 c 0,0 29.83,55.6914 65.26,121.832 l -123.82,2.867" /><path
           inkscape:connector-curvature="0"
           id="path198"
           style="fill:#d11e25;fill-opacity:1;fill-rule:nonzero;stroke:none"
           d="m 1305.48,124.332 c 11.75,-34.5117 22.34,-65.6015 29.99,-88.0625 C 1343.35,13.832 1348.2,0 1348.2,0 c 0,0 -1.59,13.2813 -4.23,35.3906 -2.33,22.0899 -5.59,53 -9.3,88.2694 l -29.19,0.672" /><path
           inkscape:connector-curvature="0"
           id="path200"
           style="fill:#f2516e;fill-opacity:1;fill-rule:nonzero;stroke:none"
           d="m 1360.61,123.059 c -3.97,-47.7895 -6.39,-88.9106 -6.39,-88.9106 0,0 12.03,35.7422 31.26,88.3316 l -24.87,0.579" /><path
           inkscape:connector-curvature="0"
           id="path202"
           style="fill:#ebd37f;fill-opacity:1;fill-rule:nonzero;stroke:none"
           d="m 84.3984,1740.97 c -11.2226,25.2 -23.0937,49.67 -35.5859,74.07 0,0 -11.9531,-17.84 -23.3164,-35.71 -11.418,-17.86 -22.25001,-35.75 -22.25001,-35.75 L 0,1567.05 c 0,0 8.83594,-17.69 17.1484,-35.37 8.3633,-17.68 16.1993,-35.33 16.1993,-35.33 12.5312,21.16 25.7109,42.7 39.4453,63 l 11.6054,181.62" /><path
           inkscape:connector-curvature="0"
           id="path204"
           style="fill:#df1d25;fill-opacity:1;fill-rule:nonzero;stroke:none"
           d="m 36.5898,1697.87 c -4.1914,0.17 -8.2968,-5.76 -11.6406,-15.78 3.7813,19.91 9.8516,33.02 16.1289,32.76 9.8125,-0.41 15.7383,-32.79 13.336,-72.32 -1.3164,-22.31 -4.8086,-42.12 -9.0782,-55.1 2.1563,11 3.8164,24.04 4.6016,38.11 2.2813,39.54 -3.6484,71.92 -13.3477,72.33" /><path
           inkscape:connector-curvature="0"
           id="path206"
           style="fill:#ee2532;fill-opacity:1;fill-rule:nonzero;stroke:none"
           d="m 34.4297,1571.63 c -8.6719,0.38 -14.7539,32.77 -13.4844,72.33 0.4805,14.08 1.9063,27.12 4.0039,38.13 3.3438,10.02 7.4492,15.95 11.6406,15.78 9.6993,-0.41 15.629,-32.79 13.3477,-72.33 -0.7852,-14.07 -2.4453,-27.11 -4.6016,-38.11 -3.3086,-10.03 -7.0898,-15.97 -10.9062,-15.8" /><path
           inkscape:connector-curvature="0"
           id="path208"
           style="fill:#d7bc5a;fill-opacity:1;fill-rule:nonzero;stroke:none"
           d="m 49.5977,1815.02 c 0,0 -12.1563,-17.83 -23.7149,-35.7 C 14.2656,1761.46 3.24609,1743.58 3.24609,1743.58 L 0,1567.05 c 0,0 8.83594,-17.69 17.1484,-35.37 8.3633,-17.68 16.1993,-35.33 16.1993,-35.33 0,0 -6.6797,17.98 -13.3594,35.95 -7.082,18 -14.16408,35.99 -14.16408,35.99 l 3.59375,175.15 c 0,0 9.81253,17.91 19.62503,35.81 10.2773,17.89 20.5547,35.77 20.5547,35.77" /></g></g></g></svg>