<?xml version="1.0" encoding="UTF-8" standalone="no"?>
<svg
   xmlns:osb="http://www.openswatchbook.org/uri/2009/osb"
   xmlns:dc="http://purl.org/dc/elements/1.1/"
   xmlns:cc="http://creativecommons.org/ns#"
   xmlns:rdf="http://www.w3.org/1999/02/22-rdf-syntax-ns#"
   xmlns:svg="http://www.w3.org/2000/svg"
   xmlns="http://www.w3.org/2000/svg"
   xmlns:sodipodi="http://sodipodi.sourceforge.net/DTD/sodipodi-0.dtd"
   xmlns:inkscape="http://www.inkscape.org/namespaces/inkscape"
   width="11in"
   height="8.5in"
   viewBox="0 0 990 765"
   id="svg2"
   version="1.1"
   inkscape:version="1.0.1 (3bc2e813f5, 2020-09-07)"
   sodipodi:docname="Strokes.svg">
  <defs
     id="defs4">
    <marker
       style="overflow:visible;"
       id="marker3960"
       refX="0.0"
       refY="0.0"
       orient="auto"
       inkscape:stockid="Arrow1Mend"
       inkscape:isstock="true">
      <path
         transform="scale(0.4) rotate(180) translate(10,0)"
         style="fill-rule:evenodd;stroke:#000000;stroke-width:1pt;stroke-opacity:1;fill:#000000;fill-opacity:1"
         d="M 0.0,0.0 L 5.0,-5.0 L -12.5,0.0 L 5.0,5.0 L 0.0,0.0 z "
         id="path3958" />
    </marker>
    <marker
       style="overflow:visible"
       id="StopL"
       refX="0.0"
       refY="0.0"
       orient="auto"
       inkscape:stockid="StopL"
       inkscape:isstock="true">
      <path
         transform="scale(0.8)"
         style="fill:none;fill-opacity:0.75;fill-rule:evenodd;stroke:#000000;stroke-width:1pt;stroke-opacity:1"
         d="M 0.0,5.65 L 0.0,-5.65"
         id="path3067" />
    </marker>
    <marker
       style="overflow:visible"
       id="DiamondM"
       refX="0.0"
       refY="0.0"
       orient="auto"
       inkscape:stockid="DiamondM"
       inkscape:isstock="true">
      <path
         transform="scale(0.4)"
         style="fill-rule:evenodd;stroke:#000000;stroke-width:1pt;stroke-opacity:1;fill:#000000;fill-opacity:1"
         d="M 0,-7.0710768 L -7.0710894,0 L 0,7.0710589 L 7.0710462,0 L 0,-7.0710768 z "
         id="path2980" />
    </marker>
    <marker
       style="overflow:visible"
       id="DiamondSstart"
       refX="0.0"
       refY="0.0"
       orient="auto"
       inkscape:stockid="DiamondSstart"
       inkscape:isstock="true">
      <path
         transform="scale(0.2) translate(6,0)"
         style="fill-rule:evenodd;stroke:#000000;stroke-width:1pt;stroke-opacity:1;fill:#000000;fill-opacity:1"
         d="M 0,-7.0710768 L -7.0710894,0 L 0,7.0710589 L 7.0710462,0 L 0,-7.0710768 z "
         id="path2992" />
    </marker>
    <marker
       style="overflow:visible"
       id="DotS"
       refX="0.0"
       refY="0.0"
       orient="auto"
       inkscape:stockid="DotS"
       inkscape:isstock="true">
      <path
         transform="scale(0.2) translate(7.4, 1)"
         style="fill-rule:evenodd;stroke:#000000;stroke-width:1pt;stroke-opacity:1;fill:#000000;fill-opacity:1"
         d="M -2.5,-1.0 C -2.5,1.7600000 -4.7400000,4.0 -7.5,4.0 C -10.260000,4.0 -12.5,1.7600000 -12.5,-1.0 C -12.5,-3.7600000 -10.260000,-6.0 -7.5,-6.0 C -4.7400000,-6.0 -2.5,-3.7600000 -2.5,-1.0 z "
         id="path2965" />
    </marker>
    <marker
       style="overflow:visible"
       id="DotM"
       refX="0.0"
       refY="0.0"
       orient="auto"
       inkscape:stockid="DotM"
       inkscape:isstock="true">
      <path
         transform="scale(0.4) translate(7.4, 1)"
         style="fill-rule:evenodd;stroke:#000000;stroke-width:1pt;stroke-opacity:1;fill:#000000;fill-opacity:1"
         d="M -2.5,-1.0 C -2.5,1.7600000 -4.7400000,4.0 -7.5,4.0 C -10.260000,4.0 -12.5,1.7600000 -12.5,-1.0 C -12.5,-3.7600000 -10.260000,-6.0 -7.5,-6.0 C -4.7400000,-6.0 -2.5,-3.7600000 -2.5,-1.0 z "
         id="path2962" />
    </marker>
    <marker
       style="overflow:visible;"
       id="Arrow1Mend"
       refX="0.0"
       refY="0.0"
       orient="auto"
       inkscape:stockid="Arrow1Mend"
       inkscape:isstock="true">
      <path
         transform="scale(0.4) rotate(180) translate(10,0)"
         style="fill-rule:evenodd;stroke:#000000;stroke-width:1pt;stroke-opacity:1;fill:#000000;fill-opacity:1"
         d="M 0.0,0.0 L 5.0,-5.0 L -12.5,0.0 L 5.0,5.0 L 0.0,0.0 z "
         id="path2907" />
    </marker>
    <linearGradient
       id="linearGradient6984"
       osb:paint="solid">
      <stop
         style="stop-color:#2b1100;stop-opacity:0.40392157;"
         offset="0"
         id="stop6986" />
    </linearGradient>
    <linearGradient
       id="linearGradient5846"
       osb:paint="solid">
      <stop
         style="stop-color:#2b0000;stop-opacity:1;"
         offset="0"
         id="stop5848" />
    </linearGradient>
  </defs>
  <sodipodi:namedview
     id="base"
     pagecolor="#ffffff"
     bordercolor="#666666"
     borderopacity="1.0"
     inkscape:pageopacity="0.0"
     inkscape:pageshadow="2"
     inkscape:zoom="0.62132353"
     inkscape:cx="528"
     inkscape:cy="408"
     inkscape:document-units="px"
     inkscape:current-layer="layer1"
     showgrid="false"
     units="in"
     inkscape:window-width="1280"
     inkscape:window-height="697"
     inkscape:window-x="-8"
     inkscape:window-y="-8"
     inkscape:window-maximized="1"
     inkscape:document-rotation="0" />
  <metadata
     id="metadata7">
    <rdf:RDF>
      <cc:Work
         rdf:about="">
        <dc:format>image/svg+xml</dc:format>
        <dc:type
           rdf:resource="http://purl.org/dc/dcmitype/StillImage" />
        <dc:title />
      </cc:Work>
    </rdf:RDF>
  </metadata>
  <g
     inkscape:label="Layer 1"
     inkscape:groupmode="layer"
     id="layer1"
     transform="translate(0,-287.3622)">
    <path
       id="rect6990"
       style="opacity:1;fill:#ff6600;fill-opacity:1;stroke:none;stroke-width:0;stroke-linecap:butt;stroke-linejoin:miter;stroke-miterlimit:4;stroke-dasharray:none;stroke-dashoffset:0;stroke-opacity:1;paint-order:normal"
       d="m 266.46289,348.91602 c 0,148.91731 0,297.83463 0,446.75195 151.50391,0 303.00781,0 454.51172,0 0,-149.54232 0,-299.08464 0,-448.62695 -151.50391,0 -303.00781,0 -454.51172,0 0,0.625 0,1.25 0,1.875 z" />
    <path
       inkscape:connector-curvature="0"
       id="path118"
       style="fill:#ffffff;fill-opacity:1;fill-rule:evenodd;stroke:none"
       d="m 428.37072,682.54183 25.38393,0 7.88197,-37.27008 64.36642,0 7.88418,37.27008 25.37737,0 c 2.2272,0 4.04485,1.82255 4.04485,4.04649 l 0,5.65208 c 0,2.22395 -1.81765,4.04107 -4.04485,4.04107 l -130.89387,0 c -2.22503,0 -4.04267,-1.81712 -4.04267,-4.04107 l 0,-5.65208 c 0,-2.22394 1.81764,-4.04649 4.04267,-4.04649" />
    <path
       inkscape:connector-curvature="0"
       id="path120"
       style="fill:#cdccca;fill-opacity:1;fill-rule:evenodd;stroke:none"
       d="m 466.23639,645.27175 59.76665,0 7.88418,37.27008 25.37737,0 c 2.2272,0 4.04485,1.82255 4.04485,4.04649 l 0,5.65208 c 0,2.22395 -1.81765,4.04107 -4.04485,4.04107 l -51.69535,0 -46.82489,-46.77338 5.49204,-4.23634" />
    <path
       inkscape:connector-curvature="0"
       id="path122"
       style="fill:#ffffff;fill-opacity:1;fill-rule:evenodd;stroke:none"
       d="m 355.60486,649.50809 276.42993,0 c 4.95348,0 9.00266,-4.30686 9.00266,-9.56297 l 0,-169.04701 c 0,-5.2561 -4.04918,-9.56297 -9.00266,-9.56297 l -276.42993,0 c -4.95126,0 -9.00266,4.30687 -9.00266,9.56297 l 0,169.04701 c 0,5.25611 4.0514,9.56297 9.00266,9.56297" />
    <path
       inkscape:connector-curvature="0"
       id="path124"
       style="fill:#f36717;fill-opacity:1;fill-rule:evenodd;stroke:none"
       d="m 358.06097,623.6615 271.5221,0 c 2.29281,0 4.168,-1.87679 4.168,-4.17668 l 0,-142.91293 c 0,-2.29446 -1.87519,-4.17126 -4.168,-4.17126 l -271.5221,0 c -2.2972,0 -4.17234,1.8768 -4.17234,4.17126 l 0,142.91293 c 0,2.29989 1.87514,4.17668 4.17234,4.17668" />
    <path
       inkscape:connector-curvature="0"
       id="path126"
       style="fill:#f36717;fill-opacity:1;fill-rule:evenodd;stroke:none"
       d="m 493.81983,640.75334 c 2.64868,0 4.80372,-2.15886 4.80372,-4.80047 0,-2.65246 -2.15504,-4.80589 -4.80372,-4.80589 -2.64648,0 -4.80156,2.15343 -4.80156,4.80589 0,2.64161 2.15508,4.80047 4.80156,4.80047" />
    <path
       style="fill:none;stroke:#000000;stroke-width:1.25;stroke-linecap:butt;stroke-linejoin:miter;stroke-miterlimit:4;stroke-dasharray:none;stroke-opacity:1;stroke-dashoffset:0"
       d="m 268.33847,850.04297 h 450.7615"
       id="path3956" />
  </g>
</svg>
